<?xml version="1.0" encoding="UTF-8"?><svg id="Calque_1" xmlns="http://www.w3.org/2000/svg" xmlns:xlink="http://www.w3.org/1999/xlink" viewBox="0 0 1189.59 1005.26"><defs><style>.cls-1,.cls-2{fill:none;}.cls-3{fill:#fff;}.cls-4{fill:#fe9c87;}.cls-5{fill:#231f20;}.cls-6{fill:#9adbba;}.cls-2{clip-path:url(#clippath);}</style><clipPath id="clippath"><polygon class="cls-1" points="1154.11 791.9 1044.21 762.45 934.31 733 963.76 842.9 993.21 952.8 1047.11 879.54 1101.34 933.78 1135.08 900.03 1080.85 845.8 1154.11 791.9"/></clipPath></defs><rect class="cls-4" x="722.02" y="637.73" width="282.77" height="282.77"/><circle class="cls-6" cx="164.22" cy="218.82" r="141.01"/><path class="cls-3" d="m195.3,320.22h938.07v482.1c0,14.27-11.57,25.83-25.83,25.83H221.14c-14.27,0-25.83-11.57-25.83-25.83v-482.1h0Z"/><path class="cls-5" d="m1107.54,829.43H221.14c-14.95,0-27.11-12.16-27.11-27.11v-483.38h940.63v483.38c0,14.95-12.16,27.11-27.11,27.11ZM196.58,321.49v480.83c0,13.54,11.02,24.56,24.55,24.56h886.4c13.54,0,24.56-11.02,24.56-24.56v-480.83H196.58Z"/><path class="cls-5" d="m221.14,207.79h886.4c14.27,0,25.83,11.57,25.83,25.83v86.59H195.3v-86.59c0-14.27,11.57-25.83,25.83-25.83h0Z"/><path class="cls-5" d="m1134.65,321.49H194.03v-87.87c0-14.95,12.16-27.11,27.11-27.11h886.4c14.95,0,27.11,12.16,27.11,27.11v87.87h0Zm-938.07-2.56h935.52v-85.31c0-13.54-11.02-24.55-24.56-24.55H221.14c-13.54,0-24.55,11.02-24.55,24.55v85.31Z"/><circle class="cls-3" cx="262.89" cy="264" r="17.76"/><path class="cls-3" d="m262.89,283.04c-10.5,0-19.04-8.54-19.04-19.04s8.54-19.04,19.04-19.04,19.04,8.54,19.04,19.04-8.54,19.04-19.04,19.04Zm0-35.52c-9.09,0-16.48,7.39-16.48,16.48s7.39,16.48,16.48,16.48,16.48-7.39,16.48-16.48-7.39-16.48-16.48-16.48h0Z"/><circle class="cls-3" cx="324.26" cy="264" r="17.76"/><path class="cls-3" d="m324.26,283.04c-10.5,0-19.04-8.54-19.04-19.04s8.54-19.04,19.04-19.04,19.04,8.54,19.04,19.04-8.54,19.04-19.04,19.04Zm0-35.52c-9.09,0-16.48,7.39-16.48,16.48s7.39,16.48,16.48,16.48,16.48-7.39,16.48-16.48-7.39-16.48-16.48-16.48h0Z"/><circle class="cls-3" cx="385.64" cy="264" r="17.76"/><path class="cls-3" d="m385.64,283.04c-10.5,0-19.04-8.54-19.04-19.04s8.54-19.04,19.04-19.04,19.04,8.54,19.04,19.04-8.54,19.04-19.04,19.04Zm0-35.52c-9.09,0-16.48,7.39-16.48,16.48s7.39,16.48,16.48,16.48,16.48-7.39,16.48-16.48-7.39-16.48-16.48-16.48h0Z"/><path class="cls-5" d="m246.18,485.03h2.56v30.94h-2.56v-30.94Zm416.88,0h2.56v30.94h-2.56v-30.94Z"/><path class="cls-5" d="m247.46,499.22h416.88v2.56H247.46v-2.56Z"/><path class="cls-3" d="m518.86,477.17h-15.09c-1.41,0-2.56,1.14-2.56,2.56h0v41.56c0,1.41,1.14,2.56,2.56,2.56h15.09c1.41,0,2.56-1.14,2.56-2.56h0v-41.56c0-1.41-1.14-2.56-2.56-2.56h0Z"/><path class="cls-5" d="m518.86,525.12h-15.09c-2.12,0-3.83-1.72-3.84-3.84v-41.56c0-2.12,1.72-3.83,3.84-3.84h15.09c2.12,0,3.83,1.72,3.84,3.84v41.56c0,2.12-1.72,3.83-3.84,3.84Zm-15.09-46.67c-.71,0-1.28.57-1.28,1.28v41.56c0,.71.57,1.28,1.28,1.28h15.09c.71,0,1.28-.57,1.28-1.28v-41.56c0-.71-.57-1.28-1.28-1.28h-15.09Zm-257.59,87.14h2.56v30.93h-2.56v-30.93Zm416.88,0h2.56v30.93h-2.56v-30.93Z"/><path class="cls-5" d="m247.46,579.77h416.88v2.56H247.46v-2.56Z"/><path class="cls-3" d="m361.97,557.72h-15.09c-1.41,0-2.56,1.14-2.56,2.56h0v41.56c0,1.41,1.14,2.56,2.56,2.56h15.09c1.41,0,2.56-1.14,2.56-2.56h0v-41.56c0-1.41-1.14-2.56-2.55-2.56h0Z"/><path class="cls-5" d="m361.97,605.66h-15.1c-2.12,0-3.83-1.72-3.83-3.84v-41.56c0-2.12,1.72-3.83,3.83-3.83h15.1c2.12,0,3.83,1.72,3.83,3.83v41.56c0,2.12-1.72,3.83-3.83,3.84Zm-15.1-46.67c-.7,0-1.28.57-1.28,1.28v41.56c0,.71.57,1.28,1.28,1.28h15.1c.71,0,1.28-.57,1.28-1.28v-41.56c0-.7-.57-1.28-1.28-1.28h-15.1Zm-100.69,87.14h2.56v30.93h-2.56v-30.93Zm416.88,0h2.56v30.93h-2.56v-30.93Z"/><path class="cls-5" d="m247.46,660.32h416.88v2.56H247.46v-2.56Z"/><path class="cls-3" d="m456.67,638.26h-15.09c-1.41,0-2.56,1.14-2.56,2.56h0v41.56c0,1.41,1.14,2.56,2.56,2.56h15.09c1.41,0,2.56-1.14,2.56-2.56h0v-41.56c0-1.41-1.14-2.56-2.56-2.56h0Z"/><path class="cls-5" d="m456.67,686.21h-15.09c-2.12,0-3.83-1.72-3.84-3.84v-41.56c0-2.12,1.72-3.83,3.84-3.84h15.09c2.12,0,3.83,1.72,3.84,3.84v41.56c0,2.12-1.72,3.83-3.84,3.84Zm-15.09-46.67c-.71,0-1.28.57-1.28,1.28v41.56c0,.71.57,1.28,1.28,1.28h15.09c.71,0,1.28-.57,1.28-1.28v-41.56c0-.71-.57-1.28-1.28-1.28h-15.09Zm-195.4,87.14h2.56v30.94h-2.56v-30.94Zm416.88,0h2.56v30.94h-2.56v-30.94Z"/><path class="cls-5" d="m247.46,740.87h416.88v2.56H247.46v-2.56Z"/><path class="cls-3" d="m606.15,718.81h-15.09c-1.41,0-2.56,1.14-2.56,2.56h0v41.56c0,1.41,1.14,2.56,2.56,2.56h15.09c1.41,0,2.56-1.14,2.56-2.56h0v-41.56c0-1.41-1.14-2.56-2.55-2.56h0Z"/><path class="cls-5" d="m606.15,766.76h-15.09c-2.12,0-3.83-1.72-3.84-3.84v-41.56c0-2.12,1.72-3.83,3.84-3.84h15.09c2.12,0,3.83,1.72,3.84,3.84v41.56c0,2.12-1.72,3.83-3.84,3.84Zm-15.09-46.67c-.71,0-1.28.57-1.28,1.28v41.56c0,.71.57,1.28,1.28,1.28h15.09c.71,0,1.28-.57,1.28-1.28v-41.56c0-.71-.57-1.28-1.28-1.28h-15.09Z"/><path class="cls-3" d="m493.82,380.02h-249.13c-1.41,0-2.56,1.14-2.56,2.56h0v41.56c0,1.41,1.14,2.56,2.56,2.56h249.13c1.41,0,2.56-1.14,2.56-2.56h0v-41.56c0-1.41-1.14-2.56-2.56-2.56h0Z"/><path class="cls-5" d="m493.82,427.96h-249.13c-2.12,0-3.83-1.72-3.83-3.84v-41.56c0-2.12,1.72-3.83,3.83-3.84h249.13c2.12,0,3.83,1.72,3.84,3.84v41.56c0,2.12-1.72,3.83-3.84,3.84h0Zm-249.13-46.67c-.71,0-1.28.57-1.28,1.28v41.56c0,.71.57,1.28,1.28,1.28h249.13c.71,0,1.28-.57,1.28-1.28v-41.56c0-.71-.57-1.28-1.28-1.28h-249.13Z"/><path class="cls-5" d="m461.85,412.53l-16.82-16.82,1.81-1.81,15.02,15.02,15.02-15.02,1.81,1.81-16.82,16.82Zm327.05-32.51h-249.13c-1.41,0-2.56,1.14-2.56,2.56h0v41.56c0,1.41,1.14,2.56,2.56,2.56h249.13c1.41,0,2.56-1.14,2.56-2.56v-41.56c0-1.41-1.14-2.56-2.56-2.56h0Z"/><path class="cls-5" d="m788.9,427.96h-249.13c-2.12,0-3.83-1.72-3.84-3.84v-41.56c0-2.12,1.72-3.83,3.84-3.84h249.13c2.12,0,3.83,1.72,3.84,3.84v41.56c0,2.12-1.72,3.83-3.84,3.84Zm-249.13-46.67c-.71,0-1.28.57-1.28,1.28v41.56c0,.71.57,1.28,1.28,1.28h249.13c.71,0,1.28-.57,1.28-1.28v-41.56c0-.71-.57-1.28-1.28-1.28h-249.13Z"/><path class="cls-3" d="m756.93,412.53l-16.82-16.82,1.81-1.81,15.02,15.02,15.02-15.02,1.81,1.81-16.82,16.82Zm327.05-32.51h-249.13c-1.41,0-2.56,1.14-2.56,2.56h0v41.56c0,1.41,1.14,2.56,2.56,2.56h249.13c1.41,0,2.56-1.14,2.56-2.56v-41.56c0-1.41-1.14-2.56-2.56-2.56h0Z"/><path class="cls-5" d="m1083.98,427.96h-249.13c-2.12,0-3.83-1.72-3.84-3.84v-41.56c0-2.12,1.72-3.83,3.84-3.84h249.13c2.12,0,3.83,1.72,3.83,3.84v41.56c0,2.12-1.72,3.83-3.83,3.84Zm-249.13-46.67c-.71,0-1.28.57-1.28,1.28v41.56c0,.71.57,1.28,1.28,1.28h249.13c.7,0,1.28-.57,1.28-1.28v-41.56c0-.71-.57-1.28-1.28-1.28h-249.13Z"/><path class="cls-5" d="m1052.01,412.53l-16.82-16.82,1.81-1.81,15.02,15.02,15.02-15.02,1.81,1.81-16.82,16.82Zm-226.18,274.12h215.66c25.18,0,45.6,20.41,45.6,45.6s-20.41,45.6-45.6,45.6h-215.66c-25.18,0-45.6-20.41-45.6-45.6s20.41-45.6,45.6-45.6Z"/><path class="cls-5" d="m1041.49,779.12h-215.66c-25.85,0-46.88-21.03-46.88-46.88s21.03-46.88,46.88-46.88h215.66c25.85,0,46.88,21.03,46.88,46.88s-21.03,46.88-46.88,46.88Zm-215.66-91.19c-24.44,0-44.32,19.88-44.32,44.32s19.88,44.32,44.32,44.32h215.66c24.44,0,44.32-19.88,44.32-44.32s-19.88-44.32-44.32-44.32h-215.66Z"/><path class="cls-3" d="m934.31,611.1l15.78,63.03,45.18-46.7-17.85,62.47,62.47-17.85-46.7,45.18,63.03,15.78-63.03,15.78,46.7,45.18-62.47-17.85,17.85,62.47-45.18-46.7-15.78,63.03-15.78-63.03-45.18,46.7,17.85-62.47-62.47,17.85,46.7-45.18-63.03-15.78,63.03-15.78-46.7-45.18,62.47,17.85-17.85-62.47,45.18,46.7,15.78-63.03Z"/><path class="cls-5" d="m934.31,856.18c-.59,0-1.1-.4-1.24-.97l-15.22-60.8-43.58,45.04c-.49.51-1.3.52-1.81.02-.34-.33-.47-.81-.34-1.26l17.22-60.26-60.26,17.22c-.68.2-1.39-.2-1.58-.87-.13-.46,0-.95.34-1.28l45.04-43.58-60.8-15.22c-.68-.17-1.1-.86-.93-1.55.11-.46.47-.82.93-.93l60.8-15.22-45.04-43.58c-.51-.49-.52-1.3-.03-1.81.33-.34.82-.47,1.27-.34l60.26,17.22-17.22-60.26c-.19-.68.2-1.39.88-1.58.45-.13.94,0,1.27.34l43.58,45.04,15.22-60.8c.17-.68.86-1.1,1.55-.93.46.11.82.47.93.93l15.22,60.8,43.58-45.04c.49-.51,1.3-.52,1.81-.02.34.33.47.81.34,1.26l-17.22,60.26,60.26-17.22c.68-.2,1.39.2,1.58.87.13.46,0,.95-.34,1.27l-45.04,43.58,60.8,15.22c.68.17,1.1.86.93,1.55-.11.46-.47.82-.93.93l-60.8,15.22,45.04,43.58c.51.49.52,1.3.04,1.81-.33.34-.82.47-1.28.34l-60.26-17.22,17.22,60.26c.19.68-.2,1.39-.88,1.58-.45.13-.94,0-1.27-.34l-43.58-45.04-15.22,60.8c-.14.57-.65.97-1.24.97Zm-15.78-65.58c.59,0,1.1.4,1.24.97l14.54,58.07,14.54-58.07c.17-.69.87-1.1,1.55-.93.23.06.44.18.6.35l41.63,43.03-16.45-57.56c-.13-.45,0-.93.32-1.26.33-.33.81-.45,1.26-.33l57.56,16.45-43.03-41.62c-.51-.49-.52-1.3-.03-1.81.17-.17.37-.29.6-.35l58.07-14.53-58.07-14.53c-.69-.17-1.1-.87-.93-1.55.06-.23.18-.44.35-.6l43.03-41.63-57.56,16.45c-.45.13-.93,0-1.26-.33-.33-.33-.45-.81-.32-1.26l16.45-57.56-41.63,43.03c-.49.51-1.3.52-1.81.03-.17-.17-.29-.37-.35-.6l-14.54-58.07-14.54,58.07c-.17.69-.87,1.1-1.55.93-.23-.06-.44-.18-.6-.35l-41.63-43.03,16.45,57.56c.13.45,0,.93-.32,1.26-.33.33-.81.45-1.26.33l-57.56-16.45,43.03,41.63c.51.49.52,1.3.03,1.81-.17.17-.37.29-.6.35l-58.07,14.53,58.07,14.53c.69.17,1.1.87.93,1.55-.06.23-.18.44-.35.6l-43.03,41.62,57.56-16.45c.45-.13.93,0,1.26.33.33.33.45.81.32,1.26l-16.45,57.56,41.63-43.03c.24-.25.57-.39.92-.39h0Z"/><path class="cls-5" d="m1154.11,791.9l-109.9-29.45-109.9-29.45,29.45,109.9,29.45,109.9,53.9-73.26,54.23,54.23,33.74-33.74-54.23-54.23,73.26-53.9Z"/><g class="cls-2"><path class="cls-3" d="m934.31,856.18c-.59,0-1.1-.4-1.24-.97l-15.22-60.8-43.58,45.04c-.49.51-1.3.52-1.81.02-.34-.33-.47-.81-.34-1.26l17.22-60.26-60.26,17.22c-.68.2-1.39-.2-1.58-.87-.13-.46,0-.95.34-1.28l45.04-43.58-60.8-15.22c-.68-.17-1.1-.86-.93-1.55.11-.46.47-.82.93-.93l60.8-15.22-45.04-43.58c-.51-.49-.52-1.3-.03-1.81.33-.34.82-.47,1.27-.34l60.26,17.22-17.22-60.26c-.19-.68.2-1.39.88-1.58.45-.13.94,0,1.27.34l43.58,45.04,15.22-60.8c.17-.68.86-1.1,1.55-.93.46.11.82.47.93.93l15.22,60.8,43.58-45.04c.49-.51,1.3-.52,1.81-.02.34.33.47.81.34,1.26l-17.22,60.26,60.26-17.22c.68-.2,1.39.2,1.58.87.13.46,0,.95-.34,1.27l-45.04,43.58,60.8,15.22c.68.17,1.1.86.93,1.55-.11.46-.47.82-.93.93l-60.8,15.22,45.04,43.58c.51.49.52,1.3.04,1.81-.33.34-.82.47-1.28.34l-60.26-17.22,17.22,60.26c.19.68-.2,1.39-.88,1.58-.45.13-.94,0-1.27-.34l-43.58-45.04-15.22,60.8c-.14.57-.65.97-1.24.97Zm-15.78-65.58c.59,0,1.1.4,1.24.97l14.54,58.07,14.54-58.07c.17-.69.87-1.1,1.55-.93.23.06.44.18.6.35l41.63,43.03-16.45-57.56c-.13-.45,0-.93.32-1.26.33-.33.81-.45,1.26-.33l57.56,16.45-43.03-41.62c-.51-.49-.52-1.3-.03-1.81.17-.17.37-.29.6-.35l58.07-14.53-58.07-14.53c-.69-.17-1.1-.87-.93-1.55.06-.23.18-.44.35-.6l43.03-41.63-57.56,16.45c-.45.13-.93,0-1.26-.33-.33-.33-.45-.81-.32-1.26l16.45-57.56-41.63,43.03c-.49.51-1.3.52-1.81.03-.17-.17-.29-.37-.35-.6l-14.54-58.07-14.54,58.07c-.17.69-.87,1.1-1.55.93-.23-.06-.44-.18-.6-.35l-41.63-43.03,16.45,57.56c.13.45,0,.93-.32,1.26-.33.33-.81.45-1.26.33l-57.56-16.45,43.03,41.63c.51.49.52,1.3.03,1.81-.17.17-.37.29-.6.35l-58.07,14.53,58.07,14.53c.69.17,1.1.87.93,1.55-.06.23-.18.44-.35.6l-43.03,41.62,57.56-16.45c.45-.13.93,0,1.26.33.33.33.45.81.32,1.26l-16.45,57.56,41.63-43.03c.24-.25.57-.39.92-.39h0Z"/></g><path class="cls-5" d="m781.86,505.52h92.21v12.04h-92.21v-12.04Z"/><path class="cls-5" d="m874.08,518.84h-92.21c-.71,0-1.28-.57-1.28-1.28h0v-12.04c0-.71.57-1.28,1.28-1.28h92.21c.71,0,1.28.57,1.28,1.28v12.04c0,.7-.57,1.28-1.27,1.28h0Zm-90.94-2.56h89.66v-9.48h-89.66v9.48Zm-1.28-32.84h76.71v12.04h-76.71v-12.04Z"/><path class="cls-5" d="m858.58,496.76h-76.71c-.71,0-1.28-.57-1.28-1.28h0v-12.04c0-.71.57-1.28,1.28-1.28h76.71c.71,0,1.28.57,1.28,1.28v12.04c0,.71-.57,1.28-1.28,1.28Zm-75.44-2.56h74.16v-9.48h-74.16v9.48Z"/><path class="cls-3" d="m760.24,477.17h-41.56c-1.41,0-2.56,1.14-2.56,2.56h0v41.56c0,1.41,1.14,2.56,2.56,2.56h41.56c1.41,0,2.56-1.14,2.56-2.56h0v-41.56c0-1.41-1.14-2.56-2.56-2.56h0Z"/><path class="cls-5" d="m760.24,525.12h-41.56c-2.12,0-3.83-1.72-3.83-3.84v-41.56c0-2.12,1.72-3.83,3.83-3.84h41.56c2.12,0,3.83,1.72,3.84,3.84v41.56c0,2.12-1.72,3.83-3.84,3.84Zm-41.56-46.67c-.7,0-1.28.57-1.28,1.28v41.56c0,.71.57,1.28,1.28,1.28h41.56c.71,0,1.28-.57,1.28-1.28v-41.56c0-.71-.57-1.28-1.28-1.28h-41.56Zm251.3-1.28h-41.56c-1.41,0-2.56,1.14-2.56,2.56v41.56c0,1.41,1.14,2.56,2.56,2.56h41.56c1.41,0,2.56-1.14,2.56-2.56h0v-41.56c0-1.41-1.14-2.56-2.56-2.56h0Z"/><path class="cls-5" d="m969.98,525.12h-41.56c-2.12,0-3.83-1.72-3.83-3.84v-41.56c0-2.12,1.72-3.83,3.83-3.84h41.56c2.12,0,3.83,1.72,3.83,3.84v41.56c0,2.12-1.72,3.83-3.83,3.84Zm-41.56-46.67c-.71,0-1.28.57-1.28,1.28v41.56c0,.71.57,1.28,1.28,1.28h41.56c.71,0,1.28-.57,1.28-1.28v-41.56c0-.71-.57-1.28-1.28-1.28h-41.56Z"/><path class="cls-3" d="m943.84,514.33l-10.09-9.73,1.78-1.84,8.11,7.83,19.14-22.86,1.96,1.64-20.9,24.97Z"/><path class="cls-5" d="m991.6,505.52h82.82v12.04h-82.82v-12.04Z"/><path class="cls-5" d="m1074.42,518.84h-82.82c-.71,0-1.28-.57-1.28-1.28v-12.04c0-.71.57-1.28,1.28-1.28h82.82c.71,0,1.28.57,1.28,1.28v12.04c0,.71-.57,1.28-1.28,1.28h0Zm-81.54-2.56h80.26v-9.48h-80.26v9.48Zm-1.28-32.84h94.93v12.04h-94.93v-12.04Z"/><path class="cls-5" d="m1086.54,496.76h-94.93c-.71,0-1.28-.57-1.28-1.28v-12.04c0-.71.57-1.28,1.28-1.28h94.93c.71,0,1.28.57,1.28,1.28v12.04c0,.7-.57,1.28-1.27,1.28h0Zm-93.65-2.56h92.38v-9.48h-92.38v9.48Zm-1.28,91.87h92.21v12.04h-92.21v-12.04Z"/><path class="cls-5" d="m1083.82,599.39h-92.21c-.71,0-1.28-.57-1.28-1.28v-12.04c0-.71.57-1.28,1.28-1.28h92.21c.71,0,1.28.57,1.28,1.28v12.04c0,.71-.57,1.28-1.28,1.28Zm-90.94-2.56h89.66v-9.48h-89.66v9.48Zm-1.28-32.85h76.71v12.04h-76.71v-12.04Z"/><path class="cls-5" d="m1068.32,577.31h-76.71c-.71,0-1.28-.57-1.28-1.28v-12.04c0-.71.57-1.28,1.28-1.28h76.71c.71,0,1.28.57,1.28,1.28v12.04c0,.71-.57,1.28-1.28,1.28Zm-75.43-2.56h74.16v-9.48h-74.16v9.48Z"/><path class="cls-3" d="m969.98,557.72h-41.56c-1.41,0-2.56,1.14-2.56,2.56h0v41.56c0,1.41,1.14,2.56,2.56,2.56h41.56c1.41,0,2.56-1.14,2.56-2.56v-41.56c0-1.41-1.14-2.56-2.56-2.56h0Z"/><path class="cls-5" d="m969.98,605.66h-41.56c-2.12,0-3.83-1.72-3.83-3.84v-41.56c0-2.12,1.72-3.83,3.83-3.83h41.56c2.12,0,3.83,1.72,3.83,3.83v41.56c0,2.12-1.72,3.83-3.83,3.84Zm-41.56-46.67c-.7,0-1.28.57-1.28,1.28v41.56c0,.71.57,1.28,1.28,1.28h41.56c.71,0,1.28-.57,1.28-1.28v-41.56c0-.7-.57-1.28-1.28-1.28h-41.56Zm-146.56,27.08h82.82v12.04h-82.82v-12.04Z"/><path class="cls-5" d="m864.68,599.39h-82.82c-.71,0-1.28-.57-1.28-1.28h0v-12.04c0-.71.57-1.28,1.28-1.28h82.82c.71,0,1.28.57,1.28,1.28v12.04c0,.71-.57,1.28-1.28,1.28Zm-81.54-2.56h80.26v-9.48h-80.26v9.48Zm-1.28-32.85h94.93v12.04h-94.93v-12.04Z"/><path class="cls-5" d="m876.8,577.31h-94.93c-.71,0-1.28-.57-1.28-1.28h0v-12.04c0-.71.57-1.28,1.28-1.28h94.93c.71,0,1.28.57,1.28,1.28v12.04c0,.71-.57,1.28-1.28,1.28h0Zm-93.66-2.56h92.38v-9.48h-92.38v9.48Zm-22.91-17.03h-41.56c-1.41,0-2.56,1.14-2.56,2.56h0v41.56c0,1.41,1.14,2.56,2.56,2.56h41.56c1.41,0,2.56-1.14,2.56-2.56v-41.56c0-1.41-1.14-2.56-2.56-2.56h0Z"/><path class="cls-5" d="m760.24,605.66h-41.56c-2.12,0-3.83-1.72-3.83-3.84v-41.56c0-2.12,1.72-3.83,3.83-3.83h41.56c2.12,0,3.83,1.72,3.84,3.83v41.56c0,2.12-1.72,3.83-3.84,3.84Zm-41.56-46.67c-.7,0-1.28.57-1.28,1.28v41.56c0,.71.57,1.28,1.28,1.28h41.56c.71,0,1.28-.57,1.28-1.28v-41.56c0-.7-.57-1.28-1.28-1.28h-41.56Z"/><path class="cls-3" d="m734.1,594.88l-10.09-9.73,1.78-1.84,8.11,7.83,19.14-22.86,1.96,1.64-20.9,24.97Z"/><path class="cls-5" d="m98.9,161.8l5.05,13.11,13.12,5.05-13.12,5.05-5.05,13.11-5.05-13.11-13.11-5.05,13.11-5.05,5.05-13.11Zm430.57,778.43l5.05,13.11,13.11,5.05-13.11,5.05-5.05,13.11-5.05-13.11-13.11-5.05,13.11-5.05,5.05-13.11ZM812.41,28.72l5.05,13.11,13.11,5.05-13.11,5.05-5.05,13.11-5.05-13.11-13.11-5.05,13.11-5.05,5.05-13.11Z"/><path class="cls-3" d="m1009.77,245.84l5.05,13.11,13.11,5.05-13.11,5.05-5.05,13.11-5.05-13.11-13.11-5.05,13.11-5.05,5.05-13.11Z"/></svg>