<?xml version="1.0" encoding="UTF-8"?><svg id="Calque_1" xmlns="http://www.w3.org/2000/svg" viewBox="0 0 1500 797.26"><defs><style>.cls-1{fill:#f1cf25;}.cls-2{fill:#fff;}.cls-3{fill:#231f20;}</style></defs><circle class="cls-1" cx="266.71" cy="555.35" r="210.66"/><path class="cls-3" d="m1237.81,306.01l-16.22-64.81-46.45,48.02,18.36-64.24-64.24,18.36,48.02-46.45-64.81-16.22,64.81-16.22-48.02-46.45,64.24,18.36-18.36-64.24,46.45,48.02,16.22-64.81,16.22,64.81,46.45-48.02-18.36,64.24,64.24-18.36-48.02,46.45,64.81,16.22-64.81,16.22,48.02,46.45-64.24-18.36,18.36,64.24-46.45-48.02-16.22,64.81Zm-14.6-70.88l14.6,58.32,14.6-58.32,41.8,43.21-16.52-57.8,57.8,16.52-43.21-41.8,58.32-14.6-58.32-14.6,43.21-41.8-57.8,16.52,16.52-57.8-41.8,43.21-14.6-58.32-14.6,58.32-41.8-43.21,16.52,57.8-57.8-16.52,43.21,41.8-58.32,14.6,58.32,14.6-43.21,41.8,57.8-16.52-16.52,57.8,41.8-43.21ZM188.59,555.35h159.3v3.05h-159.3v-3.05Z"/><path class="cls-3" d="m266.71,477.22h3.05v159.3h-3.05v-159.3Z"/><path class="cls-3" d="m269.46,637.44l-2.43-1.84c.26-.35,26.24-35.34,26.24-78.73s-25.98-78.38-26.24-78.73l2.43-1.84c.27.36,26.86,36.12,26.86,80.57s-26.59,80.21-26.86,80.57Z"/><path class="cls-3" d="m268.24,638.05c-44.76,0-81.17-36.41-81.17-81.17s36.42-81.17,81.17-81.17,81.17,36.41,81.17,81.17-36.42,81.17-81.17,81.17Zm0-159.3c-43.08,0-78.12,35.05-78.12,78.12s35.05,78.12,78.12,78.12,78.12-35.05,78.12-78.12-35.05-78.12-78.12-78.12Z"/><path class="cls-3" d="m268.72,637.97l-.97-2.89c.13-.04,13.21-4.53,26.1-16.38,11.84-10.9,25.96-30.47,25.96-61.82,0-60.09-51.54-78.03-52.06-78.2l.97-2.89c.55.19,13.74,4.69,27.1,16.94,12.34,11.32,27.04,31.63,27.04,64.15s-14.71,52.84-27.04,64.15c-13.36,12.26-26.54,16.76-27.1,16.94h0Z"/><path class="cls-3" d="m267.02,637.44c-.27-.36-26.86-36.12-26.86-80.57s26.59-80.21,26.86-80.57l2.43,1.84c-.26.35-26.24,35.34-26.24,78.73s25.98,78.38,26.24,78.73l-2.43,1.84Z"/><path class="cls-3" d="m267.76,637.97c-.55-.19-13.74-4.69-27.1-16.94-12.34-11.32-27.04-31.63-27.04-64.15s14.71-52.84,27.04-64.15c13.36-12.26,26.54-16.76,27.1-16.94l.97,2.89c-.13.04-13.21,4.53-26.1,16.38-11.84,10.9-25.96,30.47-25.96,61.82s14.12,50.92,25.96,61.82c12.89,11.86,25.97,16.34,26.1,16.38l-.97,2.89Z"/><path class="cls-3" d="m338.87,593.95c-7.91-3.4-30.61-11.29-70.63-11.29s-62.73,7.9-70.63,11.29l-1.2-2.8c8.08-3.47,31.25-11.54,71.83-11.54s63.76,8.07,71.84,11.54l-1.2,2.8Zm-122.4,24.28l-1.3-2.76c9.01-4.25,25.54-9.31,53.07-9.31s43.86,5.01,52.88,9.22l-1.29,2.76c-8.73-4.07-24.77-8.93-51.59-8.93s-43.04,4.91-51.77,9.02h0Zm51.77-84.08c-40.58,0-63.76-8.07-71.83-11.54l1.2-2.8c7.91,3.4,30.62,11.29,70.63,11.29s62.73-7.9,70.63-11.29l1.2,2.8c-8.08,3.47-31.25,11.54-71.84,11.54Zm0-26.55c-27.53,0-44.06-5.06-53.07-9.31l1.3-2.76c8.73,4.11,24.8,9.02,51.77,9.02s42.86-4.86,51.59-8.93l1.29,2.76c-9.01,4.2-25.5,9.22-52.88,9.22h0Z"/><path class="cls-2" d="m250.61,270.7h998.78v267.88c0,10.1-8.19,18.29-18.3,18.29H268.9c-10.1,0-18.29-8.19-18.29-18.29v-267.88h0Z"/><path class="cls-3" d="m1231.1,558.4H268.9c-10.93,0-19.82-8.89-19.82-19.82v-269.4h1001.83v269.4c0,10.93-8.89,19.82-19.82,19.82h0ZM252.13,272.22v266.36c0,9.25,7.52,16.77,16.77,16.77h962.2c9.25,0,16.77-7.52,16.77-16.77v-266.36H252.13Z"/><path class="cls-2" d="m268.9,172.34h962.2c10.1,0,18.3,8.19,18.3,18.3v80.06H250.61v-80.06c0-10.11,8.19-18.3,18.29-18.3Z"/><path class="cls-3" d="m1250.92,272.22H249.08v-81.58c0-10.93,8.89-19.82,19.82-19.82h962.19c10.93,0,19.82,8.89,19.82,19.82v81.58h0Zm-998.78-3.05h995.73v-78.54c0-9.25-7.52-16.77-16.77-16.77H268.9c-9.25,0-16.77,7.52-16.77,16.77v78.54Z"/><path class="cls-3" d="m309.73,238.58c-9.41,0-17.06-7.65-17.06-17.06s7.65-17.06,17.06-17.06,17.06,7.65,17.06,17.06-7.65,17.06-17.06,17.06Zm0-31.08c-7.73,0-14.01,6.29-14.01,14.01s6.29,14.01,14.01,14.01,14.01-6.29,14.01-14.01-6.29-14.01-14.01-14.01Zm53.7,31.08c-9.41,0-17.06-7.65-17.06-17.06s7.65-17.06,17.06-17.06,17.06,7.65,17.06,17.06-7.65,17.06-17.06,17.06Zm0-31.08c-7.73,0-14.01,6.29-14.01,14.01s6.29,14.01,14.01,14.01,14.01-6.29,14.01-14.01-6.29-14.01-14.01-14.01Zm53.69,31.08c-9.41,0-17.06-7.65-17.06-17.06s7.65-17.06,17.06-17.06,17.06,7.65,17.06,17.06-7.65,17.06-17.06,17.06Zm0-31.08c-7.73,0-14.01,6.29-14.01,14.01s6.29,14.01,14.01,14.01,14.01-6.29,14.01-14.01-6.29-14.01-14.01-14.01Z"/><path class="cls-2" d="m6.89,402.85h1486.23v21.87H6.89v-21.87Z"/><path class="cls-3" d="m1494.64,426.24H5.36v-24.91h1489.28v24.91Zm-1486.23-3.05h1483.18v-18.82H8.41v18.82Z"/><path class="cls-3" d="m6.89,402.85h872.65v21.87H6.89v-21.87Z"/><path class="cls-3" d="m881.06,426.24H5.36v-24.91h875.7v24.91h0Zm-872.65-3.05h869.6v-18.82H8.41v18.82Zm664.76,226.17h524.36v3.05h-524.36v-3.05Z"/><path class="cls-3" d="m1137.31,694.81l-2.93-.83c.13-.46,3.28-11.32,12.64-22.33,6.8-7.99,18.01-17.2,35.17-20.77-17.16-3.57-28.37-12.77-35.17-20.77-9.36-11-12.51-21.87-12.64-22.33l2.93-.83c.03.11,3.14,10.78,12.11,21.28,11.97,14.02,28.16,21.12,48.11,21.12v3.05c-19.95,0-36.14,7.11-48.11,21.12-8.97,10.5-12.08,21.17-12.11,21.28ZM154.94,76.53h524.36v3.05H154.94v-3.05Z"/><path class="cls-3" d="m619.08,121.98l-2.93-.83c.13-.46,3.28-11.32,12.64-22.33,6.8-7.99,18.01-17.2,35.17-20.77-17.16-3.57-28.37-12.77-35.17-20.77-9.36-11-12.51-21.87-12.64-22.33l2.93-.83c.03.11,3.14,10.77,12.11,21.28,11.97,14.02,28.16,21.12,48.11,21.12v3.05c-19.95,0-36.14,7.11-48.11,21.12-8.97,10.5-12.08,21.17-12.11,21.28Zm727.32,425.27l6.29,16.35,16.36,6.29-16.36,6.29-6.29,16.36-6.3-16.35-16.35-6.3,16.35-6.29,6.29-16.36ZM102.96,277.08l6.29,16.36,16.35,6.29-16.35,6.29-6.29,16.36-6.3-16.35-16.35-6.3,16.36-6.29,6.29-16.36ZM982.76,34.55l6.29,16.36,16.36,6.29-16.36,6.29-6.29,16.35-6.3-16.35-16.35-6.3,16.35-6.29,6.29-16.36Zm-477.05,654l6.29,16.35,16.36,6.29-16.36,6.29-6.29,16.36-6.3-16.35-16.35-6.3,16.36-6.29,6.29-16.36Z"/></svg>