<?xml version="1.0" encoding="UTF-8"?><svg id="Calque_1" xmlns="http://www.w3.org/2000/svg" viewBox="0 0 1128.6 690"><defs><style>.cls-1{fill:#f1cf25;}.cls-2{fill:#fff;}.cls-3{fill:#fe9c87;}.cls-4{fill:#231f20;}.cls-5{fill:#9adbba;}.cls-6{fill:#99d1df;}</style></defs><rect class="cls-1" x="52.23" y="506.4" width="180.34" height="180.34"/><rect class="cls-3" x="914.53" y="56.56" width="180.34" height="180.34"/><circle class="cls-5" cx="483.93" cy="113.7" r="89.93"/><circle class="cls-6" cx="948.4" cy="506.4" r="89.93"/><path class="cls-2" d="m118.5,42l11.3,45.3,32.5-33.6-12.8,44.9,44.9-12.8-33.6,32.5,45.3,11.3-45.3,11.4,33.6,32.5-44.9-12.8,12.8,44.9-32.5-33.6-11.3,45.3-11.4-45.3-32.5,33.6,12.8-44.9-44.9,12.8,33.6-32.5-45.3-11.3,45.3-11.3-33.6-32.6,44.9,12.8-12.8-44.9,32.5,33.6,11.4-45.3Z"/><path class="cls-4" d="m118.5,219.4c-.9,0-1.7-.6-2-1.5l-10.5-41.9-30,31c-.8.8-2.1.8-2.9.1-.5-.5-.7-1.3-.5-2l11.8-41.4-41.4,11.8c-1.1.3-2.2-.3-2.5-1.4-.2-.7,0-1.5.5-2l31-30-41.8-10.5c-1.1-.3-1.7-1.4-1.5-2.5.2-.7.7-1.3,1.5-1.5l41.8-10.5-31-30c-.8-.8-.8-2.1,0-2.9.5-.5,1.3-.7,2-.5l41.4,11.8-11.7-41.2c-.3-1.1.3-2.2,1.4-2.5.7-.2,1.5,0,2,.5l30,31,10.5-41.8c.3-1.1,1.4-1.7,2.5-1.5.7.2,1.3.7,1.5,1.5l10.5,41.8,30-31c.8-.8,2.1-.8,2.9,0,.5.5.7,1.3.5,2l-11.8,41.4,41.4-11.8c1.1-.3,2.2.3,2.5,1.4.2.7,0,1.5-.5,2l-31,30,41.8,10.5c1.1.3,1.7,1.4,1.5,2.5-.2.7-.7,1.3-1.5,1.5l-41.8,10.5,31,30c.8.8.8,2.1,0,2.9-.5.5-1.3.7-2,.5l-41.4-11.8,11.8,41.4c.3,1.1-.3,2.2-1.4,2.5-.7.2-1.5,0-2-.5l-30-31-10.5,41.8c-.4.6-1.2,1.3-2.1,1.3h0Zm-11.4-49.4c.9,0,1.7.6,2,1.5l9.4,37.5,9.4-37.5c.3-1.1,1.4-1.7,2.5-1.5.4.1.7.3,1,.6l26.9,27.8-10.6-37.2c-.3-1.1.3-2.2,1.4-2.5.4-.1.8-.1,1.1,0l37.2,10.6-27.8-26.9c-.8-.8-.8-2.1-.1-2.9.3-.3.6-.5,1-.6l37.5-9.4-37.5-9.4c-1.1-.3-1.7-1.4-1.5-2.5.1-.4.3-.7.6-1l27.6-26.6-37.2,10.6c-1.1.3-2.2-.3-2.5-1.4-.1-.4-.1-.7,0-1.1l10.6-37.2-26.9,27.8c-.8.8-2.1.8-2.9,0-.3-.3-.5-.6-.6-1l-9.4-37.5-9.4,37.5c-.3,1.1-1.4,1.7-2.5,1.5-.4-.1-.7-.3-1-.6l-26.6-27.7,10.6,37.2c.3,1.1-.3,2.2-1.4,2.5-.4.1-.8.1-1.1,0l-37.1-10.6,27.8,26.9c.8.8.8,2.1.1,2.9-.3.3-.6.5-1,.6l-37.5,9.4,37.5,9.4c1.1.3,1.7,1.4,1.5,2.5-.1.4-.3.7-.6,1l-27.8,26.9,37.2-10.6c1.1-.3,2.2.3,2.5,1.4.1.4.1.7,0,1.1l-10.6,37.2,26.9-27.8c.2-.7.8-.9,1.3-.9Z"/><path class="cls-4" d="m402.3,374c-47.2,0-91.6-3.9-125.1-11.1-24.3-5.2-53.2-14.4-53.2-28.6s28.9-23.4,53.2-28.6c33.4-7.1,77.8-11.1,125.1-11.1s91.6,3.9,125.1,11.1c24.3,5.2,53.2,14.4,53.2,28.6s-29,23.4-53.2,28.6c-33.5,7.2-77.9,11.1-125.1,11.1h0Zm0-75.3c-104.3,0-174.3,18.4-174.3,35.7s70,35.6,174.3,35.6,174.3-18.4,174.3-35.6-70.1-35.7-174.3-35.7h0Z"/><path class="cls-4" d="m402.3,411.7c-47.2,0-91.6-3.9-125.1-11.1-24.3-5.2-53.2-14.4-53.2-28.6s28.9-23.4,53.2-28.6c33.4-7.1,77.8-11.1,125.1-11.1s91.6,3.9,125.1,11.1c24.3,5.2,53.2,14.4,53.2,28.6s-29,23.4-53.2,28.6c-33.5,7.2-77.9,11.1-125.1,11.1Zm0-75.3c-104.3,0-174.3,18.4-174.3,35.6s70,35.6,174.3,35.6,174.3-18.4,174.3-35.6c-.1-17.2-70.1-35.6-174.3-35.6h0Zm0-37.7c-47.2,0-91.6-3.9-125.1-11.1-24.3-5.2-53.2-14.4-53.2-28.6s28.9-23.4,53.2-28.6c33.4-7.1,77.8-11.1,125.1-11.1s91.6,3.9,125.1,11.1c24.3,5.2,53.2,14.4,53.2,28.6s-29,23.4-53.2,28.6c-33.5,7.2-77.9,11.1-125.1,11.1Zm0-75.3c-104.3,0-174.3,18.4-174.3,35.6s70,35.6,174.3,35.6,174.3-18.4,174.3-35.6c-.1-17.2-70.1-35.6-174.3-35.6h0Z"/><path class="cls-4" d="m402.3,336.4c-47.2,0-91.6-3.9-125.1-11.1-24.3-5.2-53.2-14.4-53.2-28.6s28.9-23.4,53.2-28.6c33.4-7.1,77.8-11.1,125.1-11.1s91.6,3.9,125.1,11.1c24.3,5.2,53.2,14.4,53.2,28.6s-29,23.4-53.2,28.6c-33.5,7.1-77.9,11.1-125.1,11.1Zm0-75.3c-104.3,0-174.3,18.4-174.3,35.6s70,35.6,174.3,35.6,174.3-18.4,174.3-35.6c-.1-17.2-70.1-35.6-174.3-35.6h0Zm0,188.2c-47.2,0-91.6-3.9-125.1-11.1-24.3-5.2-53.2-14.4-53.2-28.6s28.9-23.4,53.2-28.6c33.4-7.1,77.8-11.1,125.1-11.1s91.6,3.9,125.1,11.1c24.3,5.2,53.2,14.4,53.2,28.6s-29,23.4-53.2,28.6c-33.5,7.2-77.9,11.1-125.1,11.1Zm0-75.3c-104.3,0-174.3,18.5-174.3,35.7s70,35.6,174.3,35.6,174.3-18.4,174.3-35.6c-.1-17.2-70.1-35.7-174.3-35.7h0Z"/><path class="cls-4" d="m402.3,487c-47.2,0-91.6-3.9-125.1-11.1-24.3-5.2-53.2-14.4-53.2-28.6s28.9-23.4,53.2-28.6c33.4-7.1,77.8-11.1,125.1-11.1s91.6,3.9,125.1,11.1c24.3,5.2,53.2,14.4,53.2,28.6s-29,23.4-53.2,28.6c-33.5,7.2-77.9,11.1-125.1,11.1Zm0-75.3c-104.3,0-174.3,18.4-174.3,35.6s70,35.6,174.3,35.6,174.3-18.4,174.3-35.6-70.1-35.6-174.3-35.6h0Z"/><path class="cls-4" d="m402.3,524.6c-47.2,0-91.6-3.9-125.1-11.1-24.3-5.2-53.2-14.4-53.2-28.6s28.9-23.4,53.2-28.6c33.4-7.1,77.8-11.1,125.1-11.1s91.6,3.9,125.1,11.1c24.3,5.2,53.2,14.4,53.2,28.6s-29,23.4-53.2,28.6c-33.5,7.2-77.9,11.1-125.1,11.1Zm0-75.3c-104.3,0-174.3,18.5-174.3,35.7s70,35.6,174.3,35.6,174.3-18.4,174.3-35.6c-.1-17.2-70.1-35.7-174.3-35.7h0Z"/><path class="cls-4" d="m402.3,562.3c-47.2,0-91.6-3.9-125.1-11.1-24.3-5.2-53.2-14.4-53.2-28.6s28.9-23.4,53.2-28.6c33.4-7.1,77.8-11.1,125.1-11.1s91.6,3.9,125.1,11.1c24.3,5.2,53.2,14.4,53.2,28.6s-29,23.4-53.2,28.6c-33.5,7.2-77.9,11.1-125.1,11.1Zm0-75.3c-104.3,0-174.3,18.4-174.3,35.6s70,35.6,174.3,35.6,174.3-18.4,174.3-35.6c-.1-17.2-70.1-35.6-174.3-35.6h0Z"/><path class="cls-4" d="m972,457.6l2.9-2.9,110.9,110.9-2.9,2.9-110.9-110.9Z"/><path class="cls-4" d="m972,565.6l110.9-110.9,2.9,2.9-110.9,110.9-2.9-2.9Z"/><path class="cls-4" d="m973.7,569l-.6-4c.4-.1,42.7-6.3,72.8-36.4,30.1-30.1,36.3-72.3,36.4-72.8l4,.6c-.1.4-6.5,44-37.5,75.1-31.1,31-74.6,37.5-75.1,37.5h0Z"/><path class="cls-4" d="m1028.9,592c-20.6,0-41.2-7.8-56.9-23.5-31.4-31.4-31.4-82.4,0-113.7,15.2-15.2,35.4-23.6,56.9-23.6s41.7,8.4,56.9,23.6c31.4,31.4,31.4,82.4,0,113.7-15.7,15.6-36.3,23.5-56.9,23.5h0Zm0-156.8c-20.4,0-39.6,7.9-54,22.4-29.8,29.8-29.8,78.2,0,108s78.2,29.8,108,0,29.8-78.2,0-108c-14.4-14.4-33.6-22.4-54-22.4Z"/><path class="cls-4" d="m1007,576c-1.2,0-2.4,0-3.6-.1-17.9-.8-30.3-6.9-30.9-7.1l1.8-3.6c.1.1,12.3,6,29.4,6.7,22.9.9,43.3-7.4,60.7-24.8,17.4-17.4,25.7-37.8,24.8-60.7-.7-17.1-6.6-29.3-6.7-29.4l3.6-1.8c.3.5,6.3,12.9,7.1,30.9.7,16.6-3.2,41.1-26,63.9-21.1,21.2-43.8,26-60.2,26Z"/><path class="cls-4" d="m975.5,567.3l-4-.6c.1-.4,6.5-44,37.5-75.1,31.1-31.1,74.6-37.5,75.1-37.5l.6,4c-.4.1-42.7,6.3-72.8,36.4-30.1,30.1-36.4,72.4-36.4,72.8Z"/><path class="cls-4" d="m971.6,567.9c-.3-.5-6.3-12.9-7.1-30.9-.7-16.6,3.2-41.1,26-63.9s47.3-26.7,63.9-26c17.9.8,30.3,6.9,30.9,7.1l-1.8,3.6c-.1-.1-12.3-6-29.4-6.7-22.8-.9-43.3,7.4-60.7,24.8-41.6,41.6-18.3,89.6-18.1,90.1l-3.7,1.9Z"/><path class="cls-4" d="m1051.8,586.7c-3.1-7.8-13.4-29.1-41.2-56.8-27.8-27.8-49-38.1-56.8-41.2l1.5-3.8c8.1,3.2,29.9,13.8,58.2,42.1s38.9,50.1,42.1,58.2l-3.8,1.5Zm-30.1,3.6c-3.2-8.9-11-23.3-29.6-41.9-18.7-18.7-33.2-26.4-42.1-29.6l1.4-3.8c9.3,3.3,24.4,11.3,43.6,30.6,19.1,19.1,27.1,34.2,30.5,43.4l-3.8,1.3Zm80.8-52.1c-8.1-3.2-29.9-13.8-58.2-42.1-28.3-28.3-38.9-50.1-42.1-58.2l3.8-1.5c3.1,7.8,13.4,29.1,41.2,56.8,27.8,27.8,49,38.1,56.8,41.2l-1.5,3.8Zm3.7-30c-9.2-3.4-24.3-11.4-43.4-30.5-19.2-19.2-27.2-34.3-30.6-43.6l3.8-1.4c3.2,8.9,10.9,23.4,29.6,42.1,18.6,18.6,33.1,26.3,41.9,29.6l-1.3,3.8Z"/><path class="cls-2" d="m501.1,204.6h547.9v294.9c0,13.4-10.9,24.3-24.3,24.3h-499.3c-13.4,0-24.3-10.9-24.3-24.3V204.6h0Z"/><path class="cls-4" d="m1024.6,525.8h-499.2c-14.5,0-26.3-11.8-26.3-26.3V202.5h551.9v296.9c0,14.6-11.9,26.4-26.4,26.4ZM503.1,206.6v292.9c0,12.3,10,22.3,22.3,22.3h499.2c12.3,0,22.3-10,22.3-22.3V206.6H503.1Z"/><path class="cls-2" d="m525.4,111.7h499.2c13.4,0,24.3,10.9,24.3,24.3v68.4H501.1v-68.4c0-13.4,10.9-24.3,24.3-24.3Z"/><path class="cls-4" d="m1051,206.6H499v-70.4c0-14.5,11.8-26.3,26.3-26.3h499.2c14.5,0,26.3,11.8,26.3,26.3v70.4h.2Zm-547.9-4.2h543.8v-66.4c0-12.3-10-22.3-22.3-22.3h-499.2c-12.3,0-22.3,10-22.3,22.3v66.4h0Z"/><circle class="cls-4" cx="556.8" cy="158.2" r="14.6"/><circle class="cls-4" cx="607.47" cy="158.18" r="14.6" transform="translate(228.86 658.88) rotate(-67.5)"/><circle class="cls-4" cx="658.11" cy="158.17" r="14.6" transform="translate(396.55 782.44) rotate(-80.78)"/><path class="cls-2" d="m101.3,199.9h370.1v415c0,13.4-10.9,24.3-24.3,24.3H125.6c-13.4,0-24.3-10.9-24.3-24.3V199.9Z"/><path class="cls-4" d="m447.1,641.3H125.6c-14.5,0-26.3-11.8-26.3-26.3V197.9h374.2v417.1c-.1,14.5-11.9,26.3-26.4,26.3ZM103.3,201.9v413c0,12.3,10,22.3,22.3,22.3h321.5c12.3,0,22.3-10,22.3-22.3V201.9H103.3Z"/><path class="cls-2" d="m125.6,107.2h321.5c13.4,0,24.3,10.9,24.3,24.3v68.4H101.3v-68.4c0-13.4,10.9-24.3,24.3-24.3Z"/><path class="cls-4" d="m473.4,201.9H99.2v-70.4c0-14.5,11.8-26.3,26.3-26.3h321.5c14.5,0,26.3,11.8,26.3,26.3l.1,70.4Zm-370.1-4h366.1v-66.4c0-12.3-10-22.3-22.3-22.3H125.6c-12.3,0-22.3,10-22.3,22.3v66.4h0Z"/><circle class="cls-4" cx="157" cy="153.5" r="14.6"/><circle class="cls-4" cx="207.6" cy="153.5" r="14.6"/><circle class="cls-4" cx="258.3" cy="153.5" r="14.6"/><path class="cls-4" d="m553.8,468.9h442.5v4.1h-442.5v-4.1Zm441.6-212.5c0-.4.4-.8.8-.8s.8.4.8.8c0,.5-.4.8-.8.8s-.8-.3-.8-.8h0Zm-8.1,0c0-.4.4-.8.8-.8s.8.4.8.8c0,.5-.4.8-.8.8s-.8-.3-.8-.8Zm-8.1,0c0-.4.4-.8.8-.8.5,0,.8.4.8.8,0,.5-.4.8-.8.8s-.8-.3-.8-.8Zm-8.1,0c0-.4.4-.8.8-.8s.8.4.8.8c0,.5-.4.8-.8.8s-.8-.3-.8-.8Zm-8.1,0c0-.4.4-.8.8-.8s.8.4.8.8c0,.5-.4.8-.8.8-.4,0-.8-.3-.8-.8Zm-8.1,0c0-.4.4-.8.8-.8s.8.4.8.8-.4.8-.8.8-.8-.3-.8-.8Zm-8.1,0c0-.4.4-.8.8-.8s.8.4.8.8-.4.8-.8.8-.8-.3-.8-.8Zm-8.1,0c0-.4.4-.8.8-.8s.8.4.8.8c0,.5-.4.8-.8.8-.5,0-.8-.3-.8-.8h0Zm-8.1,0c0-.4.4-.8.8-.8s.8.4.8.8c0,.5-.4.8-.8.8-.5,0-.8-.3-.8-.8Zm-8.1,0c0-.4.4-.8.8-.8s.8.4.8.8-.4.8-.8.8c-.5,0-.8-.3-.8-.8Zm-8.1,0c0-.4.4-.8.8-.8s.8.4.8.8c0,.5-.4.8-.8.8-.5,0-.8-.3-.8-.8Zm-8.1,0c0-.4.4-.8.8-.8s.8.4.8.8c0,.5-.4.8-.8.8-.5,0-.8-.3-.8-.8Zm-8.2,0c0-.4.4-.8.8-.8s.8.4.8.8-.4.8-.8.8-.8-.3-.8-.8Zm-8.1,0c0-.4.4-.8.8-.8s.8.4.8.8c0,.5-.4.8-.8.8-.4,0-.8-.3-.8-.8Zm-8.1,0c0-.4.4-.8.8-.8s.8.4.8.8c0,.5-.4.8-.8.8h0c-.4,0-.8-.3-.8-.8h0Zm-8.1,0c0-.4.4-.8.8-.8.5,0,.8.4.8.8,0,.5-.4.8-.8.8s-.8-.3-.8-.8Zm-8.1,0c0-.4.4-.8.8-.8s.8.4.8.8-.4.8-.8.8-.8-.3-.8-.8Zm-8.1,0c0-.4.4-.8.8-.8s.8.4.8.8c0,.5-.4.8-.8.8h0c-.4,0-.8-.3-.8-.8Zm-8.1,0c0-.4.4-.8.8-.8.5,0,.8.4.8.8,0,.5-.4.8-.8.8-.4,0-.8-.3-.8-.8Zm-8.1,0c0-.4.4-.8.8-.8s.8.4.8.8-.4.8-.8.8-.8-.3-.8-.8Zm-8.1,0c0-.4.4-.8.8-.8s.8.4.8.8c0,.5-.4.8-.8.8s-.8-.3-.8-.8Zm-8.1,0c0-.4.4-.8.8-.8s.8.4.8.8c0,.5-.4.8-.8.8-.5,0-.8-.3-.8-.8h0Zm-8.1,0c0-.4.4-.8.8-.8s.8.4.8.8-.4.8-.8.8c-.5,0-.8-.3-.8-.8Zm-8.1,0c0-.4.4-.8.8-.8s.8.4.8.8c0,.5-.4.8-.8.8-.5,0-.8-.3-.8-.8Zm-8.1,0c0-.4.4-.8.8-.8s.8.4.8.8c0,.5-.4.8-.8.8-.5,0-.8-.3-.8-.8Zm-8.1,0c0-.4.4-.8.8-.8.5,0,.8.4.8.8,0,.5-.4.8-.8.8h0c-.5,0-.8-.3-.8-.8Zm-8.1,0c0-.4.4-.8.8-.8s.8.4.8.8-.4.8-.8.8c-.5,0-.8-.3-.8-.8Zm-8.2,0c0-.4.4-.8.8-.8s.8.4.8.8c0,.5-.4.8-.8.8-.4,0-.8-.3-.8-.8Zm-8.1,0c0-.4.4-.8.8-.8.5,0,.8.4.8.8,0,.5-.4.8-.8.8s-.8-.3-.8-.8Zm-8.1,0c0-.4.4-.8.8-.8s.8.4.8.8-.4.8-.8.8-.8-.3-.8-.8Zm-8.1,0c0-.4.4-.8.8-.8s.8.4.8.8c0,.5-.4.8-.8.8s-.8-.3-.8-.8Zm-8.1,0c0-.4.4-.8.8-.8s.8.4.8.8c0,.5-.4.8-.8.8h0c-.4,0-.8-.3-.8-.8Zm-8.1,0c0-.4.4-.8.8-.8s.8.4.8.8-.4.8-.8.8c-.4,0-.8-.3-.8-.8Zm-8.1,0c0-.4.4-.8.8-.8s.8.4.8.8c0,.5-.4.8-.8.8s-.8-.3-.8-.8Zm-8.1,0c0-.4.4-.8.8-.8s.8.4.8.8c0,.5-.4.8-.8.8s-.8-.3-.8-.8Zm-8.1,0c0-.4.4-.8.8-.8s.8.4.8.8-.4.8-.8.8c-.5,0-.8-.3-.8-.8Zm-8.1,0c0-.4.4-.8.8-.8s.8.4.8.8c0,.5-.4.8-.8.8-.5,0-.8-.3-.8-.8Zm-8.1,0c0-.4.4-.8.8-.8s.8.4.8.8c0,.5-.4.8-.8.8-.5,0-.8-.3-.8-.8Zm-8.1,0c0-.4.4-.8.8-.8.5,0,.8.4.8.8,0,.5-.4.8-.8.8-.5,0-.8-.3-.8-.8Zm-8.1,0c0-.4.4-.8.8-.8s.8.4.8.8-.4.8-.8.8c-.5,0-.8-.3-.8-.8Zm-8.1,0c0-.4.4-.8.8-.8s.8.4.8.8c0,.5-.4.8-.8.8-.5,0-.8-.3-.8-.8Zm-8.2,0c0-.4.4-.8.8-.8.5,0,.8.4.8.8,0,.5-.4.8-.8.8-.4,0-.8-.3-.8-.8Zm-8.1,0c0-.4.4-.8.8-.8s.8.4.8.8-.4.8-.8.8-.8-.3-.8-.8Zm-8.1,0c0-.4.4-.8.8-.8s.8.4.8.8c0,.5-.4.8-.8.8s-.8-.3-.8-.8Zm-8.1,0c0-.4.4-.8.8-.8s.8.4.8.8c0,.5-.4.8-.8.8s-.8-.3-.8-.8Zm-8.1,0c0-.4.4-.8.8-.8s.8.4.8.8-.4.8-.8.8-.8-.3-.8-.8Zm-8.1,0c0-.4.4-.8.8-.8s.8.4.8.8c0,.5-.4.8-.8.8s-.8-.3-.8-.8Zm-8.1,0c0-.4.4-.8.8-.8.5,0,.8.4.8.8,0,.5-.4.8-.8.8-.4,0-.8-.3-.8-.8Zm-8.1,0c0-.4.4-.8.8-.8.5,0,.8.4.8.8,0,.5-.4.8-.8.8s-.8-.3-.8-.8Zm-8.1,0c0-.4.4-.8.8-.8s.8.4.8.8-.4.8-.8.8-.8-.3-.8-.8Zm-8.1,0c0-.4.4-.8.8-.8.5,0,.8.4.8.8,0,.5-.4.8-.8.8-.5,0-.8-.3-.8-.8Zm-8.1,0c0-.4.4-.8.8-.8.5,0,.8.4.8.8,0,.5-.4.8-.8.8-.5,0-.8-.3-.8-.8Zm-8.1,0c0-.4.4-.8.8-.8s.8.4.8.8-.4.8-.8.8c-.5,0-.8-.3-.8-.8Zm-8.1,0c0-.4.4-.8.8-.8.5,0,.8.4.8.8,0,.5-.4.8-.8.8-.5,0-.8-.3-.8-.8Zm-8.1,0c0-.4.4-.8.8-.8.5,0,.8.4.8.8,0,.5-.4.8-.8.8-.5,0-.8-.3-.8-.8Zm437.7,71.5c0-.4.4-.8.8-.8s.8.4.8.8c0,.5-.4.8-.8.8s-.8-.3-.8-.8h0Zm-8.1,0c0-.4.4-.8.8-.8s.8.4.8.8c0,.5-.4.8-.8.8s-.8-.3-.8-.8Zm-8.1,0c0-.4.4-.8.8-.8.5,0,.8.4.8.8,0,.5-.4.8-.8.8s-.8-.3-.8-.8Zm-8.1,0c0-.4.4-.8.8-.8s.8.4.8.8c0,.5-.4.8-.8.8s-.8-.3-.8-.8Zm-8.1,0c0-.4.4-.8.8-.8s.8.4.8.8c0,.5-.4.8-.8.8-.4,0-.8-.3-.8-.8Zm-8.1,0c0-.4.4-.8.8-.8s.8.4.8.8-.4.8-.8.8-.8-.3-.8-.8Zm-8.1,0c0-.4.4-.8.8-.8s.8.4.8.8-.4.8-.8.8-.8-.3-.8-.8Zm-8.1,0c0-.4.4-.8.8-.8s.8.4.8.8c0,.5-.4.8-.8.8-.5,0-.8-.3-.8-.8h0Zm-8.1,0c0-.4.4-.8.8-.8s.8.4.8.8c0,.5-.4.8-.8.8-.5,0-.8-.3-.8-.8Zm-8.1,0c0-.4.4-.8.8-.8s.8.4.8.8-.4.8-.8.8c-.5,0-.8-.3-.8-.8Zm-8.1,0c0-.4.4-.8.8-.8s.8.4.8.8c0,.5-.4.8-.8.8-.5,0-.8-.3-.8-.8Zm-8.1,0c0-.4.4-.8.8-.8s.8.4.8.8c0,.5-.4.8-.8.8-.5,0-.8-.3-.8-.8Zm-8.2,0c0-.4.4-.8.8-.8s.8.4.8.8-.4.8-.8.8-.8-.3-.8-.8Zm-8.1,0c0-.4.4-.8.8-.8s.8.4.8.8c0,.5-.4.8-.8.8h0c-.4,0-.8-.3-.8-.8Zm-8.1,0c0-.4.4-.8.8-.8s.8.4.8.8c0,.5-.4.8-.8.8s-.8-.3-.8-.8h0Zm-8.1,0c0-.4.4-.8.8-.8.5,0,.8.4.8.8,0,.5-.4.8-.8.8s-.8-.3-.8-.8Zm-8.1,0c0-.4.4-.8.8-.8s.8.4.8.8-.4.8-.8.8-.8-.3-.8-.8Zm-8.1,0c0-.4.4-.8.8-.8s.8.4.8.8c0,.5-.4.8-.8.8s-.8-.3-.8-.8Zm-8.1,0c0-.4.4-.8.8-.8.5,0,.8.4.8.8,0,.5-.4.8-.8.8h0c-.4,0-.8-.3-.8-.8Zm-8.1,0c0-.4.4-.8.8-.8s.8.4.8.8-.4.8-.8.8-.8-.3-.8-.8Zm-8.1,0c0-.4.4-.8.8-.8s.8.4.8.8c0,.5-.4.8-.8.8s-.8-.3-.8-.8Zm-8.1,0c0-.4.4-.8.8-.8s.8.4.8.8c0,.5-.4.8-.8.8-.5,0-.8-.3-.8-.8h0Zm-8.1,0c0-.4.4-.8.8-.8s.8.4.8.8-.4.8-.8.8c-.5,0-.8-.3-.8-.8Zm-8.1,0c0-.4.4-.8.8-.8s.8.4.8.8c0,.5-.4.8-.8.8-.5,0-.8-.3-.8-.8Zm-8.1,0c0-.4.4-.8.8-.8s.8.4.8.8c0,.5-.4.8-.8.8-.5,0-.8-.3-.8-.8Zm-8.1,0c0-.4.4-.8.8-.8.5,0,.8.4.8.8,0,.5-.4.8-.8.8-.5,0-.8-.3-.8-.8Zm-8.1,0c0-.4.4-.8.8-.8s.8.4.8.8-.4.8-.8.8c-.5,0-.8-.3-.8-.8Zm-8.2,0c0-.4.4-.8.8-.8s.8.4.8.8c0,.5-.4.8-.8.8-.4,0-.8-.3-.8-.8Zm-8.1,0c0-.4.4-.8.8-.8.5,0,.8.4.8.8,0,.5-.4.8-.8.8s-.8-.3-.8-.8Zm-8.1,0c0-.4.4-.8.8-.8s.8.4.8.8-.4.8-.8.8-.8-.3-.8-.8Zm-8.1,0c0-.4.4-.8.8-.8s.8.4.8.8c0,.5-.4.8-.8.8s-.8-.3-.8-.8Zm-8.1,0c0-.4.4-.8.8-.8s.8.4.8.8c0,.5-.4.8-.8.8s-.8-.3-.8-.8Zm-8.1,0c0-.4.4-.8.8-.8s.8.4.8.8-.4.8-.8.8c-.4,0-.8-.3-.8-.8Zm-8.1,0c0-.4.4-.8.8-.8s.8.4.8.8c0,.5-.4.8-.8.8s-.8-.3-.8-.8Zm-8.1,0c0-.4.4-.8.8-.8s.8.4.8.8c0,.5-.4.8-.8.8s-.8-.3-.8-.8Zm-8.1,0c0-.4.4-.8.8-.8s.8.4.8.8-.4.8-.8.8c-.5,0-.8-.3-.8-.8Zm-8.1,0c0-.4.4-.8.8-.8s.8.4.8.8c0,.5-.4.8-.8.8-.5,0-.8-.3-.8-.8Zm-8.1,0c0-.4.4-.8.8-.8s.8.4.8.8c0,.5-.4.8-.8.8-.5,0-.8-.3-.8-.8Zm-8.1,0c0-.4.4-.8.8-.8.5,0,.8.4.8.8,0,.5-.4.8-.8.8-.5,0-.8-.3-.8-.8Zm-8.1,0c0-.4.4-.8.8-.8s.8.4.8.8-.4.8-.8.8c-.5,0-.8-.3-.8-.8Zm-8.1,0c0-.4.4-.8.8-.8s.8.4.8.8c0,.5-.4.8-.8.8-.5,0-.8-.3-.8-.8Zm-8.2,0c0-.4.4-.8.8-.8.5,0,.8.4.8.8,0,.5-.4.8-.8.8-.4,0-.8-.3-.8-.8Zm-8.1,0c0-.4.4-.8.8-.8s.8.4.8.8-.4.8-.8.8-.8-.3-.8-.8Zm-8.1,0c0-.4.4-.8.8-.8s.8.4.8.8c0,.5-.4.8-.8.8s-.8-.3-.8-.8Zm-8.1,0c0-.4.4-.8.8-.8s.8.4.8.8c0,.5-.4.8-.8.8s-.8-.3-.8-.8Zm-8.1,0c0-.4.4-.8.8-.8s.8.4.8.8-.4.8-.8.8-.8-.3-.8-.8Zm-8.1,0c0-.4.4-.8.8-.8s.8.4.8.8c0,.5-.4.8-.8.8s-.8-.3-.8-.8Zm-8.1,0c0-.4.4-.8.8-.8.5,0,.8.4.8.8,0,.5-.4.8-.8.8-.4,0-.8-.3-.8-.8Zm-8.1,0c0-.4.4-.8.8-.8.5,0,.8.4.8.8,0,.5-.4.8-.8.8s-.8-.3-.8-.8Zm-8.1,0c0-.4.4-.8.8-.8s.8.4.8.8-.4.8-.8.8-.8-.3-.8-.8Zm-8.1,0c0-.4.4-.8.8-.8.5,0,.8.4.8.8,0,.5-.4.8-.8.8-.5,0-.8-.3-.8-.8Zm-8.1,0c0-.4.4-.8.8-.8.5,0,.8.4.8.8,0,.5-.4.8-.8.8-.5,0-.8-.3-.8-.8Zm-8.1,0c0-.4.4-.8.8-.8s.8.4.8.8-.4.8-.8.8c-.5,0-.8-.3-.8-.8Zm-8.1,0c0-.4.4-.8.8-.8.5,0,.8.4.8.8,0,.5-.4.8-.8.8h0c-.5,0-.8-.3-.8-.8Zm-8.1,0c0-.4.4-.8.8-.8.5,0,.8.4.8.8,0,.5-.4.8-.8.8h0c-.5,0-.8-.3-.8-.8Zm437.7,71.6c0-.4.4-.8.8-.8s.8.4.8.8-.4.8-.8.8c-.4.1-.8-.4-.8-.8Zm-8.1,0c0-.4.4-.8.8-.8s.8.4.8.8-.4.8-.8.8c-.4.1-.8-.4-.8-.8Zm-8.1,0c0-.4.4-.8.8-.8s.8.4.8.8-.4.8-.8.8c-.4.1-.8-.4-.8-.8Zm-8.1,0c0-.4.4-.8.8-.8s.8.4.8.8-.4.8-.8.8c-.4.1-.8-.4-.8-.8Zm-8.1,0c0-.4.4-.8.8-.8s.8.4.8.8-.4.8-.8.8c-.4.1-.8-.4-.8-.8Zm-8.1,0c0-.5.4-.8.8-.8.5,0,.8.4.8.8s-.4.8-.8.8c-.4.1-.8-.4-.8-.8Zm-8.1,0c0-.4.4-.8.8-.8s.8.4.8.8-.4.8-.8.8c-.4.1-.8-.4-.8-.8Zm-8.1,0c0-.4.4-.8.8-.8s.8.4.8.8-.4.8-.8.8c-.5.1-.8-.4-.8-.8Zm-8.1,0c0-.4.4-.8.8-.8s.8.4.8.8-.4.8-.8.8c-.5.1-.8-.4-.8-.8Zm-8.1,0c0-.4.4-.8.8-.8s.8.4.8.8-.4.8-.8.8c-.5.1-.8-.4-.8-.8Zm-8.1,0c0-.4.4-.8.8-.8s.8.4.8.8-.4.8-.8.8c-.5.1-.8-.4-.8-.8Zm-8.1,0c0-.4.4-.8.8-.8s.8.4.8.8-.4.8-.8.8c-.5.1-.8-.4-.8-.8Zm-8.2,0c0-.5.4-.8.8-.8.5,0,.8.4.8.8s-.4.8-.8.8c-.4.1-.8-.4-.8-.8Zm-8.1,0c0-.4.4-.8.8-.8s.8.4.8.8-.4.8-.8.8c-.4.1-.8-.4-.8-.8Zm-8.1,0c0-.4.4-.8.8-.8s.8.4.8.8-.4.8-.8.8c-.4.1-.8-.4-.8-.8Zm-8.1,0c0-.4.4-.8.8-.8s.8.4.8.8-.4.8-.8.8c-.4.1-.8-.4-.8-.8Zm-8.1,0c0-.4.4-.8.8-.8s.8.4.8.8-.4.8-.8.8c-.4.1-.8-.4-.8-.8Zm-8.1,0c0-.4.4-.8.8-.8s.8.4.8.8-.4.8-.8.8c-.4.1-.8-.4-.8-.8Zm-8.1,0c0-.4.4-.8.8-.8s.8.4.8.8-.4.8-.8.8c-.4.1-.8-.4-.8-.8Zm-8.1,0c0-.4.4-.8.8-.8s.8.4.8.8-.4.8-.8.8c-.4.1-.8-.4-.8-.8Zm-8.1,0c0-.4.4-.8.8-.8s.8.4.8.8-.4.8-.8.8c-.4.1-.8-.4-.8-.8Zm-8.1,0c0-.4.4-.8.8-.8s.8.4.8.8-.4.8-.8.8c-.5.1-.8-.4-.8-.8Zm-8.1,0c0-.5.4-.8.8-.8.5,0,.8.4.8.8s-.4.8-.8.8c-.5.1-.8-.4-.8-.8Zm-8.1,0c0-.4.4-.8.8-.8s.8.4.8.8-.4.8-.8.8c-.5.1-.8-.4-.8-.8Zm-8.1,0c0-.4.4-.8.8-.8s.8.4.8.8-.4.8-.8.8c-.5.1-.8-.4-.8-.8Zm-8.1,0c0-.4.4-.8.8-.8s.8.4.8.8-.4.8-.8.8c-.5.1-.8-.4-.8-.8Zm-8.1,0c0-.4.4-.8.8-.8s.8.4.8.8-.4.8-.8.8c-.5.1-.8-.4-.8-.8Zm-8.2,0c0-.4.4-.8.8-.8s.8.4.8.8-.4.8-.8.8c-.4.1-.8-.4-.8-.8Zm-8.1,0c0-.4.4-.8.8-.8s.8.4.8.8-.4.8-.8.8c-.4.1-.8-.4-.8-.8Zm-8.1,0c0-.4.4-.8.8-.8s.8.4.8.8-.4.8-.8.8c-.4.1-.8-.4-.8-.8Zm-8.1,0c0-.4.4-.8.8-.8s.8.4.8.8-.4.8-.8.8c-.4.1-.8-.4-.8-.8Zm-8.1,0c0-.4.4-.8.8-.8s.8.4.8.8-.4.8-.8.8c-.4.1-.8-.4-.8-.8Zm-8.1,0c0-.5.4-.8.8-.8.5,0,.8.4.8.8s-.4.8-.8.8c-.4.1-.8-.4-.8-.8Zm-8.1,0c0-.4.4-.8.8-.8s.8.4.8.8-.4.8-.8.8c-.4.1-.8-.4-.8-.8Zm-8.1,0c0-.4.4-.8.8-.8s.8.4.8.8-.4.8-.8.8c-.4.1-.8-.4-.8-.8Zm-8.1,0c0-.5.4-.8.8-.8.5,0,.8.4.8.8s-.4.8-.8.8c-.5.1-.8-.4-.8-.8Zm-8.1,0c0-.4.4-.8.8-.8s.8.4.8.8-.4.8-.8.8c-.5.1-.8-.4-.8-.8Zm-8.1,0c0-.4.4-.8.8-.8s.8.4.8.8-.4.8-.8.8c-.5.1-.8-.4-.8-.8Zm-8.1,0c0-.4.4-.8.8-.8s.8.4.8.8-.4.8-.8.8c-.5.1-.8-.4-.8-.8Zm-8.1,0c0-.4.4-.8.8-.8s.8.4.8.8-.4.8-.8.8c-.5.1-.8-.4-.8-.8Zm-8.1,0c0-.4.4-.8.8-.8s.8.4.8.8-.4.8-.8.8c-.5.1-.8-.4-.8-.8Zm-8.2,0c0-.4.4-.8.8-.8s.8.4.8.8-.4.8-.8.8c-.4.1-.8-.4-.8-.8Zm-8.1,0c0-.4.4-.8.8-.8s.8.4.8.8-.4.8-.8.8c-.4.1-.8-.4-.8-.8Zm-8.1,0c0-.4.4-.8.8-.8s.8.4.8.8-.4.8-.8.8c-.4.1-.8-.4-.8-.8Zm-8.1,0c0-.4.4-.8.8-.8s.8.4.8.8-.4.8-.8.8c-.4.1-.8-.4-.8-.8Zm-8.1,0c0-.5.4-.8.8-.8.5,0,.8.4.8.8s-.4.8-.8.8c-.4.1-.8-.4-.8-.8Zm-8.1,0c0-.4.4-.8.8-.8s.8.4.8.8-.4.8-.8.8c-.4.1-.8-.4-.8-.8Zm-8.1,0c0-.4.4-.8.8-.8s.8.4.8.8-.4.8-.8.8-.8-.4-.8-.8Zm-8.1,0c0-.4.4-.8.8-.8.5,0,.8.4.8.8s-.4.8-.8.8c-.4.1-.8-.4-.8-.8Zm-8.1,0c0-.4.4-.8.8-.8s.8.4.8.8-.4.8-.8.8c-.4.1-.8-.4-.8-.8Zm-8.1,0c0-.4.4-.8.8-.8s.8.4.8.8-.4.8-.8.8-.8-.4-.8-.8Zm-8.1,0c0-.4.4-.8.8-.8.5,0,.8.4.8.8s-.4.8-.8.8c-.5.1-.8-.4-.8-.8Zm-8.1,0c0-.4.4-.8.8-.8s.8.4.8.8-.4.8-.8.8c-.5.1-.8-.4-.8-.8Zm-8.1,0c0-.4.4-.8.8-.8s.8.4.8.8-.4.8-.8.8-.8-.4-.8-.8Zm-8.1,0c0-.4.4-.8.8-.8s.8.4.8.8-.4.8-.8.8-.8-.4-.8-.8Z"/><path class="cls-4" d="m819.6,434.5c-45.3,0-65.5-35.4-85.2-69.6-19.8-34.6-40.3-70.3-86.9-70.3-55.9,0-73.7,32.7-88,59l-1.3,2.4c-.5,1-1.7,1.4-2.7.9s-1.4-1.7-.9-2.7v-.1l1.3-2.4c7.3-13.4,15.6-28.6,29.3-40.5,16-13.9,36.4-20.6,62.3-20.6,48.9,0,70,36.8,90.4,72.4,19.9,34.7,38.7,67.5,81.6,67.5,39.6,0,59.8-39.6,81.2-81.6,21.6-42.4,46.1-90.5,94.9-104,1.1-.3,2.2.3,2.5,1.4s-.3,2.2-1.4,2.5c-47.1,13.1-70.1,58.2-92.4,101.9-21.8,43.1-42.6,83.8-84.7,83.8Z"/><path class="cls-4" d="m556.8,399.7c-1.1,0-2-1-2-2.1s.9-1.9,2-2c46.3,0,64-39.6,81.1-77.8,16.1-35.9,32.7-73,73.3-73s55.8,24.8,70.8,48.9c15.6,24.9,31.7,50.7,76.1,50.7,48.4,0,101.1-36.7,136.7-67.5.8-.7,2.1-.6,2.9.2s.6,2.1-.2,2.9c-65.5,56.6-112,68.5-139.4,68.5-46.7,0-63.4-26.7-79.6-52.6-15.1-24.1-29.4-46.9-67.4-46.9s-53.4,34.3-69.6,70.6c-17.5,39.3-35.8,80.1-84.7,80.1h0Z"/><path class="cls-4" d="m154,374.3h8.4v70.7h-8.4v-70.7Z"/><path class="cls-4" d="m164.4,447h-12.5v-74.8h12.5v74.8Zm-8.4-4.1h4.4v-66.6h-4.4v66.6Z"/><path class="cls-2" d="m154,303.6h8.4v70.7h-8.4v-70.7Z"/><path class="cls-4" d="m164.4,376.3h-12.5v-74.8h12.5v74.8Zm-8.4-4.1h4.4v-66.6h-4.4v66.6Zm16.3,37.9h8.4v70.7h-8.4v-70.7Z"/><path class="cls-4" d="m182.7,482.9h-12.5v-74.8h12.5v74.8Zm-8.4-4.1h4.4v-66.6h-4.4v66.6Z"/><path class="cls-2" d="m172.3,339.4h8.4v70.7h-8.4v-70.7Z"/><path class="cls-4" d="m182.7,412.1h-12.5v-74.8h12.5v74.8Zm-8.4-4h4.4v-66.6h-4.4v66.6Zm16.3,34.9h8.4v70.7h-8.4v-70.7Z"/><path class="cls-4" d="m201,515.7h-12.5v-74.8h12.5v74.8Zm-8.4-4.1h4.4v-66.6h-4.4v66.6Z"/><path class="cls-2" d="m190.6,372.2h8.4v70.7h-8.4v-70.7Z"/><path class="cls-4" d="m201,445h-12.5v-74.8h12.5v74.8Zm-8.4-4.1h4.4v-66.6h-4.4v66.6Zm16.3-44.6h8.4v70.7h-8.4v-70.7Z"/><path class="cls-4" d="m219.3,469.1h-12.5v-74.8h12.5v74.8Zm-8.4-4.1h4.4v-66.6h-4.4v66.6Z"/><path class="cls-2" d="m208.9,325.6h8.4v70.7h-8.4v-70.7Z"/><path class="cls-4" d="m219.3,398.3h-12.5v-74.8h12.5v74.8Zm-8.4-4h4.4v-66.6h-4.4v66.6Zm16.3,44.5h8.4v70.7h-8.4v-70.7Z"/><path class="cls-4" d="m237.7,511.5h-12.5v-74.8h12.5v74.8Zm-8.5-4h4.4v-66.6h-4.4v66.6Z"/><path class="cls-2" d="m227.2,368.1h8.4v70.7h-8.4v-70.7Z"/><path class="cls-4" d="m237.7,440.8h-12.5v-74.8h12.5v74.8Zm-8.5-4h4.4v-66.6h-4.4v66.6Zm16.3,29.4h8.4v70.7h-8.4v-70.7Z"/><path class="cls-4" d="m256,539h-12.5v-74.8h12.5v74.8Zm-8.5-4.1h4.4v-66.6h-4.4v66.6Z"/><path class="cls-2" d="m245.5,395.5h8.4v70.7h-8.4v-70.7Z"/><path class="cls-4" d="m256,468.3h-12.5v-74.8h12.5v74.8Zm-8.5-4.1h4.4v-66.6h-4.4v66.6Zm16.3,28.5h8.4v70.7h-8.4v-70.7Z"/><path class="cls-4" d="m274.3,565.4h-12.5v-74.8h12.5v74.8Zm-8.5-4.1h4.4v-66.6h-4.4v66.6Z"/><path class="cls-2" d="m263.8,422h8.4v70.7h-8.4v-70.7Z"/><path class="cls-4" d="m274.3,494.7h-12.5v-74.8h12.5v74.8Zm-8.5-4.1h4.4v-66.6h-4.4v66.6Zm16.3,17.3h8.4v70.7h-8.4v-70.7Z"/><path class="cls-4" d="m292.6,580.7h-12.5v-74.8h12.5v74.8Zm-8.5-4.1h4.4v-66.6h-4.4v66.6Z"/><path class="cls-2" d="m282.1,437.2h8.4v70.7h-8.4v-70.7Z"/><path class="cls-4" d="m292.6,510h-12.5v-74.8h12.5v74.8Zm-8.5-4.1h4.4v-66.6h-4.4v66.6Zm16.3-35h8.4v70.7h-8.4v-70.7Z"/><path class="cls-4" d="m310.9,543.6h-12.5v-74.8h12.5v74.8Zm-8.4-4.1h4.4v-66.6h-4.4v66.6Z"/><path class="cls-2" d="m300.4,400.2h8.4v70.7h-8.4v-70.7Z"/><path class="cls-4" d="m310.9,472.9h-12.5v-74.8h12.5v74.8Zm-8.4-4.1h4.4v-66.6h-4.4v66.6Zm16.2,19.3h8.4v70.7h-8.4v-70.7Z"/><path class="cls-4" d="m329.2,560.9h-12.5v-74.8h12.5v74.8Zm-8.4-4.1h4.4v-66.6h-4.4v66.6Z"/><path class="cls-2" d="m318.7,417.4h8.4v70.7h-8.4v-70.7Z"/><path class="cls-4" d="m329.2,490.2h-12.5v-74.8h12.5v74.8Zm-8.4-4.1h4.4v-66.6h-4.4v66.6Zm16.2-48.9h8.4v70.7h-8.4v-70.7Z"/><path class="cls-4" d="m347.5,509.9h-12.5v-74.8h12.5v74.8Zm-8.4-4h4.4v-66.6h-4.4v66.6Z"/><path class="cls-2" d="m337,366.5h8.4v70.7h-8.4v-70.7Z"/><path class="cls-4" d="m347.5,439.2h-12.5v-74.8h12.5v74.8Zm-8.4-4h4.4v-66.6h-4.4v66.6Zm16.3-23.5h8.4v70.7h-8.4v-70.7Z"/><path class="cls-4" d="m365.8,484.4h-12.5v-74.8h12.5v74.8Zm-8.4-4.1h4.4v-66.6h-4.4v66.6h0Z"/><path class="cls-2" d="m355.4,341h8.4v70.7h-8.4v-70.7Z"/><path class="cls-4" d="m365.8,413.7h-12.5v-74.8h12.5v74.8Zm-8.4-4.1h4.4v-66.6h-4.4v66.6h0Zm16.3-14.4h8.4v70.7h-8.4v-70.7Z"/><path class="cls-4" d="m384.1,467.9h-12.5v-74.8h12.5v74.8Zm-8.4-4h4.4v-66.6h-4.4v66.6Z"/><path class="cls-2" d="m373.7,324.5h8.4v70.7h-8.4v-70.7Z"/><path class="cls-4" d="m384.1,397.2h-12.5v-74.8h12.5v74.8Zm-8.4-4h4.4v-66.6h-4.4v66.6Zm16.3,24.2h8.4v70.7h-8.4v-70.7Z"/><path class="cls-4" d="m402.4,490.2h-12.5v-74.8h12.5v74.8Zm-8.4-4.1h4.4v-66.6h-4.4v66.6Z"/><path class="cls-2" d="m392,346.7h8.4v70.7h-8.4v-70.7Z"/><path class="cls-4" d="m402.4,419.5h-12.5v-74.8h12.5v74.8Zm-8.4-4.1h4.4v-66.6h-4.4v66.6Zm16.3-63.1h8.4v70.7h-8.4v-70.7Z"/><path class="cls-4" d="m420.7,425.1h-12.5v-74.8h12.5v74.8Zm-8.4-4.1h4.4v-66.6h-4.4v66.6Z"/><path class="cls-2" d="m410.3,281.6h8.4v70.7h-8.4v-70.7Z"/><path class="cls-4" d="m420.7,354.4h-12.5v-74.8h12.5v74.8Zm-8.4-4.1h4.4v-66.6h-4.4v66.6Z"/></svg>