<?xml version="1.0" encoding="UTF-8"?><svg id="Calque_1" xmlns="http://www.w3.org/2000/svg" viewBox="0 0 1083.87 895.15"><defs><style>.cls-1{fill:#f1cf25;}.cls-2{fill:#fff;}.cls-3{fill:#231f20;}.cls-4{fill:#99d1df;}</style></defs><rect class="cls-1" x="745.84" y="566.9" width="309.33" height="309.33"/><circle class="cls-4" cx="561.04" cy="266.75" r="189.74"/><path class="cls-3" d="m21.39,664.88h185.5v3.05H21.39v-3.05Z"/><path class="cls-3" d="m112.62,573.66h3.05v185.5h-3.05v-185.5Z"/><path class="cls-3" d="m115.36,760.08l-2.43-1.84c.31-.41,30.61-41.21,30.61-91.83s-30.3-91.43-30.61-91.83l2.43-1.84c.31.41,31.22,42,31.22,93.67,0,51.67-30.91,93.25-31.22,93.67h0Z"/><path class="cls-3" d="m114.14,760.68c-51.98,0-94.27-42.29-94.27-94.27s42.29-94.28,94.27-94.28,94.27,42.29,94.27,94.28-42.29,94.27-94.27,94.27Zm0-185.5c-50.3,0-91.23,40.92-91.23,91.23s40.92,91.23,91.23,91.23,91.23-40.92,91.23-91.23-40.92-91.23-91.23-91.23Z"/><path class="cls-3" d="m114.63,760.6l-.97-2.89c.15-.05,15.42-5.28,30.46-19.12,13.84-12.72,30.33-35.58,30.33-72.19s-16.54-59.54-30.42-72.27c-15.05-13.8-30.22-18.98-30.37-19.03l.97-2.89c.64.22,15.95,5.44,31.46,19.67,14.33,13.15,31.41,36.74,31.41,74.52s-17.08,61.38-31.41,74.52c-15.52,14.24-30.82,19.46-31.46,19.68h0Z"/><path class="cls-3" d="m112.93,760.08c-.31-.41-31.22-42-31.22-93.67s30.91-93.26,31.22-93.67l2.43,1.84c-.31.41-30.61,41.21-30.61,91.83s30.3,91.43,30.61,91.83l-2.43,1.84Z"/><path class="cls-3" d="m113.66,760.6c-.64-.21-15.94-5.44-31.46-19.68-14.33-13.15-31.41-36.74-31.41-74.52s17.08-61.38,31.41-74.52c15.52-14.23,30.82-19.46,31.46-19.67l.97,2.89c-.15.05-15.42,5.28-30.46,19.12-13.84,12.73-30.33,35.58-30.33,72.19s16.49,59.46,30.33,72.19c15.05,13.84,30.31,19.06,30.46,19.12l-.97,2.89Z"/><path class="cls-3" d="m196.49,709.35c-9.22-3.96-35.71-13.17-82.35-13.17s-73.13,9.21-82.35,13.17l-1.2-2.8c9.39-4.04,36.34-13.42,83.55-13.42s74.16,9.38,83.55,13.42l-1.2,2.8Zm-142.74,28.27l-1.3-2.76c10.47-4.94,29.68-10.81,61.69-10.81s51,5.82,61.47,10.71l-1.29,2.76c-10.19-4.76-28.9-10.43-60.18-10.43s-50.2,5.72-60.39,10.52Zm60.39-97.93c-47.21,0-74.16-9.38-83.55-13.42l1.2-2.8c9.22,3.96,35.71,13.17,82.35,13.17s73.13-9.21,82.35-13.17l1.2,2.8c-9.39,4.03-36.34,13.42-83.55,13.42h0Zm0-30.92c-32.02,0-51.22-5.88-61.69-10.82l1.3-2.76c10.19,4.8,28.94,10.52,60.39,10.52s49.99-5.67,60.18-10.42l1.29,2.76c-10.47,4.89-29.63,10.71-61.47,10.71h0Zm-92.75,56.11h185.5v3.05H21.39v-3.05Z"/><path class="cls-3" d="m112.62,573.66h3.05v185.5h-3.05v-185.5Z"/><path class="cls-3" d="m115.36,760.08l-2.43-1.84c.31-.41,30.61-41.21,30.61-91.83s-30.3-91.43-30.61-91.83l2.43-1.84c.31.41,31.22,42,31.22,93.67,0,51.67-30.91,93.25-31.22,93.67h0Z"/><path class="cls-3" d="m114.14,760.68c-51.98,0-94.27-42.29-94.27-94.27s42.29-94.28,94.27-94.28,94.27,42.29,94.27,94.28-42.29,94.27-94.27,94.27Zm0-185.5c-50.3,0-91.23,40.92-91.23,91.23s40.92,91.23,91.23,91.23,91.23-40.92,91.23-91.23-40.92-91.23-91.23-91.23Z"/><path class="cls-3" d="m114.63,760.6l-.97-2.89c.15-.05,15.42-5.28,30.46-19.12,13.84-12.72,30.33-35.58,30.33-72.19s-16.54-59.54-30.42-72.27c-15.05-13.8-30.22-18.98-30.37-19.03l.97-2.89c.64.22,15.95,5.44,31.46,19.67,14.33,13.15,31.41,36.74,31.41,74.52s-17.08,61.38-31.41,74.52c-15.52,14.24-30.82,19.46-31.46,19.68h0Z"/><path class="cls-3" d="m112.93,760.08c-.31-.41-31.22-42-31.22-93.67s30.91-93.26,31.22-93.67l2.43,1.84c-.31.41-30.61,41.21-30.61,91.83s30.3,91.43,30.61,91.83l-2.43,1.84Z"/><path class="cls-3" d="m113.66,760.6c-.64-.21-15.94-5.44-31.46-19.68-14.33-13.15-31.41-36.74-31.41-74.52s17.08-61.38,31.41-74.52c15.52-14.23,30.82-19.46,31.46-19.67l.97,2.89c-.15.05-15.42,5.28-30.46,19.12-13.84,12.73-30.33,35.58-30.33,72.19s16.49,59.46,30.33,72.19c15.05,13.84,30.31,19.06,30.46,19.12l-.97,2.89Z"/><path class="cls-3" d="m196.49,709.35c-9.22-3.96-35.71-13.17-82.35-13.17s-73.13,9.21-82.35,13.17l-1.2-2.8c9.39-4.04,36.34-13.42,83.55-13.42s74.16,9.38,83.55,13.42l-1.2,2.8Zm-142.74,28.27l-1.3-2.76c10.47-4.94,29.68-10.81,61.69-10.81s51,5.82,61.47,10.71l-1.29,2.76c-10.19-4.76-28.9-10.43-60.18-10.43s-50.2,5.72-60.39,10.52Zm60.39-97.93c-47.21,0-74.16-9.38-83.55-13.42l1.2-2.8c9.22,3.96,35.71,13.17,82.35,13.17s73.13-9.21,82.35-13.17l1.2,2.8c-9.39,4.03-36.34,13.42-83.55,13.42h0Zm0-30.92c-32.02,0-51.22-5.88-61.69-10.82l1.3-2.76c10.19,4.8,28.94,10.52,60.39,10.52s49.99-5.67,60.18-10.42l1.29,2.76c-10.47,4.89-29.63,10.71-61.47,10.71h0Zm786.36,201.68c-51.98,0-94.28-42.29-94.28-94.28s42.29-94.27,94.28-94.27,94.28,42.29,94.28,94.27-42.29,94.28-94.28,94.28Zm0-185.5c-50.3,0-91.23,40.92-91.23,91.23s40.92,91.23,91.23,91.23,91.23-40.92,91.23-91.23-40.92-91.23-91.23-91.23h0Z"/><path class="cls-3" d="m900.5,783.31c-28.52,0-53.99-18.11-63.4-45.06l2.88-1c8.98,25.73,33.3,43.02,60.52,43.02s51.54-17.29,60.52-43.02l2.88,1c-9.41,26.95-34.89,45.06-63.4,45.06Z"/><path class="cls-3" d="m966.11,740.46c-5.68,0-10.24-2.41-10.45-2.52l1.44-2.69s4.86,2.55,10.33,2.1l.25,3.04c-.53.04-1.06.06-1.57.06Zm-131.71,0c-.52,0-1.04-.02-1.57-.06l.25-3.04c5.46.45,10.28-2.08,10.33-2.1l1.44,2.69c-.21.11-4.77,2.52-10.45,2.52Z"/><ellipse class="cls-3" cx="923.67" cy="690.21" rx="14.87" ry="31.35"/><ellipse class="cls-3" cx="877.34" cy="690.21" rx="14.87" ry="31.35"/><path class="cls-3" d="m826.53,605.68h-203.02c-13.75,0-24.93-11.18-24.93-24.93v-59.05c0-12.06-9.82-21.88-21.88-21.88h-158.98c-13.75,0-24.93-11.18-24.93-24.93v-82.28c0-12.06-9.82-21.88-21.88-21.88h-149.41c-13.75,0-24.93-11.18-24.93-24.93v-170.32h3.05v170.32c0,12.06,9.82,21.88,21.88,21.88h149.41c13.75,0,24.93,11.18,24.93,24.93v82.28c0,12.06,9.82,21.88,21.88,21.88h158.98c13.75,0,24.93,11.18,24.93,24.93v59.05c0,12.06,9.82,21.88,21.88,21.88h203.03v3.05h0Z"/><path class="cls-3" d="m547.54,662.52h-290.17c-13.75,0-24.93-11.18-24.93-24.93v-140.71c0-12.06-9.82-21.88-21.88-21.88h-113.21v-3.05h113.21c13.75,0,24.93,11.18,24.93,24.93v140.71c0,12.06,9.82,21.88,21.88,21.88h290.17c12.06,0,21.88-9.81,21.88-21.88v-71.44c0-13.75,11.18-24.93,24.93-24.93h172.87c12.06,0,21.88-9.82,21.88-21.88v-246.45h3.05v246.45c0,13.75-11.18,24.93-24.93,24.93h-172.87c-12.06,0-21.88,9.82-21.88,21.88v71.44c0,13.74-11.18,24.93-24.93,24.93h0Z"/><path class="cls-3" d="m490.98,575.18h-159.92c-13.75,0-24.93-11.18-24.93-24.93v-290.08h3.05v290.08c0,12.06,9.82,21.88,21.88,21.88h159.92c12.06,0,21.88-9.82,21.88-21.88v-83.8c0-13.75,11.18-24.93,24.93-24.93h342.7v3.05h-342.7c-12.06,0-21.88,9.82-21.88,21.88v83.8c0,13.75-11.18,24.93-24.93,24.93Z"/><circle class="cls-3" cx="790.62" cy="272.9" r="7.03"/><circle class="cls-3" cx="880.48" cy="443.05" r="7.03"/><circle class="cls-3" cx="826.53" cy="604.15" r="7.03"/><circle class="cls-3" cx="97.35" cy="473.48" r="7.03"/><circle class="cls-3" cx="307.65" cy="260.17" r="7.03"/><circle class="cls-3" cx="198.1" cy="175.49" r="7.03"/><path class="cls-3" d="m561.05,388.29c-67.02,0-121.54-54.52-121.54-121.54s54.52-121.54,121.54-121.54,121.54,54.52,121.54,121.54-54.52,121.54-121.54,121.54Zm0-240.02c-65.33,0-118.49,53.15-118.49,118.49s53.15,118.49,118.49,118.49,118.49-53.15,118.49-118.49-53.15-118.49-118.49-118.49Z"/><path class="cls-3" d="m561.05,422.64c-85.95,0-155.88-69.93-155.88-155.88s69.93-155.88,155.88-155.88,155.88,69.93,155.88,155.88-69.93,155.88-155.88,155.88Zm0-308.71c-84.27,0-152.83,68.56-152.83,152.83s68.56,152.83,152.83,152.83,152.83-68.56,152.83-152.83-68.56-152.83-152.83-152.83h0Z"/><path class="cls-3" d="m507.63,318.01l104.67-104.67,2.16,2.16-104.67,104.67-2.16-2.16Zm27.71-3.15l68.31-68.31,2.16,2.16-68.31,68.31-2.16-2.16Zm-119.37,115.16l-18.2-18.2,45.32-45.32,2.16,2.16-43.17,43.17,13.89,13.89,43.17-43.17,2.16,2.16-45.32,45.32Z"/><path class="cls-2" d="m392.54,404.44l30.82,30.82-123.74,123.74c-8.51,8.51-22.31,8.51-30.82,0s-8.51-22.31,0-30.82l123.74-123.74Z"/><path class="cls-3" d="m284.21,566.9c-5.97,0-11.94-2.27-16.49-6.82-4.39-4.36-6.85-10.3-6.83-16.49-.02-6.19,2.44-12.13,6.83-16.49l124.82-124.82,32.98,32.98-124.82,124.82c-4.55,4.55-10.52,6.82-16.49,6.82Zm108.33-160.3l-122.66,122.66c-3.81,3.79-5.95,8.95-5.94,14.33-.02,5.38,2.12,10.54,5.94,14.33,7.9,7.9,20.76,7.9,28.67,0l122.66-122.66-28.67-28.66Zm-7.57-301.38v59.96h3.28v-59.96c-.54.07-1.08.11-1.64.11s-1.1-.04-1.64-.11Zm3.28-25.8V19.45h-3.28v59.96c.54-.07,1.09-.11,1.64-.11.56,0,1.1.04,1.64.11Zm11.26,14.54h59.96v-3.28h-59.96c.07.54.11,1.08.11,1.64s-.04,1.1-.11,1.64h0Zm-25.8-3.28h-59.96v3.28h59.96c-.07-.54-.11-1.08-.11-1.64s.04-1.1.11-1.64h0Zm4.94-8.64l-42.4-42.4-2.32,2.32,42.4,42.4c.67-.87,1.45-1.65,2.32-2.32h0Zm15.93,20.57l42.4,42.4,2.32-2.32-42.4-42.4c-.67.87-1.45,1.65-2.32,2.32Zm2.32-18.25l42.4-42.4-2.32-2.32-42.4,42.4c.87.67,1.65,1.45,2.32,2.32Zm-20.57,15.93l-42.4,42.4,2.32,2.32,42.4-42.4c-.87-.67-1.65-1.45-2.32-2.32ZM107.67,309.97l8.56,22.24,22.24,8.56-22.24,8.56-8.56,22.24-8.57-22.23-22.23-8.57,22.24-8.56,8.56-22.24Zm505.71,325.64l8.56,22.24,22.24,8.56-22.24,8.56-8.56,22.24-8.57-22.23-22.23-8.57,22.24-8.56,8.56-22.24ZM746.21,100.77l8.56,22.24,22.24,8.56-22.24,8.56-8.56,22.24-8.57-22.23-22.23-8.57,22.24-8.56,8.56-22.24Zm188.64,99.56h4.07v180.72h-4.07v-180.72Z"/><path class="cls-3" d="m1027.24,288.66v4.07h-180.72v-4.07h180.72Z"/><path class="cls-3" d="m871.54,228.24l2.88-2.88,127.79,127.78-2.88,2.88-127.78-127.78Z"/><path class="cls-3" d="m999.33,225.35l2.88,2.88-127.78,127.79-2.88-2.88,127.78-127.79Z"/><circle class="cls-3" cx="936.88" cy="290.69" r="16.13"/></svg>