<?xml version="1.0" encoding="UTF-8"?><svg id="Calque_1" xmlns="http://www.w3.org/2000/svg" viewBox="0 0 1591.19 1321.19"><defs><style>.cls-1{fill:#f1cf25;}.cls-2{fill:#fff;}.cls-3{fill:#fe9c87;}.cls-4{fill:#231f20;}.cls-5{fill:#9adbba;}.cls-6{fill:#99d1df;}</style></defs><rect class="cls-1" x="28.76" y="523.39" width="281.25" height="281.25"/><rect class="cls-3" x="1281.18" y="59.18" width="281.25" height="281.25"/><circle class="cls-5" cx="484.87" cy="153.71" r="140.25"/><circle class="cls-6" cx="912.77" cy="1167.48" r="140.25"/><path class="cls-2" d="m485.22,65.76l11.35,45.34,32.49-33.59-12.84,44.94,44.94-12.84-33.59,32.5,45.34,11.35-45.34,11.35,33.59,32.49-44.94-12.84,12.84,44.94-32.49-33.59-11.35,45.34-11.35-45.34-32.5,33.59,12.84-44.94-44.94,12.84,33.59-32.49-45.34-11.35,45.34-11.35-33.59-32.5,44.94,12.84-12.84-44.94,32.5,33.59,11.35-45.34Z"/><path class="cls-4" d="m485.22,243.16c-.93,0-1.74-.63-1.97-1.54l-10.46-41.8-29.96,30.97c-.78.81-2.06.83-2.86.05-.54-.52-.75-1.3-.54-2.02l11.84-41.43-41.43,11.84c-1.08.31-2.2-.32-2.51-1.39-.21-.72,0-1.49.54-2.01l30.97-29.96-41.8-10.46c-1.09-.27-1.74-1.38-1.47-2.46.18-.72.75-1.29,1.47-1.47l41.8-10.46-30.97-29.96c-.8-.78-.83-2.06-.05-2.87.52-.54,1.29-.75,2.01-.54l41.43,11.84-11.84-41.43c-.31-1.08.31-2.2,1.39-2.51.72-.21,1.5,0,2.02.54l29.96,30.97,10.46-41.8c.27-1.09,1.38-1.74,2.46-1.47.72.18,1.29.75,1.47,1.47l10.46,41.8,29.96-30.97c.78-.8,2.06-.83,2.87-.05.54.52.75,1.29.54,2.01l-11.84,41.43,41.43-11.84c1.08-.31,2.2.32,2.51,1.39.21.72,0,1.49-.54,2.01l-30.97,29.96,41.8,10.46c1.09.27,1.74,1.38,1.47,2.46-.18.72-.75,1.29-1.47,1.47l-41.8,10.46,30.97,29.96c.8.78.83,2.06.05,2.87-.52.54-1.29.75-2.01.54l-41.43-11.84,11.84,41.43c.31,1.08-.31,2.2-1.39,2.51-.72.21-1.5,0-2.02-.54l-29.96-30.97-10.46,41.8c-.23.9-1.04,1.53-1.97,1.53h0Zm-11.35-49.39c.93,0,1.74.63,1.97,1.53l9.38,37.48,9.38-37.48c.27-1.09,1.37-1.75,2.46-1.48.37.09.7.29.97.56l26.87,27.77-10.62-37.15c-.31-1.08.31-2.2,1.39-2.51.36-.1.75-.1,1.12,0l37.15,10.62-27.77-26.87c-.81-.78-.83-2.06-.05-2.86.26-.27.6-.47.97-.56l37.48-9.38-37.48-9.38c-1.09-.27-1.75-1.37-1.48-2.46.09-.37.29-.7.56-.97l27.77-26.87-37.15,10.62c-1.08.31-2.2-.32-2.51-1.39-.1-.36-.1-.75,0-1.11l10.62-37.15-26.87,27.77c-.78.8-2.06.83-2.86.05-.27-.26-.47-.6-.56-.97l-9.38-37.48-9.38,37.48c-.27,1.09-1.37,1.75-2.46,1.48-.37-.09-.7-.29-.97-.56l-26.86-27.77,10.62,37.15c.31,1.08-.31,2.2-1.39,2.51-.36.1-.75.1-1.12,0l-37.15-10.62,27.77,26.86c.81.78.83,2.06.05,2.86-.26.27-.6.47-.97.56l-37.48,9.38,37.48,9.38c1.09.27,1.75,1.37,1.48,2.46-.09.37-.29.7-.56.97l-27.77,26.87,37.15-10.62c1.08-.31,2.2.32,2.51,1.39.1.36.1.75,0,1.11l-10.62,37.15,26.86-27.77c.39-.4.92-.62,1.46-.62Zm-54.17,706.45c-47.23,0-91.64-3.93-125.07-11.07-24.29-5.19-53.24-14.36-53.24-28.61s28.95-23.42,53.24-28.61c33.43-7.14,77.85-11.07,125.07-11.07s91.64,3.93,125.07,11.07c24.29,5.19,53.24,14.36,53.24,28.61s-28.95,23.42-53.23,28.61c-33.43,7.14-77.85,11.07-125.07,11.07h0Zm0-75.3c-104.23,0-174.26,18.42-174.26,35.62s70.02,35.63,174.26,35.63,174.26-18.42,174.26-35.62-70.02-35.62-174.26-35.62h0Z"/><path class="cls-4" d="m419.71,937.88c-47.23,0-91.64-3.93-125.07-11.07-24.29-5.19-53.24-14.36-53.24-28.61s28.95-23.42,53.24-28.61c33.43-7.14,77.85-11.07,125.07-11.07s91.64,3.93,125.07,11.07c24.29,5.19,53.23,14.36,53.23,28.61s-28.95,23.42-53.23,28.61c-33.43,7.14-77.85,11.07-125.07,11.07Zm0-75.3c-104.24,0-174.26,18.42-174.26,35.63s70.02,35.63,174.26,35.63,174.26-18.42,174.26-35.63-70.02-35.62-174.26-35.62h0Zm0-37.65c-47.23,0-91.64-3.93-125.07-11.07-24.29-5.19-53.24-14.36-53.24-28.61s28.95-23.42,53.24-28.61c33.43-7.14,77.85-11.07,125.07-11.07s91.64,3.93,125.07,11.07c24.29,5.19,53.23,14.36,53.23,28.61s-28.95,23.42-53.23,28.61c-33.43,7.14-77.85,11.07-125.07,11.07Zm0-75.3c-104.24,0-174.26,18.42-174.26,35.62s70.02,35.63,174.26,35.63,174.26-18.42,174.26-35.63-70.02-35.62-174.26-35.62h0Z"/><path class="cls-4" d="m419.71,862.57c-47.23,0-91.64-3.93-125.07-11.07-24.29-5.19-53.24-14.36-53.24-28.61s28.95-23.42,53.24-28.61c33.43-7.14,77.85-11.07,125.07-11.07s91.64,3.93,125.07,11.07c24.29,5.19,53.23,14.36,53.23,28.61s-28.95,23.42-53.23,28.61c-33.43,7.14-77.85,11.07-125.07,11.07Zm0-75.3c-104.24,0-174.26,18.42-174.26,35.63s70.02,35.62,174.26,35.62,174.26-18.42,174.26-35.62-70.02-35.63-174.26-35.63h0Zm0,188.26c-47.23,0-91.64-3.93-125.07-11.07-24.29-5.19-53.24-14.36-53.24-28.61s28.95-23.42,53.24-28.61c33.43-7.14,77.85-11.07,125.07-11.07s91.64,3.93,125.07,11.07c24.29,5.19,53.23,14.36,53.23,28.61s-28.95,23.42-53.23,28.61c-33.43,7.14-77.85,11.07-125.07,11.07Zm0-75.31c-104.24,0-174.26,18.42-174.26,35.63s70.02,35.62,174.26,35.62,174.26-18.42,174.26-35.62-70.02-35.63-174.26-35.63h0Z"/><path class="cls-4" d="m419.71,1013.18c-47.23,0-91.64-3.93-125.07-11.07-24.29-5.19-53.24-14.36-53.24-28.61s28.95-23.42,53.24-28.61c33.43-7.14,77.85-11.07,125.07-11.07s91.64,3.93,125.07,11.07c24.29,5.19,53.23,14.36,53.23,28.61s-28.95,23.42-53.23,28.61c-33.43,7.14-77.85,11.07-125.07,11.07Zm0-75.31c-104.24,0-174.26,18.42-174.26,35.62s70.02,35.62,174.26,35.62,174.26-18.42,174.26-35.62-70.02-35.62-174.26-35.62h0Z"/><path class="cls-4" d="m419.71,1050.83c-47.23,0-91.64-3.93-125.07-11.07-24.29-5.19-53.24-14.36-53.24-28.61s28.95-23.42,53.24-28.61c33.43-7.14,77.85-11.07,125.07-11.07s91.64,3.93,125.07,11.07c24.29,5.19,53.23,14.36,53.23,28.61s-28.95,23.42-53.23,28.61c-33.43,7.14-77.85,11.07-125.07,11.07Zm0-75.31c-104.24,0-174.26,18.42-174.26,35.62s70.02,35.63,174.26,35.63,174.26-18.42,174.26-35.63-70.02-35.62-174.26-35.62h0Z"/><path class="cls-4" d="m419.71,1088.49c-47.23,0-91.64-3.93-125.07-11.07-24.29-5.19-53.24-14.36-53.24-28.61s28.95-23.42,53.24-28.61c33.43-7.14,77.85-11.07,125.07-11.07s91.64,3.93,125.07,11.07c24.29,5.19,53.23,14.36,53.23,28.61s-28.95,23.42-53.23,28.61c-33.43,7.14-77.85,11.07-125.07,11.07Zm0-75.31c-104.24,0-174.26,18.42-174.26,35.63s70.02,35.62,174.26,35.62,174.26-18.42,174.26-35.62-70.02-35.63-174.26-35.63h0Zm411.92-448.38l2.87-2.87,110.87,110.87-2.87,2.87-110.87-110.87Z"/><path class="cls-4" d="m831.63,672.8l110.87-110.87,2.86,2.86-110.87,110.87-2.86-2.86Z"/><path class="cls-4" d="m833.35,676.24l-.56-4.01c.42-.06,42.69-6.31,72.76-36.38s36.32-72.34,36.38-72.76l4.01.56c-.06.44-6.48,44.01-37.53,75.07-31.06,31.05-74.63,37.47-75.07,37.53h0Z"/><path class="cls-4" d="m888.51,699.19c-20.59,0-41.19-7.84-56.87-23.52-31.36-31.36-31.36-82.38,0-113.74,15.19-15.19,35.39-23.56,56.87-23.56s41.68,8.37,56.87,23.56c31.36,31.36,31.36,82.38,0,113.74-15.68,15.68-36.27,23.52-56.87,23.52h0Zm0-156.76c-20.4,0-39.58,7.94-54,22.37-29.78,29.78-29.78,78.23,0,108.01s78.23,29.78,108.01,0c29.78-29.78,29.78-78.23,0-108.01-14.42-14.42-33.6-22.37-54-22.37Z"/><path class="cls-4" d="m866.6,683.25c-1.23,0-2.42-.03-3.57-.08-17.94-.77-30.34-6.86-30.86-7.12l1.81-3.63c.12.06,12.28,6.01,29.4,6.71,22.86.95,43.26-7.41,60.66-24.8s25.74-37.81,24.8-60.66c-.7-17.12-6.65-29.28-6.71-29.4l3.63-1.81c.26.52,6.35,12.92,7.12,30.86.71,16.57-3.21,41.1-25.98,63.87-21.18,21.18-43.9,26.06-60.3,26.06Z"/><path class="cls-4" d="m835.08,674.52l-4.01-.56c.06-.44,6.48-44.01,37.53-75.07,31.05-31.05,74.63-37.47,75.07-37.53l.56,4.01c-.42.06-42.69,6.31-72.76,36.38-30.07,30.07-36.32,72.34-36.38,72.76Z"/><path class="cls-4" d="m831.26,675.14c-.26-.52-6.35-12.92-7.12-30.86-.71-16.57,3.21-41.1,25.98-63.87,22.77-22.77,47.3-26.7,63.87-25.98,17.94.77,30.34,6.86,30.86,7.12l-1.81,3.63c-.12-.06-12.28-6.01-29.4-6.71-22.85-.94-43.26,7.41-60.66,24.81-41.56,41.56-18.34,89.58-18.1,90.06l-3.63,1.81Z"/><path class="cls-4" d="m911.37,693.96c-3.13-7.84-13.4-29.06-41.18-56.84-27.78-27.78-49.01-38.05-56.84-41.18l1.5-3.77c8.07,3.22,29.89,13.77,58.21,42.08,28.31,28.31,38.86,50.14,42.08,58.21l-3.76,1.5Zm-30.1,3.56c-3.22-8.86-10.97-23.33-29.56-41.93-18.7-18.7-33.22-26.44-42.11-29.63l1.37-3.81c9.28,3.34,24.38,11.35,43.61,30.58s27.15,34.16,30.51,43.41l-3.81,1.38Zm80.89-52.09c-8.07-3.22-29.9-13.77-58.21-42.08-28.31-28.31-38.86-50.14-42.08-58.21l3.77-1.5c3.13,7.84,13.4,29.06,41.18,56.84s49.01,38.05,56.84,41.18l-1.5,3.77Zm3.68-30.05c-9.25-3.36-24.29-11.38-43.41-30.51-19.23-19.23-27.24-34.33-30.58-43.61l3.81-1.37c3.2,8.89,10.93,23.41,29.63,42.11,18.6,18.6,33.07,26.34,41.93,29.56l-1.38,3.81Z"/><path class="cls-2" d="m118.72,246.17h773.68v329.45c0,13.43-10.89,24.32-24.32,24.32H143.04c-13.43,0-24.32-10.89-24.32-24.32V246.17Z"/><path class="cls-4" d="m868.07,601.97H143.04c-14.53,0-26.35-11.82-26.35-26.35V244.14h777.73v331.48c0,14.53-11.82,26.35-26.35,26.35h0ZM120.74,248.2v327.42c0,12.29,10,22.29,22.29,22.29h725.03c12.29,0,22.29-10,22.29-22.29V248.2H120.74Z"/><path class="cls-2" d="m143.04,153.45h725.03c13.43,0,24.32,10.89,24.32,24.32v68.4H118.72v-68.4c0-13.43,10.89-24.32,24.32-24.32Z"/><path class="cls-4" d="m894.42,248.2H116.69v-70.43c0-14.53,11.82-26.35,26.35-26.35h725.03c14.53,0,26.35,11.82,26.35,26.35v70.43Zm-773.68-4.05h769.62v-66.38c0-12.29-10-22.29-22.29-22.29H143.04c-12.29,0-22.29,10-22.29,22.29v66.38h0Z"/><circle class="cls-4" cx="174.45" cy="199.81" r="14.65"/><circle class="cls-4" cx="225.08" cy="199.81" r="14.65"/><circle class="cls-4" cx="275.7" cy="199.81" r="14.65"/><path class="cls-2" d="m925.81,246.17h547.87v449.76c0,13.43-10.89,24.32-24.32,24.32h-499.22c-13.43,0-24.32-10.89-24.32-24.32V246.17Z"/><path class="cls-4" d="m1449.36,722.28h-499.23c-14.53,0-26.35-11.82-26.35-26.35V244.14h551.92v451.79c0,14.53-11.82,26.35-26.35,26.35ZM927.84,248.2v447.73c0,12.29,10,22.29,22.29,22.29h499.22c12.29,0,22.29-10,22.29-22.29V248.2h-543.81Z"/><path class="cls-2" d="m950.13,153.45h499.23c13.43,0,24.32,10.89,24.32,24.32v68.4h-547.87v-68.4c0-13.43,10.89-24.32,24.32-24.32Z"/><path class="cls-4" d="m1475.71,248.2h-551.92v-70.43c0-14.53,11.82-26.35,26.35-26.35h499.22c14.53,0,26.35,11.82,26.35,26.35v70.43Zm-547.87-4.05h543.81v-66.38c0-12.29-10-22.29-22.29-22.29h-499.23c-12.29,0-22.29,10-22.29,22.29v66.38Z"/><circle class="cls-4" cx="981.55" cy="199.81" r="14.65"/><circle class="cls-4" cx="1032.17" cy="199.81" r="14.65"/><circle class="cls-4" cx="1082.79" cy="199.81" r="14.65" transform="translate(712.12 1236.61) rotate(-80.78)"/><path class="cls-2" d="m925.81,846.25h547.87v294.88c0,13.43-10.89,24.32-24.32,24.32h-499.22c-13.43,0-24.32-10.89-24.32-24.32v-294.88Z"/><path class="cls-4" d="m1449.36,1167.48h-499.23c-14.53,0-26.35-11.82-26.35-26.35v-296.91h551.92v296.91c0,14.53-11.82,26.35-26.35,26.35Zm-521.52-319.2v292.86c0,12.29,10,22.29,22.29,22.29h499.22c12.29,0,22.29-10,22.29-22.29v-292.86h-543.81Z"/><path class="cls-2" d="m950.13,753.53h499.23c13.43,0,24.32,10.89,24.32,24.32v68.4h-547.87v-68.4c0-13.43,10.89-24.32,24.32-24.32Z"/><path class="cls-4" d="m1475.71,848.28h-551.92v-70.43c0-14.53,11.82-26.35,26.35-26.35h499.22c14.53,0,26.35,11.82,26.35,26.35v70.43Zm-547.87-4.05h543.81v-66.38c0-12.29-10-22.29-22.29-22.29h-499.23c-12.29,0-22.29,10-22.29,22.29v66.38Z"/><circle class="cls-4" cx="981.55" cy="799.89" r="14.65"/><circle class="cls-4" cx="1032.17" cy="799.89" r="14.65"/><circle class="cls-4" cx="1082.79" cy="799.89" r="14.65" transform="translate(119.79 1740.57) rotate(-80.78)"/><path class="cls-2" d="m522.26,726.09h370.13v415.05c0,13.43-10.89,24.32-24.32,24.32h-321.49c-13.43,0-24.32-10.89-24.32-24.32v-415.05Z"/><path class="cls-4" d="m868.07,1167.48h-321.48c-14.53,0-26.35-11.82-26.35-26.35v-417.07h374.18v417.07c0,14.53-11.82,26.35-26.35,26.35h0Zm-343.78-439.37v413.02c0,12.29,10,22.29,22.29,22.29h321.48c12.29,0,22.29-10,22.29-22.29v-413.02h-366.07Z"/><path class="cls-2" d="m546.59,633.36h321.49c13.43,0,24.32,10.89,24.32,24.32v68.4h-370.13v-68.4c0-13.43,10.89-24.32,24.32-24.32Z"/><path class="cls-4" d="m894.42,728.11h-374.18v-70.43c0-14.53,11.82-26.35,26.35-26.35h321.48c14.53,0,26.35,11.82,26.35,26.35v70.43Zm-370.13-4.05h366.07v-66.38c0-12.29-10-22.29-22.29-22.29h-321.48c-12.29,0-22.29,10-22.29,22.29v66.38h0Z"/><circle class="cls-4" cx="578" cy="679.72" r="14.65"/><circle class="cls-4" cx="628.62" cy="679.72" r="14.65"/><circle class="cls-4" cx="679.25" cy="679.72" r="14.65"/><path class="cls-2" d="m118.72,726.09h370.13v415.05c0,13.43-10.89,24.32-24.32,24.32H143.04c-13.43,0-24.32-10.89-24.32-24.32v-415.05Z"/><path class="cls-4" d="m464.52,1167.48H143.04c-14.53,0-26.35-11.82-26.35-26.35v-417.07h374.18v417.07c0,14.53-11.82,26.35-26.35,26.35ZM120.74,728.11v413.02c0,12.29,10,22.29,22.29,22.29h321.49c12.29,0,22.29-10,22.29-22.29v-413.02H120.74Z"/><path class="cls-2" d="m143.04,633.36h321.49c13.43,0,24.32,10.89,24.32,24.32v68.4H118.72v-68.4c0-13.43,10.89-24.32,24.32-24.32Z"/><path class="cls-4" d="m490.87,728.11H116.69v-70.43c0-14.53,11.82-26.35,26.35-26.35h321.48c14.53,0,26.35,11.82,26.35,26.35v70.43Zm-370.13-4.05h366.07v-66.38c0-12.29-10-22.29-22.29-22.29H143.04c-12.29,0-22.29,10-22.29,22.29v66.38h0Z"/><circle class="cls-4" cx="174.45" cy="679.72" r="14.65"/><circle class="cls-4" cx="225.08" cy="679.72" r="14.65"/><circle class="cls-4" cx="275.7" cy="679.72" r="14.65"/><path class="cls-2" d="m172.88,322.49h665.36v14.1H172.88v-14.1Z"/><path class="cls-4" d="m840.26,338.62H170.85v-18.15h669.41v18.15Zm-665.36-4.05h661.3v-10.05H174.9v10.05Z"/><path class="cls-4" d="m172.88,336.59h629.65v14.1H172.88v-14.1Z"/><path class="cls-2" d="m172.88,380.13h601.33v14.1H172.88v-14.1Z"/><path class="cls-4" d="m776.23,396.26H170.85v-18.15h605.38v18.15Zm-601.33-4.05h597.27v-10.05H174.9v10.05Z"/><path class="cls-4" d="m172.88,394.23h551.62v14.1H172.88v-14.1Z"/><path class="cls-2" d="m172.88,437.78h539.61v14.1H172.88v-14.1Z"/><path class="cls-4" d="m714.52,453.9H170.85v-18.15h543.67v18.15Zm-539.61-4.05h535.56v-10.05H174.9v10.05Z"/><path class="cls-4" d="m172.88,451.88h434.51v14.1H172.88v-14.1Z"/><path class="cls-2" d="m172.88,495.42h578.38v14.1H172.88v-14.1Z"/><path class="cls-4" d="m753.28,511.54H170.85v-18.15h582.43v18.15Zm-578.38-4.05h574.33v-10.05H174.9v10.05Z"/><path class="cls-4" d="m172.88,509.52h564.74v14.1H172.88v-14.1Z"/><path class="cls-4" d="m170.85,294.35h4.05v257.41h-4.05v-257.41Zm807.66,816.38h442.48v4.05h-442.48v-4.05Zm441.67-212.54c0-.44.36-.81.81-.81s.81.36.81.81-.36.82-.81.82c-.45,0-.81-.37-.81-.82h0Zm-8.11,0c0-.44.36-.81.81-.81s.82.36.82.81-.36.82-.82.82c-.45,0-.81-.37-.81-.82Zm-8.11,0c0-.44.37-.81.81-.81s.81.36.81.81-.36.82-.81.82-.81-.37-.81-.82Zm-8.1,0c0-.44.36-.81.81-.81s.82.36.82.81-.36.82-.82.82-.81-.37-.81-.82Zm-8.11,0c0-.44.36-.81.81-.81s.81.36.81.81-.36.82-.81.82-.81-.37-.81-.82Zm-8.11,0c0-.44.37-.81.81-.81s.82.37.82.81-.37.82-.82.82c-.45,0-.81-.37-.81-.82Zm-8.1,0c0-.44.36-.81.81-.81s.81.37.81.81-.37.82-.81.82-.81-.37-.81-.82Zm-8.11,0c0-.44.36-.81.81-.81s.81.36.81.81-.36.82-.81.82c-.45,0-.81-.37-.81-.82h0Zm-8.11,0c0-.44.36-.81.81-.81s.81.36.81.81-.36.82-.81.82c-.45,0-.81-.37-.81-.82Zm-8.1,0c0-.44.36-.81.81-.81s.81.37.81.81-.37.82-.81.82-.81-.37-.81-.82Zm-8.11,0c0-.44.36-.81.81-.81s.81.36.81.81-.36.82-.81.82-.81-.37-.81-.82Zm-8.11,0c0-.44.36-.81.81-.81s.82.36.82.81-.36.82-.82.82-.81-.37-.81-.82Zm-8.11,0c0-.44.37-.81.82-.81s.81.37.81.81-.37.82-.81.82c-.45,0-.82-.37-.82-.82Zm-8.1,0c0-.44.36-.81.81-.81s.82.36.82.81-.36.82-.82.82-.81-.37-.81-.82Zm-8.11,0c0-.44.36-.81.81-.81s.82.36.82.81-.36.82-.82.82h0c-.45,0-.81-.37-.81-.82h0Zm-8.11,0c0-.44.37-.81.81-.81s.82.36.82.81-.36.82-.82.82-.81-.37-.81-.82Zm-8.1,0c0-.44.36-.81.81-.81s.81.37.81.81-.37.82-.81.82-.81-.37-.81-.82Zm-8.11,0c0-.44.36-.81.81-.81s.82.36.82.81-.36.82-.82.82h0c-.45,0-.81-.37-.81-.82Zm-8.11,0c0-.44.37-.81.81-.81s.81.36.81.81-.36.82-.81.82-.81-.37-.81-.82Zm-8.1,0c0-.44.36-.81.81-.81s.81.37.81.81-.37.82-.81.82-.81-.37-.81-.82Zm-8.11,0c0-.44.36-.81.81-.81s.81.36.81.81-.36.82-.81.82-.81-.37-.81-.82Zm-8.11,0c0-.44.36-.81.81-.81s.82.36.82.81-.36.82-.82.82c-.45,0-.81-.37-.81-.82h0Zm-8.11,0c0-.44.37-.81.82-.81s.81.37.81.81-.37.82-.81.82-.82-.37-.82-.82Zm-8.1,0c0-.44.36-.81.81-.81s.82.36.82.81-.36.82-.82.82-.81-.37-.81-.82Zm-8.11,0c0-.44.36-.81.81-.81s.81.36.81.81-.36.82-.81.82-.81-.37-.81-.82Zm-8.11,0c0-.44.37-.81.81-.81s.82.36.82.81-.36.82-.82.82h0c-.44,0-.81-.37-.81-.82Zm-8.1,0c0-.44.36-.81.81-.81s.81.37.81.81-.37.82-.81.82-.81-.37-.81-.82Zm-8.11,0c0-.44.36-.81.81-.81s.82.36.82.81-.36.82-.82.82-.81-.37-.81-.82Zm-8.11,0c0-.44.37-.81.81-.81s.81.36.81.81-.36.82-.81.82c-.45,0-.81-.37-.81-.82Zm-8.1,0c0-.44.36-.81.81-.81s.81.37.81.81-.37.82-.81.82-.81-.37-.81-.82Zm-8.11,0c0-.44.36-.81.81-.81s.81.36.81.81-.36.82-.81.82-.81-.37-.81-.82Zm-8.11,0c0-.44.36-.81.81-.81s.82.36.82.81-.36.82-.82.82h0c-.45,0-.81-.37-.81-.82Zm-8.11,0c0-.44.37-.81.82-.81s.81.37.81.81-.37.82-.81.82-.82-.37-.82-.82Zm-8.1,0c0-.44.36-.81.81-.81s.82.36.82.81-.36.82-.82.82-.81-.37-.81-.82Zm-8.11,0c0-.44.36-.81.81-.81s.81.36.81.81-.36.82-.81.82-.81-.37-.81-.82Zm-8.11,0c0-.44.37-.81.81-.81s.82.37.82.81-.37.82-.82.82c-.45,0-.81-.37-.81-.82Zm-8.1,0c0-.44.36-.81.81-.81s.81.36.81.81-.36.82-.81.82-.81-.37-.81-.82Zm-8.11,0c0-.44.36-.81.81-.81s.82.36.82.81-.36.82-.82.82-.81-.37-.81-.82Zm-8.11,0c0-.44.37-.81.81-.81s.81.36.81.81-.36.82-.81.82-.81-.37-.81-.82Zm-8.1,0c0-.44.36-.81.81-.81s.81.37.81.81-.37.82-.81.82-.81-.37-.81-.82Zm-8.11,0c0-.44.36-.81.81-.81s.81.36.81.81-.36.82-.81.82-.81-.37-.81-.82Zm-8.11,0c0-.44.37-.81.81-.81s.82.36.82.81-.36.82-.82.82c-.45,0-.81-.37-.81-.82Zm-8.1,0c0-.44.36-.81.81-.81s.81.37.81.81-.37.82-.81.82-.81-.37-.81-.82Zm-8.11,0c0-.44.36-.81.81-.81s.82.36.82.81-.36.82-.82.82-.81-.37-.81-.82Zm-8.11,0c0-.44.36-.81.81-.81s.82.36.82.81-.36.82-.82.82-.81-.37-.81-.82Zm-8.11,0c0-.44.37-.81.82-.81s.81.37.81.81-.37.82-.81.82-.82-.37-.82-.82Zm-8.1,0c0-.44.36-.81.81-.81s.82.36.82.81-.36.82-.82.82-.81-.37-.81-.82Zm-8.11,0c0-.44.36-.81.81-.81s.82.36.82.81-.36.82-.82.82-.81-.37-.81-.82Zm-8.11,0c0-.44.37-.81.81-.81s.82.36.82.81-.36.82-.82.82c-.45,0-.81-.37-.81-.82Zm-8.1,0c0-.44.36-.81.81-.81s.81.37.81.81-.37.82-.81.82-.81-.37-.81-.82Zm-8.11,0c0-.44.36-.81.81-.81s.82.36.82.81-.36.82-.82.82-.81-.37-.81-.82Zm-8.11,0c0-.44.37-.81.81-.81s.82.36.82.81-.36.82-.82.82-.81-.37-.81-.82Zm-8.1,0c0-.44.36-.81.81-.81s.81.37.81.81-.37.82-.81.82-.81-.37-.81-.82Zm-8.11,0c0-.44.36-.81.81-.81s.82.36.82.81-.36.82-.82.82-.81-.37-.81-.82Zm-8.11,0c0-.44.36-.81.81-.81s.82.36.82.81-.36.82-.82.82-.81-.37-.81-.82Zm437.78,71.52c0-.44.36-.81.81-.81s.81.36.81.81-.36.82-.81.82c-.45,0-.81-.37-.81-.82h0Zm-8.11,0c0-.44.36-.81.81-.81s.82.36.82.81-.36.82-.82.82c-.45,0-.81-.37-.81-.82Zm-8.11,0c0-.44.37-.81.81-.81s.81.36.81.81-.36.82-.81.82-.81-.37-.81-.82Zm-8.1,0c0-.44.36-.81.81-.81s.82.36.82.81-.36.82-.82.82-.81-.37-.81-.82Zm-8.11,0c0-.44.36-.81.81-.81s.81.36.81.81-.36.82-.81.82-.81-.37-.81-.82Zm-8.11,0c0-.44.37-.81.81-.81s.82.37.82.81-.37.82-.82.82c-.45,0-.81-.37-.81-.82Zm-8.1,0c0-.44.36-.81.81-.81s.81.37.81.81-.37.82-.81.82-.81-.37-.81-.82Zm-8.11,0c0-.44.36-.81.81-.81s.82.36.82.81-.36.82-.82.82c-.45,0-.81-.37-.81-.82h0Zm-8.11,0c0-.44.36-.81.81-.81s.81.36.81.81-.36.82-.81.82c-.45,0-.81-.37-.81-.82Zm-8.1,0c0-.44.36-.81.81-.81s.81.37.81.81-.37.82-.81.82-.81-.37-.81-.82Zm-8.11,0c0-.44.36-.81.81-.81s.81.36.81.81-.36.82-.81.82-.81-.37-.81-.82Zm-8.11,0c0-.44.36-.81.81-.81s.81.36.81.81-.36.82-.81.82-.81-.37-.81-.82Zm-8.11,0c0-.44.37-.81.82-.81s.81.37.81.81-.37.82-.81.82c-.45,0-.82-.37-.82-.82Zm-8.1,0c0-.44.36-.81.81-.81s.82.36.82.81-.36.82-.82.82h0c-.45,0-.81-.37-.81-.82Zm-8.11,0c0-.44.36-.81.81-.81s.81.36.81.81-.36.82-.81.82c-.45,0-.81-.37-.81-.82h0Zm-8.11,0c0-.44.37-.81.81-.81s.82.36.82.81-.36.82-.82.82-.81-.37-.81-.82Zm-8.1,0c0-.44.36-.81.81-.81s.81.37.81.81-.37.82-.81.82-.81-.37-.81-.82Zm-8.11,0c0-.44.36-.81.81-.81s.82.36.82.81-.36.82-.82.82-.81-.37-.81-.82Zm-8.11,0c0-.44.37-.81.81-.81s.82.36.82.81-.36.82-.82.82h0c-.44,0-.81-.37-.81-.82Zm-8.1,0c0-.44.36-.81.81-.81s.81.37.81.81-.37.82-.81.82-.81-.37-.81-.82Zm-8.11,0c0-.44.36-.81.81-.81s.81.36.81.81-.36.82-.81.82-.81-.37-.81-.82Zm-8.11,0c0-.44.36-.81.81-.81s.82.36.82.81-.36.82-.82.82c-.45,0-.81-.37-.81-.82h0Zm-8.11,0c0-.44.37-.81.82-.81s.81.37.81.81-.37.82-.81.82-.82-.37-.82-.82Zm-8.1,0c0-.44.36-.81.81-.81s.82.36.82.81-.36.82-.82.82-.81-.37-.81-.82Zm-8.11,0c0-.44.36-.81.81-.81s.81.36.81.81-.36.82-.81.82-.81-.37-.81-.82Zm-8.11,0c0-.44.37-.81.81-.81s.82.36.82.81-.36.82-.82.82-.81-.37-.81-.82Zm-8.1,0c0-.44.36-.81.81-.81s.81.37.81.81-.37.82-.81.82-.81-.37-.81-.82Zm-8.11,0c0-.44.36-.81.81-.81s.82.36.82.81-.36.82-.82.82-.81-.37-.81-.82Zm-8.11,0c0-.44.37-.81.81-.81s.81.36.81.81-.36.82-.81.82c-.45,0-.81-.37-.81-.82Zm-8.1,0c0-.44.36-.81.81-.81s.81.37.81.81-.37.82-.81.82-.81-.37-.81-.82Zm-8.11,0c0-.44.36-.81.81-.81s.81.36.81.81-.36.82-.81.82-.81-.37-.81-.82Zm-8.11,0c0-.44.36-.81.81-.81s.82.36.82.81-.36.82-.82.82-.81-.37-.81-.82Zm-8.11,0c0-.44.37-.81.82-.81s.81.37.81.81-.37.82-.81.82-.82-.37-.82-.82Zm-8.1,0c0-.44.36-.81.81-.81s.82.36.82.81-.36.82-.82.82-.81-.37-.81-.82Zm-8.11,0c0-.44.36-.81.81-.81s.81.36.81.81-.36.82-.81.82-.81-.37-.81-.82Zm-8.11,0c0-.44.37-.81.81-.81s.82.37.82.81-.37.82-.82.82c-.45,0-.81-.37-.81-.82Zm-8.1,0c0-.44.36-.81.81-.81s.81.36.81.81-.36.82-.81.82-.81-.37-.81-.82Zm-8.11,0c0-.44.36-.81.81-.81s.82.36.82.81-.36.82-.82.82-.81-.37-.81-.82Zm-8.11,0c0-.44.37-.81.81-.81s.81.36.81.81-.36.82-.81.82-.81-.37-.81-.82Zm-8.1,0c0-.44.36-.81.81-.81s.81.37.81.81-.37.82-.81.82-.81-.37-.81-.82Zm-8.11,0c0-.44.36-.81.81-.81s.81.36.81.81-.36.82-.81.82-.81-.37-.81-.82Zm-8.11,0c0-.44.37-.81.81-.81s.82.36.82.81-.36.82-.82.82c-.45,0-.81-.37-.81-.82Zm-8.1,0c0-.44.36-.81.81-.81s.81.37.81.81-.37.82-.81.82-.81-.37-.81-.82Zm-8.11,0c0-.44.36-.81.81-.81s.82.36.82.81-.36.82-.82.82-.81-.37-.81-.82Zm-8.11,0c0-.44.36-.81.81-.81s.82.36.82.81-.36.82-.82.82-.81-.37-.81-.82Zm-8.11,0c0-.44.37-.81.82-.81s.81.37.81.81-.37.82-.81.82-.82-.37-.82-.82Zm-8.1,0c0-.44.36-.81.81-.81s.82.36.82.81-.36.82-.82.82-.81-.37-.81-.82Zm-8.11,0c0-.44.36-.81.81-.81s.82.36.82.81-.36.82-.82.82-.81-.37-.81-.82Zm-8.11,0c0-.44.37-.81.81-.81s.82.36.82.81-.36.82-.82.82c-.45,0-.81-.37-.81-.82Zm-8.1,0c0-.44.36-.81.81-.81s.81.37.81.81-.37.82-.81.82-.81-.37-.81-.82Zm-8.11,0c0-.44.36-.81.81-.81s.82.36.82.81-.36.82-.82.82-.81-.37-.81-.82Zm-8.11,0c0-.44.37-.81.81-.81s.82.36.82.81-.36.82-.82.82-.81-.37-.81-.82Zm-8.1,0c0-.44.36-.81.81-.81s.81.37.81.81-.37.82-.81.82-.81-.37-.81-.82Zm-8.11,0c0-.44.36-.81.81-.81s.82.36.82.81-.36.82-.82.82h0c-.45,0-.81-.37-.81-.82Zm-8.11,0c0-.44.36-.81.81-.81s.82.36.82.81-.36.82-.82.82h0c-.45,0-.81-.37-.81-.82Zm437.78,71.53c0-.45.36-.81.81-.81s.81.36.81.81-.36.81-.81.81c-.45,0-.81-.36-.81-.81Zm-8.11,0c0-.45.36-.81.81-.81s.81.36.81.81-.36.81-.81.81c-.45,0-.81-.36-.81-.81Zm-8.11,0c0-.45.37-.81.81-.81s.81.36.81.81-.36.81-.81.81c-.45,0-.8-.36-.81-.81Zm-8.1,0c0-.45.36-.81.81-.81s.81.36.81.81-.36.81-.81.81-.81-.37-.81-.81Zm-8.11,0c0-.45.36-.81.81-.81s.81.36.81.81-.36.81-.81.81-.81-.37-.81-.81Zm-8.11,0c0-.45.36-.81.82-.81s.81.36.81.81-.37.81-.82.81c-.45,0-.81-.36-.81-.81Zm-8.1,0c0-.45.36-.81.81-.81s.81.36.81.81-.37.81-.81.81-.81-.37-.81-.81Zm-8.11,0c0-.45.36-.81.81-.81s.81.36.81.81-.36.81-.81.81c-.45,0-.81-.36-.81-.81Zm-8.11,0c0-.45.36-.81.81-.81s.81.36.81.81-.36.81-.81.81c-.45,0-.81-.36-.81-.81Zm-8.1,0c0-.45.36-.81.81-.81s.81.36.81.81-.37.81-.81.81-.81-.37-.81-.81Zm-8.11,0c0-.45.36-.81.81-.81s.81.36.81.81-.36.81-.81.81-.81-.37-.81-.81Zm-8.11,0c0-.45.36-.81.81-.81s.81.36.81.81-.36.81-.81.81-.81-.37-.81-.81Zm-8.11,0c0-.45.36-.81.81-.81s.82.36.82.81-.37.81-.81.81c-.45,0-.81-.36-.82-.81Zm-8.1,0c0-.45.36-.81.81-.81s.81.36.81.81-.36.81-.81.81-.81-.37-.81-.81Zm-8.11,0c0-.45.36-.81.81-.81s.81.36.81.81-.36.81-.81.81c-.45,0-.81-.36-.81-.81Zm-8.11,0c0-.45.37-.81.81-.81s.81.36.81.81-.36.81-.81.81c-.45,0-.8-.36-.81-.81Zm-8.1,0c0-.45.36-.81.81-.81s.81.36.81.81-.37.81-.81.81-.81-.37-.81-.81Zm-8.11,0c0-.45.36-.81.81-.81s.81.36.81.81-.36.81-.81.81-.81-.37-.81-.81Zm-8.11,0c0-.45.37-.81.81-.81s.81.36.81.81-.36.81-.81.81c-.45,0-.8-.36-.81-.81Zm-8.1,0c0-.45.36-.81.81-.81s.81.36.81.81-.37.81-.81.81-.81-.37-.81-.81Zm-8.11,0c0-.45.36-.81.81-.81s.81.36.81.81-.36.81-.81.81-.81-.37-.81-.81Zm-8.11,0c0-.45.36-.81.81-.81s.81.36.81.81-.36.81-.81.81c-.45,0-.81-.36-.81-.81Zm-8.11,0c0-.45.36-.81.81-.81s.82.36.82.81-.37.81-.81.81-.82-.37-.82-.81Zm-8.1,0c0-.45.36-.81.81-.81s.81.36.81.81-.36.81-.81.81-.81-.37-.81-.81Zm-8.11,0c0-.45.36-.81.81-.81s.81.36.81.81-.36.81-.81.81-.81-.37-.81-.81Zm-8.11,0c0-.45.37-.81.81-.81s.81.36.81.81-.36.81-.81.81c-.45,0-.8-.36-.81-.81Zm-8.1,0c0-.45.36-.81.81-.81s.81.36.81.81-.37.81-.81.81-.81-.37-.81-.81Zm-8.11,0c0-.45.36-.81.81-.81s.81.36.81.81-.36.81-.81.81-.81-.37-.81-.81Zm-8.11,0c0-.45.37-.81.81-.81s.81.36.81.81-.36.81-.81.81c-.45,0-.81-.36-.81-.81Zm-8.1,0c0-.45.36-.81.81-.81s.81.36.81.81-.37.81-.81.81-.81-.37-.81-.81Zm-8.11,0c0-.45.36-.81.81-.81s.81.36.81.81-.36.81-.81.81-.81-.37-.81-.81Zm-8.11,0c0-.45.36-.81.81-.81s.81.36.81.81-.36.81-.81.81-.81-.37-.81-.81Zm-8.11,0c0-.45.36-.81.81-.81s.82.36.82.81-.37.81-.81.81-.82-.37-.82-.81Zm-8.1,0c0-.45.36-.81.81-.81s.81.36.81.81-.36.81-.81.81-.81-.37-.81-.81Zm-8.11,0c0-.45.36-.81.81-.81s.81.36.81.81-.36.81-.81.81-.81-.37-.81-.81Zm-8.11,0c0-.45.36-.81.82-.81s.81.36.81.81-.37.81-.82.81c-.45,0-.81-.36-.81-.81Zm-8.1,0c0-.45.36-.81.81-.81s.81.36.81.81-.36.81-.81.81-.81-.37-.81-.81Zm-8.11,0c0-.45.36-.81.81-.81s.81.36.81.81-.36.81-.81.81-.81-.37-.81-.81Zm-8.11,0c0-.45.37-.81.81-.81s.81.36.81.81-.36.81-.81.81c-.45,0-.8-.36-.81-.81Zm-8.1,0c0-.45.36-.81.81-.81s.81.36.81.81-.37.81-.81.81-.81-.37-.81-.81Zm-8.11,0c0-.45.36-.81.81-.81s.81.36.81.81-.36.81-.81.81-.81-.37-.81-.81Zm-8.11,0c0-.45.37-.81.81-.81s.81.36.81.81-.36.81-.81.81c-.45,0-.8-.36-.81-.81Zm-8.1,0c0-.45.36-.81.81-.81s.81.36.81.81-.37.81-.81.81-.81-.37-.81-.81Zm-8.11,0c0-.45.36-.81.81-.81s.81.36.81.81-.36.81-.81.81-.81-.37-.81-.81Zm-8.11,0c0-.45.36-.81.81-.81s.81.36.81.81-.36.81-.81.81-.81-.37-.81-.81Zm-8.11,0c0-.45.36-.81.82-.81s.82.36.82.81-.37.81-.81.81-.82-.37-.82-.81Zm-8.1,0c0-.45.36-.81.81-.81s.81.36.81.81-.36.81-.81.81-.81-.37-.81-.81Zm-8.11,0c0-.45.36-.81.81-.81s.81.36.81.81-.36.81-.81.81-.81-.37-.81-.81Zm-8.11,0c0-.45.37-.81.81-.81s.81.36.81.81-.36.81-.81.81c-.45,0-.8-.36-.81-.81Zm-8.1,0c0-.45.36-.81.81-.81s.81.36.81.81-.37.81-.81.81-.81-.37-.81-.81Zm-8.11,0c0-.45.36-.81.81-.81s.81.36.81.81-.36.81-.81.81-.81-.37-.81-.81Zm-8.11,0c0-.45.37-.81.81-.81s.81.36.81.81-.36.81-.81.81c-.45,0-.8-.36-.81-.81Zm-8.1,0c0-.45.36-.81.81-.81s.81.36.81.81-.37.81-.81.81-.81-.37-.81-.81Zm-8.11,0c0-.45.36-.81.81-.81s.81.36.81.81-.36.81-.81.81-.81-.37-.81-.81Zm-8.11,0c0-.45.36-.81.81-.81s.81.36.81.81-.36.81-.81.81-.81-.37-.81-.81Z"/><path class="cls-4" d="m1244.34,1076.32c-45.26,0-65.54-35.37-85.17-69.58-19.83-34.57-40.33-70.32-86.88-70.32-55.92,0-73.73,32.73-88.05,59.03l-1.32,2.41c-.52.99-1.74,1.38-2.73.87-.99-.52-1.38-1.74-.87-2.73.01-.03.03-.05.04-.08l1.31-2.41c7.29-13.39,15.56-28.57,29.35-40.53,16.01-13.87,36.37-20.61,62.26-20.61,48.89,0,69.99,36.78,90.39,72.35,19.92,34.74,38.74,67.55,81.65,67.55,39.65,0,59.82-39.64,81.19-81.6,21.59-42.41,46.06-90.48,94.91-104.01,1.08-.3,2.2.33,2.49,1.41s-.33,2.2-1.41,2.49c-47.13,13.05-70.14,58.24-92.38,101.94-21.94,43.1-42.67,83.82-84.8,83.82Z"/><path class="cls-4" d="m981.55,1041.5c-1.12-.04-2-.97-1.96-2.09.03-1.07.89-1.93,1.96-1.96,46.3,0,64-39.57,81.1-77.83,16.05-35.9,32.65-73.03,73.3-73.03s55.81,24.84,70.83,48.85c15.59,24.93,31.71,50.7,76.12,50.7,48.42,0,101.09-36.72,136.75-67.52.85-.73,2.13-.64,2.86.21s.64,2.13-.21,2.86c-65.55,56.62-111.98,68.51-139.4,68.51-46.66,0-63.38-26.74-79.56-52.61-15.1-24.14-29.36-46.95-67.4-46.95s-53.36,34.31-69.6,70.63c-17.64,39.44-35.87,80.23-84.8,80.23h0Zm285.68-424.15c-.65,0-1.29-.31-1.68-.89l-84.48-124.64c-.64-.92-.41-2.18.51-2.82s2.18-.41,2.82.51c0,.01.01.02.02.03l84.48,124.64c.63.93.39,2.19-.54,2.82-.33.23-.73.35-1.13.35h0Z"/><path class="cls-4" d="m1182.63,643.33c-22.69,0-45.27-5.12-66.3-15.29-36.69-17.74-64.27-48.71-77.67-87.19s-11.01-79.89,6.73-116.57,48.71-64.27,87.19-77.67c31.36-10.92,64.61-11.39,96.17-1.38,30.51,9.68,57.74,29.11,76.67,54.72l.68.94c.66.91.46,2.17-.44,2.83l-116,84.44,143.09-10.45c1.11-.08,2.08.76,2.17,1.87,5.06,68.7-36.9,132.52-102.04,155.2-16.42,5.72-33.38,8.56-50.28,8.56h0Zm.14-301.22c-16.45,0-32.9,2.78-48.84,8.33-37.46,13.04-67.61,39.89-84.88,75.6s-19.6,76.01-6.56,113.47c26.92,77.34,111.74,118.35,189.08,91.43,62.77-21.85,103.43-82.95,99.46-149.05l-148.14,10.82c-.9.06-1.74-.48-2.05-1.33-.31-.85-.02-1.8.71-2.34l120.09-87.42c-18.4-24.57-44.68-43.22-74.1-52.55-14.68-4.66-29.73-6.98-44.78-6.98h0Z"/><path class="cls-4" d="m1182.75,492.71c-1.12,0-2.03-.91-2.03-2.03,0-.05,0-.1,0-.15l11.13-150.16c.08-1.11,1.05-1.95,2.16-1.87,0,0,0,0,.01,0,1.12.08,1.95,1.05,1.87,2.17l-11.13,150.16c-.08,1.06-.96,1.88-2.02,1.88Zm192.64-116.48l-121.56,88.48,150.17-10.97h0c-.95-12.84-3.57-25.78-8.01-38.52-4.99-14.35-11.94-27.46-20.44-39.14l-.17.14Z"/><path class="cls-4" d="m1253.84,466.74c-1.12,0-2.03-.91-2.03-2.02,0-.65.31-1.26.84-1.64l121.5-88.44.12-.1c.86-.72,2.14-.61,2.86.25.03.03.06.07.08.11,8.79,12.08,15.76,25.42,20.71,39.67,4.4,12.6,7.12,25.73,8.11,39.04.08,1.12-.76,2.09-1.87,2.17l-150.17,10.97s-.1,0-.15,0h0Zm121.28-87.8l-114.35,83.24,141.06-10.3c-1.08-12.27-3.68-24.35-7.73-35.98-4.6-13.22-10.98-25.64-18.97-36.95Zm-308.21,15.58c-32.51,39.24-44.3,94.03-26.33,145.66l142.17-49.49-115.84-96.17h0Z"/><path class="cls-4" d="m1040.58,542.2c-.86,0-1.63-.55-1.91-1.36-8.79-25.25-10.81-52.41-5.84-78.53,4.82-25.34,16.07-49.23,32.53-69.1.71-.86,1.99-.98,2.85-.27,0,0,0,0,0,0l115.84,96.17c.86.72.98,2,.26,2.86-.24.28-.54.5-.89.62l-142.17,49.49c-.21.08-.44.11-.67.11h0Zm26.61-144.83c-15.33,19.02-25.82,41.69-30.38,65.7-4.71,24.76-2.97,50.48,5.04,74.52l136.85-47.64-111.51-92.57Zm-480.38,566.67h21.15v148.72h-21.15v-148.72Zm31.41-75.43h21.15v224.15h-21.15v-224.15Zm31.41-88.72h21.15v312.87h-21.15v-312.87Zm31.41,51.46h21.15v261.41h-21.15v-261.41Zm31.41,57.64h21.15v203.77h-21.15v-203.77Zm31.41-47.47h21.15v251.24h-21.15v-251.24Zm31.41-45.05h21.15v296.29h-21.15v-296.29Zm31.41,55.92h21.15v240.36h-21.15v-240.36Z"/><path class="cls-4" d="m574.96,1110.73h264.74v4.05h-264.74v-4.05Zm-403.55-210.29h8.43v70.7h-8.43v-70.7Z"/><path class="cls-4" d="m181.86,973.17h-12.48v-74.76h12.48v74.76Zm-8.43-4.05h4.37v-66.65h-4.37v66.65Z"/><path class="cls-2" d="m171.41,829.74h8.43v70.7h-8.43v-70.7Z"/><path class="cls-4" d="m181.86,902.47h-12.48v-74.76h12.48v74.76Zm-8.43-4.05h4.37v-66.65h-4.37v66.65Zm16.28,37.9h8.43v70.7h-8.43v-70.7Z"/><path class="cls-4" d="m200.17,1009.04h-12.48v-74.76h12.48v74.76Zm-8.43-4.05h4.37v-66.65h-4.37v66.65Z"/><path class="cls-2" d="m189.72,865.61h8.43v70.7h-8.43v-70.7Z"/><path class="cls-4" d="m200.17,938.34h-12.48v-74.76h12.48v74.76Zm-8.43-4.05h4.37v-66.65h-4.37v66.65Zm16.28,34.86h8.43v70.7h-8.43v-70.7Z"/><path class="cls-4" d="m218.48,1041.87h-12.48v-74.76h12.48v74.76Zm-8.43-4.05h4.37v-66.65h-4.37v66.65Z"/><path class="cls-2" d="m208.03,898.44h8.43v70.7h-8.43v-70.7Z"/><path class="cls-4" d="m218.48,971.17h-12.48v-74.76h12.48v74.76Zm-8.43-4.05h4.37v-66.65h-4.37v66.65Zm16.28-44.6h8.43v70.7h-8.43v-70.7Z"/><path class="cls-4" d="m236.79,995.24h-12.48v-74.76h12.48v74.76Zm-8.43-4.05h4.37v-66.65h-4.37v66.65Z"/><path class="cls-2" d="m226.33,851.81h8.43v70.7h-8.43v-70.7Z"/><path class="cls-4" d="m236.79,924.54h-12.48v-74.76h12.48v74.76Zm-8.43-4.05h4.37v-66.65h-4.37v66.65Zm16.28,44.5h8.43v70.7h-8.43v-70.7Z"/><path class="cls-4" d="m255.1,1037.71h-12.48v-74.76h12.48v74.76Zm-8.43-4.05h4.37v-66.65h-4.37v66.65Z"/><path class="cls-2" d="m244.64,894.28h8.43v70.7h-8.43v-70.7Z"/><path class="cls-4" d="m255.1,967.01h-12.48v-74.76h12.48v74.76Zm-8.43-4.05h4.37v-66.65h-4.37v66.65Zm16.28,29.46h8.43v70.7h-8.43v-70.7Z"/><path class="cls-4" d="m273.4,1065.15h-12.48v-74.76h12.48v74.76Zm-8.43-4.05h4.37v-66.65h-4.37v66.65Z"/><path class="cls-2" d="m262.95,921.71h8.43v70.7h-8.43v-70.7Z"/><path class="cls-4" d="m273.4,994.44h-12.48v-74.76h12.48v74.76Zm-8.43-4.05h4.37v-66.65h-4.37v66.65Zm16.28,28.47h8.43v70.7h-8.43v-70.7Z"/><path class="cls-4" d="m291.71,1091.59h-12.48v-74.76h12.48v74.76Zm-8.43-4.05h4.37v-66.65h-4.37v66.65Z"/><path class="cls-2" d="m281.26,948.15h8.43v70.7h-8.43v-70.7Z"/><path class="cls-4" d="m291.71,1020.88h-12.48v-74.76h12.48v74.76Zm-8.43-4.05h4.37v-66.65h-4.37v66.65Zm16.28,17.29h8.43v70.7h-8.43v-70.7Z"/><path class="cls-4" d="m310.02,1106.85h-12.48v-74.76h12.48v74.76Zm-8.43-4.05h4.37v-66.65h-4.37v66.65Z"/><path class="cls-2" d="m299.57,963.41h8.43v70.7h-8.43v-70.7Z"/><path class="cls-4" d="m310.02,1036.14h-12.48v-74.76h12.48v74.76Zm-8.43-4.05h4.37v-66.65h-4.37v66.65Zm16.28-35.05h8.43v70.7h-8.43v-70.7Z"/><path class="cls-4" d="m328.33,1069.77h-12.48v-74.76h12.48v74.76Zm-8.43-4.05h4.37v-66.65h-4.37v66.65Z"/><path class="cls-2" d="m317.87,926.34h8.43v70.7h-8.43v-70.7Z"/><path class="cls-4" d="m328.33,999.07h-12.48v-74.76h12.48v74.76Zm-8.43-4.05h4.37v-66.65h-4.37v66.65Zm16.28,19.32h8.43v70.7h-8.43v-70.7Z"/><path class="cls-4" d="m346.64,1087.06h-12.48v-74.76h12.48v74.76Zm-8.43-4.05h4.37v-66.65h-4.37v66.65Z"/><path class="cls-2" d="m336.18,943.63h8.43v70.7h-8.43v-70.7Z"/><path class="cls-4" d="m346.64,1016.36h-12.48v-74.76h12.48v74.76Zm-8.43-4.05h4.37v-66.65h-4.37v66.65Zm16.28-48.94h8.43v70.7h-8.43v-70.7Z"/><path class="cls-4" d="m364.94,1036.1h-12.48v-74.76h12.48v74.76Zm-8.43-4.05h4.37v-66.65h-4.37v66.65Z"/><path class="cls-2" d="m354.49,892.67h8.43v70.7h-8.43v-70.7Z"/><path class="cls-4" d="m364.94,965.4h-12.48v-74.76h12.48v74.76Zm-8.43-4.05h4.37v-66.65h-4.37v66.65Zm16.28-23.48h8.43v70.7h-8.43v-70.7Z"/><path class="cls-4" d="m383.25,1010.59h-12.48v-74.76h12.48v74.76Zm-8.43-4.05h4.37v-66.65h-4.37v66.65h0Z"/><path class="cls-2" d="m372.8,867.16h8.43v70.7h-8.43v-70.7Z"/><path class="cls-4" d="m383.25,939.89h-12.48v-74.76h12.48v74.76Zm-8.43-4.05h4.37v-66.65h-4.37v66.65h0Zm16.28-14.43h8.43v70.7h-8.43v-70.7Z"/><path class="cls-4" d="m401.56,994.13h-12.48v-74.76h12.48v74.76Zm-8.43-4.05h4.37v-66.65h-4.37v66.65Z"/><path class="cls-2" d="m391.11,850.7h8.43v70.7h-8.43v-70.7Z"/><path class="cls-4" d="m401.56,923.43h-12.48v-74.76h12.48v74.76Zm-8.43-4.05h4.37v-66.65h-4.37v66.65Zm16.28,24.25h8.43v70.7h-8.43v-70.7Z"/><path class="cls-4" d="m419.87,1016.36h-12.48v-74.76h12.48v74.76Zm-8.43-4.05h4.37v-66.65h-4.37v66.65Z"/><path class="cls-2" d="m409.41,872.93h8.43v70.7h-8.43v-70.7Z"/><path class="cls-4" d="m419.87,945.66h-12.48v-74.76h12.48v74.76Zm-8.43-4.05h4.37v-66.65h-4.37v66.65Zm16.28-63.07h8.43v70.7h-8.43v-70.7Z"/><path class="cls-4" d="m438.17,951.26h-12.48v-74.76h12.48v74.76Zm-8.43-4.05h4.37v-66.65h-4.37v66.65Z"/><path class="cls-2" d="m427.72,807.83h8.43v70.7h-8.43v-70.7Z"/><path class="cls-4" d="m438.17,880.56h-12.48v-74.76h12.48v74.76Zm-8.43-4.05h4.37v-66.65h-4.37v66.65Z"/></svg>