<?xml version="1.0" encoding="utf-8"?>
<!-- Generator: $$$/GeneralStr/196=Adobe Illustrator 27.6.0, SVG Export Plug-In . SVG Version: 6.00 Build 0)  -->
<svg version="1.1" id="Calque_1" xmlns="http://www.w3.org/2000/svg" xmlns:xlink="http://www.w3.org/1999/xlink" x="0px" y="0px"
	 viewBox="0 0 1500 1500" style="enable-background:new 0 0 1500 1500;" xml:space="preserve">
<style type="text/css">
	.st0{fill:#99D1DF;}
	.st1{fill:#FFFFFF;}
	.st2{fill:#231F20;}
</style>
<circle class="st0" cx="1124.04" cy="864.83" r="194.23"/>
<circle class="st1" cx="730.31" cy="312.42" r="117.74"/>
<path class="st2" d="M730.31,431.43c-65.62,0-119.01-53.39-119.01-119.01S664.68,193.4,730.31,193.4s119.01,53.39,119.01,119.01
	S795.93,431.43,730.31,431.43z M730.31,195.96c-64.21,0-116.46,52.24-116.46,116.46s52.24,116.46,116.46,116.46
	s116.46-52.24,116.46-116.46S794.52,195.96,730.31,195.96z"/>
<path class="st2" d="M730.31,396.97c-35.92,0-68.01-22.81-79.86-56.76l2.41-0.84c11.49,32.92,42.61,55.04,77.45,55.04
	s65.96-22.12,77.45-55.04l2.41,0.84C798.32,374.16,766.23,396.97,730.31,396.97z"/>
<path class="st2" d="M813.59,342.58c-7.04,0-12.68-2.98-12.94-3.12l1.21-2.26c0.06,0.03,6.34,3.32,13.47,2.74l0.21,2.55
	C814.87,342.55,814.22,342.58,813.59,342.58L813.59,342.58z M646.41,342.58c-0.65,0-1.3-0.03-1.95-0.08l0.21-2.55
	c7.17,0.59,13.41-2.71,13.47-2.74l1.21,2.25C659.09,339.6,653.44,342.58,646.41,342.58L646.41,342.58z"/>
<ellipse class="st2" cx="759.72" cy="279.45" rx="18.88" ry="39.8"/>
<ellipse class="st2" cx="700.9" cy="279.45" rx="18.88" ry="39.8"/>
<path class="st1" d="M687.15,599.88H444.6c-6.99,0-12.65,5.66-12.65,12.65v242.55c0,6.99,5.67,12.65,12.65,12.65h242.55
	c6.99,0,12.65-5.66,12.65-12.65V612.53C699.8,605.54,694.14,599.88,687.15,599.88z"/>
<path class="st2" d="M687.15,869.01H444.6c-7.68,0-13.93-6.25-13.93-13.93V612.53c0-7.68,6.25-13.93,13.93-13.93h242.55
	c7.68,0,13.93,6.25,13.93,13.93v242.55C701.08,862.76,694.83,869.01,687.15,869.01z M444.6,601.16c-6.27,0-11.37,5.1-11.37,11.38
	v242.55c0,6.27,5.1,11.37,11.37,11.37h242.55c6.27,0,11.38-5.1,11.38-11.37V612.53c0-6.27-5.1-11.38-11.38-11.38H444.6z"/>
<path class="st2" d="M674.5,625.18v106.56H457.25V625.18H674.5z"/>
<path class="st2" d="M674.5,733.02H457.25c-0.71,0-1.28-0.57-1.28-1.28l0,0V625.18c0-0.71,0.57-1.28,1.28-1.28H674.5
	c0.71,0,1.28,0.57,1.28,1.28v106.56C675.77,732.45,675.2,733.02,674.5,733.02L674.5,733.02z M458.53,730.46h214.69v-104H458.53
	L458.53,730.46z M457.25,776.81h172.21v12.04h-172.2L457.25,776.81z"/>
<path class="st2" d="M629.46,790.13h-172.2c-0.71,0-1.28-0.57-1.28-1.28l0,0v-12.04c0-0.71,0.57-1.28,1.28-1.28h172.21
	c0.71,0,1.28,0.57,1.28,1.28v12.04C630.74,789.56,630.16,790.13,629.46,790.13L629.46,790.13z M458.53,787.58h169.65v-9.48H458.53
	L458.53,787.58z M457.25,754.73h143.26v12.04H457.25L457.25,754.73z"/>
<path class="st2" d="M600.51,768.05H457.25c-0.71,0-1.28-0.57-1.28-1.28l0,0v-12.04c0-0.71,0.57-1.28,1.28-1.28h143.26
	c0.71,0,1.28,0.57,1.28,1.28v12.04C601.79,767.48,601.22,768.05,600.51,768.05L600.51,768.05z M458.53,765.49h140.7v-9.48h-140.7
	L458.53,765.49z M674.5,807.96H457.25c-0.71,0-1.28-0.57-1.28-1.28s0.57-1.28,1.28-1.28H674.5c0.71,0,1.28,0.57,1.28,1.28
	S675.2,807.96,674.5,807.96L674.5,807.96z M674.5,819.87H457.25c-0.71,0-1.28-0.57-1.28-1.28s0.57-1.28,1.28-1.28H674.5
	c0.71,0,1.28,0.57,1.28,1.28S675.2,819.87,674.5,819.87L674.5,819.87z M674.5,831.79H457.25c-0.71,0-1.28-0.57-1.28-1.28
	s0.57-1.28,1.28-1.28H674.5c0.71,0,1.28,0.57,1.28,1.28S675.2,831.79,674.5,831.79L674.5,831.79z M674.5,843.71H457.25
	c-0.71,0-1.28-0.57-1.28-1.28s0.57-1.28,1.28-1.28H674.5c0.71,0,1.28,0.57,1.28,1.28S675.2,843.71,674.5,843.71L674.5,843.71z"/>
<path class="st1" d="M1016.02,599.88H773.47c-6.99,0-12.65,5.66-12.65,12.65v242.55c0,6.99,5.66,12.65,12.65,12.65h242.55
	c6.99,0,12.65-5.66,12.65-12.65V612.53C1028.67,605.54,1023.01,599.88,1016.02,599.88z"/>
<path class="st2" d="M1016.02,869.01H773.47c-7.68,0-13.93-6.25-13.93-13.93V612.53c0-7.68,6.25-13.93,13.93-13.93h242.55
	c7.68,0,13.93,6.25,13.93,13.93v242.55C1029.95,862.76,1023.7,869.01,1016.02,869.01L1016.02,869.01z M773.47,601.16
	c-6.27,0-11.38,5.1-11.38,11.38v242.55c0,6.27,5.1,11.37,11.38,11.37h242.55c6.27,0,11.38-5.1,11.38-11.37V612.53
	c0-6.27-5.1-11.38-11.38-11.38H773.47z"/>
<path class="st2" d="M1003.36,625.19v106.56H786.12V625.19H1003.36z"/>
<path class="st2" d="M1003.36,733.02H786.12c-0.71,0-1.28-0.57-1.28-1.28l0,0V625.18c0-0.71,0.57-1.28,1.28-1.28h217.24
	c0.71,0,1.28,0.57,1.28,1.28v106.56C1004.64,732.45,1004.07,733.02,1003.36,733.02z M787.4,730.46h214.69v-104H787.4V730.46z
	 M786.12,776.81h172.21v12.04H786.12V776.81z"/>
<path class="st2" d="M958.33,790.13h-172.2c-0.71,0-1.28-0.57-1.28-1.28l0,0v-12.04c0-0.71,0.57-1.28,1.28-1.28h172.2
	c0.71,0,1.28,0.57,1.28,1.28v12.04C959.6,789.56,959.03,790.13,958.33,790.13L958.33,790.13z M787.4,787.58h169.65v-9.48H787.4
	L787.4,787.58z M786.12,754.73h143.26v12.04H786.12L786.12,754.73z"/>
<path class="st2" d="M929.38,768.05H786.12c-0.71,0-1.28-0.57-1.28-1.28l0,0v-12.04c0-0.71,0.57-1.28,1.28-1.28h143.26
	c0.71,0,1.28,0.57,1.28,1.28v12.04C930.66,767.47,930.08,768.05,929.38,768.05z M787.4,765.49h140.7v-9.48H787.4V765.49z
	 M1003.36,807.96H786.12c-0.71,0-1.28-0.57-1.28-1.28s0.57-1.28,1.28-1.28h217.24c0.71,0,1.28,0.57,1.28,1.28
	S1004.07,807.96,1003.36,807.96z M1003.36,819.87H786.12c-0.71,0-1.28-0.57-1.28-1.28s0.57-1.28,1.28-1.28h217.24
	c0.71,0,1.28,0.57,1.28,1.28S1004.07,819.87,1003.36,819.87z M1003.36,831.79H786.12c-0.71,0-1.28-0.57-1.28-1.28
	s0.57-1.28,1.28-1.28h217.24c0.71,0,1.28,0.57,1.28,1.28S1004.07,831.79,1003.36,831.79z M1003.36,843.71H786.12
	c-0.71,0-1.28-0.57-1.28-1.28s0.57-1.28,1.28-1.28h217.24c0.71,0,1.28,0.57,1.28,1.28S1004.07,843.71,1003.36,843.71z"/>
<path class="st1" d="M522.72,1037.46H280.17c-6.99,0-12.65,5.67-12.65,12.65v242.55c0,6.99,5.67,12.65,12.65,12.65h242.55
	c6.99,0,12.65-5.67,12.65-12.65v-242.55C535.37,1043.13,529.7,1037.46,522.72,1037.46z"/>
<path class="st2" d="M522.71,1306.6H280.16c-7.68,0-13.93-6.25-13.93-13.93v-242.55c0-7.68,6.25-13.93,13.93-13.93h242.55
	c7.68,0,13.93,6.25,13.93,13.93v242.55C536.65,1300.35,530.4,1306.6,522.71,1306.6z M280.16,1038.74c-6.27,0-11.38,5.1-11.38,11.37
	v242.55c0,6.27,5.1,11.37,11.38,11.37h242.55c6.27,0,11.38-5.1,11.38-11.37v-242.55c0-6.27-5.1-11.37-11.38-11.37H280.16z"/>
<path class="st2" d="M510.06,1062.77v106.56H292.82v-106.56H510.06z"/>
<path class="st2" d="M510.06,1170.6H292.82c-0.71,0-1.28-0.57-1.28-1.28v-106.56c0-0.71,0.57-1.28,1.28-1.28h217.24
	c0.71,0,1.28,0.57,1.28,1.28v106.56C511.34,1170.03,510.77,1170.6,510.06,1170.6L510.06,1170.6z M294.1,1168.05h214.69v-104H294.1
	L294.1,1168.05z M292.82,1214.4h172.21v12.04H292.82L292.82,1214.4z"/>
<path class="st2" d="M465.02,1227.72H292.82c-0.71,0-1.28-0.57-1.28-1.28v-12.04c0-0.71,0.57-1.28,1.28-1.28h172.2
	c0.71,0,1.28,0.57,1.28,1.28v12.04C466.3,1227.14,465.73,1227.72,465.02,1227.72L465.02,1227.72z M294.1,1225.16h169.65v-9.48H294.1
	V1225.16z M292.82,1192.31h143.26v12.04H292.82V1192.31z"/>
<path class="st2" d="M436.08,1205.63H292.82c-0.71,0-1.28-0.57-1.28-1.28v-12.04c0-0.71,0.57-1.28,1.28-1.28h143.26
	c0.71,0,1.28,0.57,1.28,1.28v12.04C437.35,1205.06,436.78,1205.63,436.08,1205.63L436.08,1205.63z M294.1,1203.07h140.7v-9.48H294.1
	L294.1,1203.07z M510.06,1245.54H292.82c-0.71,0-1.28-0.57-1.28-1.28c0-0.71,0.57-1.28,1.28-1.28l0,0h217.24
	c0.71,0,1.28,0.57,1.28,1.28C511.34,1244.97,510.77,1245.54,510.06,1245.54L510.06,1245.54z M510.06,1257.46H292.82
	c-0.71,0-1.28-0.57-1.28-1.28c0-0.71,0.57-1.28,1.28-1.28l0,0h217.24c0.71,0,1.28,0.57,1.28,1.28
	C511.34,1256.89,510.77,1257.46,510.06,1257.46L510.06,1257.46z M510.06,1269.37H292.82c-0.71,0-1.28-0.57-1.28-1.28
	c0-0.71,0.57-1.28,1.28-1.28l0,0h217.24c0.71,0,1.28,0.57,1.28,1.28C511.34,1268.8,510.77,1269.37,510.06,1269.37L510.06,1269.37z
	 M510.06,1281.29H292.82c-0.71,0-1.28-0.57-1.28-1.28c0-0.71,0.57-1.28,1.28-1.28l0,0h217.24c0.71,0,1.28,0.57,1.28,1.28
	C511.34,1280.72,510.77,1281.29,510.06,1281.29L510.06,1281.29z"/>
<path class="st1" d="M851.58,1037.46H609.03c-6.99,0-12.65,5.67-12.65,12.65v242.55c0,6.99,5.66,12.65,12.65,12.65h242.55
	c6.99,0,12.65-5.67,12.65-12.65v-242.55C864.24,1043.13,858.57,1037.46,851.58,1037.46z"/>
<path class="st2" d="M851.58,1306.6H609.03c-7.68,0-13.93-6.25-13.93-13.93v-242.55c0-7.68,6.25-13.93,13.93-13.93h242.55
	c7.68,0,13.93,6.25,13.93,13.93v242.55C865.51,1300.35,859.27,1306.6,851.58,1306.6L851.58,1306.6z M609.03,1038.74
	c-6.27,0-11.37,5.1-11.37,11.37v242.55c0,6.27,5.1,11.37,11.37,11.37h242.55c6.27,0,11.37-5.1,11.37-11.37v-242.55
	c0-6.27-5.1-11.37-11.37-11.37H609.03z"/>
<path class="st2" d="M838.93,1062.77v106.56H621.69v-106.56H838.93z"/>
<path class="st2" d="M838.93,1170.6H621.69c-0.71,0-1.28-0.57-1.28-1.28v-106.56c0-0.71,0.57-1.28,1.28-1.28h217.24
	c0.71,0,1.28,0.57,1.28,1.28v106.56C840.21,1170.03,839.64,1170.6,838.93,1170.6C838.93,1170.6,838.93,1170.6,838.93,1170.6z
	 M622.96,1168.05h214.69v-104H622.96V1168.05z M621.69,1214.4h172.21v12.04H621.69V1214.4z"/>
<path class="st2" d="M793.89,1227.72H621.69c-0.71,0-1.28-0.57-1.28-1.28v-12.04c0-0.71,0.57-1.28,1.28-1.28h172.21
	c0.71,0,1.28,0.57,1.28,1.28v12.04C795.17,1227.14,794.6,1227.72,793.89,1227.72z M622.96,1225.16h169.65v-9.48H622.96V1225.16z
	 M621.69,1192.31h143.26v12.04H621.69V1192.31z"/>
<path class="st2" d="M764.94,1205.63H621.69c-0.71,0-1.28-0.57-1.28-1.28v-12.04c0-0.71,0.57-1.28,1.28-1.28h143.26
	c0.71,0,1.28,0.57,1.28,1.28v12.04C766.22,1205.06,765.65,1205.63,764.94,1205.63z M622.96,1203.07h140.7v-9.48h-140.7V1203.07z
	 M838.93,1245.54H621.69c-0.71,0-1.28-0.57-1.28-1.28c0-0.71,0.57-1.28,1.28-1.28h217.24c0.71,0,1.28,0.57,1.28,1.28
	C840.21,1244.97,839.64,1245.54,838.93,1245.54z M838.93,1257.46H621.69c-0.71,0-1.28-0.57-1.28-1.28c0-0.71,0.57-1.28,1.28-1.28
	h217.24c0.71,0,1.28,0.57,1.28,1.28C840.21,1256.89,839.64,1257.46,838.93,1257.46z M838.93,1269.37H621.69
	c-0.71,0-1.28-0.57-1.28-1.28c0-0.71,0.57-1.28,1.28-1.28h217.24c0.71,0,1.28,0.57,1.28,1.28
	C840.21,1268.8,839.64,1269.37,838.93,1269.37z M838.93,1281.29H621.69c-0.71,0-1.28-0.57-1.28-1.28c0-0.71,0.57-1.28,1.28-1.28
	h217.24c0.71,0,1.28,0.57,1.28,1.28C840.21,1280.72,839.64,1281.29,838.93,1281.29z"/>
<path class="st1" d="M1180.45,1037.46H937.9c-6.99,0-12.65,5.67-12.65,12.65v242.55c0,6.99,5.66,12.65,12.65,12.65h242.55
	c6.99,0,12.65-5.67,12.65-12.65v-242.55C1193.1,1043.13,1187.44,1037.46,1180.45,1037.46z"/>
<path class="st2" d="M1180.45,1306.6H937.9c-7.68,0-13.93-6.25-13.93-13.93v-242.55c0-7.68,6.25-13.93,13.93-13.93h242.55
	c7.68,0,13.93,6.25,13.93,13.93v242.55C1194.38,1300.35,1188.13,1306.6,1180.45,1306.6z M937.9,1038.74
	c-6.27,0-11.38,5.1-11.38,11.37v242.55c0,6.27,5.1,11.37,11.38,11.37h242.55c6.27,0,11.38-5.1,11.38-11.37v-242.55
	c0-6.27-5.1-11.37-11.38-11.37H937.9z"/>
<path class="st2" d="M1167.8,1062.77v106.56H950.55v-106.56H1167.8z"/>
<path class="st2" d="M1167.8,1170.6H950.55c-0.71,0-1.28-0.57-1.28-1.28v-106.56c0-0.71,0.57-1.28,1.28-1.28h217.25
	c0.71,0,1.28,0.57,1.28,1.28v106.56C1169.08,1170.03,1168.51,1170.6,1167.8,1170.6C1167.8,1170.6,1167.8,1170.6,1167.8,1170.6
	L1167.8,1170.6z M951.83,1168.05h214.69v-104H951.83L951.83,1168.05z M950.55,1214.4h172.2v12.04h-172.2L950.55,1214.4z"/>
<path class="st2" d="M1122.76,1227.72H950.55c-0.71,0-1.28-0.57-1.28-1.28v-12.04c0-0.71,0.57-1.28,1.28-1.28h172.21
	c0.71,0,1.28,0.57,1.28,1.28v12.04C1124.04,1227.14,1123.46,1227.72,1122.76,1227.72z M951.83,1225.16h169.65v-9.48H951.83V1225.16z
	 M950.55,1192.31h143.26v12.04H950.55V1192.31z"/>
<path class="st2" d="M1093.81,1205.63H950.55c-0.71,0-1.28-0.57-1.28-1.28v-12.04c0-0.71,0.57-1.28,1.28-1.28h143.26
	c0.71,0,1.28,0.57,1.28,1.28v12.04C1095.09,1205.06,1094.52,1205.63,1093.81,1205.63z M951.83,1203.07h140.7v-9.48h-140.7V1203.07z
	 M1167.8,1245.54H950.55c-0.71,0-1.28-0.57-1.28-1.28c0-0.71,0.57-1.28,1.28-1.28h217.25c0.71,0,1.28,0.57,1.28,1.28
	C1169.08,1244.97,1168.5,1245.54,1167.8,1245.54z M1167.8,1257.46H950.55c-0.71,0-1.28-0.57-1.28-1.28c0-0.71,0.57-1.28,1.28-1.28
	h217.25c0.71,0,1.28,0.57,1.28,1.28C1169.08,1256.89,1168.5,1257.46,1167.8,1257.46z M1167.8,1269.37H950.55
	c-0.71,0-1.28-0.57-1.28-1.28c0-0.71,0.57-1.28,1.28-1.28h217.25c0.71,0,1.28,0.57,1.28,1.28
	C1169.08,1268.8,1168.5,1269.37,1167.8,1269.37z M1167.8,1281.29H950.55c-0.71,0-1.28-0.57-1.28-1.28c0-0.71,0.57-1.28,1.28-1.28
	h217.25c0.71,0,1.28,0.57,1.28,1.28C1169.08,1280.72,1168.5,1281.29,1167.8,1281.29z M1003.37,566.54l3.82,8.38l7.5-5.35l-0.88,9.17
	l9.17-0.88l-5.35,7.5l8.38,3.83l-8.38,3.82l5.35,7.5l-9.17-0.88l0.88,9.17l-7.5-5.35l-3.82,8.38l-3.82-8.38l-7.5,5.35l0.88-9.17
	l-9.17,0.88l5.35-7.5l-8.38-3.82l8.38-3.83l-5.35-7.5l9.17,0.88l-0.88-9.17l7.5,5.35L1003.37,566.54z M510.06,1005.14l3.82,8.38
	l7.5-5.35l-0.88,9.17l9.17-0.88l-5.35,7.5l8.38,3.82l-8.38,3.82l5.35,7.5l-9.17-0.88l0.88,9.17l-7.5-5.35l-3.82,8.38l-3.82-8.38
	l-7.5,5.35l0.88-9.17l-9.17,0.88l5.35-7.5l-8.38-3.82l8.38-3.82l-5.35-7.5l9.17,0.88l-0.88-9.17l7.5,5.35L510.06,1005.14z"/>
<circle class="st1" cx="730.31" cy="515.02" r="8.17"/>
<path class="st2" d="M730.31,524.46c-5.21,0-9.45-4.24-9.45-9.45s4.24-9.45,9.45-9.45s9.45,4.24,9.45,9.45
	S735.52,524.46,730.31,524.46z M730.31,508.12c-3.8,0-6.89,3.09-6.89,6.89s3.09,6.89,6.89,6.89s6.89-3.09,6.89-6.89
	S734.11,508.12,730.31,508.12z"/>
<circle class="st1" cx="894.74" cy="952.6" r="8.17"/>
<path class="st2" d="M894.74,962.05c-5.21,0-9.45-4.24-9.45-9.45s4.24-9.45,9.45-9.45s9.45,4.24,9.45,9.45
	S899.95,962.05,894.74,962.05z M894.74,945.71c-3.8,0-6.89,3.09-6.89,6.89s3.09,6.89,6.89,6.89s6.89-3.09,6.89-6.89
	S898.54,945.71,894.74,945.71z"/>
<circle class="st1" cx="730.31" cy="952.6" r="8.17"/>
<path class="st2" d="M730.31,962.05c-5.21,0-9.45-4.24-9.45-9.45s4.24-9.45,9.45-9.45s9.45,4.24,9.45,9.45
	S735.52,962.05,730.31,962.05z M730.31,945.71c-3.8,0-6.89,3.09-6.89,6.89s3.09,6.89,6.89,6.89s6.89-3.09,6.89-6.89
	S734.11,945.71,730.31,945.71z"/>
<circle class="st1" cx="565.87" cy="952.6" r="8.17"/>
<g>
	<path class="st2" d="M565.87,962.05c-5.21,0-9.45-4.24-9.45-9.45s4.24-9.45,9.45-9.45s9.45,4.24,9.45,9.45
		S571.08,962.05,565.87,962.05z M565.87,945.71c-3.8,0-6.89,3.09-6.89,6.89s3.09,6.89,6.89,6.89s6.89-3.09,6.89-6.89
		S569.67,945.71,565.87,945.71z M729.03,499.79c0-0.7,0.57-1.28,1.28-1.28c0.7,0,1.28,0.58,1.28,1.28c0,0.71-0.58,1.28-1.28,1.28
		C729.6,501.07,729.03,500.5,729.03,499.79z M729.03,487.14c0-0.71,0.57-1.28,1.28-1.28c0.7,0,1.28,0.57,1.28,1.28
		c0,0.7-0.58,1.27-1.28,1.27C729.6,488.41,729.03,487.84,729.03,487.14z M729.03,474.49c0-0.71,0.57-1.28,1.28-1.28
		c0.7,0,1.28,0.57,1.28,1.28c0,0.7-0.58,1.28-1.28,1.28C729.6,475.77,729.03,475.2,729.03,474.49z M729.03,461.83
		c0-0.7,0.57-1.28,1.28-1.28c0.7,0,1.28,0.58,1.28,1.28c0,0.71-0.58,1.28-1.28,1.28C729.6,463.11,729.03,462.54,729.03,461.83z
		 M729.03,449.18c0-0.71,0.57-1.28,1.28-1.28c0.7,0,1.28,0.57,1.28,1.28c0,0.7-0.58,1.28-1.28,1.28
		C729.6,450.46,729.03,449.89,729.03,449.18z M729.03,436.53c0-0.71,0.57-1.28,1.28-1.28c0.7,0,1.28,0.57,1.28,1.28
		c0,0.7-0.58,1.27-1.28,1.27C729.6,437.8,729.03,437.23,729.03,436.53z M893.47,937.72c0-0.7,0.57-1.28,1.28-1.28
		c0.7,0,1.27,0.57,1.27,1.28c0,0.7-0.57,1.27-1.28,1.27C894.04,938.99,893.47,938.42,893.47,937.72z M893.47,925.06
		c0-0.7,0.57-1.27,1.27-1.27c0.7,0,1.28,0.57,1.28,1.27s-0.57,1.28-1.27,1.28S893.47,925.77,893.47,925.06
		C893.47,925.07,893.47,925.06,893.47,925.06z M893.47,912.41c0-0.7,0.57-1.28,1.27-1.28c0.71,0,1.28,0.58,1.28,1.28
		c0,0.7-0.57,1.28-1.27,1.28C894.04,913.69,893.47,913.12,893.47,912.41L893.47,912.41z M893.47,899.76c0-0.7,0.57-1.28,1.28-1.28
		c0.7,0,1.27,0.57,1.27,1.28c0,0.7-0.57,1.28-1.27,1.28C894.04,901.04,893.47,900.47,893.47,899.76
		C893.47,899.77,893.47,899.76,893.47,899.76z M893.47,887.11c0-0.7,0.57-1.27,1.28-1.27c0.7,0,1.27,0.57,1.27,1.27
		c0,0.7-0.57,1.27-1.28,1.27C894.04,888.38,893.47,887.81,893.47,887.11z M893.47,874.45c0-0.7,0.57-1.27,1.27-1.27
		c0.7,0,1.28,0.57,1.28,1.27s-0.57,1.28-1.27,1.28S893.47,875.16,893.47,874.45C893.47,874.46,893.47,874.45,893.47,874.45z
		 M564.6,937.72c0-0.7,0.57-1.27,1.28-1.27c0.7,0,1.27,0.57,1.27,1.27c0,0.7-0.57,1.27-1.28,1.27
		C565.17,938.99,564.6,938.42,564.6,937.72z M564.6,925.06c0-0.7,0.57-1.27,1.27-1.27c0.7,0,1.28,0.57,1.28,1.27
		s-0.57,1.28-1.27,1.28S564.6,925.77,564.6,925.06C564.6,925.07,564.6,925.06,564.6,925.06z M564.6,912.41
		c0-0.7,0.57-1.28,1.27-1.28c0.71,0,1.28,0.58,1.28,1.28c0,0.7-0.57,1.27-1.27,1.27C565.17,913.69,564.6,913.12,564.6,912.41z
		 M564.6,899.76c0-0.7,0.57-1.27,1.28-1.27c0.7,0,1.27,0.57,1.27,1.27c0,0.7-0.57,1.28-1.27,1.28
		C565.17,901.04,564.6,900.47,564.6,899.76C564.6,899.77,564.6,899.76,564.6,899.76z M564.6,887.11c0-0.7,0.57-1.28,1.28-1.28
		c0.7,0,1.27,0.57,1.27,1.28c0,0.7-0.57,1.27-1.28,1.27C565.17,888.38,564.6,887.81,564.6,887.11z M564.6,874.45
		c0-0.7,0.57-1.28,1.27-1.28c0.71,0,1.28,0.58,1.28,1.28c0,0.7-0.57,1.27-1.28,1.27C565.17,875.73,564.6,875.16,564.6,874.45z
		 M729.03,1030.41c0-0.71,0.57-1.28,1.28-1.28c0.7,0,1.28,0.57,1.28,1.28c0,0.71-0.58,1.28-1.28,1.28
		C729.6,1031.69,729.03,1031.12,729.03,1030.41z M729.03,1017.75c0.02-0.71,0.61-1.26,1.31-1.24c0.68,0.02,1.23,0.56,1.24,1.24
		c0,0.71-0.58,1.28-1.28,1.28C729.6,1019.03,729.03,1018.46,729.03,1017.75z M729.03,1005.1c0-0.7,0.57-1.28,1.28-1.28
		c0.7,0,1.28,0.58,1.28,1.28c0,0.71-0.58,1.28-1.28,1.28C729.6,1006.38,729.03,1005.81,729.03,1005.1
		C729.03,1005.11,729.03,1005.1,729.03,1005.1z M729.03,992.45c0-0.71,0.57-1.28,1.28-1.28c0.7,0,1.28,0.57,1.28,1.28
		c0,0.7-0.58,1.28-1.28,1.28C729.6,993.73,729.03,993.16,729.03,992.45z M729.03,979.8c0-0.71,0.57-1.28,1.28-1.28
		c0.7,0,1.28,0.57,1.28,1.28c0,0.7-0.58,1.27-1.28,1.27C729.6,981.07,729.03,980.51,729.03,979.8L729.03,979.8z M729.03,967.14
		c0-0.7,0.57-1.27,1.28-1.27c0.7,0,1.28,0.57,1.28,1.27c0,0.71-0.58,1.28-1.28,1.28C729.6,968.42,729.03,967.85,729.03,967.14
		C729.03,967.15,729.03,967.14,729.03,967.14z M893.47,585.97c0-0.7,0.57-1.28,1.28-1.28c0.7,0,1.27,0.57,1.27,1.28
		c0,0.7-0.57,1.27-1.28,1.27C894.04,587.24,893.47,586.67,893.47,585.97z M893.47,573.31c0-0.7,0.57-1.28,1.27-1.28
		c0.71,0,1.28,0.58,1.28,1.28c0,0.7-0.57,1.28-1.27,1.28C894.04,574.59,893.47,574.02,893.47,573.31
		C893.47,573.32,893.47,573.31,893.47,573.31z M893.47,560.66c0-0.7,0.57-1.27,1.28-1.27c0.7,0,1.27,0.57,1.27,1.27
		c0,0.7-0.57,1.27-1.28,1.27C894.04,561.93,893.47,561.36,893.47,560.66z M893.47,548.01c0-0.7,0.57-1.27,1.28-1.27
		c0.7,0,1.27,0.57,1.27,1.27c0,0.7-0.57,1.27-1.28,1.27C894.04,549.28,893.47,548.71,893.47,548.01z M893.47,535.35
		c0-0.7,0.57-1.28,1.27-1.28c0.71,0,1.28,0.58,1.28,1.28c0,0.7-0.57,1.28-1.27,1.28C894.04,536.63,893.47,536.06,893.47,535.35
		C893.47,535.36,893.47,535.35,893.47,535.35z M892.61,523.32c-0.28-0.66,0.03-1.4,0.68-1.67c0.66-0.27,1.41,0.04,1.68,0.69
		c0.27,0.65-0.04,1.4-0.7,1.67c-0.16,0.06-0.32,0.09-0.48,0.09C893.27,524.11,892.81,523.8,892.61,523.32L892.61,523.32z
		 M884.12,516.47c-0.7-0.12-1.16-0.79-1.03-1.48c0.12-0.7,0.78-1.16,1.48-1.03c0.69,0.12,1.15,0.79,1.03,1.48
		c-0.11,0.61-0.64,1.05-1.26,1.05C884.27,516.49,884.19,516.49,884.12,516.47z M870.42,515.02c0-0.71,0.57-1.28,1.28-1.28
		c0.7,0,1.27,0.57,1.27,1.27c0,0.7-0.57,1.28-1.27,1.28C870.99,516.29,870.42,515.72,870.42,515.02z M857.77,515.02
		c0-0.71,0.57-1.28,1.28-1.28c0.7,0,1.28,0.57,1.28,1.28c-0.03,0.71-0.62,1.26-1.33,1.23C858.33,516.22,857.79,515.69,857.77,515.02
		L857.77,515.02z M845.12,515.02c0-0.7,0.57-1.28,1.28-1.28c0.7,0,1.27,0.57,1.27,1.28c0,0.7-0.57,1.27-1.27,1.27
		C845.69,516.29,845.12,515.72,845.12,515.02z M832.46,515.02c0-0.71,0.58-1.28,1.28-1.28c0.7,0,1.27,0.57,1.27,1.27
		c0,0.7-0.57,1.28-1.27,1.28C833.04,516.29,832.46,515.72,832.46,515.02z M819.81,515.02c0-0.71,0.58-1.28,1.28-1.28
		c0.7,0,1.28,0.57,1.28,1.27c0,0.7-0.57,1.28-1.27,1.28c0,0-0.01,0-0.01,0C820.39,516.29,819.81,515.72,819.81,515.02z
		 M807.16,515.02c0-0.7,0.57-1.28,1.28-1.28c0.7,0,1.27,0.57,1.27,1.28c0,0.7-0.57,1.27-1.27,1.27
		C807.73,516.29,807.16,515.72,807.16,515.02z M794.5,515.02c0-0.71,0.58-1.28,1.28-1.28c0.7,0,1.28,0.57,1.28,1.27
		c0,0.7-0.57,1.28-1.27,1.28c0,0-0.01,0-0.01,0C795.08,516.29,794.5,515.72,794.5,515.02z M781.85,515.02
		c0-0.71,0.57-1.28,1.28-1.28c0.7,0,1.28,0.57,1.28,1.27c0,0.7-0.57,1.28-1.27,1.28c0,0-0.01,0-0.01,0
		C782.42,516.29,781.85,515.72,781.85,515.02z M769.2,515.02c0-0.71,0.57-1.28,1.28-1.28c0.7,0,1.28,0.57,1.28,1.28
		c0,0.7-0.58,1.27-1.28,1.27C769.77,516.29,769.2,515.72,769.2,515.02z M756.55,515.02c0-0.7,0.57-1.28,1.27-1.28
		s1.28,0.57,1.28,1.27s-0.57,1.28-1.27,1.28S756.55,515.72,756.55,515.02L756.55,515.02z M743.89,515.02c0-0.71,0.58-1.28,1.28-1.28
		c0.7,0,1.28,0.57,1.28,1.27c0,0.7-0.57,1.28-1.27,1.28c0,0-0.01,0-0.01,0C744.47,516.29,743.89,515.72,743.89,515.02z
		 M564.6,585.96c0-0.7,0.57-1.28,1.27-1.28c0.71,0,1.28,0.58,1.28,1.28c0,0.7-0.57,1.28-1.27,1.28
		C565.17,587.24,564.6,586.67,564.6,585.96C564.6,585.97,564.6,585.96,564.6,585.96z M564.6,573.31c0-0.7,0.57-1.28,1.27-1.28
		c0.71,0,1.28,0.58,1.28,1.28c0,0.7-0.57,1.28-1.27,1.28C565.17,574.59,564.6,574.02,564.6,573.31
		C564.6,573.32,564.6,573.31,564.6,573.31z M564.6,560.66c0-0.7,0.57-1.27,1.28-1.27c0.7,0,1.27,0.57,1.27,1.27
		c0,0.7-0.57,1.28-1.28,1.28C565.17,561.94,564.6,561.36,564.6,560.66z M564.6,548.01c0-0.7,0.57-1.27,1.28-1.27
		c0.7,0,1.27,0.57,1.27,1.27c0,0.7-0.57,1.27-1.28,1.27C565.17,549.28,564.6,548.71,564.6,548.01z M564.6,535.35
		c0-0.7,0.57-1.27,1.27-1.27c0.7,0,1.28,0.57,1.28,1.27s-0.57,1.28-1.27,1.28S564.6,536.06,564.6,535.35
		C564.6,535.36,564.6,535.35,564.6,535.35z M566.34,524.01c-0.65-0.27-0.96-1.02-0.69-1.67c0.27-0.65,1.02-0.96,1.67-0.69
		c0.65,0.27,0.96,1.01,0.69,1.67c-0.2,0.49-0.68,0.78-1.18,0.78C566.67,524.1,566.5,524.07,566.34,524.01L566.34,524.01z
		 M575.02,515.44c-0.13-0.7,0.34-1.36,1.03-1.48c0.7-0.13,1.36,0.33,1.48,1.03c0.13,0.69-0.33,1.36-1.03,1.48
		c-0.07,0.02-0.15,0.02-0.22,0.02C575.66,516.49,575.13,516.05,575.02,515.44L575.02,515.44z M714.17,515.01
		c0-0.7,0.57-1.27,1.28-1.27c0.7,0,1.27,0.57,1.27,1.27c0,0.7-0.57,1.28-1.28,1.28C714.74,516.29,714.17,515.71,714.17,515.01
		L714.17,515.01z M701.52,515.01c0-0.7,0.57-1.27,1.27-1.27c0.7,0,1.28,0.57,1.28,1.27s-0.57,1.28-1.27,1.28
		S701.52,515.72,701.52,515.01C701.52,515.02,701.52,515.01,701.52,515.01z M688.86,515.01c0-0.7,0.57-1.27,1.28-1.27
		c0.7-0.03,1.3,0.52,1.33,1.22c0.03,0.7-0.52,1.3-1.22,1.33c-0.03,0-0.07,0-0.1,0C689.43,516.29,688.86,515.72,688.86,515.01
		L688.86,515.01z M676.21,515.01c0-0.7,0.57-1.27,1.28-1.27c0.7,0,1.27,0.57,1.27,1.27c0,0.7-0.57,1.28-1.28,1.28
		C676.78,516.29,676.21,515.71,676.21,515.01L676.21,515.01z M663.56,515.01c0-0.7,0.57-1.27,1.28-1.27c0.7,0,1.27,0.57,1.27,1.27
		c0.03,0.7-0.52,1.3-1.22,1.33c-0.7,0.03-1.3-0.52-1.33-1.22C663.56,515.08,663.56,515.04,663.56,515.01L663.56,515.01z
		 M650.9,515.01c0-0.7,0.57-1.27,1.28-1.27c0.7-0.03,1.3,0.52,1.33,1.22c0.03,0.7-0.52,1.3-1.22,1.33c-0.03,0-0.07,0-0.1,0
		C651.47,516.29,650.9,515.72,650.9,515.01L650.9,515.01z M638.25,515.01c0-0.7,0.57-1.27,1.28-1.27c0.7,0,1.27,0.57,1.27,1.27
		c0,0.7-0.57,1.28-1.28,1.28C638.82,516.29,638.25,515.71,638.25,515.01L638.25,515.01z M625.6,515.01c0-0.7,0.57-1.27,1.28-1.27
		c0.7,0,1.28,0.57,1.28,1.27c0,0.71-0.58,1.28-1.28,1.28C626.17,516.29,625.6,515.72,625.6,515.01
		C625.6,515.02,625.6,515.01,625.6,515.01z M612.94,515.01c0-0.71,0.57-1.28,1.28-1.28c0.71,0,1.28,0.57,1.28,1.28
		c0,0.71-0.57,1.28-1.28,1.28C613.52,516.29,612.94,515.72,612.94,515.01L612.94,515.01z M600.29,515.01
		c0.02-0.71,0.61-1.26,1.31-1.24c0.68,0.02,1.23,0.56,1.24,1.24c0,0.71-0.58,1.28-1.28,1.28
		C600.86,516.29,600.29,515.72,600.29,515.01z M587.64,515.01c0-0.7,0.57-1.27,1.28-1.27c0.7,0,1.28,0.57,1.28,1.27
		c0,0.71-0.58,1.28-1.28,1.28C588.21,516.29,587.64,515.72,587.64,515.01C587.64,515.02,587.64,515.01,587.64,515.01z
		 M1057.9,1023.55c-0.02-0.7,0.54-1.29,1.24-1.31s1.29,0.54,1.31,1.24c0,0.02,0,0.05,0,0.07c0,0.7-0.57,1.28-1.27,1.28
		C1058.47,1024.83,1057.9,1024.25,1057.9,1023.55z M1057.9,1010.9c0-0.7,0.57-1.28,1.27-1.28s1.28,0.57,1.28,1.27l0,0
		c0,0.7-0.57,1.28-1.27,1.28S1057.9,1011.61,1057.9,1010.9z M1057.9,998.24c0-0.7,0.57-1.28,1.28-1.28c0.7,0,1.27,0.58,1.27,1.28
		c0,0.7-0.57,1.28-1.28,1.28S1057.9,998.95,1057.9,998.24z M1057.9,985.59c-0.02-0.7,0.54-1.29,1.24-1.31s1.29,0.54,1.31,1.24
		c0,0.02,0,0.05,0,0.07c0,0.7-0.57,1.28-1.27,1.28C1058.47,986.87,1057.9,986.29,1057.9,985.59z M1057.9,972.94
		c0-0.7,0.57-1.28,1.27-1.28c0.7,0,1.28,0.57,1.28,1.27s-0.57,1.28-1.27,1.28C1058.47,974.21,1057.9,973.64,1057.9,972.94
		L1057.9,972.94z M1057.04,960.9c-0.27-0.65,0.04-1.4,0.69-1.67c0.65-0.27,1.4,0.04,1.67,0.69c0.27,0.65-0.04,1.4-0.69,1.67
		c-0.15,0.06-0.32,0.1-0.49,0.1C1057.72,961.69,1057.24,961.39,1057.04,960.9z M1048.55,954.06c-0.69-0.13-1.16-0.79-1.03-1.49
		c0.12-0.69,0.79-1.16,1.48-1.03c0.69,0.12,1.16,0.79,1.03,1.48c-0.11,0.61-0.64,1.06-1.26,1.06
		C1048.7,954.08,1048.62,954.07,1048.55,954.06L1048.55,954.06z M1034.86,952.6c0-0.7,0.57-1.28,1.27-1.28
		c0.7,0,1.28,0.57,1.28,1.27s-0.57,1.28-1.27,1.28C1035.43,953.87,1034.86,953.3,1034.86,952.6L1034.86,952.6z M1022.21,952.6
		c0-0.7,0.57-1.28,1.27-1.28s1.28,0.57,1.28,1.27s-0.57,1.28-1.27,1.28C1022.78,953.87,1022.21,953.3,1022.21,952.6z M1009.55,952.6
		c0-0.71,0.57-1.28,1.28-1.28c0.7,0,1.28,0.57,1.28,1.28c0,0.7-0.58,1.27-1.28,1.27C1010.12,953.87,1009.55,953.3,1009.55,952.6z
		 M996.9,952.6c0-0.7,0.57-1.28,1.27-1.28c0.7,0,1.28,0.57,1.28,1.27s-0.57,1.28-1.27,1.28C997.47,953.87,996.9,953.3,996.9,952.6z
		 M984.24,952.6c0-0.71,0.58-1.28,1.28-1.28c0.7,0,1.28,0.57,1.28,1.27c0,0.7-0.57,1.28-1.27,1.28c0,0-0.01,0-0.01,0
		C984.82,953.87,984.24,953.3,984.24,952.6z M971.59,952.6c0-0.71,0.57-1.28,1.28-1.28c0.7,0,1.28,0.57,1.28,1.27
		c0,0.7-0.57,1.28-1.28,1.28C972.16,953.87,971.59,953.3,971.59,952.6z M958.94,952.6c0-0.71,0.57-1.28,1.28-1.28
		c0.7,0,1.28,0.57,1.28,1.28c-0.03,0.71-0.62,1.26-1.33,1.23C959.5,953.8,958.96,953.27,958.94,952.6L958.94,952.6z M946.29,952.6
		c0-0.7,0.57-1.27,1.27-1.27c0.7,0,1.28,0.57,1.28,1.27c0,0.7-0.57,1.27-1.27,1.27C946.86,953.87,946.29,953.3,946.29,952.6z
		 M933.63,952.6c0-0.71,0.58-1.28,1.28-1.28c0.7,0,1.27,0.57,1.27,1.27c0,0.7-0.57,1.28-1.27,1.28
		C934.21,953.87,933.63,953.3,933.63,952.6z M920.98,952.6c0-0.7,0.57-1.28,1.27-1.28s1.28,0.57,1.28,1.27s-0.57,1.28-1.27,1.28
		S920.98,953.3,920.98,952.6z M908.33,952.6c0-0.7,0.57-1.27,1.27-1.27c0.7,0,1.28,0.57,1.28,1.27c0,0.7-0.57,1.27-1.27,1.27
		C908.9,953.87,908.33,953.3,908.33,952.6z M400.16,1023.55c0-0.71,0.58-1.28,1.28-1.28c0.71,0,1.28,0.57,1.28,1.28
		c0,0.7-0.57,1.28-1.28,1.28C400.74,1024.83,400.16,1024.25,400.16,1023.55L400.16,1023.55z M400.16,1010.89
		c0.02-0.71,0.61-1.26,1.32-1.24c0.68,0.02,1.22,0.56,1.24,1.24c0,0.71-0.57,1.28-1.28,1.28
		C400.73,1012.17,400.16,1011.6,400.16,1010.89z M400.16,998.24c0-0.7,0.58-1.28,1.28-1.28c0.71,0,1.28,0.58,1.28,1.28
		c0,0.71-0.57,1.28-1.28,1.28C400.73,999.52,400.16,998.95,400.16,998.24z M400.16,985.59c0-0.71,0.58-1.28,1.28-1.28
		c0.71,0,1.28,0.57,1.28,1.28c0,0.7-0.57,1.28-1.28,1.28C400.74,986.87,400.16,986.29,400.16,985.59z M400.16,972.94
		c0-0.71,0.58-1.28,1.28-1.28c0.7,0,1.28,0.57,1.28,1.27s-0.57,1.28-1.27,1.28c0,0-0.01,0-0.01,0
		C400.74,974.21,400.16,973.64,400.16,972.94z M401.91,961.59c-0.65-0.27-0.96-1.02-0.69-1.67c0.27-0.65,1.02-0.96,1.67-0.69
		c0.65,0.27,0.96,1.02,0.69,1.67c-0.2,0.48-0.66,0.79-1.18,0.79C402.23,961.69,402.07,961.66,401.91,961.59L401.91,961.59z
		 M410.58,953.02c-0.12-0.7,0.34-1.36,1.04-1.48c0.7-0.12,1.36,0.34,1.48,1.04c0.12,0.69-0.34,1.36-1.03,1.49
		c-0.08,0.01-0.15,0.02-0.23,0.02C411.24,954.08,410.7,953.64,410.58,953.02L410.58,953.02z M549.74,952.6
		c0-0.7,0.57-1.28,1.27-1.28c0.7,0,1.28,0.57,1.28,1.27c0,0,0,0.01,0,0.01c0,0.7-0.57,1.28-1.28,1.28
		C550.31,953.88,549.74,953.3,549.74,952.6L549.74,952.6z M537.08,952.6c0-0.71,0.58-1.28,1.28-1.28c0.7,0,1.28,0.57,1.28,1.28
		c0,0.7-0.58,1.28-1.28,1.28C537.65,953.88,537.08,953.31,537.08,952.6z M524.43,952.6c0-0.7,0.57-1.28,1.27-1.28
		c0.7,0,1.28,0.57,1.28,1.27c0,0,0,0.01,0,0.01c0,0.7-0.57,1.28-1.27,1.28C525,953.88,524.43,953.31,524.43,952.6L524.43,952.6z
		 M511.78,952.6c0-0.7,0.57-1.28,1.27-1.28c0.7,0,1.28,0.57,1.28,1.27c0,0,0,0.01,0,0.01c0,0.7-0.57,1.28-1.28,1.28
		C512.35,953.88,511.78,953.3,511.78,952.6L511.78,952.6z M499.12,952.6c0-0.71,0.58-1.28,1.28-1.28c0.71,0,1.28,0.57,1.28,1.28
		c0,0.7-0.57,1.28-1.28,1.28C499.69,953.88,499.12,953.31,499.12,952.6z M486.47,952.6c0-0.7,0.57-1.28,1.27-1.28
		c0.7,0,1.28,0.57,1.28,1.27c0,0,0,0.01,0,0.01c0,0.7-0.57,1.28-1.27,1.28C487.04,953.88,486.47,953.31,486.47,952.6z M473.82,952.6
		c0-0.7,0.57-1.28,1.28-1.28c0.7,0,1.28,0.57,1.28,1.28c0,0.7-0.57,1.28-1.28,1.28C474.39,953.88,473.82,953.3,473.82,952.6z
		 M461.16,952.6c0-0.71,0.58-1.28,1.28-1.28c0.71,0,1.28,0.57,1.28,1.28c0,0.7-0.57,1.28-1.28,1.28
		C461.73,953.88,461.16,953.31,461.16,952.6z M448.51,952.6c0-0.71,0.57-1.28,1.28-1.28c0.7,0,1.28,0.57,1.28,1.28
		c0,0.7-0.58,1.28-1.28,1.28C449.08,953.88,448.51,953.31,448.51,952.6z M435.86,952.6c0-0.7,0.57-1.28,1.28-1.28
		c0.7,0,1.28,0.57,1.28,1.28c0,0.7-0.57,1.28-1.27,1.28C436.43,953.88,435.86,953.31,435.86,952.6z M423.2,952.6
		c0-0.71,0.58-1.28,1.28-1.28c0.71,0,1.28,0.57,1.28,1.28c0,0.7-0.57,1.28-1.28,1.28C423.77,953.88,423.2,953.31,423.2,952.6z
		 M880.65,952.6c0-0.71,0.58-1.28,1.28-1.28c0.71,0,1.28,0.57,1.28,1.28c0,0.7-0.57,1.28-1.28,1.28
		C881.23,953.88,880.65,953.3,880.65,952.6z M868,952.6c0-0.7,0.57-1.27,1.27-1.27c0.7,0,1.28,0.57,1.28,1.27
		c0,0.7-0.57,1.28-1.27,1.28C868.57,953.88,868,953.31,868,952.6z M855.35,952.6c0-0.7,0.57-1.28,1.27-1.28
		c0.7,0,1.28,0.57,1.28,1.27c0,0,0,0.01,0,0.01c0,0.7-0.57,1.28-1.27,1.28C855.92,953.88,855.35,953.31,855.35,952.6L855.35,952.6z
		 M842.69,952.6c0-0.71,0.57-1.28,1.28-1.28s1.28,0.57,1.28,1.28c-0.03,0.71-0.62,1.26-1.33,1.23
		C843.25,953.8,842.71,953.27,842.69,952.6L842.69,952.6z M830.04,952.6c0-0.71,0.57-1.28,1.28-1.28c0.7,0,1.28,0.57,1.28,1.28
		c0,0.7-0.58,1.28-1.28,1.28C830.61,953.88,830.04,953.31,830.04,952.6z M817.39,952.6c0-0.71,0.57-1.28,1.28-1.28
		c0.7,0,1.28,0.57,1.28,1.28c0,0.7-0.58,1.28-1.28,1.28C817.96,953.88,817.39,953.31,817.39,952.6z M804.74,952.6
		c0-0.7,0.57-1.28,1.27-1.28c0.7,0,1.28,0.57,1.28,1.27c0,0,0,0.01,0,0.01c0,0.7-0.57,1.28-1.28,1.28
		C805.31,953.88,804.74,953.3,804.74,952.6L804.74,952.6z M792.08,952.6c0-0.71,0.57-1.28,1.28-1.28c0.7,0,1.28,0.57,1.28,1.28
		c0,0.7-0.58,1.28-1.28,1.28C792.65,953.88,792.08,953.31,792.08,952.6z M779.43,952.6c0-0.7,0.57-1.28,1.27-1.28
		c0.7,0,1.28,0.57,1.28,1.27c0,0,0,0.01,0,0.01c0,0.7-0.57,1.28-1.27,1.28C780,953.88,779.43,953.31,779.43,952.6L779.43,952.6z
		 M766.78,952.6c0-0.7,0.57-1.28,1.28-1.28s1.28,0.57,1.28,1.28c0,0.7-0.57,1.28-1.28,1.28C767.35,953.88,766.78,953.3,766.78,952.6
		z M754.12,952.6c0-0.71,0.57-1.28,1.28-1.28s1.28,0.57,1.28,1.28c-0.02,0.71-0.61,1.26-1.31,1.24
		C754.68,953.83,754.14,953.28,754.12,952.6z M741.47,952.6c0-0.71,0.57-1.28,1.28-1.28c0.7,0,1.28,0.57,1.28,1.28
		c0,0.7-0.58,1.28-1.28,1.28C742.04,953.88,741.47,953.31,741.47,952.6z M716.86,952.6c0-0.7,0.57-1.28,1.27-1.28
		s1.28,0.57,1.28,1.27s-0.57,1.28-1.27,1.28S716.86,953.3,716.86,952.6z M704.21,952.6c0-0.7,0.57-1.28,1.27-1.28
		s1.28,0.57,1.28,1.27s-0.57,1.28-1.27,1.28S704.21,953.3,704.21,952.6z M691.55,952.6c0-0.71,0.58-1.28,1.28-1.28
		c0.7,0,1.27,0.57,1.27,1.27c0,0.7-0.57,1.28-1.27,1.28C692.13,953.87,691.55,953.3,691.55,952.6z M678.9,952.6
		c0-0.71,0.57-1.28,1.28-1.28c0.7,0,1.28,0.57,1.28,1.28c-0.03,0.71-0.62,1.26-1.33,1.23C679.46,953.8,678.92,953.27,678.9,952.6
		L678.9,952.6z M666.25,952.6c0-0.7,0.57-1.28,1.27-1.28s1.28,0.57,1.28,1.27s-0.57,1.28-1.27,1.28S666.25,953.3,666.25,952.6
		L666.25,952.6z M653.6,952.6c0-0.7,0.57-1.28,1.27-1.28s1.28,0.57,1.28,1.27s-0.57,1.28-1.27,1.28c0,0,0,0-0.01,0
		C654.17,953.87,653.6,953.3,653.6,952.6z M640.94,952.6c0-0.71,0.57-1.28,1.28-1.28c0.7,0,1.28,0.57,1.28,1.27
		c0,0.7-0.57,1.28-1.27,1.28c0,0-0.01,0-0.01,0C641.51,953.87,640.94,953.3,640.94,952.6z M628.29,952.6c0-0.7,0.57-1.27,1.28-1.27
		c0.7,0,1.27,0.57,1.27,1.27c0,0.7-0.57,1.27-1.27,1.27C628.86,953.87,628.29,953.3,628.29,952.6z M615.64,952.6
		c0-0.7,0.57-1.28,1.27-1.28s1.28,0.57,1.28,1.27s-0.57,1.28-1.27,1.28c0,0,0,0-0.01,0C616.21,953.87,615.64,953.3,615.64,952.6z
		 M602.98,952.6c0-0.71,0.57-1.28,1.28-1.28c0.7,0,1.28,0.57,1.28,1.27c0,0.7-0.57,1.28-1.27,1.28c0,0-0.01,0-0.01,0
		C603.55,953.87,602.98,953.3,602.98,952.6z M590.33,952.6c0-0.7,0.57-1.27,1.28-1.27c0.7,0,1.27,0.57,1.27,1.27
		c0,0.7-0.57,1.27-1.27,1.27C590.9,953.87,590.33,953.3,590.33,952.6z M577.68,952.6c0-0.7,0.57-1.28,1.27-1.28s1.28,0.57,1.28,1.27
		s-0.57,1.28-1.27,1.28c0,0,0,0-0.01,0C578.25,953.87,577.68,953.3,577.68,952.6z M340.71,381.37h3.55v157.85h-3.55V381.37z"/>
	<path class="st2" d="M421.41,458.51v3.55H263.56v-3.55H421.41z"/>
	<path class="st2" d="M285.42,405.74l2.51-2.51l111.61,111.61l-2.51,2.51L285.42,405.74z"/>
	<path class="st2" d="M397.04,403.22l2.51,2.51L287.94,517.35l-2.51-2.51L397.04,403.22z"/>
	<circle class="st2" cx="342.49" cy="460.29" r="14.09"/>
	<path class="st2" d="M1176.81,840.84v47.99h2.62v-47.99c-0.43,0.05-0.87,0.09-1.31,0.09S1177.24,840.89,1176.81,840.84z
		 M1179.44,820.19V772.2h-2.62v47.99c0.43-0.05,0.87-0.09,1.31-0.09S1179.01,820.13,1179.44,820.19L1179.44,820.19z M1188.45,831.82
		h47.99v-2.62h-47.99c0.05,0.43,0.08,0.87,0.08,1.31S1188.5,831.4,1188.45,831.82L1188.45,831.82z M1167.8,829.2h-47.99v2.62h47.99
		c-0.05-0.43-0.08-0.87-0.08-1.31S1167.75,829.63,1167.8,829.2L1167.8,829.2z M1171.75,822.28l-33.93-33.93l-1.86,1.86l33.93,33.93
		C1170.43,823.45,1171.06,822.82,1171.75,822.28z M1184.5,838.74l33.93,33.93l1.86-1.86l-33.93-33.93
		C1185.81,837.58,1185.19,838.2,1184.5,838.74z M1186.35,824.14l33.93-33.93l-1.86-1.86l-33.93,33.93
		C1185.19,822.82,1185.81,823.45,1186.35,824.14z M1169.89,836.88l-33.93,33.93l1.86,1.86l33.93-33.93
		C1171.06,838.2,1170.43,837.58,1169.89,836.88z"/>
</g>
</svg>
