<?xml version="1.0" encoding="UTF-8"?><svg id="Calque_1" xmlns="http://www.w3.org/2000/svg" viewBox="0 0 1321 762.74"><defs><style>.cls-1{fill:#fff;}.cls-2{fill:#fe9c87;}.cls-3{fill:#231f20;}.cls-4{fill:#99d1df;}</style></defs><rect class="cls-2" x="1068.78" y="104.79" width="252.22" height="252.22"/><circle class="cls-4" cx="616.05" cy="624.37" r="138.37"/><path class="cls-1" d="m876.8,236.54h353.77v220.37h-353.77v-220.37Z"/><path class="cls-3" d="m1232.1,458.44h-356.82v-223.42h356.82v223.42Zm-353.77-3.05h350.72v-217.32h-350.72v217.32Z"/><path class="cls-3" d="m1053.68,385.5l-177.86-147.79,1.95-2.35,175.91,146.17,175.91-146.17,1.95,2.35-177.86,147.79Z"/><path class="cls-3" d="m1090.83,353.16l1.84-2.43,138.85,105.01-1.84,2.43-138.85-105.01Zm-214.97,102.51l138.83-105.02,1.84,2.43-138.83,105.02-1.84-2.43Z"/><path class="cls-1" d="m671.46,502.98h235.94v146.98h-235.94v-146.98Z"/><path class="cls-3" d="m908.93,651.48h-238.99v-150.02h238.99v150.02Zm-235.94-3.05h232.9v-143.93h-232.9v143.93Z"/><path class="cls-3" d="m789.43,602.99l-118.95-98.83,1.95-2.35,117,97.21,117-97.21,1.95,2.35-118.95,98.83Z"/><path class="cls-3" d="m813.9,581.18l1.84-2.43,92.6,70.03-1.84,2.43-92.6-70.03Zm-143.36,67.52l92.59-70.04,1.84,2.43-92.59,70.04-1.84-2.43Z"/><path class="cls-1" d="m585.43,43.5h235.94v146.98h-235.94V43.5Z"/><path class="cls-3" d="m822.9,192h-238.99V41.98h238.99v150.02Zm-235.95-3.05h232.9V45.03h-232.9v143.93Z"/><path class="cls-3" d="m703.4,143.51l-118.95-98.83,1.95-2.35,117,97.22,117-97.21,1.95,2.35-118.95,98.83Z"/><path class="cls-3" d="m727.88,121.69l1.84-2.43,92.6,70.03-1.84,2.43-92.6-70.03Zm-143.38,67.55l92.59-70.04,1.84,2.43-92.59,70.04-1.84-2.43Zm589.89-33.78l8.34,21.67,21.67,8.34-21.67,8.34-8.34,21.67-8.34-21.66-21.66-8.35,21.67-8.34,8.34-21.67Zm-220.35,316.92l7.09,18.42,18.43,7.09-18.43,7.09-7.09,18.42-7.1-18.42-18.42-7.1,18.42-7.09,7.09-18.42Zm-322.1,157.58l5.56,14.44,14.44,5.56-14.44,5.56-5.56,14.44-5.56-14.43-14.43-5.56,14.44-5.56,5.56-14.44Zm170.64-425.3l5.71,14.83,14.83,5.71-14.83,5.71-5.71,14.83-5.71-14.82-14.82-5.71,14.83-5.71,5.71-14.83ZM598.32,0l4.06,10.56,10.56,4.06-10.56,4.06-4.06,10.56-4.07-10.56-10.55-4.07,10.56-4.06,4.06-10.56Zm-51.66,306.06l4.06,10.56,10.56,4.06-10.56,4.06-4.06,10.56-4.07-10.55-10.55-4.07,10.56-4.06,4.06-10.56Zm-198.95,142.91l4.06,10.56,10.56,4.06-10.56,4.06-4.06,10.56-4.07-10.55-10.55-4.07,10.56-4.06,4.06-10.56Zm-132.77-248.13l4.06,10.56,10.56,4.06-10.56,4.06-4.06,10.56-4.07-10.55-10.55-4.07,10.56-4.06,4.06-10.56ZM0,425.5h16.42v3.05H0v-3.05Zm70.13,0h57.92v3.05h-57.92v-3.05Zm94.77,0h684.95v3.05H164.9v-3.05Zm-57.61-160.59h20.75v3.05h-20.75v-3.05Zm107.63,0h101.74v3.05h-101.74v-3.05Zm155.73,0h479.2v3.05h-479.2v-3.05Zm-61.08,299.53h23.5v3.05h-23.5v-3.05Zm72.4,0h260.8v3.05h-260.8v-3.05ZM227.61,118.92h22.1v3.05h-22.1v-3.05Zm71.62,0h257.75v3.05h-257.75v-3.05Z"/></svg>