<?xml version="1.0" encoding="UTF-8"?><svg id="Calque_1" xmlns="http://www.w3.org/2000/svg" xmlns:xlink="http://www.w3.org/1999/xlink" viewBox="0 0 1235.49 1092.79"><defs><style>.cls-1,.cls-2,.cls-3{fill:none;}.cls-2{clip-path:url(#clippath-1);}.cls-4{fill:#f1cf25;}.cls-5{fill:#fff;}.cls-6{fill:#fe9c87;}.cls-7{fill:#231f20;}.cls-8{fill:#9adbba;}.cls-9{fill:#99d1df;}.cls-3{clip-path:url(#clippath);}</style><clipPath id="clippath"><polygon class="cls-1" points="517.84 854.47 413.44 826.49 309.05 798.52 337.02 902.92 364.99 1007.31 416.2 937.72 467.71 989.24 499.77 957.18 448.25 905.67 517.84 854.47"/></clipPath><clipPath id="clippath-1"><polygon class="cls-1" points="517.84 854.47 413.44 826.49 309.05 798.52 337.02 902.92 364.99 1007.31 416.2 937.72 467.71 989.24 499.77 957.18 448.25 905.67 517.84 854.47"/></clipPath></defs><rect class="cls-6" x="917.05" y="791.24" width="211.23" height="211.23"/><rect class="cls-4" x="58.16" y="94.18" width="211.23" height="211.23"/><circle class="cls-8" cx="1008.41" cy="127.53" r="105.33"/><circle class="cls-9" cx="425.12" cy="976.2" r="105.33"/><path class="cls-7" d="m601.03,503.73c-153.61,0-298.03-6.05-406.66-17.03-52.86-5.34-94.38-11.57-123.4-18.51-31.19-7.45-46.35-15.34-46.35-24.1s15.16-16.65,46.35-24.1c29.02-6.94,70.54-13.16,123.4-18.51,108.63-10.98,253.05-17.03,406.66-17.03s298.03,6.05,406.66,17.03c52.86,5.34,94.38,11.57,123.4,18.51,31.19,7.45,46.35,15.34,46.35,24.1s-15.16,16.65-46.35,24.1c-29.02,6.94-70.54,13.16-123.4,18.51-108.63,10.98-253.05,17.03-406.66,17.03Zm0-116.22c-153.51,0-297.82,6.04-406.35,17.01-104.58,10.57-167.01,25.36-167.01,39.57s62.43,29,167.01,39.58c108.53,10.97,252.84,17.01,406.35,17.01s297.82-6.04,406.35-17.01c104.58-10.57,167.01-25.36,167.01-39.58s-62.43-29-167.01-39.57c-108.53-10.97-252.84-17.01-406.35-17.01Z"/><path class="cls-7" d="m601.03,561.84c-153.61,0-298.03-6.05-406.66-17.03-52.86-5.34-94.38-11.57-123.4-18.51-31.19-7.45-46.35-15.34-46.35-24.1s15.16-16.65,46.35-24.1c29.02-6.94,70.54-13.16,123.4-18.51,108.63-10.98,253.05-17.03,406.66-17.03s298.03,6.05,406.66,17.03c52.86,5.34,94.38,11.57,123.4,18.51,31.19,7.45,46.35,15.34,46.35,24.1s-15.16,16.65-46.35,24.1c-29.02,6.94-70.54,13.16-123.4,18.51-108.63,10.98-253.05,17.03-406.66,17.03Zm0-116.22c-153.51,0-297.82,6.04-406.35,17.01-104.58,10.57-167.01,25.36-167.01,39.58s62.43,29,167.01,39.57c108.53,10.97,252.84,17.01,406.35,17.01s297.82-6.04,406.35-17.01c104.58-10.57,167.01-25.36,167.01-39.57s-62.43-29-167.01-39.58c-108.53-10.97-252.84-17.01-406.35-17.01Z"/><path class="cls-7" d="m601.03,619.96c-153.61,0-298.03-6.05-406.66-17.03-52.86-5.34-94.38-11.57-123.4-18.51-31.19-7.45-46.35-15.34-46.35-24.1s15.16-16.65,46.35-24.1c29.02-6.94,70.54-13.16,123.4-18.51,108.63-10.98,253.05-17.03,406.66-17.03s298.03,6.05,406.66,17.03c52.86,5.34,94.38,11.57,123.4,18.51,31.19,7.45,46.35,15.34,46.35,24.1s-15.16,16.65-46.35,24.1c-29.02,6.94-70.54,13.16-123.4,18.51-108.63,10.98-253.05,17.03-406.66,17.03Zm0-116.22c-153.51,0-297.82,6.04-406.35,17.01-104.58,10.57-167.01,25.36-167.01,39.57s62.43,29,167.01,39.58c108.53,10.97,252.84,17.01,406.35,17.01s297.82-6.04,406.35-17.01c104.58-10.57,167.01-25.36,167.01-39.58s-62.43-29-167.01-39.57c-108.53-10.97-252.84-17.01-406.35-17.01Z"/><path class="cls-7" d="m601.03,678.07c-153.61,0-298.03-6.05-406.66-17.03-52.86-5.34-94.38-11.57-123.4-18.51-31.19-7.45-46.35-15.34-46.35-24.1s15.16-16.65,46.35-24.1c29.02-6.94,70.54-13.16,123.4-18.51,108.63-10.98,253.05-17.03,406.66-17.03s298.03,6.05,406.66,17.03c52.86,5.34,94.38,11.57,123.4,18.51,31.19,7.45,46.35,15.34,46.35,24.1s-15.16,16.65-46.35,24.1c-29.02,6.94-70.54,13.16-123.4,18.51-108.63,10.98-253.05,17.03-406.66,17.03Zm0-116.22c-153.51,0-297.82,6.04-406.35,17.01-104.58,10.57-167.01,25.36-167.01,39.58s62.43,29,167.01,39.58c108.53,10.97,252.84,17.01,406.35,17.01s297.82-6.04,406.35-17.01c104.58-10.57,167.01-25.36,167.01-39.58s-62.43-29-167.01-39.58c-108.53-10.97-252.84-17.01-406.35-17.01Z"/><path class="cls-7" d="m601.03,736.18c-153.61,0-298.03-6.05-406.66-17.03-52.86-5.34-94.38-11.57-123.4-18.51-31.19-7.45-46.35-15.34-46.35-24.1s15.16-16.65,46.35-24.1c29.02-6.94,70.54-13.16,123.4-18.51,108.63-10.98,253.05-17.03,406.66-17.03s298.03,6.05,406.66,17.03c52.86,5.34,94.38,11.57,123.4,18.51,31.19,7.45,46.35,15.34,46.35,24.1s-15.16,16.65-46.35,24.1c-29.02,6.94-70.54,13.16-123.4,18.51-108.63,10.98-253.05,17.03-406.66,17.03Zm0-116.22c-153.51,0-297.82,6.04-406.35,17.01-104.58,10.57-167.01,25.36-167.01,39.58s62.43,29,167.01,39.57c108.53,10.97,252.84,17.01,406.35,17.01s297.82-6.04,406.35-17.01c104.58-10.57,167.01-25.36,167.01-39.57s-62.43-29-167.01-39.58c-108.53-10.97-252.84-17.01-406.35-17.01Z"/><path class="cls-7" d="m601.03,794.29c-153.61,0-298.03-6.05-406.66-17.03-52.86-5.34-94.38-11.57-123.4-18.51-31.19-7.45-46.35-15.34-46.35-24.1s15.16-16.65,46.35-24.1c29.02-6.94,70.54-13.16,123.4-18.51,108.63-10.98,253.05-17.03,406.66-17.03s298.03,6.05,406.66,17.03c52.86,5.34,94.38,11.57,123.4,18.51,31.19,7.45,46.35,15.34,46.35,24.1s-15.16,16.65-46.35,24.1c-29.02,6.94-70.54,13.16-123.4,18.51-108.63,10.98-253.05,17.03-406.66,17.03Zm0-116.22c-153.51,0-297.82,6.04-406.35,17.01-104.58,10.57-167.01,25.36-167.01,39.57s62.43,29,167.01,39.58c108.53,10.97,252.84,17.01,406.35,17.01s297.82-6.04,406.35-17.01c104.58-10.57,167.01-25.36,167.01-39.58s-62.43-29-167.01-39.57c-108.53-10.97-252.84-17.01-406.35-17.01Z"/><path class="cls-7" d="m601.03,852.4c-153.61,0-298.03-6.05-406.66-17.03-52.86-5.34-94.38-11.57-123.4-18.51-31.19-7.45-46.35-15.34-46.35-24.1s15.16-16.65,46.35-24.1c29.02-6.94,70.54-13.16,123.4-18.51,108.63-10.98,253.05-17.03,406.66-17.03s298.03,6.05,406.66,17.03c52.86,5.34,94.38,11.57,123.4,18.51,31.19,7.45,46.35,15.34,46.35,24.1s-15.16,16.65-46.35,24.1c-29.02,6.94-70.54,13.16-123.4,18.51-108.63,10.98-253.05,17.03-406.66,17.03Zm0-116.22c-153.51,0-297.82,6.04-406.35,17.01-104.58,10.57-167.01,25.36-167.01,39.57s62.43,29,167.01,39.58c108.53,10.97,252.84,17.01,406.35,17.01s297.82-6.04,406.35-17.01c104.58-10.57,167.01-25.36,167.01-39.58s-62.43-29-167.01-39.57c-108.53-10.97-252.84-17.01-406.35-17.01h0Z"/><path class="cls-7" d="m601.03,910.52c-153.61,0-298.03-6.05-406.66-17.03-52.86-5.34-94.38-11.57-123.4-18.51-31.19-7.45-46.35-15.34-46.35-24.1s15.16-16.65,46.35-24.1c29.02-6.94,70.54-13.16,123.4-18.51,108.63-10.98,253.05-17.03,406.66-17.03s298.03,6.05,406.66,17.03c52.86,5.34,94.38,11.57,123.4,18.51,31.19,7.45,46.35,15.34,46.35,24.1s-15.16,16.65-46.35,24.1c-29.02,6.94-70.54,13.16-123.4,18.51-108.63,10.98-253.05,17.03-406.66,17.03Zm0-116.22c-153.51,0-297.82,6.04-406.35,17.01-104.58,10.57-167.01,25.36-167.01,39.57s62.43,29,167.01,39.57c108.53,10.97,252.84,17.01,406.35,17.01s297.82-6.04,406.35-17.01c104.58-10.57,167.01-25.36,167.01-39.57s-62.43-29-167.01-39.57c-108.53-10.97-252.84-17.01-406.35-17.01h0ZM931.61,199.79h277.73v3.05h-277.73v-3.05Z"/><path class="cls-7" d="m1068.95,62.45h3.05v277.73h-3.05V62.45Z"/><path class="cls-7" d="m1071.69,341.1l-2.44-1.84c.46-.61,45.98-61.89,45.98-137.95s-45.52-137.34-45.98-137.95l2.44-1.84c.47.62,46.6,62.67,46.6,139.78s-46.13,139.17-46.6,139.78Z"/><path class="cls-7" d="m1070.47,341.71c-77.41,0-140.39-62.98-140.39-140.39s62.98-140.39,140.39-140.39,140.39,62.98,140.39,140.39-62.98,140.39-140.39,140.39Zm0-277.73c-75.73,0-137.34,61.61-137.34,137.34s61.61,137.34,137.34,137.34,137.34-61.61,137.34-137.34-61.61-137.34-137.34-137.34h0Z"/><path class="cls-7" d="m1070.96,341.63l-.97-2.89c.23-.08,23.19-7.93,45.84-28.74,20.85-19.16,45.7-53.56,45.7-108.68s-24.85-89.52-45.7-108.68c-22.64-20.81-45.61-28.66-45.84-28.74l.97-2.89c.23.08,23.72,8.09,46.83,29.3,21.34,19.58,46.78,54.73,46.78,111.01s-25.44,91.44-46.78,111.01c-23.12,21.21-46.6,29.22-46.83,29.3h0Z"/><path class="cls-7" d="m1069.26,341.1c-.47-.62-46.6-62.67-46.6-139.78s46.13-139.17,46.6-139.78l2.44,1.84c-.46.61-45.98,61.89-45.98,137.95s45.52,137.34,45.98,137.95l-2.44,1.84Z"/><path class="cls-7" d="m1069.99,341.63c-.23-.08-23.72-8.09-46.83-29.3-21.34-19.58-46.78-54.73-46.78-111.01s25.44-91.44,46.78-111.01c23.12-21.2,46.6-29.22,46.83-29.3l.97,2.89c-.23.08-23.19,7.93-45.84,28.74-20.85,19.16-45.7,53.56-45.7,108.68s24.9,89.6,45.79,108.77c22.64,20.77,45.51,28.58,45.74,28.65l-.97,2.89Z"/><path class="cls-7" d="m1194.07,264.91c-13.85-5.95-53.62-19.78-123.59-19.78s-109.74,13.83-123.59,19.78l-1.2-2.8c42.1-18.08,101.3-20.03,124.79-20.03s82.7,1.95,124.8,20.03l-1.2,2.8Zm-214.33,42.34l-1.3-2.76c15.61-7.35,44.25-16.12,92.04-16.12s76.1,8.68,91.71,15.96l-1.29,2.76c-15.32-7.15-43.45-15.68-90.42-15.68-47.23,0-75.41,8.61-90.74,15.83h0Zm90.74-146.7c-23.5,0-82.7-1.95-124.79-20.03l1.2-2.8c13.85,5.95,53.62,19.78,123.59,19.78s109.74-13.83,123.59-19.78l1.2,2.8c-42.09,18.08-101.3,20.03-124.8,20.03Zm0-46.29c-47.79,0-76.43-8.77-92.04-16.12l1.3-2.76c15.33,7.22,43.51,15.83,90.74,15.83s75.09-8.53,90.42-15.68l1.29,2.76c-15.6,7.28-44.18,15.96-91.71,15.96h0Z"/><path class="cls-5" d="m144.18,262.22h913.71v650.46c0,9.51-7.71,17.22-17.22,17.22H161.4c-9.51,0-17.22-7.71-17.22-17.22V262.22h0Z"/><path class="cls-7" d="m1040.67,931.42H161.4c-10.33,0-18.74-8.41-18.74-18.74V260.7h916.76v651.98c0,10.33-8.41,18.74-18.74,18.74ZM145.7,263.74v648.93c0,8.65,7.04,15.69,15.69,15.69h879.28c8.65,0,15.69-7.04,15.69-15.69V263.74H145.7Z"/><path class="cls-5" d="m161.4,169.66h879.28c9.51,0,17.22,7.71,17.22,17.22v75.35H144.18v-75.35c0-9.51,7.71-17.22,17.22-17.22Z"/><path class="cls-7" d="m1059.42,263.74H142.65v-76.87c0-10.33,8.41-18.74,18.74-18.74h879.28c10.33,0,18.74,8.41,18.74,18.74v76.87h0Zm-913.71-3.05h910.66v-73.82c0-8.65-7.04-15.69-15.69-15.69H161.4c-8.65,0-15.69,7.04-15.69,15.69v73.82Z"/><path class="cls-7" d="m199.82,232.09c-8.9,0-16.15-7.24-16.15-16.15s7.24-16.15,16.15-16.15,16.15,7.24,16.15,16.15-7.24,16.15-16.15,16.15Zm0-29.25c-7.22,0-13.1,5.88-13.1,13.1s5.88,13.1,13.1,13.1,13.1-5.88,13.1-13.1-5.88-13.1-13.1-13.1Zm50.53,29.25c-8.9,0-16.15-7.24-16.15-16.15s7.24-16.15,16.15-16.15,16.15,7.24,16.15,16.15-7.24,16.15-16.15,16.15Zm0-29.25c-7.22,0-13.1,5.88-13.1,13.1s5.88,13.1,13.1,13.1,13.1-5.88,13.1-13.1-5.88-13.1-13.1-13.1Zm50.53,29.25c-8.9,0-16.15-7.24-16.15-16.15s7.24-16.15,16.15-16.15,16.15,7.24,16.15,16.15-7.24,16.15-16.15,16.15Zm0-29.25c-7.22,0-13.1,5.88-13.1,13.1s5.88,13.1,13.1,13.1,13.1-5.88,13.1-13.1-5.88-13.1-13.1-13.1Zm8.16,726.44l-16.92-67.61-48.46,50.09,19.15-67.01-67.01,19.15,50.09-48.46-67.61-16.92,67.61-16.92-50.09-48.46,67.01,19.15-19.15-67.01,48.46,50.09,16.92-67.61,16.92,67.61,48.46-50.09-19.15,67.01,67.01-19.15-50.09,48.46,67.61,16.92-67.61,16.92,50.09,48.46-67.01-19.15,19.15,67.01-48.46-50.09-16.92,67.61Zm-15.3-73.67l15.3,61.11,15.3-61.11,43.8,45.28-17.31-60.58,60.58,17.31-45.28-43.81,61.11-15.3-61.11-15.3,45.28-43.8-60.58,17.31,17.31-60.58-43.8,45.28-15.3-61.11-15.3,61.11-43.8-45.28,17.31,60.58-60.58-17.31,45.28,43.8-61.11,15.3,61.11,15.3-45.28,43.81,60.58-17.31-17.31,60.58,43.81-45.28Z"/><path class="cls-7" d="m517.84,854.47l-104.4-27.97-104.4-27.97,27.97,104.4,27.97,104.4,51.2-69.59,51.52,51.52,32.05-32.06-51.52-51.52,69.59-51.2Z"/><path class="cls-7" d="m328.15,825.63h-38.2c-4.42,0-8.01-3.59-8.01-8.01h0v-38.2c0-4.42,3.59-8.01,8.01-8.01h38.2c4.42,0,8.01,3.59,8.01,8.01v38.2c0,4.42-3.59,8.01-8.01,8.01h0Zm0-196.56h-38.2c-4.42,0-8.01-3.59-8.01-8.01v-38.2c0-4.42,3.59-8.01,8.01-8.01h38.2c4.42,0,8.01,3.59,8.01,8.01v38.2c0,4.42-3.58,8.01-8.01,8.01h0Z"/><g class="cls-3"><path class="cls-5" d="m328.15,825.63h-38.2c-4.42,0-8.01-3.59-8.01-8.01h0v-38.2c0-4.42,3.59-8.01,8.01-8.01h38.2c4.42,0,8.01,3.59,8.01,8.01v38.2c0,4.42-3.59,8.01-8.01,8.01h0Z"/></g><g class="cls-2"><path class="cls-5" d="m309.05,929.28l-16.92-67.61-48.46,50.09,19.15-67.01-67.01,19.15,50.09-48.46-67.61-16.92,67.61-16.92-50.09-48.46,67.01,19.15-19.15-67.01,48.46,50.09,16.92-67.61,16.92,67.61,48.46-50.09-19.15,67.01,67.01-19.15-50.09,48.46,67.61,16.92-67.61,16.92,50.09,48.46-67.01-19.15,19.15,67.01-48.46-50.09-16.92,67.61Zm-15.3-73.67l15.3,61.11,15.3-61.11,43.8,45.28-17.31-60.58,60.58,17.31-45.28-43.81,61.11-15.3-61.11-15.3,45.28-43.8-60.58,17.31,17.31-60.58-43.8,45.28-15.3-61.11-15.3,61.11-43.8-45.28,17.31,60.58-60.58-17.31,45.28,43.8-61.11,15.3,61.11,15.3-45.28,43.81,60.58-17.31-17.31,60.58,43.81-45.28Z"/></g><path class="cls-7" d="m372.28,403.87h387.76v3.05h-387.76v-3.05Z"/><path class="cls-7" d="m706.64,444.51l-2.93-.83c.1-.35,9.2-31.03,41.88-38.28-32.68-7.25-41.78-37.93-41.88-38.28l2.93-.83c.03.09,2.79,9.56,10.75,18.87,10.61,12.42,24.97,18.72,42.66,18.72v3.05c-42.26,0-53.3,37.22-53.41,37.59h0Zm-334.36,155.92h387.76v3.05h-387.76v-3.05Z"/><path class="cls-7" d="m706.64,641.07l-2.93-.83c.1-.35,9.2-31.03,41.88-38.28-32.68-7.25-41.78-37.93-41.88-38.28l2.93-.83c.03.09,2.79,9.56,10.75,18.87,10.61,12.42,24.97,18.72,42.66,18.72v3.05c-42.26,0-53.3,37.22-53.41,37.59h0Zm-225.63,155.92h279.03v3.05h-279.03v-3.05Z"/><path class="cls-7" d="m706.64,837.63l-2.93-.83c.1-.35,9.2-31.03,41.88-38.28-32.68-7.25-41.78-37.93-41.88-38.28l2.93-.83c.03.09,2.79,9.56,10.75,18.87,10.61,12.42,24.97,18.72,42.66,18.72v3.05c-42.26,0-53.3,37.21-53.41,37.59h0Zm-378.49-405.13h-38.2c-4.42,0-8.01-3.59-8.01-8.01v-38.2c0-4.42,3.59-8.01,8.01-8.01h38.2c4.42,0,8.01,3.59,8.01,8.01v38.2c0,4.42-3.59,8.01-8.01,8.01Zm530,36.4c-35.02,0-63.51-28.49-63.51-63.51s28.49-63.51,63.51-63.51,63.51,28.49,63.51,63.51-28.49,63.51-63.51,63.51h0Zm0-123.97c-33.34,0-60.46,27.12-60.46,60.46s27.12,60.46,60.46,60.46,60.46-27.12,60.46-60.46-27.12-60.46-60.46-60.46Z"/><path class="cls-7" d="m858.15,450.76c-19.27,0-36.49-12.24-42.85-30.45l2.88-1.01c5.93,16.99,21.99,28.41,39.97,28.41s34.04-11.42,39.97-28.41l2.88,1.01c-6.36,18.21-23.58,30.45-42.85,30.45Z"/><path class="cls-7" d="m902,422.13c-3.93,0-7.08-1.66-7.23-1.74l1.44-2.69-.72,1.34.72-1.35s3.13,1.63,6.63,1.35l.25,3.04c-.36.03-.73.04-1.08.04h0Zm-88.04,0c-.36,0-.72-.01-1.08-.04l.25-3.04c3.49.29,6.59-1.33,6.63-1.35l1.44,2.69c-.14.08-3.3,1.74-7.23,1.74h0Z"/><ellipse class="cls-7" cx="873.63" cy="388.04" rx="9.94" ry="20.95"/><ellipse class="cls-7" cx="842.67" cy="388.04" rx="9.94" ry="20.95"/><path class="cls-7" d="m858.15,665.46c-35.02,0-63.51-28.49-63.51-63.51s28.49-63.51,63.51-63.51,63.51,28.49,63.51,63.51-28.49,63.51-63.51,63.51h0Zm0-123.97c-33.34,0-60.46,27.12-60.46,60.46s27.12,60.46,60.46,60.46,60.46-27.12,60.46-60.46-27.12-60.46-60.46-60.46Z"/><path class="cls-7" d="m858.15,647.32c-19.27,0-36.49-12.24-42.85-30.45l2.88-1c5.93,16.99,21.99,28.41,39.97,28.41s34.04-11.42,39.97-28.41l2.88,1c-6.36,18.21-23.58,30.45-42.85,30.45Z"/><path class="cls-7" d="m902,618.69c-3.93,0-7.08-1.66-7.23-1.74l1.44-2.69-.72,1.34.72-1.35s3.13,1.62,6.63,1.35l.25,3.04c-.36.03-.73.04-1.08.04h0Zm-88.04,0c-.36,0-.72-.01-1.08-.04l.25-3.04c3.49.28,6.59-1.33,6.63-1.35l1.44,2.69c-.14.08-3.3,1.74-7.23,1.74h0Z"/><ellipse class="cls-7" cx="873.63" cy="584.6" rx="9.94" ry="20.95"/><ellipse class="cls-7" cx="842.67" cy="584.6" rx="9.94" ry="20.95"/><path class="cls-7" d="m856.75,809.49v51.01h2.79v-51.01c-.46.06-.92.09-1.4.09s-.94-.03-1.4-.09h0Zm2.79-21.95v-51.01h-2.79v51.01c.46-.06.92-.09,1.4-.09s.94.03,1.4.09h0Zm9.58,12.37h51.01v-2.79h-51.01c.06.46.09.92.09,1.4,0,.47-.03.94-.09,1.39Zm-21.95-2.79h-51.01v2.79h51.01c-.06-.46-.09-.93-.09-1.4,0-.47.03-.94.09-1.4h0Zm4.2-7.35l-36.07-36.07-1.97,1.97,36.07,36.07c.57-.74,1.24-1.4,1.97-1.97Zm13.55,17.49l36.07,36.07,1.97-1.97-36.07-36.07c-.57.74-1.24,1.4-1.97,1.97Zm1.97-15.52l36.07-36.07-1.97-1.97-36.07,36.07c.74.57,1.4,1.23,1.97,1.97h0Zm-17.49,13.55l-36.07,36.07,1.97,1.97,36.07-36.07c-.74-.57-1.4-1.24-1.97-1.97ZM163.77,43.01h3.89v172.93h-3.89V43.01Z"/><path class="cls-7" d="m252.18,127.53v3.89H79.25v-3.89h172.93Z"/><path class="cls-7" d="m103.2,69.71l2.75-2.75,122.28,122.28-2.75,2.75-122.28-122.28Z"/><path class="cls-7" d="m225.48,66.95l2.75,2.75-122.28,122.28-2.75-2.75,122.28-122.28Z"/><circle class="cls-7" cx="165.72" cy="129.47" r="15.44"/></svg>