<?xml version="1.0" encoding="utf-8"?>
<!-- Generator: $$$/GeneralStr/196=Adobe Illustrator 27.6.0, SVG Export Plug-In . SVG Version: 6.00 Build 0)  -->
<svg version="1.1" id="Calque_1" xmlns="http://www.w3.org/2000/svg" xmlns:xlink="http://www.w3.org/1999/xlink" x="0px" y="0px"
	 viewBox="0 0 1179.91 775.93" style="enable-background:new 0 0 1179.91 775.93;" xml:space="preserve">
<style type="text/css">
	.st0{fill:#99D1DF;}
	.st1{fill:#231F20;}
	.st2{fill:#FFFFFF;}
	.st3{clip-path:url(#SVGID_00000021819625127668549870000003936722113531835272_);fill:#FFFFFF;}
	.st4{clip-path:url(#SVGID_00000019663525182016323080000004512445536374061700_);}
</style>
<rect x="414.05" y="25.04" class="st0" width="667.48" height="317.61"/>
<g>
	<path class="st1" d="M572.58,507.51c-138.02,0-267.79-7.15-365.4-20.13C81.06,470.61,54.59,450.9,54.59,437.32
		s26.47-33.3,152.59-50.07c97.61-12.98,227.38-20.13,365.4-20.13s267.79,7.15,365.4,20.13c126.12,16.77,152.59,36.48,152.59,50.07
		s-26.47,33.3-152.59,50.07C840.37,500.36,710.6,507.51,572.58,507.51z M572.58,370.17c-137.89,0-267.52,7.14-365,20.1
		c-135.34,17.99-149.95,38.9-149.95,47.04s14.61,29.05,149.95,47.04c97.48,12.96,227.11,20.1,365,20.1s267.52-7.14,365-20.1
		c135.34-17.99,149.95-38.9,149.95-47.04s-14.61-29.05-149.95-47.04C840.1,377.31,710.47,370.17,572.58,370.17z"/>
	<path class="st1" d="M572.58,576.18c-138.02,0-267.79-7.15-365.4-20.13C81.06,539.28,54.59,519.57,54.59,505.98
		c0-13.59,26.47-33.3,152.59-50.07c97.61-12.98,227.38-20.13,365.4-20.13s267.79,7.15,365.4,20.13
		c126.12,16.77,152.59,36.48,152.59,50.07c0,13.58-26.47,33.3-152.59,50.07C840.37,569.03,710.6,576.18,572.58,576.18z
		 M572.58,438.84c-137.89,0-267.52,7.14-365,20.1c-135.34,17.99-149.95,38.9-149.95,47.04c0,8.15,14.61,29.05,149.95,47.04
		c97.48,12.96,227.11,20.1,365,20.1s267.52-7.14,365-20.1c135.34-17.99,149.95-38.9,149.95-47.04c0-8.15-14.61-29.05-149.95-47.04
		C840.1,445.98,710.47,438.84,572.58,438.84z"/>
	<path class="st1" d="M572.58,644.85c-138.02,0-267.79-7.15-365.4-20.13C81.06,607.95,54.59,588.24,54.59,574.65
		s26.47-33.3,152.59-50.07c97.61-12.98,227.38-20.13,365.4-20.13s267.79,7.15,365.4,20.13c126.12,16.77,152.59,36.48,152.59,50.07
		s-26.47,33.3-152.59,50.07C840.37,637.7,710.6,644.85,572.58,644.85z M572.58,507.51c-137.89,0-267.52,7.14-365,20.1
		C72.25,545.6,57.63,566.5,57.63,574.65s14.61,29.05,149.95,47.04c97.48,12.96,227.11,20.1,365,20.1s267.52-7.14,365-20.1
		c135.34-17.99,149.95-38.9,149.95-47.04s-14.61-29.05-149.95-47.04C840.1,514.65,710.47,507.51,572.58,507.51z"/>
	<path class="st1" d="M572.58,713.52c-138.02,0-267.79-7.15-365.4-20.13C81.06,676.62,54.59,656.91,54.59,643.32
		s26.47-33.3,152.59-50.07c97.61-12.98,227.38-20.13,365.4-20.13s267.79,7.15,365.4,20.13c126.12,16.77,152.59,36.48,152.59,50.07
		s-26.47,33.3-152.59,50.07C840.37,706.37,710.6,713.52,572.58,713.52z M572.58,576.18c-137.89,0-267.52,7.14-365,20.1
		c-135.34,17.99-149.95,38.9-149.95,47.04s14.61,29.05,149.95,47.04c97.48,12.96,227.11,20.1,365,20.1s267.52-7.14,365-20.1
		c135.34-17.99,149.95-38.9,149.95-47.04s-14.61-29.05-149.95-47.04C840.1,583.32,710.47,576.18,572.58,576.18z M145.28,84.18h5.67
		v251.96h-5.67V84.18z"/>
	<path class="st1" d="M274.1,207.33V213H22.14v-5.67H274.1z"/>
	<path class="st1" d="M57.02,123.08l4.01-4.01L239.2,297.23l-4.01,4.01L57.02,123.08z"/>
	<path class="st1" d="M235.19,119.07l4.01,4.01L61.04,301.24l-4.01-4.01L235.19,119.07z"/>
	<circle class="st1" cx="148.12" cy="210.16" r="22.49"/>
</g>
<circle class="st2" cx="1029.58" cy="399.49" r="126.67"/>
<path class="st1" d="M1029.58,527.68c-70.69,0-128.2-57.51-128.2-128.2s57.51-128.2,128.2-128.2s128.2,57.51,128.2,128.2
	C1157.78,470.17,1100.27,527.68,1029.58,527.68z M1029.58,274.34c-69.01,0-125.15,56.14-125.15,125.15s56.14,125.15,125.15,125.15
	s125.15-56.14,125.15-125.15S1098.59,274.34,1029.58,274.34z"/>
<path class="st1" d="M1029.58,490.61c-38.71,0-73.29-24.58-86.06-61.17l2.88-1c12.34,35.36,45.77,59.12,83.18,59.12
	c37.41,0,70.84-23.76,83.19-59.12l2.88,1C1102.87,466.03,1068.29,490.61,1029.58,490.61z"/>
<path class="st1" d="M1119.18,432.09c-7.61,0-13.72-3.22-14-3.37l1.44-2.69c0.07,0.03,6.78,3.55,14.42,2.94l0.25,3.04
	C1120.58,432.06,1119.88,432.09,1119.18,432.09L1119.18,432.09z M939.31,432.09c-0.69,0-1.39-0.03-2.1-0.08l0.25-3.04
	c7.63,0.62,14.35-2.9,14.42-2.94l1.44,2.69C953.03,428.87,946.91,432.09,939.31,432.09z"/>
<ellipse class="st1" cx="1061.22" cy="364.02" rx="20.31" ry="42.82"/>
<ellipse class="st1" cx="997.94" cy="364.02" rx="20.31" ry="42.82"/>
<path class="st2" d="M203.74,185.37h737.69c14.34,0,25.96,11.62,25.96,25.96v113.6H177.78v-113.6
	C177.78,196.99,189.4,185.37,203.74,185.37L203.74,185.37z"/>
<path class="st1" d="M968.91,326.45H176.25V211.32c0-15.15,12.33-27.48,27.48-27.48h737.69c15.15,0,27.48,12.33,27.48,27.48V326.45z
	 M179.3,323.4h786.56V211.32c0-13.47-10.96-24.43-24.43-24.43H203.74c-13.47,0-24.43,10.96-24.43,24.43V323.4z"/>
<path class="st1" d="M261.67,278.72c-13,0-23.57-10.57-23.57-23.57s10.57-23.57,23.57-23.57s23.57,10.57,23.57,23.57
	S274.67,278.72,261.67,278.72z M261.67,234.62c-11.32,0-20.52,9.21-20.52,20.52s9.21,20.52,20.52,20.52s20.52-9.21,20.52-20.52
	S272.99,234.62,261.67,234.62z M337.86,278.72c-13,0-23.57-10.57-23.57-23.57s10.57-23.57,23.57-23.57s23.57,10.57,23.57,23.57
	S350.86,278.72,337.86,278.72L337.86,278.72z M337.86,234.62c-11.32,0-20.52,9.21-20.52,20.52s9.21,20.52,20.52,20.52
	s20.52-9.21,20.52-20.52S349.17,234.62,337.86,234.62z M414.05,278.72c-13,0-23.57-10.57-23.57-23.57s10.57-23.57,23.57-23.57
	s23.57,10.57,23.57,23.57S427.04,278.72,414.05,278.72z M414.05,234.62c-11.32,0-20.52,9.21-20.52,20.52s9.21,20.52,20.52,20.52
	s20.52-9.21,20.52-20.52S425.36,234.62,414.05,234.62z"/>
<path class="st2" d="M177.78,324.92h789.61v320.76c0,14.34-11.62,25.96-25.96,25.96H203.74c-14.34,0-25.96-11.62-25.96-25.96
	L177.78,324.92L177.78,324.92z"/>
<path class="st1" d="M941.43,673.17H203.74c-15.15,0-27.48-12.33-27.48-27.48V323.4h792.66v322.29
	C968.91,660.84,956.58,673.17,941.43,673.17z M179.3,326.45v319.24c0,13.47,10.96,24.43,24.43,24.43h737.69
	c13.47,0,24.43-10.96,24.43-24.43V326.45L179.3,326.45z"/>
<path class="st1" d="M307.41,570.48c-0.51,0-0.99-0.26-1.27-0.68c-11.57-17.41-32.29-25.99-52.78-21.87
	c-0.54,0.1-1.09-0.08-1.46-0.49c-0.33-0.37-0.45-0.89-0.33-1.37c4.11-20.43-4.47-41.15-21.88-52.72c-0.7-0.47-0.89-1.41-0.43-2.11
	c0.11-0.17,0.26-0.32,0.43-0.43c17.41-11.57,25.99-32.29,21.87-52.78c-0.1-0.51,0.06-1.03,0.43-1.4c0.37-0.36,0.9-0.52,1.4-0.4
	c20.47,4.12,41.19-4.46,52.76-21.87c0.56-0.85,1.98-0.85,2.54,0c11.57,17.41,32.28,25.99,52.78,21.87c0.54-0.11,1.1,0.08,1.46,0.5
	c0.33,0.38,0.45,0.89,0.33,1.37c-4.11,20.43,4.47,41.15,21.88,52.72c0.7,0.47,0.89,1.41,0.43,2.11c-0.11,0.17-0.26,0.32-0.43,0.43
	c-17.41,11.57-25.99,32.29-21.87,52.78c0.1,0.51-0.06,1.03-0.43,1.4c-0.37,0.36-0.89,0.51-1.4,0.4
	c-20.47-4.12-41.19,4.46-52.76,21.87C308.4,570.22,307.92,570.48,307.41,570.48z M263.58,543.86c17.21,0,33.51,8.17,43.83,22.42
	c12.03-16.61,32.21-24.97,52.47-21.73c-3.24-20.26,5.12-40.43,21.73-52.47c-16.61-12.03-24.97-32.21-21.73-52.47
	c-20.26,3.24-40.43-5.12-52.47-21.73c-12.03,16.61-32.21,24.97-52.47,21.73c3.24,20.26-5.12,40.43-21.73,52.47
	c16.61,12.03,24.97,32.21,21.73,52.47C257.8,544.09,260.69,543.86,263.58,543.86z"/>
<path class="st1" d="M304.52,517.15c-5.47-14.89,9-29.36,23.89-23.89l116.59,42.86l115.89,42.6c15,5.52,16.53,26.13,2.51,33.8
	l-90.27,49.34l-49.34,90.27c-7.67,14.03-28.28,12.5-33.8-2.51l-42.6-115.89L304.52,517.15z"/>
<circle class="st1" cx="307.41" cy="492.08" r="39.16"/>
<g>
	<defs>
		<path id="SVGID_1_" d="M304.52,517.15c-5.47-14.89,9-29.36,23.89-23.89l116.59,42.86l115.89,42.6c15,5.52,16.53,26.13,2.51,33.8
			l-90.27,49.34l-49.34,90.27c-7.67,14.03-28.28,12.5-33.8-2.51l-42.6-115.89L304.52,517.15z"/>
	</defs>
	<clipPath id="SVGID_00000159462237958040342360000006735197080742830221_">
		<use xlink:href="#SVGID_1_"  style="overflow:visible;"/>
	</clipPath>
	
		<circle style="clip-path:url(#SVGID_00000159462237958040342360000006735197080742830221_);fill:#FFFFFF;" cx="307.41" cy="492.08" r="39.16"/>
</g>
<g>
	<defs>
		<path id="SVGID_00000063615817972696825050000011471824848699215532_" d="M304.52,517.15c-5.47-14.89,9-29.36,23.89-23.89
			l116.59,42.86l115.89,42.6c15,5.52,16.53,26.13,2.51,33.8l-90.27,49.34l-49.34,90.27c-7.67,14.03-28.28,12.5-33.8-2.51
			l-42.6-115.89L304.52,517.15z"/>
	</defs>
	<clipPath id="SVGID_00000011032536542160439890000004701895106880327831_">
		<use xlink:href="#SVGID_00000063615817972696825050000011471824848699215532_"  style="overflow:visible;"/>
	</clipPath>
	<g style="clip-path:url(#SVGID_00000011032536542160439890000004701895106880327831_);">
		<path class="st2" d="M307.41,570.48c-0.51,0-0.99-0.26-1.27-0.68c-11.57-17.41-32.29-25.99-52.78-21.87
			c-0.54,0.1-1.09-0.08-1.46-0.49c-0.33-0.37-0.45-0.89-0.33-1.37c4.11-20.43-4.47-41.15-21.88-52.72c-0.7-0.47-0.89-1.41-0.43-2.11
			c0.11-0.17,0.26-0.32,0.43-0.43c17.41-11.57,25.99-32.29,21.87-52.78c-0.1-0.51,0.06-1.03,0.43-1.4c0.37-0.36,0.9-0.52,1.4-0.4
			c20.47,4.12,41.19-4.46,52.76-21.87c0.56-0.85,1.98-0.85,2.54,0c11.57,17.41,32.28,25.99,52.78,21.87c0.54-0.11,1.1,0.08,1.46,0.5
			c0.33,0.38,0.45,0.89,0.33,1.37c-4.11,20.43,4.47,41.15,21.88,52.72c0.7,0.47,0.89,1.41,0.43,2.11c-0.11,0.17-0.26,0.32-0.43,0.43
			c-17.41,11.57-25.99,32.29-21.87,52.78c0.1,0.51-0.06,1.03-0.43,1.4c-0.37,0.36-0.89,0.51-1.4,0.4
			c-20.47-4.12-41.19,4.46-52.76,21.87C308.4,570.22,307.92,570.48,307.41,570.48z M263.58,543.86c17.21,0,33.51,8.17,43.83,22.42
			c12.03-16.61,32.21-24.97,52.47-21.73c-3.24-20.26,5.12-40.43,21.73-52.47c-16.61-12.03-24.97-32.21-21.73-52.47
			c-20.26,3.24-40.43-5.12-52.47-21.73c-12.03,16.61-32.21,24.97-52.47,21.73c3.24,20.26-5.12,40.43-21.73,52.47
			c16.61,12.03,24.97,32.21,21.73,52.47C257.8,544.09,260.69,543.86,263.58,543.86z"/>
	</g>
</g>
<circle class="st2" cx="562.21" cy="492.08" r="39.16"/>
<path class="st1" d="M562.21,532.76c-22.43,0-40.68-18.25-40.68-40.68c0-22.43,18.25-40.68,40.68-40.68s40.68,18.25,40.68,40.68
	C602.89,514.51,584.64,532.76,562.21,532.76z M562.21,454.45c-20.75,0-37.63,16.88-37.63,37.63c0,20.75,16.88,37.63,37.63,37.63
	s37.63-16.88,37.63-37.63C599.84,471.33,582.96,454.45,562.21,454.45z"/>
<circle class="st2" cx="817" cy="492.08" r="39.16"/>
<path class="st1" d="M817,532.76c-22.43,0-40.68-18.25-40.68-40.68c0-22.43,18.25-40.68,40.68-40.68s40.68,18.25,40.68,40.68
	C857.68,514.51,839.43,532.76,817,532.76L817,532.76z M817,454.45c-20.75,0-37.63,16.88-37.63,37.63
	c0,20.75,16.88,37.63,37.63,37.63s37.63-16.88,37.63-37.63C854.63,471.33,837.75,454.45,817,454.45z M302.13,103.32h727.45v3.05
	H302.13V103.32z"/>
<circle class="st1" cx="302.13" cy="104.84" r="6.85"/>
<circle class="st1" cx="1029.58" cy="104.84" r="6.85"/>
</svg>
