<?xml version="1.0" encoding="utf-8"?>
<!-- Generator: $$$/GeneralStr/196=Adobe Illustrator 27.6.0, SVG Export Plug-In . SVG Version: 6.00 Build 0)  -->
<svg version="1.1" id="Calque_1" xmlns="http://www.w3.org/2000/svg" xmlns:xlink="http://www.w3.org/1999/xlink" x="0px" y="0px"
	 viewBox="0 0 1215.64 1173.98" style="enable-background:new 0 0 1215.64 1173.98;" xml:space="preserve">
<style type="text/css">
	.st0{fill:#99D1DF;}
	.st1{fill:#231F20;}
	.st2{fill:#FFFFFF;}
</style>
<circle class="st0" cx="245.86" cy="300.1" r="224.98"/>
<path class="st1" d="M292.97,375.44h183.46V378H292.97V375.44z"/>
<path class="st1" d="M383.43,284.99h2.56v183.46h-2.56V284.99z"/>
<path class="st1" d="M385.72,469.22l-2.04-1.54c0.3-0.4,30.32-40.82,30.32-90.96s-30.02-90.56-30.32-90.96l2.04-1.54
	c0.31,0.41,30.84,41.48,30.84,92.5S386.03,468.82,385.72,469.22z"/>
<path class="st1" d="M384.7,469.73c-51.29,0-93.01-41.72-93.01-93.01s41.73-93.01,93.01-93.01s93.01,41.73,93.01,93.01
	S435.99,469.73,384.7,469.73z M384.7,286.27c-49.88,0-90.45,40.58-90.45,90.45s40.58,90.45,90.45,90.45s90.45-40.58,90.45-90.45
	S434.58,286.27,384.7,286.27L384.7,286.27z"/>
<path class="st1" d="M385.11,469.67l-0.81-2.42c0.15-0.05,15.28-5.23,30.2-18.94c13.73-12.62,30.08-35.28,30.08-71.58
	s-16.36-58.96-30.08-71.58c-14.92-13.71-30.05-18.89-30.2-18.94l0.81-2.42c0.64,0.21,15.72,5.36,31.04,19.41
	c14.14,12.97,30.99,36.25,30.99,73.53s-16.85,60.57-30.99,73.53C400.83,464.3,385.74,469.46,385.11,469.67L385.11,469.67z"/>
<path class="st1" d="M383.68,469.22c-0.31-0.41-30.83-41.48-30.83-92.5s30.53-92.09,30.83-92.5l2.04,1.54
	c-0.3,0.4-30.32,40.82-30.32,90.96s30.02,90.56,30.32,90.96L383.68,469.22z"/>
<path class="st1" d="M384.3,469.67c-0.64-0.21-15.72-5.36-31.04-19.41c-14.14-12.97-30.99-36.25-30.99-73.53
	s16.85-60.57,30.99-73.53c15.31-14.05,30.4-19.2,31.04-19.41l0.81,2.42c-0.15,0.05-15.28,5.23-30.2,18.94
	c-13.73,12.62-30.08,35.28-30.08,71.58s16.36,58.96,30.08,71.58c14.92,13.71,30.05,18.89,30.2,18.94L384.3,469.67z"/>
<path class="st1" d="M466.24,418.98c-9.14-3.92-35.36-13.04-81.54-13.04c-46.17,0-72.4,9.12-81.54,13.04l-1.01-2.35
	c9.28-3.98,35.9-13.25,82.54-13.25c46.65,0,73.27,9.27,82.54,13.25L466.24,418.98z M324.88,446.95l-1.09-2.31
	c10.33-4.87,29.29-10.67,60.92-10.67c31.44,0,50.36,5.75,60.7,10.57l-1.08,2.32c-10.1-4.71-28.64-10.33-59.61-10.33
	C353.55,436.52,334.98,442.19,324.88,446.95L324.88,446.95z M384.7,350.06c-46.65,0-73.26-9.27-82.54-13.25l1.01-2.35
	c9.14,3.92,35.36,13.04,81.54,13.04c46.17,0,72.4-9.12,81.54-13.05l1.01,2.35C457.97,340.8,431.35,350.06,384.7,350.06L384.7,350.06
	z M384.7,319.49c-31.62,0-50.58-5.8-60.92-10.67l1.09-2.31c10.1,4.76,28.68,10.43,59.83,10.43c30.98,0,49.51-5.62,59.61-10.33
	l1.08,2.32C435.07,313.74,416.15,319.49,384.7,319.49L384.7,319.49z"/>
<path class="st2" d="M566.65,264.09h597.83v546.56c0,14.27-11.57,25.83-25.83,25.83H592.49c-14.27,0-25.83-11.57-25.83-25.83V264.09
	z"/>
<path class="st1" d="M1138.65,837.76H592.49c-14.95,0-27.11-12.16-27.11-27.11V262.81h600.39v547.84
	C1165.77,825.6,1153.6,837.76,1138.65,837.76z M567.93,265.36v545.28c0,13.54,11.02,24.56,24.56,24.56h546.17
	c13.54,0,24.56-11.02,24.56-24.56V265.36H567.93z"/>
<path class="st1" d="M592.49,151.66h546.17c14.27,0,25.83,11.57,25.83,25.83v86.59H566.65v-86.59
	C566.65,163.23,578.22,151.66,592.49,151.66L592.49,151.66z"/>
<path class="st1" d="M1165.77,265.36H565.38v-87.87c0-14.95,12.16-27.11,27.11-27.11h546.17c14.95,0,27.11,12.16,27.11,27.11
	L1165.77,265.36z M567.93,262.81h595.28v-85.31c0-13.54-11.02-24.55-24.56-24.55H592.49c-13.54,0-24.56,11.02-24.56,24.55V262.81z"
	/>
<circle class="st2" cx="634.24" cy="207.87" r="17.76"/>
<path class="st2" d="M634.24,226.91c-10.5,0-19.04-8.54-19.04-19.04s8.54-19.04,19.04-19.04c10.5,0,19.04,8.54,19.04,19.04
	S644.74,226.91,634.24,226.91z M634.24,191.39c-9.09,0-16.48,7.39-16.48,16.48s7.4,16.48,16.48,16.48s16.48-7.39,16.48-16.48
	S643.33,191.39,634.24,191.39z"/>
<circle class="st2" cx="695.62" cy="207.87" r="17.76"/>
<path class="st2" d="M695.62,226.91c-10.5,0-19.04-8.54-19.04-19.04s8.54-19.04,19.04-19.04c10.5,0,19.04,8.54,19.04,19.04
	S706.11,226.91,695.62,226.91z M695.62,191.39c-9.09,0-16.48,7.39-16.48,16.48s7.4,16.48,16.48,16.48s16.48-7.39,16.48-16.48
	S704.7,191.39,695.62,191.39z"/>
<circle class="st2" cx="756.99" cy="207.87" r="17.76"/>
<path class="st2" d="M756.99,226.91c-10.5,0-19.04-8.54-19.04-19.04s8.54-19.04,19.04-19.04c10.5,0,19.04,8.54,19.04,19.04
	S767.49,226.91,756.99,226.91z M756.99,191.39c-9.09,0-16.48,7.39-16.48,16.48s7.4,16.48,16.48,16.48s16.48-7.39,16.48-16.48
	S766.08,191.39,756.99,191.39z"/>
<path class="st1" d="M661.04,264.08h2.56v572.4h-2.56V264.08z M609.82,288.63h6.66v28.27h-3.29v-25.06l0.56-2.29h-0.96
	c-0.4,6.26-2.21,12.15-9.22,14.44l-1.04-2.81C607.9,299.02,609.74,294.21,609.82,288.63L609.82,288.63z"/>
<path class="st2" d="M824.21,288.63h-149c-1.41,0-2.56,1.14-2.56,2.56v0v23.16c0,1.41,1.14,2.56,2.56,2.56l0,0h149
	c1.41,0,2.56-1.14,2.56-2.56v0v-23.16C826.77,289.78,825.63,288.63,824.21,288.63C824.22,288.63,824.21,288.63,824.21,288.63
	L824.21,288.63z"/>
<path class="st1" d="M824.21,318.18h-149c-2.12,0-3.83-1.72-3.84-3.83v-23.16c0-2.12,1.72-3.83,3.84-3.83h149
	c2.12,0,3.83,1.72,3.84,3.83v23.16C828.05,316.46,826.33,318.18,824.21,318.18L824.21,318.18z M675.22,289.91
	c-0.71,0-1.28,0.57-1.28,1.28v23.16c0,0.71,0.57,1.28,1.28,1.28h149c0.71,0,1.28-0.57,1.28-1.28v-23.16c0-0.71-0.57-1.28-1.28-1.28
	H675.22z M909.08,288.63h-71.94c-1.41,0-2.56,1.14-2.56,2.56v23.16c0,1.41,1.14,2.56,2.56,2.56c0,0,0,0,0,0h71.94
	c1.41,0,2.56-1.14,2.56-2.56v0v-23.16C911.64,289.78,910.49,288.63,909.08,288.63C909.08,288.63,909.08,288.63,909.08,288.63z"/>
<path class="st1" d="M909.08,318.18h-71.94c-2.12,0-3.83-1.72-3.84-3.83v-23.16c0-2.12,1.72-3.83,3.84-3.83h71.94
	c2.12,0,3.83,1.72,3.84,3.83v23.16C912.91,316.46,911.2,318.18,909.08,318.18z M837.14,289.91c-0.71,0-1.28,0.57-1.28,1.28v23.16
	c0,0.71,0.57,1.28,1.28,1.28h71.94c0.71,0,1.28-0.57,1.28-1.28v-23.16c0-0.71-0.57-1.28-1.28-1.28H837.14z"/>
<path class="st2" d="M1033.69,288.63H922c-1.41,0-2.56,1.14-2.56,2.56v23.16c0,1.41,1.14,2.56,2.56,2.56c0,0,0,0,0,0h111.68
	c1.41,0,2.56-1.14,2.56-2.56v-23.16C1036.24,289.78,1035.1,288.63,1033.69,288.63C1033.69,288.63,1033.69,288.63,1033.69,288.63z"/>
<path class="st1" d="M1033.69,318.18H922c-2.12,0-3.83-1.72-3.84-3.83v-23.16c0-2.12,1.72-3.83,3.84-3.83h111.68
	c2.12,0,3.83,1.72,3.83,3.83v23.16C1037.52,316.46,1035.8,318.18,1033.69,318.18L1033.69,318.18z M922,289.91
	c-0.71,0-1.28,0.57-1.28,1.28v23.16c0,0.71,0.57,1.28,1.28,1.28h111.68c0.71,0,1.28-0.57,1.28-1.28v-23.16
	c0-0.71-0.57-1.28-1.28-1.28H922z"/>
<path class="st2" d="M1164.49,288.63h-117.88c-1.41,0-2.56,1.14-2.56,2.56v23.16c0,1.41,1.14,2.56,2.56,2.56c0,0,0,0,0,0h117.88
	V288.63z"/>
<path class="st1" d="M1165.77,318.18h-119.16c-2.12,0-3.83-1.72-3.83-3.83v-23.16c0-2.12,1.72-3.83,3.83-3.83h119.16V318.18z
	 M1046.61,289.91c-0.71,0-1.28,0.57-1.28,1.28v23.16c0,0.71,0.57,1.28,1.28,1.28h116.6v-25.71L1046.61,289.91z"/>
<path class="st2" d="M1033.69,327.92h-149c-1.41,0-2.56,1.14-2.56,2.56v23.16c0,1.41,1.14,2.56,2.56,2.56c0,0,0,0,0,0h149
	c1.41,0,2.56-1.14,2.56-2.56v-23.16C1036.24,329.07,1035.1,327.92,1033.69,327.92z"/>
<path class="st1" d="M1033.69,357.47h-149c-2.12,0-3.83-1.72-3.84-3.83v-23.16c0-2.12,1.72-3.83,3.84-3.83h149
	c2.12,0,3.83,1.72,3.83,3.83v23.16C1037.52,355.75,1035.8,357.47,1033.69,357.47z M884.69,329.2c-0.71,0-1.28,0.57-1.28,1.28v23.16
	c0,0.71,0.57,1.28,1.28,1.28h149c0.71,0,1.28-0.57,1.28-1.28v-23.16c0-0.71-0.57-1.28-1.28-1.28H884.69z"/>
<path class="st2" d="M871.77,327.92h-71.94c-1.41,0-2.56,1.14-2.56,2.56v0v23.16c0,1.41,1.14,2.56,2.56,2.56l0,0h71.94
	c1.41,0,2.56-1.14,2.56-2.56v0v-23.16C874.32,329.07,873.18,327.92,871.77,327.92z"/>
<path class="st1" d="M871.77,357.47h-71.94c-2.12,0-3.83-1.72-3.84-3.83v-23.16c0-2.12,1.72-3.83,3.84-3.83h71.94
	c2.12,0,3.83,1.72,3.84,3.83v23.16C875.6,355.75,873.88,357.47,871.77,357.47z M799.83,329.2c-0.71,0-1.28,0.57-1.28,1.28v23.16
	c0,0.71,0.57,1.28,1.28,1.28h71.94c0.71,0,1.28-0.57,1.28-1.28v-23.16c0-0.71-0.57-1.28-1.28-1.28H799.83z M786.9,327.92H675.22
	c-1.41,0-2.56,1.14-2.56,2.56v0v23.16c0,1.41,1.14,2.56,2.56,2.56l0,0H786.9c1.41,0,2.56-1.14,2.56-2.56v-23.16
	C789.46,329.07,788.31,327.92,786.9,327.92L786.9,327.92z"/>
<path class="st1" d="M786.9,357.47H675.22c-2.12,0-3.83-1.72-3.84-3.83v-23.16c0-2.12,1.72-3.83,3.84-3.83H786.9
	c2.12,0,3.83,1.72,3.84,3.83v23.16C790.73,355.75,789.02,357.47,786.9,357.47z M675.22,329.2c-0.71,0-1.28,0.57-1.28,1.28v23.16
	c0,0.71,0.57,1.28,1.28,1.28H786.9c0.71,0,1.28-0.57,1.28-1.28v-23.16c0-0.71-0.57-1.28-1.28-1.28H675.22z M1164.49,327.92h-117.88
	c-1.41,0-2.56,1.14-2.56,2.56v23.16c0,1.41,1.14,2.56,2.56,2.56c0,0,0,0,0,0h117.88V327.92z"/>
<path class="st1" d="M1165.77,357.47h-119.16c-2.12,0-3.83-1.72-3.83-3.83v-23.16c0-2.12,1.72-3.83,3.83-3.83h119.16V357.47z
	 M1046.61,329.2c-0.71,0-1.28,0.57-1.28,1.28v23.16c0,0.71,0.57,1.28,1.28,1.28h116.6V329.2L1046.61,329.2z"/>
<path class="st2" d="M141.4,489.15h597.83v546.56c0,14.27-11.57,25.83-25.83,25.83H167.23c-14.27,0-25.83-11.57-25.83-25.83V489.15z
	"/>
<path class="st1" d="M713.4,1062.82H167.23c-14.95,0-27.11-12.16-27.11-27.11V487.87h600.39v547.84
	C740.51,1050.66,728.35,1062.82,713.4,1062.82z M142.67,490.43v545.29c0,13.54,11.02,24.56,24.56,24.56H713.4
	c13.54,0,24.56-11.02,24.56-24.56V490.43H142.67z"/>
<path class="st2" d="M167.23,376.72H713.4c14.27,0,25.83,11.57,25.83,25.83v86.59H141.4v-86.59
	C141.4,388.29,152.96,376.72,167.23,376.72z"/>
<path class="st1" d="M740.51,490.43H140.12v-87.87c0-14.95,12.16-27.11,27.11-27.11H713.4c14.95,0,27.11,12.16,27.11,27.11V490.43z
	 M142.67,487.87h595.28v-85.31c0-13.54-11.02-24.55-24.56-24.55H167.23c-13.54,0-24.56,11.02-24.56,24.55L142.67,487.87z"/>
<circle class="st1" cx="208.98" cy="432.94" r="17.76"/>
<path class="st1" d="M208.98,451.98c-10.5,0-19.04-8.54-19.04-19.04s8.54-19.04,19.04-19.04s19.04,8.54,19.04,19.04
	S219.48,451.98,208.98,451.98z M208.98,416.45c-9.09,0-16.48,7.39-16.48,16.48s7.39,16.48,16.48,16.48s16.48-7.39,16.48-16.48
	S218.07,416.45,208.98,416.45z"/>
<circle class="st1" cx="270.36" cy="432.94" r="17.76"/>
<path class="st1" d="M270.36,451.98c-10.5,0-19.04-8.54-19.04-19.04s8.54-19.04,19.04-19.04c10.5,0,19.04,8.54,19.04,19.04
	S280.86,451.98,270.36,451.98z M270.36,416.45c-9.09,0-16.48,7.39-16.48,16.48s7.39,16.48,16.48,16.48s16.48-7.39,16.48-16.48
	S279.45,416.45,270.36,416.45z"/>
<circle class="st1" cx="331.73" cy="432.94" r="17.76"/>
<path class="st1" d="M331.73,451.98c-10.5,0-19.04-8.54-19.04-19.04s8.54-19.04,19.04-19.04c10.5,0,19.04,8.54,19.04,19.04
	S342.23,451.98,331.73,451.98z M331.73,416.45c-9.09,0-16.48,7.39-16.48,16.48s7.39,16.48,16.48,16.48s16.48-7.39,16.48-16.48
	S340.82,416.45,331.73,416.45z M141.4,584.13h597.83v2.56H141.4V584.13z M141.4,912.28h597.83v2.56H141.4V912.28z"/>
<path class="st1" d="M235.78,585.41h2.56v328.14h-2.56V585.41z"/>
<path class="st2" d="M214.14,559.53c-12.66,0-22.92-10.26-22.92-22.92s10.26-22.92,22.92-22.92c12.66,0,22.92,10.26,22.92,22.92
	S226.8,559.53,214.14,559.53z"/>
<path class="st1" d="M214.14,560.81c-13.34,0-24.2-10.85-24.2-24.2c0-13.34,10.86-24.2,24.2-24.2s24.2,10.85,24.2,24.2
	C238.34,549.96,227.48,560.81,214.14,560.81z M214.14,514.97c-11.93,0-21.64,9.71-21.64,21.64s9.71,21.64,21.64,21.64
	c11.93,0,21.64-9.71,21.64-21.64S226.07,514.97,214.14,514.97z M488.14,559.53H305.6c-1.41,0-2.56-1.14-2.56-2.56c0,0,0,0,0,0
	v-40.72c0-1.41,1.14-2.56,2.56-2.56h182.53c1.41,0,2.56,1.14,2.56,2.56c0,0,0,0,0,0v40.72
	C490.69,558.39,489.55,559.53,488.14,559.53C488.14,559.53,488.14,559.53,488.14,559.53z"/>
<path class="st1" d="M488.14,560.81H305.6c-2.12,0-3.83-1.72-3.83-3.84v-40.72c0-2.12,1.72-3.83,3.83-3.84h182.53
	c2.12,0,3.83,1.72,3.84,3.84v40.72C491.97,559.09,490.26,560.81,488.14,560.81z M305.6,514.97c-0.71,0-1.28,0.57-1.28,1.28v40.72
	c0,0.71,0.57,1.28,1.28,1.28h182.53c0.71,0,1.28-0.57,1.28-1.28v-40.72c0-0.71-0.57-1.28-1.28-1.28H305.6z"/>
<path class="st2" d="M685.86,559.53H503.33c-1.41,0-2.56-1.14-2.56-2.56l0,0v-40.72c0-1.41,1.14-2.56,2.56-2.56l0,0h182.53
	c1.41,0,2.56,1.14,2.56,2.56c0,0,0,0,0,0v40.72C688.42,558.39,687.28,559.53,685.86,559.53
	C685.86,559.53,685.86,559.53,685.86,559.53z"/>
<path class="st1" d="M685.86,560.81H503.33c-2.12,0-3.83-1.72-3.84-3.84v-40.72c0-2.12,1.72-3.83,3.84-3.84h182.53
	c2.12,0,3.83,1.72,3.84,3.84v40.72C689.69,559.09,687.98,560.81,685.86,560.81z M503.33,514.97c-0.71,0-1.28,0.57-1.28,1.28v40.72
	c0,0.71,0.57,1.28,1.28,1.28h182.53c0.71,0,1.28-0.57,1.28-1.28v-40.72c0-0.71-0.57-1.28-1.28-1.28H503.33z M739.23,560.81h-38.18
	c-2.12,0-3.83-1.72-3.84-3.84v-40.72c0-2.12,1.72-3.83,3.84-3.84h38.18v2.56h-38.18c-0.71,0-1.28,0.57-1.28,1.28v40.72
	c0,0.71,0.57,1.28,1.28,1.28h38.18V560.81z M216.15,546.41l-9.8-9.8l9.8-9.8l1.81,1.81l-7.99,7.99l7.99,7.99L216.15,546.41z"/>
<path class="st2" d="M270.05,513.69c12.66,0,22.92,10.26,22.92,22.92s-10.26,22.92-22.92,22.92c-12.66,0-22.92-10.26-22.92-22.92
	S257.39,513.69,270.05,513.69z"/>
<path class="st1" d="M270.05,560.81c-13.34,0-24.2-10.85-24.2-24.2c0-13.34,10.85-24.2,24.2-24.2s24.2,10.85,24.2,24.2
	C294.25,549.96,283.4,560.81,270.05,560.81z M270.05,514.97c-11.93,0-21.64,9.71-21.64,21.64s9.71,21.64,21.64,21.64
	s21.64-9.71,21.64-21.64S281.99,514.97,270.05,514.97z"/>
<path class="st1" d="M268.04,546.41l-1.81-1.81l7.99-7.99l-7.99-7.99l1.81-1.81l9.8,9.8L268.04,546.41z M423.57,1026.43H201.44
	c-5.65,0-10.23-4.58-10.23-10.23v-59.26c0-5.65,4.58-10.23,10.23-10.23h222.13c5.65,0,10.23,4.58,10.23,10.23v59.26
	C433.8,1021.85,429.22,1026.43,423.57,1026.43z"/>
<path class="st1" d="M423.58,1027.7H201.45c-6.34,0-11.51-5.16-11.51-11.5v-59.26c0-6.34,5.16-11.51,11.51-11.51h222.13
	c6.34,0,11.5,5.16,11.5,11.51v59.26C435.08,1022.54,429.92,1027.7,423.58,1027.7z M201.45,947.99c-4.93,0-8.95,4.01-8.95,8.95v59.26
	c0,4.93,4.01,8.95,8.95,8.95h222.13c4.93,0,8.95-4.01,8.95-8.95v-59.26c0-4.94-4.01-8.95-8.95-8.95H201.45z"/>
<path class="st2" d="M679.18,1026.43H457.05c-5.65,0-10.23-4.58-10.23-10.23v-59.26c0-5.65,4.58-10.23,10.23-10.23h222.13
	c5.65,0,10.23,4.58,10.23,10.23v59.26C689.41,1021.85,684.83,1026.43,679.18,1026.43z"/>
<path class="st1" d="M679.18,1027.7H457.05c-6.34,0-11.51-5.16-11.51-11.5v-59.26c0-6.34,5.16-11.51,11.51-11.51h222.13
	c6.34,0,11.5,5.16,11.5,11.51v59.26C690.69,1022.54,685.53,1027.7,679.18,1027.7z M457.05,947.99c-4.93,0-8.95,4.01-8.95,8.95v59.26
	c0,4.93,4.01,8.95,8.95,8.95h222.13c4.93,0,8.95-4.01,8.95-8.95v-59.26c0-4.94-4.01-8.95-8.95-8.95H457.05z M184.56,612.28h6.66
	v28.27h-3.29v-25.06l0.56-2.29h-0.96c-0.4,6.26-2.2,12.15-9.22,14.44l-1.04-2.81C182.64,622.67,184.48,617.86,184.56,612.28
	L184.56,612.28z"/>
<path class="st2" d="M398.96,612.28h-149c-1.41,0-2.56,1.14-2.56,2.56c0,0,0,0,0,0V638c0,1.41,1.14,2.56,2.56,2.56h0h149
	c1.41,0,2.56-1.14,2.56-2.56l0,0v-23.16C401.51,613.43,400.37,612.28,398.96,612.28C398.96,612.28,398.96,612.28,398.96,612.28z"/>
<path class="st1" d="M398.96,641.83h-149c-2.12,0-3.83-1.72-3.83-3.84v-23.16c0-2.12,1.72-3.83,3.83-3.84h149
	c2.12,0,3.83,1.72,3.83,3.84V638C402.79,640.11,401.07,641.83,398.96,641.83L398.96,641.83z M249.96,613.56
	c-0.71,0-1.28,0.57-1.28,1.28v23.16c0,0.71,0.57,1.28,1.28,1.28h149c0.71,0,1.28-0.57,1.28-1.28v-23.16c0-0.71-0.57-1.28-1.28-1.28
	H249.96z M483.82,612.28h-71.94c-1.41,0-2.56,1.14-2.56,2.56c0,0,0,0,0,0V638c0,1.41,1.14,2.56,2.56,2.56h0h71.94
	c1.41,0,2.56-1.14,2.56-2.56v0v-23.16C486.38,613.43,485.23,612.28,483.82,612.28C483.82,612.28,483.82,612.28,483.82,612.28z"/>
<path class="st1" d="M483.82,641.83h-71.94c-2.12,0-3.83-1.72-3.83-3.84v-23.16c0-2.12,1.72-3.83,3.83-3.84h71.94
	c2.12,0,3.83,1.72,3.84,3.84V638C487.65,640.11,485.94,641.83,483.82,641.83z M411.88,613.56c-0.71,0-1.28,0.57-1.28,1.28v23.16
	c0,0.71,0.57,1.28,1.28,1.28h71.94c0.71,0,1.28-0.57,1.28-1.28v-23.16c0-0.71-0.57-1.28-1.28-1.28H411.88z"/>
<path class="st2" d="M608.43,612.28H496.75c-1.41,0-2.56,1.14-2.56,2.56l0,0V638c0,1.41,1.14,2.56,2.56,2.56c0,0,0,0,0,0h111.68
	c1.41,0,2.56-1.14,2.56-2.56v0v-23.16C610.99,613.43,609.84,612.28,608.43,612.28z"/>
<path class="st1" d="M608.43,641.83H496.75c-2.12,0-3.83-1.72-3.84-3.84v-23.16c0-2.12,1.72-3.83,3.84-3.84h111.68
	c2.12,0,3.83,1.72,3.84,3.84V638C612.26,640.11,610.55,641.83,608.43,641.83L608.43,641.83z M496.75,613.56
	c-0.71,0-1.28,0.57-1.28,1.28v23.16c0,0.71,0.57,1.28,1.28,1.28h111.68c0.71,0,1.28-0.57,1.28-1.28v-23.16
	c0-0.71-0.57-1.28-1.28-1.28H496.75z"/>
<path class="st2" d="M739.23,612.28H621.35c-1.41,0-2.56,1.14-2.56,2.56l0,0V638c0,1.41,1.14,2.56,2.56,2.56c0,0,0,0,0,0h117.88
	V612.28z"/>
<path class="st1" d="M740.51,641.83H621.35c-2.12,0-3.83-1.72-3.84-3.84v-23.16c0-2.12,1.72-3.83,3.84-3.84h119.16V641.83z
	 M621.35,613.56c-0.71,0-1.28,0.57-1.28,1.28v23.16c0,0.71,0.57,1.28,1.28,1.28h116.6v-25.71L621.35,613.56L621.35,613.56z"/>
<path class="st2" d="M608.43,651.57h-149c-1.41,0-2.56,1.14-2.56,2.56c0,0,0,0,0,0v23.16c0,1.41,1.14,2.56,2.56,2.56h0h149
	c1.41,0,2.56-1.14,2.56-2.56v0v-23.16C610.98,652.72,609.84,651.57,608.43,651.57L608.43,651.57z"/>
<path class="st1" d="M608.43,681.12h-149c-2.12,0-3.83-1.72-3.84-3.84v-23.16c0-2.12,1.72-3.83,3.84-3.84h149
	c2.12,0,3.83,1.72,3.84,3.84v23.16C612.26,679.4,610.55,681.12,608.43,681.12L608.43,681.12z M459.43,652.85
	c-0.71,0-1.28,0.57-1.28,1.28v23.16c0,0.71,0.57,1.28,1.28,1.28h149c0.71,0,1.28-0.57,1.28-1.28v-23.16c0-0.71-0.57-1.28-1.28-1.28
	H459.43z"/>
<path class="st2" d="M446.51,651.57h-71.94c-1.41,0-2.56,1.14-2.56,2.56c0,0,0,0,0,0v23.16c0,1.41,1.14,2.56,2.56,2.56h0h71.94
	c1.41,0,2.56-1.14,2.56-2.56v-23.16C449.07,652.72,447.92,651.57,446.51,651.57z"/>
<path class="st1" d="M446.51,681.12h-71.94c-2.12,0-3.83-1.72-3.83-3.84v-23.16c0-2.12,1.72-3.83,3.83-3.84h71.94
	c2.12,0,3.83,1.72,3.84,3.84v23.16C450.34,679.4,448.62,681.12,446.51,681.12z M374.57,652.85c-0.71,0-1.28,0.57-1.28,1.28v23.16
	c0,0.71,0.57,1.28,1.28,1.28h71.94c0.71,0,1.28-0.57,1.28-1.28v-23.16c0-0.71-0.57-1.28-1.28-1.28H374.57z M361.64,651.57H249.96
	c-1.41,0-2.56,1.14-2.56,2.56c0,0,0,0,0,0v23.16c0,1.41,1.14,2.56,2.56,2.56h0h111.68c1.41,0,2.56-1.14,2.56-2.56l0,0v-23.16
	C364.2,652.72,363.06,651.57,361.64,651.57C361.64,651.57,361.64,651.57,361.64,651.57z"/>
<path class="st1" d="M361.64,681.12H249.96c-2.12,0-3.83-1.72-3.83-3.84v-23.16c0-2.12,1.72-3.83,3.83-3.84h111.68
	c2.12,0,3.83,1.72,3.83,3.84v23.16C365.48,679.4,363.76,681.12,361.64,681.12z M249.96,652.85c-0.71,0-1.28,0.57-1.28,1.28v23.16
	c0,0.71,0.57,1.28,1.28,1.28h111.68c0.71,0,1.28-0.57,1.28-1.28v-23.16c0-0.71-0.57-1.28-1.28-1.28H249.96z M739.23,651.57H621.35
	c-1.41,0-2.56,1.14-2.56,2.56l0,0v23.16c0,1.41,1.14,2.56,2.56,2.56c0,0,0,0,0,0h117.88V651.57z"/>
<path class="st1" d="M740.51,681.12H621.35c-2.12,0-3.83-1.72-3.84-3.84v-23.16c0-2.12,1.72-3.83,3.84-3.84h119.16V681.12z
	 M621.35,652.85c-0.71,0-1.28,0.57-1.28,1.28v23.16c0,0.71,0.57,1.28,1.28,1.28h116.6v-25.71L621.35,652.85L621.35,652.85z
	 M866.48,814.3c-4.23-11.49,6.95-22.67,18.44-18.44l90.01,33.09l89.48,32.89c11.58,4.26,12.76,20.17,1.93,26.09l-69.7,38.1
	l-38.1,69.7c-5.92,10.83-21.84,9.65-26.09-1.93l-32.89-89.48L866.48,814.3z"/>
<circle class="st2" cx="1131.59" cy="807.24" r="57.76"/>
<g>
	<path class="st1" d="M1131.59,866.28c-32.56,0-59.04-26.48-59.04-59.04c0-32.55,26.48-59.04,59.04-59.04
		c32.55,0,59.04,26.48,59.04,59.04C1190.63,839.8,1164.14,866.28,1131.59,866.28L1131.59,866.28z M1131.59,750.76
		c-31.15,0-56.48,25.34-56.48,56.48c0,31.15,25.34,56.48,56.48,56.48s56.48-25.34,56.48-56.48
		C1188.07,776.1,1162.73,750.76,1131.59,750.76z"/>
	<path class="st1" d="M1159.78,858.58l-2.51-0.46c0.02-0.11,1.99-11.11-0.3-22.7c-3.01-15.27-11.62-24.33-25.61-26.92l0.47-2.51
		C1167.81,812.66,1159.86,858.13,1159.78,858.58L1159.78,858.58z"/>
	<path class="st1" d="M1188.49,810.45c-0.08-0.07-8.62-7.27-19.81-11.09c-14.73-5.03-26.88-2.1-36.12,8.72l-1.94-1.66
		c23.77-27.83,59.18,1.79,59.53,2.09L1188.49,810.45z"/>
	<path class="st1" d="M1130.38,807.67c-12.22-34.5,31.13-50.35,31.57-50.51l0.86,2.41c-0.1,0.04-10.61,3.83-19.51,11.6
		c-11.72,10.24-15.26,22.23-10.51,35.64L1130.38,807.67z"/>
	<path class="st1" d="M1131.36,808.5c-35.99-6.67-28.04-52.14-27.96-52.6l2.51,0.46c-0.02,0.11-1.99,11.11,0.3,22.7
		c3.01,15.27,11.62,24.33,25.61,26.92L1131.36,808.5z"/>
	<path class="st1" d="M1107.76,819.99c-18,0-34.49-13.79-34.73-14l1.66-1.95c0.08,0.07,8.62,7.27,19.81,11.09
		c14.73,5.03,26.88,2.1,36.12-8.72l1.94,1.66C1124.97,816.95,1116.2,819.99,1107.76,819.99L1107.76,819.99z"/>
	<path class="st1" d="M1101.22,857.33l-0.86-2.41c0.1-0.04,10.61-3.83,19.51-11.6c11.72-10.24,15.26-22.23,10.51-35.64l2.41-0.85
		C1145.01,841.32,1101.66,857.17,1101.22,857.33L1101.22,857.33z M807.62,1117.77l5.05,13.11l13.11,5.05l-13.11,5.05l-5.05,13.11
		l-5.05-13.11l-13.11-5.05l13.11-5.05L807.62,1117.77z M217.06,133.5l5.05,13.11l13.11,5.05l-13.11,5.05l-5.05,13.11l-5.05-13.11
		l-13.11-5.05l13.11-5.05L217.06,133.5z M977.85,38l5.05,13.11l13.11,5.05l-13.11,5.05l-5.05,13.11l-5.05-13.11l-13.11-5.05
		l13.11-5.05L977.85,38z M1036.24,477.96l5.05,13.11l13.11,5.05l-13.11,5.05l-5.05,13.11l-5.05-13.11l-13.11-5.05l13.11-5.05
		L1036.24,477.96z M331.73,802.59l5.05,13.11l13.11,5.05l-13.11,5.05l-5.05,13.11l-5.05-13.11l-13.11-5.05l13.11-5.05L331.73,802.59
		z"/>
</g>
</svg>
