<?xml version="1.0" encoding="UTF-8"?><svg id="Calque_1" xmlns="http://www.w3.org/2000/svg" viewBox="0 0 1500 1290.38"><defs><style>.cls-1{fill:#f1cf25;}.cls-2{fill:#fff;}.cls-3{fill:#fe9c87;}.cls-4{fill:#231f20;}.cls-5{fill:#9adbba;}.cls-6{fill:#99d1df;}</style></defs><rect class="cls-1" x="13.25" y="488.86" width="281.25" height="281.25"/><rect class="cls-3" x="1214.54" y="547.97" width="281.25" height="281.25"/><circle class="cls-5" cx="855.07" cy="177.71" r="140.25"/><circle class="cls-6" cx="889.94" cy="1126.25" r="140.25"/><path class="cls-4" d="m500.91,1051.34l2.87-2.87,110.87,110.87-2.87,2.87-110.87-110.87Z"/><path class="cls-4" d="m500.91,1159.35l110.87-110.87,2.87,2.86-110.87,110.87-2.87-2.86Z"/><path class="cls-4" d="m502.63,1162.79l-.56-4.01c.42-.06,42.69-6.31,72.76-36.38,30.07-30.07,36.32-72.34,36.38-72.76l4.01.56c-.06.44-6.48,44.01-37.53,75.07s-74.63,37.47-75.07,37.53h0Z"/><path class="cls-4" d="m557.79,1185.74c-20.6,0-41.19-7.84-56.87-23.52-15.19-15.19-23.56-35.39-23.56-56.87s8.37-41.68,23.56-56.87c15.19-15.19,35.39-23.56,56.87-23.56s41.68,8.37,56.87,23.56c31.36,31.36,31.36,82.38,0,113.74-15.68,15.68-36.28,23.52-56.87,23.52Zm0-156.76c-20.4,0-39.58,7.94-54,22.37s-22.37,33.6-22.37,54,7.94,39.58,22.37,54c29.78,29.78,78.23,29.78,108.01,0,29.78-29.78,29.78-78.23,0-108.01-14.42-14.43-33.6-22.37-54-22.37Z"/><path class="cls-4" d="m535.88,1169.8c-1.23,0-2.42-.03-3.57-.08-17.94-.77-30.34-6.86-30.86-7.12l1.81-3.63c.12.06,12.28,6.01,29.4,6.71,22.85.94,43.26-7.41,60.66-24.81s25.74-37.81,24.8-60.66c-.7-17.12-6.65-29.28-6.71-29.4l3.63-1.81c.26.52,6.35,12.92,7.12,30.86.71,16.57-3.21,41.1-25.98,63.87-21.18,21.19-43.89,26.06-60.3,26.06Z"/><path class="cls-4" d="m504.36,1161.07l-4.01-.56c.06-.44,6.48-44.01,37.53-75.07,31.05-31.05,74.63-37.47,75.07-37.53l.56,4.01c-.42.06-42.69,6.31-72.76,36.38s-36.32,72.34-36.38,72.76h0Z"/><path class="cls-4" d="m500.54,1161.69c-.26-.52-6.35-12.92-7.12-30.86-.71-16.57,3.21-41.1,25.98-63.87,22.77-22.77,47.3-26.7,63.87-25.98,17.94.77,30.34,6.86,30.86,7.12l-1.81,3.63c-.12-.06-12.28-6.01-29.4-6.71-22.85-.94-43.26,7.41-60.66,24.81s-25.74,37.81-24.81,60.66c.7,17.12,6.65,29.28,6.71,29.4l-3.63,1.81Z"/><path class="cls-4" d="m580.65,1180.51c-3.13-7.84-13.4-29.06-41.18-56.84s-49.01-38.06-56.84-41.18l1.5-3.77c8.07,3.22,29.89,13.77,58.21,42.08s38.86,50.14,42.08,58.21l-3.77,1.5Zm-30.1,3.56c-3.22-8.86-10.97-23.33-29.56-41.93-18.7-18.7-33.22-26.44-42.11-29.63l1.37-3.81c9.28,3.34,24.38,11.35,43.61,30.58,19.12,19.12,27.15,34.16,30.51,43.41l-3.81,1.38Zm80.89-52.09c-8.07-3.22-29.89-13.77-58.21-42.08s-38.86-50.14-42.08-58.21l3.77-1.5c3.13,7.84,13.4,29.06,41.18,56.84s49.01,38.06,56.84,41.18l-1.5,3.77Zm3.68-30.05c-9.25-3.36-24.29-11.39-43.41-30.51-19.23-19.23-27.24-34.33-30.58-43.61l3.81-1.37c3.2,8.89,10.93,23.41,29.63,42.11s33.07,26.34,41.93,29.56l-1.38,3.81Z"/><path class="cls-2" d="m120.82,353.61l763.95-122.31,52.08,325.31c2.12,13.26-6.91,25.74-20.17,27.86l-715.92,114.62c-13.26,2.12-25.74-6.91-27.86-20.17l-52.08-325.31Z"/><path class="cls-4" d="m196.86,701.43c-5.5,0-10.85-1.72-15.4-5.01-5.7-4.13-9.45-10.23-10.57-17.18l-52.4-327.31,2-.32,765.95-122.63,52.4,327.31c1.11,6.95-.55,13.92-4.67,19.62-4.13,5.7-10.23,9.45-17.18,10.57l-715.92,114.62c-1.4.22-2.81.34-4.22.34h0Zm-73.72-346.14l51.76,323.31c1.94,12.14,13.39,20.43,25.54,18.49l715.92-114.62c5.84-.92,11.08-4.14,14.53-8.94,3.48-4.78,4.91-10.76,3.96-16.6l-51.76-323.31L123.14,355.29Z"/><path class="cls-2" d="m130.17,258.21l715.92-114.62c13.26-2.12,25.74,6.91,27.86,20.17l10.81,67.54L120.82,353.61l-10.81-67.54c-2.12-13.26,6.91-25.74,20.17-27.86h0Z"/><path class="cls-4" d="m119.14,355.93l-11.14-69.54c-2.3-14.35,7.51-27.89,21.85-30.18l715.92-114.62c14.34-2.29,27.88,7.51,30.18,21.85l11.13,69.54-2,.32L119.14,355.93Zm11.04-97.72l.32,2c-12.14,1.94-20.43,13.4-18.49,25.54l10.49,65.54,759.95-121.67-10.49-65.54c-1.94-12.14-13.39-20.43-25.54-18.49l-715.92,114.62-.32-2Z"/><circle class="cls-4" cx="168.52" cy="299.02" r="14.65"/><circle class="cls-4" cx="218.51" cy="291.02" r="14.65"/><circle class="cls-4" cx="268.49" cy="283.01" r="14.65"/><path class="cls-2" d="m186.36,420.4l656.97-105.19,2.23,13.92-656.97,105.19-2.23-13.92Z"/><path class="cls-4" d="m186.91,436.66l-2.87-17.92,2-.32,658.99-105.51,2.87,17.92-2,.32-658.99,105.51Zm1.77-14.56l1.59,9.92,652.99-104.55-1.59-9.92-652.99,104.55Z"/><path class="cls-4" d="m188.59,434.32l621.71-99.55,2.23,13.92-621.72,99.55-2.23-13.92Z"/><path class="cls-2" d="m195.47,477.31l593.75-95.07,2.23,13.92-593.75,95.07-2.23-13.92Z"/><path class="cls-4" d="m196.02,493.57l-2.87-17.92,2-.32,595.77-95.39,2.87,17.92-2,.32-595.77,95.38Zm1.77-14.56l1.59,9.92,589.77-94.42-1.59-9.92-589.76,94.42Z"/><path class="cls-4" d="m197.7,491.24l544.67-87.21,2.23,13.92-544.67,87.21-2.23-13.92Z"/><path class="cls-2" d="m204.59,534.23l532.82-85.31,2.23,13.92-532.82,85.31-2.23-13.92Z"/><path class="cls-4" d="m205.13,550.49l-2.87-17.92,2-.32,534.83-85.63,2.87,17.92-2,.32-534.83,85.63Zm1.77-14.56l1.59,9.92,528.83-84.67-1.59-9.92-528.83,84.67Z"/><path class="cls-4" d="m206.82,548.15l429.03-68.7,2.23,13.92-429.03,68.7-2.23-13.92Z"/><path class="cls-2" d="m213.7,591.14l571.09-91.44,2.23,13.92-571.09,91.44-2.23-13.92Z"/><path class="cls-4" d="m214.25,607.41l-2.87-17.93,2-.32,573.11-91.76,2.87,17.92-2,.32-573.11,91.76Zm1.77-14.57l1.59,9.92,567.1-90.79-1.59-9.92-567.1,90.79Z"/><path class="cls-4" d="m215.93,605.06l557.63-89.29,2.23,13.92-557.62,89.29-2.23-13.92Z"/><path class="cls-4" d="m179.91,392.93l4-.64,40.7,254.16-4,.64-40.7-254.16Z"/><path class="cls-2" d="m887.79,309.32l546.73,35.19-18.94,294.27c-.86,13.4-12.43,23.57-25.83,22.71l-498.19-32.07c-13.4-.86-23.57-12.43-22.71-25.83l18.94-294.27Z"/><path class="cls-4" d="m1391.35,663.57c-.57,0-1.15-.02-1.73-.06l-498.19-32.07c-14.5-.93-25.53-13.49-24.6-27.98l19.07-296.3,550.78,35.45-19.07,296.3c-.45,7.02-3.61,13.45-8.9,18.1-4.85,4.26-10.96,6.56-17.36,6.56h0Zm-501.67-352.1l-18.81,292.25c-.79,12.27,8.55,22.89,20.82,23.68l498.19,32.07c5.9.4,11.72-1.59,16.15-5.5,4.45-3.89,7.16-9.41,7.53-15.31l18.81-292.25-542.69-34.93Z"/><path class="cls-2" d="m918.02,218.35l498.19,32.07c13.4.86,23.57,12.43,22.71,25.83l-4.39,68.26-546.73-35.19,4.39-68.26c.86-13.4,12.43-23.57,25.83-22.71h0Z"/><path class="cls-4" d="m1436.42,346.66l-550.78-35.45,4.52-70.28c.45-7.02,3.61-13.45,8.9-18.1,5.29-4.65,12.08-6.95,19.09-6.5l498.19,32.07c14.5.93,25.53,13.49,24.6,27.99l-4.52,70.28Zm-546.48-39.24l542.69,34.93,4.27-66.24c.79-12.27-8.55-22.89-20.82-23.68l-498.19-32.07c-5.94-.38-11.68,1.57-16.15,5.5s-7.15,9.37-7.53,15.31l-4.27,66.24Z"/><circle class="cls-4" cx="946.39" cy="266.63" r="14.65"/><circle class="cls-4" cx="996.91" cy="269.88" r="14.65"/><circle class="cls-4" cx="1047.42" cy="273.14" r="14.65"/><path class="cls-4" d="m923.07,580.71l.26-4.04,441.55,28.41-.26,4.04-441.55-28.41Zm455.48-186.93c-.45-.03-.79-.41-.76-.85,0,0,0,0,0,0,.03-.45.42-.79.86-.76.45.01.8.39.79.84-.01.45-.39.8-.84.78h-.05,0Zm-8.09-.52c-.45-.03-.79-.41-.76-.85,0,0,0,0,0,0,.03-.45.42-.79.86-.76.45.01.8.39.78.84-.01.45-.39.8-.84.78h-.05Zm-8.09-.52c-.45-.03-.79-.41-.76-.86.03-.45.42-.79.86-.76.45.01.8.39.78.84-.01.45-.39.8-.84.78h-.05Zm-8.09-.52c-.45-.03-.79-.41-.76-.86.03-.45.42-.79.86-.76.45.01.8.39.79.84-.01.45-.39.8-.84.78h-.05Zm-8.09-.52c-.45-.03-.79-.42-.76-.87.03-.44.41-.78.86-.75,0,0,0,0,0,0,.45.01.8.39.79.84-.01.45-.39.8-.84.78h-.05Zm-8.09-.52c-.45-.03-.79-.41-.76-.86.03-.45.41-.79.86-.76s.79.41.76.86c-.03.43-.38.76-.81.76h-.05Zm-8.09-.52c-.45-.03-.79-.42-.76-.87.03-.44.41-.78.86-.75.45.01.8.39.79.84-.01.45-.39.8-.84.78h-.05,0Zm-8.09-.53c-.44-.02-.78-.4-.76-.84,0,0,0-.01,0-.02.05-.45.46-.76.91-.71.41.05.72.4.71.82-.03.43-.39.76-.81.76-.02,0-.03,0-.05-.01h0Zm-8.09-.52c-.45-.01-.8-.38-.78-.83.01-.45.38-.8.83-.78.02,0,.04,0,.05,0,.45.03.78.41.76.86-.03.42-.39.75-.81.75h-.05Zm-8.09-.52c-.45-.03-.79-.41-.76-.85,0,0,0,0,0,0,.03-.44.41-.78.85-.75,0,0,0,0,.01,0,.45.02.79.41.76.86-.03.43-.38.76-.81.76-.02,0-.04-.01-.05-.01Zm-8.09-.52c-.45-.03-.79-.41-.76-.85,0,0,0,0,0,0,.03-.44.41-.78.86-.76.45.03.79.42.76.87-.03.42-.39.75-.81.75h-.05Zm-8.09-.52c-.45-.03-.79-.41-.76-.86,0,0,0,0,0,0,.03-.45.41-.79.86-.76.45.01.8.39.79.84-.01.45-.39.8-.84.78h-.05Zm-8.09-.52c-.45-.03-.79-.41-.76-.86,0,0,0,0,0,0,.03-.45.41-.79.86-.76s.79.42.76.87c-.03.42-.39.75-.81.75h-.05Zm-8.09-.52c-.45-.03-.79-.41-.76-.85,0,0,0,0,0,0,.03-.45.41-.79.86-.76s.78.42.76.86c-.03.43-.39.76-.81.76h-.05,0Zm-8.09-.52c-.45-.03-.79-.41-.76-.86.03-.45.41-.79.86-.76.45.03.79.42.76.86-.03.43-.38.76-.81.76h-.05Zm-8.09-.52c-.45-.03-.79-.41-.76-.86.03-.45.41-.79.86-.76.45.03.78.41.76.86-.03.43-.38.76-.81.76h-.05Zm-8.1-.52c-.45-.05-.76-.46-.71-.91.05-.41.4-.72.82-.71.45.01.8.39.79.84-.01.45-.39.8-.84.78h-.06Zm-8.08-.52c-.45-.03-.79-.41-.76-.86.03-.45.41-.79.86-.76s.78.41.76.86c-.03.43-.38.76-.81.76h-.05Zm-8.1-.52c-.44-.03-.78-.42-.75-.86.03-.45.41-.79.86-.76.44.03.78.41.76.86-.03.43-.39.76-.81.76h-.06,0Zm-8.09-.53c-.44-.03-.78-.41-.75-.85,0,0,0,0,0,0,.03-.44.41-.78.86-.75s.78.41.76.86c-.03.43-.39.76-.81.76-.02,0-.04,0-.06-.01h0Zm-8.09-.51c-.45-.04-.78-.42-.75-.87.02-.45.4-.79.85-.77.45.02.79.4.77.85,0,0,0,.02,0,.03-.02.43-.38.76-.81.76h-.05Zm-8.09-.53c-.44-.04-.77-.43-.73-.87.04-.43.41-.76.84-.74.44.02.78.41.76.86-.03.43-.38.76-.81.76-.02,0-.04-.01-.06-.01Zm-8.09-.52c-.44-.04-.77-.43-.73-.87.04-.43.41-.76.84-.74.45.02.78.41.75.86-.03.42-.38.75-.8.75h-.06Zm-8.09-.52c-.44-.03-.78-.42-.75-.86.03-.45.41-.79.86-.76.44.03.78.42.75.87-.02.43-.38.75-.8.75h-.06Zm-8.09-.52c-.44-.03-.78-.42-.75-.86.03-.44.41-.78.85-.76.44.03.78.41.76.86-.02.43-.38.76-.8.76h-.06,0Zm-8.09-.52c-.44-.03-.78-.42-.75-.86.03-.45.41-.79.86-.76,0,0,0,0,0,0,.44.03.78.42.75.86-.02.43-.38.76-.81.76h-.05Zm-8.09-.52c-.44-.03-.78-.42-.75-.86.03-.45.41-.79.86-.76.44.03.78.42.75.86-.02.43-.37.76-.8.76h-.06Zm-8.09-.52c-.44-.03-.78-.42-.75-.86.02-.45.41-.79.86-.76.44.03.78.42.75.86-.02.43-.37.76-.8.76h-.06Zm-8.09-.52c-.44-.04-.78-.42-.76-.86.04-.45.42-.79.87-.76.44.03.78.41.75.86-.02.42-.37.76-.8.76h-.06Zm-8.09-.52c-.44-.03-.78-.42-.75-.86,0-.45.37-.8.82-.8.45,0,.8.37.8.82,0,.03,0,.05,0,.08-.02.43-.38.76-.81.76h-.05Zm-8.09-.52c-.44-.03-.78-.42-.75-.86.01-.45.38-.8.83-.78.45.01.8.38.78.83,0,.02,0,.04,0,.05-.03.43-.38.76-.8.76h-.06,0Zm-8.09-.52c-.45-.03-.78-.42-.75-.87,0,0,0,0,0,0,.02-.44.41-.78.86-.75.45.02.8.39.78.84-.02.45-.39.8-.84.78h-.05Zm-8.09-.53c-.44-.03-.78-.41-.76-.85.03-.45.42-.79.87-.76.44.03.78.41.75.86-.02.43-.37.76-.8.76-.02,0-.04,0-.06-.01h0Zm-8.09-.52c-.44-.03-.78-.41-.76-.86.03-.44.42-.78.87-.75.44.03.78.41.75.86-.03.42-.38.75-.8.76-.02,0-.04-.01-.06-.01Zm-8.09-.52c-.45-.02-.78-.41-.76-.86.03-.44.42-.78.86-.75.45.02.79.41.76.86-.03.43-.38.76-.81.76,0,0-.03,0-.05-.01Zm-8.09-.52c-.45-.03-.79-.41-.76-.86,0,0,0,0,0,0,.03-.44.42-.78.87-.76.44.03.78.42.75.87-.03.42-.38.75-.81.75h-.05Zm-8.09-.52c-.45-.03-.79-.41-.76-.86.03-.45.42-.78.86-.75.44.02.78.4.76.84,0,0,0,0,0,.01-.03.43-.38.76-.81.76h-.05,0Zm-8.09-.52c-.45-.03-.79-.41-.76-.86.03-.45.42-.78.87-.76.44.03.78.42.75.87-.03.42-.39.75-.81.75h-.05Zm-8.09-.52c-.45-.03-.79-.41-.76-.85,0,0,0,0,0,0,.03-.45.42-.79.86-.76.45.03.79.42.76.86-.03.43-.38.76-.8.76h-.06,0Zm-8.09-.52c-.45-.03-.78-.41-.76-.86.03-.45.42-.79.86-.76.45.03.78.42.75.87-.03.42-.38.75-.8.75h-.05Zm-8.09-.52c-.45-.03-.79-.41-.76-.85,0,0,0,0,0,0,.03-.45.42-.79.86-.76.45.01.8.39.79.84-.01.45-.39.8-.84.78h-.05Zm-8.09-.52c-.45-.03-.79-.41-.76-.86.03-.45.42-.79.86-.76.45.03.79.41.76.86-.02.42-.37.76-.8.76h-.06Zm-8.09-.52c-.45-.03-.79-.41-.76-.86.03-.45.42-.79.86-.76.45.01.8.39.79.84-.01.45-.39.8-.84.78h-.05,0Zm-8.09-.52c-.45-.03-.79-.41-.76-.86.03-.45.41-.79.86-.76.45.01.8.39.79.84-.01.45-.39.8-.84.78h-.05,0Zm-8.09-.53c-.44-.02-.78-.4-.76-.84,0,0,0,0,0-.01.03-.45.42-.79.86-.76.45.01.8.39.78.84s-.39.8-.84.78c0,0-.03,0-.05-.01h0Zm-8.09-.51c-.45-.03-.79-.42-.76-.87.03-.45.42-.78.87-.75.45.03.78.42.75.87-.03.43-.38.75-.81.75h-.05Zm-8.09-.53c-.44-.02-.78-.4-.76-.84,0,0,0-.01,0-.02.03-.44.42-.78.86-.75.45.02.79.41.76.86-.03.43-.38.76-.81.76-.02,0-.03,0-.05-.01Zm-8.09-.52c-.45-.01-.8-.38-.79-.83.01-.45.38-.8.83-.79.02,0,.04,0,.06,0,.45.03.79.41.76.86-.03.43-.38.76-.81.76-.02,0-.03,0-.05-.01Zm-8.09-.52c-.45-.03-.79-.41-.76-.86,0,0,0,0,0,0,.03-.45.41-.78.86-.76.45.03.79.42.76.87-.03.43-.38.75-.81.75h-.05Zm-8.09-.52c-.45-.03-.79-.41-.76-.85,0,0,0,0,0,0,.03-.44.41-.78.85-.75,0,0,0,0,.01,0,.45.02.79.41.76.86-.03.42-.39.75-.81.75h-.05Zm-8.09-.52c-.45-.03-.79-.41-.76-.85,0,0,0,0,0,0,.03-.45.41-.78.86-.76.45.03.79.42.76.86-.03.43-.38.76-.81.76h-.05Zm-8.09-.52c-.45-.03-.79-.41-.76-.85,0,0,0,0,0,0,.03-.45.41-.79.86-.76.45.03.79.42.76.86-.03.43-.38.76-.81.76h-.05Zm-8.09-.52c-.45-.03-.79-.41-.76-.85,0,0,0,0,0,0,.02-.45.41-.79.85-.76,0,0,0,0,0,0,.45.03.78.42.75.87-.03.42-.38.75-.8.75h-.05Zm-8.09-.52c-.45-.03-.79-.41-.76-.86.03-.45.41-.79.86-.76s.79.41.76.86c-.03.43-.38.76-.81.76h-.05Zm-8.09-.52c-.45-.03-.79-.41-.76-.86.03-.45.41-.79.86-.76s.79.42.76.86c-.03.43-.39.76-.81.76h-.05Zm432.28,99.49c-.45-.03-.79-.41-.76-.85,0,0,0,0,0,0,.03-.44.41-.78.86-.76.44.03.78.42.76.87-.03.42-.39.76-.81.76-.02,0-.04-.01-.05-.01Zm-8.1-.52c-.44-.03-.78-.42-.75-.86.03-.45.41-.79.86-.75.44.02.78.41.76.85-.03.43-.38.76-.81.76h-.06Zm-8.08-.52c-.45-.03-.79-.41-.76-.85,0,0,0,0,0,0,.03-.45.41-.78.86-.76.45.03.78.42.75.86-.02.43-.38.76-.8.76h-.05Zm-8.1-.52c-.44-.03-.78-.42-.75-.86.03-.45.41-.79.85-.76,0,0,0,0,0,0,.44.03.78.42.76.86-.03.43-.38.76-.81.76h-.06Zm-8.09-.52c-.44-.03-.78-.42-.75-.86.03-.45.41-.79.86-.76.44.03.78.42.75.86-.02.43-.38.76-.8.76h-.06,0Zm-8.09-.52c-.44-.03-.78-.42-.75-.86.02-.45.41-.79.86-.76.44.03.78.42.75.86-.02.43-.37.76-.8.76h-.06,0Zm-8.09-.52c-.44-.03-.78-.42-.75-.86.03-.45.41-.79.86-.76.44.03.78.41.75.86-.02.43-.38.76-.81.76h-.05Zm-8.09-.52c-.45-.05-.76-.46-.71-.9.05-.41.4-.72.82-.72.44.03.78.41.75.86-.02.43-.37.76-.8.76h-.06Zm-8.09-.52c-.44-.03-.78-.42-.75-.86,0-.45.37-.8.82-.8s.8.37.8.82c0,.03,0,.05,0,.08-.02.43-.38.76-.8.76h-.06Zm-8.09-.52c-.45-.04-.78-.42-.76-.87.03-.44.42-.78.87-.75.44.03.78.41.75.86-.02.42-.37.76-.8.76h-.06Zm-8.09-.52c-.45-.04-.78-.42-.76-.87.03-.44.42-.78.87-.75.44.03.78.41.75.86-.03.43-.38.76-.81.76h-.05,0Zm-8.09-.53c-.44-.03-.78-.41-.76-.86.03-.44.42-.78.87-.75.45.02.8.39.78.84-.02.45-.39.8-.84.78,0,0-.03-.01-.05-.01Zm-8.09-.52c-.44-.03-.78-.41-.75-.85,0,0,0,0,0-.01.02-.44.41-.78.86-.75.44.02.78.41.75.86-.03.42-.38.75-.8.75h-.06,0Zm-8.09-.52c-.44-.03-.78-.41-.76-.86.03-.44.42-.78.87-.75.44.03.78.41.75.86-.03.43-.38.76-.81.76,0,0-.03-.01-.05-.01Zm-8.09-.52c-.45-.03-.79-.41-.76-.86.03-.45.42-.78.87-.76.44.03.78.42.75.86-.03.43-.38.76-.81.76h-.05Zm-8.09-.52c-.45-.03-.79-.41-.76-.86.03-.45.42-.78.87-.76.44.03.78.42.75.87-.03.42-.38.75-.81.75h-.05Zm-8.09-.52c-.45-.03-.79-.41-.76-.86.03-.45.42-.79.86-.76.45.03.79.42.76.86-.03.43-.38.76-.8.76h-.06,0Zm-8.09-.52c-.45-.03-.79-.41-.76-.85,0,0,0,0,0,0,.03-.45.42-.79.86-.76.45.01.8.39.79.84-.01.45-.39.8-.84.78h-.05,0Zm-8.09-.52c-.45-.03-.79-.41-.76-.86.03-.45.42-.79.86-.76.45.01.8.39.78.84-.01.45-.39.8-.84.78h-.05Zm-8.09-.52c-.45-.03-.79-.41-.76-.86.03-.45.42-.79.86-.76.45.01.8.39.79.84-.01.45-.39.8-.84.78h-.05Zm-8.09-.52c-.45-.03-.79-.41-.76-.86.03-.45.42-.79.86-.76.45.03.79.41.76.86-.02.42-.37.76-.8.76h-.06Zm-8.09-.52c-.45-.03-.79-.41-.76-.86.03-.45.42-.79.86-.76.45.01.8.39.79.84-.01.45-.39.8-.84.78h-.05Zm-8.09-.52c-.45-.03-.79-.42-.76-.87.05-.45.46-.76.91-.71.41.05.72.4.71.82-.03.43-.38.76-.81.76h-.05Zm-8.09-.53c-.44-.02-.78-.4-.76-.84,0,0,0-.01,0-.02.05-.45.46-.76.91-.71.41.05.72.4.71.82-.03.43-.38.76-.81.76-.02,0-.03,0-.05-.01h0Zm-8.09-.51c-.45-.03-.79-.42-.76-.87.05-.45.46-.76.91-.71.41.05.72.4.71.82-.03.43-.38.76-.81.76h-.05Zm-8.09-.53c-.44-.02-.78-.4-.76-.84,0,0,0-.01,0-.02.03-.44.41-.78.86-.76.45.03.79.42.76.87-.03.42-.38.76-.81.76-.02,0-.04,0-.05-.01Zm-8.09-.52c-.45-.03-.79-.41-.76-.85,0,0,0,0,0,0,.03-.45.42-.78.86-.75.45.02.79.41.76.86-.03.43-.38.76-.81.75h-.05Zm-8.09-.52c-.45-.03-.79-.41-.76-.86,0,0,0,0,0,0,.03-.45.41-.78.86-.76.45.03.79.42.76.87-.03.42-.38.75-.81.75h-.05Zm-8.09-.52c-.45-.03-.79-.41-.76-.86,0,0,0,0,0,0,.03-.45.42-.79.86-.76.45.03.79.42.76.86-.03.43-.39.76-.81.76h-.05Zm-8.09-.52c-.45-.03-.79-.41-.76-.85,0,0,0,0,0,0,.03-.45.41-.79.86-.76.45.03.79.42.76.86-.03.43-.39.76-.81.76h-.05,0Zm-8.09-.52c-.45-.03-.79-.41-.76-.85,0,0,0,0,0,0,.03-.45.41-.79.86-.76.45.03.79.42.76.86-.03.43-.39.76-.81.76h-.05Zm-8.09-.52c-.45-.03-.79-.41-.76-.85,0,0,0,0,0,0,.03-.45.41-.79.86-.76.45.01.8.39.79.84-.01.45-.39.8-.84.78h-.05Zm-8.09-.52c-.45-.03-.79-.41-.76-.86.03-.45.41-.79.86-.76.45.01.8.39.79.84-.01.45-.39.8-.84.78h-.05Zm-8.09-.52c-.45-.03-.79-.41-.76-.86.03-.45.41-.79.85-.76,0,0,0,0,0,0,.45.03.79.41.76.86-.03.43-.38.76-.81.76h-.05Zm-8.09-.52c-.45-.03-.79-.41-.76-.86.03-.45.41-.79.86-.76.45.03.79.41.76.86-.03.43-.38.76-.81.76h-.05Zm-8.1-.52c-.45-.04-.78-.42-.75-.87.03-.44.41-.78.86-.75s.79.41.76.86c-.03.43-.39.76-.81.76h-.06,0Zm-8.08-.53c-.45-.01-.8-.38-.78-.83.01-.45.38-.8.83-.78.02,0,.04,0,.05,0,.45.03.78.41.76.86-.03.43-.39.76-.81.76-.02,0-.04,0-.05-.01Zm-8.09-.51c-.45-.03-.79-.42-.76-.87.03-.44.41-.78.86-.75.45.02.78.41.76.86-.03.43-.38.76-.81.76h-.05Zm-8.09-.53c-.44-.02-.78-.4-.76-.84,0,0,0-.01,0-.02.03-.44.41-.78.86-.76.45.03.78.42.75.87-.02.42-.38.76-.8.76-.02,0-.04,0-.05-.01Zm-8.1-.52c-.44-.03-.78-.42-.75-.86.03-.44.4-.78.84-.75,0,0,0,0,.01,0,.45.02.79.41.76.86-.03.42-.38.75-.81.75h-.06Zm-8.09-.52c-.44-.03-.78-.42-.75-.86.03-.45.41-.78.86-.76.45.03.78.42.76.87-.03.42-.39.75-.81.75h-.06,0Zm-8.09-.52c-.44-.03-.78-.42-.75-.86.03-.45.41-.79.86-.76.44.03.78.42.76.86-.03.43-.39.76-.81.76h-.06,0Zm-8.08-.52c-.45-.03-.79-.41-.76-.85,0,0,0,0,0,0,.03-.45.41-.79.86-.76.44.04.78.42.76.86-.03.43-.39.76-.81.76h-.05,0Zm-8.1-.52c-.44-.03-.78-.42-.75-.86.03-.45.41-.79.86-.76.44.04.78.42.76.86-.03.43-.38.76-.81.76h-.06Zm-8.09-.52c-.44-.03-.78-.42-.75-.86.03-.45.41-.79.86-.76.45.03.78.41.76.86-.03.43-.38.76-.81.76h-.06Zm-8.09-.52c-.45-.05-.76-.46-.71-.91.05-.41.4-.72.82-.71.45.03.78.42.75.86-.02.43-.38.76-.8.76h-.06Zm-8.09-.52c-.44-.03-.78-.42-.75-.86.01-.45.38-.8.83-.78.45.01.8.38.78.83,0,.02,0,.04,0,.05-.02.43-.38.76-.8.76h-.06Zm-8.09-.52c-.45-.04-.78-.42-.75-.87.02-.45.4-.79.85-.77.45.02.79.4.77.85,0,0,0,.02,0,.03-.02.43-.37.76-.8.76h-.06Zm-8.09-.52c-.44-.03-.78-.42-.75-.86.03-.45.41-.79.86-.76.44.03.78.41.75.86-.02.43-.38.76-.81.76h-.05Zm-8.09-.53c-.44-.03-.78-.41-.75-.85,0,0,0,0,0-.01.02-.45.4-.79.85-.77.45.02.79.4.77.85,0,0,0,.02,0,.03-.02.43-.37.76-.8.76-.02,0-.04,0-.06-.01h0Zm-8.09-.52c-.44-.03-.78-.41-.75-.85,0,0,0,0,0-.01.03-.44.41-.78.85-.75,0,0,0,0,.01,0,.44.03.78.41.76.86-.03.43-.38.76-.81.76-.02,0-.04,0-.06-.01Zm-8.09-.52c-.44-.03-.78-.41-.76-.86.03-.44.42-.78.87-.75.44.03.78.41.75.86-.02.43-.38.76-.8.76-.02,0-.04-.01-.06-.01Zm-8.09-.52c-.44-.03-.78-.41-.75-.85,0,0,0,0,0-.01.02-.45.41-.78.86-.75.44.03.78.41.75.85,0,0,0,0,0,.01-.03.43-.38.75-.81.75h-.05Zm-8.09-.52c-.44-.03-.78-.41-.76-.86.03-.45.42-.78.87-.76.44.03.78.42.75.87-.03.42-.39.75-.81.75h-.05Zm-8.09-.52c-.44-.03-.78-.41-.75-.85,0,0,0,0,0-.01.02-.45.41-.79.86-.76.44.03.78.42.75.86-.02.43-.38.76-.81.76h-.05Zm432.28,99.5c-.45-.03-.79-.42-.76-.87.03-.45.42-.78.87-.75.45.03.78.42.75.87-.03.43-.38.75-.81.75h-.05Zm-8.09-.53c-.44-.02-.78-.4-.76-.84,0,0,0-.01,0-.02.03-.44.42-.78.86-.75.45.02.79.41.76.86-.03.43-.38.76-.81.76-.02,0-.03,0-.05-.01Zm-8.09-.52c-.45-.03-.79-.41-.76-.86,0,0,0,0,0,0,.05-.45.46-.76.91-.71.41.05.72.4.71.82-.03.43-.38.76-.81.76-.02,0-.03-.01-.05-.01Zm-8.09-.52c-.45-.03-.79-.41-.76-.85,0,0,0,0,0,0,.05-.45.46-.76.91-.71.41.05.72.4.71.82-.03.43-.38.75-.81.75h-.05,0Zm-8.09-.52c-.44-.03-.78-.41-.76-.85s.41-.78.85-.76c.45.02.79.41.76.86-.03.42-.39.75-.81.75h-.05Zm-8.09-.52c-.45-.03-.79-.41-.76-.85,0,0,0,0,0,0,.03-.44.41-.78.86-.76.45.03.79.42.76.87-.03.42-.39.75-.81.75h-.05Zm-8.09-.52c-.45-.03-.79-.41-.76-.85,0,0,0,0,0,0,.03-.45.42-.79.86-.76.45.03.79.42.76.86-.03.43-.38.76-.81.76h-.05Zm-8.09-.52c-.45-.03-.79-.41-.76-.85,0,0,0,0,0,0,.03-.45.41-.79.85-.76,0,0,0,0,0,0,.45.01.8.39.78.84-.01.45-.39.8-.83.78h-.05Zm-8.09-.52c-.45-.03-.79-.41-.76-.86.03-.45.41-.79.86-.76.45.03.79.42.76.86-.03.43-.38.76-.81.76h-.05Zm-8.09-.52c-.45-.03-.79-.41-.76-.85,0,0,0,0,0,0,.03-.45.41-.79.86-.76.45.03.79.42.76.86-.03.43-.39.76-.81.76h-.05,0Zm-8.09-.52c-.45-.03-.79-.41-.76-.86.03-.45.41-.79.86-.76.45.03.79.41.76.86-.03.43-.39.76-.81.76h-.05Zm-8.09-.52c-.45-.03-.79-.41-.76-.86.03-.45.41-.79.86-.76.45.03.79.41.76.86,0,0,0,0,0,0-.03.43-.38.76-.81.76h-.05Zm-8.09-.52c-.45-.03-.79-.41-.76-.86.03-.45.41-.79.86-.76.45.01.8.39.79.84-.01.45-.39.8-.84.78h-.05Zm-8.09-.53c-.44-.02-.78-.4-.76-.84,0,0,0,0,0-.01.03-.45.41-.79.85-.76,0,0,0,0,0,0,.45.01.8.39.79.84-.01.45-.39.8-.84.78-.02,0-.03,0-.05-.01Zm-8.1-.51c-.45-.04-.78-.42-.75-.87.03-.44.41-.78.86-.75s.79.41.76.86c-.03.43-.38.76-.81.76h-.06,0Zm-8.08-.53c-.45-.01-.8-.38-.78-.83.01-.45.38-.8.83-.78.02,0,.04,0,.05,0,.45.02.79.41.76.86-.03.43-.39.76-.81.76-.02,0-.04,0-.05-.01h0Zm-8.09-.52c-.45-.01-.8-.38-.78-.83.01-.45.38-.8.83-.78.02,0,.04,0,.05,0,.45.02.78.41.76.86-.03.43-.39.76-.81.76-.02,0-.04-.01-.05-.01h0Zm-8.09-.52c-.45-.03-.79-.41-.76-.85,0,0,0,0,0,0,.03-.44.41-.78.86-.76.45.03.78.42.76.87-.03.42-.39.75-.81.75h-.05Zm-8.09-.52c-.45-.03-.79-.41-.76-.85,0,0,0,0,0,0,.03-.45.41-.79.86-.75.44.02.78.4.76.84,0,0,0,0,0,.01-.03.43-.38.76-.81.76h-.05Zm-8.1-.52c-.44-.03-.78-.42-.75-.86.03-.45.41-.79.85-.76,0,0,0,0,0,0,.45.03.78.42.76.86-.03.43-.38.76-.81.76h-.06Zm-8.09-.52c-.44-.03-.78-.42-.75-.86.03-.45.41-.79.86-.76.44.03.78.42.76.86-.03.43-.38.76-.81.76h-.06,0Zm-8.09-.52c-.44-.03-.78-.42-.75-.86.03-.44.41-.78.85-.76s.78.41.76.85c-.02.43-.37.76-.8.76h-.06,0Zm-8.09-.52c-.44-.03-.78-.42-.75-.86.03-.45.41-.79.86-.76.45.03.78.41.76.86-.03.43-.39.76-.81.76h-.06,0Zm-8.09-.52c-.45-.05-.76-.46-.71-.9.05-.41.4-.72.82-.72.45.03.78.42.76.86-.03.43-.38.76-.81.76h-.06Zm-8.09-.52c-.45-.05-.76-.46-.71-.91.05-.41.4-.72.82-.71.44.03.78.41.75.85,0,0,0,0,0,.01-.02.43-.38.76-.8.76h-.06Zm-8.09-.52c-.45-.05-.76-.46-.71-.91.05-.41.4-.72.82-.71.44.03.78.41.75.86-.02.43-.38.76-.8.76h-.06Zm-8.09-.52c-.45-.04-.78-.42-.75-.87.02-.45.4-.79.85-.77.45.02.79.4.77.85,0,0,0,.02,0,.03-.02.43-.38.76-.8.76h-.06,0Zm-8.09-.53c-.44-.03-.78-.41-.75-.85,0,0,0,0,0,0,.02-.45.4-.79.85-.77.45.02.79.4.77.85,0,0,0,.02,0,.03-.02.43-.37.76-.8.76-.02,0-.04,0-.06-.01h0Zm-8.09-.52c-.44-.03-.78-.42-.75-.86.03-.44.42-.78.86-.75.44.03.78.42.75.86h0c-.02.43-.38.76-.81.76,0,0-.03-.01-.05-.01Zm-8.09-.52c-.44-.03-.78-.42-.75-.86.03-.44.41-.78.85-.75,0,0,0,0,.01,0,.44.03.78.41.75.85,0,0,0,0,0,0-.02.43-.37.76-.8.76h-.06Zm-8.09-.52c-.44-.03-.78-.41-.76-.86.03-.45.42-.78.87-.76.45.03.79.42.76.87-.03.43-.39.76-.82.76,0,0-.03-.01-.05-.01Zm-8.09-.52c-.44-.03-.78-.41-.76-.86.03-.45.42-.78.87-.76.44.03.78.42.75.87-.03.42-.38.75-.8.75h-.06Zm-8.09-.52c-.44-.03-.78-.42-.75-.86.02-.45.41-.79.86-.76.44.03.78.42.75.86-.02.43-.38.76-.8.76h-.06Zm-8.09-.52c-.44-.03-.78-.41-.76-.86.04-.45.42-.79.87-.76.45.02.8.39.78.84-.02.45-.39.8-.84.78h-.05,0Zm-8.09-.52c-.44-.03-.78-.42-.75-.86.02-.45.41-.79.86-.76.44.03.78.42.75.86-.02.43-.38.76-.81.76h-.05Zm-8.09-.52c-.45-.03-.79-.41-.76-.85,0,0,0,0,0,0,.03-.45.42-.79.86-.76.45.01.8.39.79.84-.01.45-.39.8-.84.78h-.05Zm-8.09-.52c-.44-.04-.78-.42-.76-.86.03-.45.42-.79.86-.76.45.01.8.39.79.84-.01.45-.39.8-.84.78h-.05Zm-8.09-.52c-.45-.03-.78-.41-.76-.86.03-.45.42-.79.87-.76.44.03.78.41.75.86-.02.42-.37.76-.8.76h-.06Zm-8.09-.52c-.45-.03-.79-.42-.76-.87.05-.45.46-.76.91-.71.41.05.72.4.71.82-.03.43-.38.76-.81.76h-.05Zm-8.09-.52c-.44-.03-.78-.41-.76-.86.03-.45.42-.79.87-.76.44.03.78.41.75.86-.03.43-.38.76-.81.76h-.05,0Zm-8.09-.52c-.45-.03-.79-.42-.76-.87.05-.45.46-.76.91-.71.41.05.72.4.71.82-.03.43-.38.76-.81.76h-.05Zm-8.09-.53c-.44-.02-.78-.4-.76-.84,0,0,0-.01,0-.02.03-.44.42-.78.86-.75.45.02.79.41.76.86-.03.43-.38.76-.81.76,0,0-.03,0-.05-.01Zm-8.09-.52c-.45-.03-.79-.41-.76-.86.03-.44.42-.78.86-.76.45.03.79.42.76.87-.03.43-.38.76-.81.76-.02,0-.03-.01-.05-.01Zm-8.09-.52c-.45-.03-.79-.41-.76-.85,0,0,0,0,0,0,.03-.44.41-.78.86-.76.45.03.79.42.76.86-.02.43-.38.76-.81.76h-.05Zm-8.09-.52c-.45-.03-.79-.41-.76-.86,0,0,0,0,0,0,.03-.45.42-.79.86-.76.45.01.8.39.78.83-.01.45-.39.8-.83.79h-.05Zm-8.09-.52c-.45-.03-.79-.41-.76-.85,0,0,0,0,0,0,.03-.45.41-.78.86-.76.45.03.79.42.76.87-.03.42-.39.75-.81.75h-.05Zm-8.09-.52c-.45-.03-.79-.41-.76-.85,0,0,0,0,0,0,.03-.45.42-.79.86-.76.45.01.8.39.78.84s-.39.8-.84.78h-.05,0Zm-8.09-.52c-.45-.03-.79-.41-.76-.85,0,0,0,0,0,0,.03-.45.42-.79.86-.76.45.01.8.39.78.84s-.39.8-.84.78h-.05,0Zm-8.09-.52c-.45-.03-.79-.41-.76-.86.03-.45.41-.79.86-.76.45.01.8.39.78.83-.01.45-.39.8-.83.79h-.05Zm-8.09-.52c-.45-.03-.79-.41-.76-.86.02-.45.41-.79.85-.76,0,0,0,0,0,0,.45.01.8.39.79.84-.01.45-.39.8-.84.78h-.05Zm-8.09-.52c-.45-.03-.79-.41-.76-.86.03-.45.41-.79.86-.76.45.03.79.41.76.86-.03.43-.38.76-.81.76h-.05Zm-8.09-.52c-.45-.03-.79-.41-.76-.86.03-.45.41-.79.86-.76.45.03.79.41.76.86-.03.43-.39.76-.81.76h-.05Zm-8.09-.52c-.45-.03-.79-.42-.76-.87.05-.45.46-.76.9-.71.41.05.72.4.72.82-.03.43-.38.76-.81.76h-.05Zm-8.09-.53c-.45-.01-.8-.38-.78-.83.01-.45.38-.8.83-.78.02,0,.04,0,.05,0,.45.02.79.41.76.86-.03.43-.38.76-.81.76-.02,0-.04,0-.05-.01Zm-8.09-.52c-.44-.03-.78-.41-.76-.85s.41-.78.85-.76c.45.03.79.41.76.86-.03.42-.39.75-.81.75h-.05Z"/><path class="cls-4" d="m1194.95,559.51c-1.34,0-2.69-.04-4.07-.13-45.16-2.91-63.14-39.51-80.52-74.91-17.57-35.77-35.73-72.76-82.18-75.75-55.78-3.59-75.68,27.92-91.66,53.25l-1.47,2.32c-.61.94-1.87,1.2-2.81.58-.92-.6-1.19-1.82-.62-2.75l1.47-2.32c8.14-12.9,17.36-27.52,31.89-38.56,16.86-12.81,37.63-18.23,63.45-16.57,48.79,3.14,67.48,41.2,85.56,78.01,17.65,35.94,34.32,69.9,77.14,72.65,39.61,2.55,62.25-35.71,86.26-76.22,24.27-40.94,51.77-87.33,101.4-97.7,1.1-.23,2.17.47,2.4,1.57.23,1.1-.47,2.17-1.57,2.4h0c-47.88,10-73.73,53.62-98.74,95.8-23.86,40.24-46.44,78.33-85.94,78.33h0Z"/><path class="cls-4" d="m936.26,507.92c-1.76,0-3.55-.06-5.38-.18-1.11-.11-1.93-1.11-1.81-2.22.11-1.06,1.01-1.85,2.07-1.82,46.21,2.97,66.41-35.38,85.94-72.46,18.33-34.8,37.31-70.78,77.84-68.17,40.2,2.59,54.1,28.37,67.55,53.3,13.96,25.88,28.39,52.63,72.71,55.49,48.34,3.1,103.24-30.15,140.8-58.6.89-.68,2.16-.5,2.84.39.68.89.5,2.16-.39,2.84-69.05,52.3-116.16,61.17-143.51,59.41-46.56-3-61.53-30.76-76.02-57.61-13.52-25.06-26.29-48.74-64.24-51.18-37.94-2.43-55.45,30.81-73.99,66.01-19.38,36.79-39.4,74.8-84.4,74.8h0Z"/><path class="cls-2" d="m955.22,730.18l369.38-23.48,26.33,414.21c.85,13.41-9.32,24.96-22.73,25.81l-320.84,20.4c-13.41.85-24.96-9.32-25.82-22.73l-26.33-414.21Z"/><path class="cls-4" d="m1005.81,1169.19c-13.77,0-25.39-10.74-26.28-24.68l-26.46-416.23,373.43-23.74.13,2.02,26.33,414.21c.45,7.02-1.87,13.8-6.52,19.08-4.65,5.28-11.08,8.44-18.1,8.88l-320.84,20.4c-.57.04-1.13.06-1.69.06h0Zm-48.44-437.12l26.21,412.19c.78,12.27,11.42,21.62,23.66,20.83l320.84-20.4c5.91-.36,11.42-3.07,15.32-7.52,3.92-4.43,5.91-10.24,5.52-16.15l-26.21-412.19-365.34,23.23Z"/><path class="cls-2" d="m973.6,636.1l320.84-20.4c13.41-.85,24.96,9.32,25.81,22.73l4.34,68.27-369.38,23.48-4.34-68.27c-.85-13.4,9.32-24.96,22.73-25.81h0Z"/><path class="cls-4" d="m953.32,732.33l-4.47-70.29c-.45-7.02,1.87-13.8,6.52-19.08,4.65-5.28,11.08-8.44,18.1-8.88l.13,2.02-.13-2.02,320.84-20.4c14.48-.92,27.05,10.12,27.97,24.62l4.47,70.29-373.43,23.74Zm342.68-114.65c-.47,0-.95.02-1.43.04l-320.84,20.4c-5.91.36-11.42,3.07-15.32,7.52-3.92,4.43-5.91,10.24-5.52,16.15l4.21,66.24,365.34-23.23-4.21-66.24c-.75-11.79-10.58-20.88-22.23-20.88Z"/><circle class="cls-4" cx="1007.9" cy="680.37" r="14.65"/><circle class="cls-4" cx="1058.42" cy="677.16" r="14.65"/><circle class="cls-4" cx="1108.94" cy="673.95" r="14.65"/><path class="cls-4" d="m1034.69,963.63l21.11-1.34,9.43,148.42-21.11,1.34-9.43-148.42Zm26.57-77.27l21.11-1.34,14.21,223.7-21.11,1.34-14.21-223.7Zm25.73-90.54l21.11-1.34,19.84,312.24-21.11,1.34-19.84-312.24Zm34.61,49.36l21.11-1.34,16.57,260.89-21.11,1.34-16.57-260.89Zm35.01,55.54l21.11-1.34,12.92,203.36-21.11,1.34-12.92-203.36Zm28.34-49.36l21.11-1.34,15.93,250.74-21.11,1.34-15.93-250.73Zm28.49-46.95l21.11-1.34,18.79,295.69-21.11,1.34-18.79-295.69Zm34.9,53.82l21.11-1.34,15.24,239.88-21.11,1.34-15.24-239.88Z"/><path class="cls-2" d="m1296.54,1095.93l-264.2,16.8"/><path class="cls-4" d="m1032.23,1110.77l264.21-16.84.26,4.05-264.21,16.84-.26-4.05Z"/><path class="cls-2" d="m464.82,589.59l546.74,35.19-28.89,448.83c-.86,13.4-12.43,23.57-25.83,22.71l-498.19-32.07c-13.4-.86-23.57-12.43-22.71-25.83l28.89-448.83Z"/><path class="cls-4" d="m958.41,1098.4c-.57,0-1.14-.02-1.71-.06l-498.19-32.07c-7.02-.45-13.45-3.61-18.1-8.9s-6.96-12.06-6.5-19.09l29.02-450.85,550.78,35.45-.13,2.02-28.89,448.83c-.9,13.92-12.51,24.66-26.28,24.66h0Zm-491.7-506.66l-28.76,446.81c-.79,12.27,8.55,22.89,20.82,23.68l498.19,32.07c12.27.8,22.89-8.55,23.68-20.82l28.76-446.81-542.69-34.93Z"/><path class="cls-2" d="m495.05,498.62l498.19,32.07c13.4.86,23.57,12.43,22.71,25.83l-4.39,68.26-546.73-35.19,4.39-68.26c.86-13.4,12.43-23.57,25.83-22.71h0Z"/><path class="cls-4" d="m1013.45,626.94l-550.78-35.45,4.52-70.28c.45-7.02,3.61-13.45,8.9-18.1s12.06-6.96,19.09-6.5l498.19,32.07c7.02.45,13.45,3.61,18.1,8.9,4.65,5.29,6.96,12.06,6.5,19.09l-4.52,70.28Zm-546.47-39.24l542.69,34.93,4.26-66.24c.38-5.94-1.57-11.68-5.5-16.15s-9.37-7.15-15.31-7.53l-498.19-32.07c-5.94-.38-11.68,1.57-16.15,5.5-4.45,3.89-7.16,9.41-7.53,15.31l-4.26,66.24Z"/><circle class="cls-4" cx="523.42" cy="546.91" r="14.65"/><circle class="cls-4" cx="573.94" cy="550.16" r="14.65"/><circle class="cls-4" cx="624.46" cy="553.41" r="14.65"/><path class="cls-4" d="m781.82,981.94c-.72,0-1.39-.38-1.75-1l-76.3-129.81c-.57-.96-.24-2.21.72-2.77.96-.57,2.21-.24,2.77.72l76.3,129.81c.57.96.25,2.21-.72,2.77-.31.18-.67.28-1.03.28Z"/><path class="cls-4" d="m705.57,1002.69c-66.84,0-128.33-44.31-147.05-111.78-10.9-39.27-5.85-80.43,14.21-115.9s52.73-61.01,92-71.91c31.99-8.88,65.21-7.22,96.06,4.8,29.83,11.62,55.76,32.76,73,59.53l.62.98c.6.94.32,2.19-.62,2.79,0,0,0,0,0,0l-121.18,76.81,143.47-1.24h.02c1.11,0,2.02.9,2.03,2.01.64,68.89-45.34,129.88-111.8,148.32-13.27,3.69-26.98,5.57-40.75,5.57Zm.12-301.16c-13.33,0-26.71,1.82-39.88,5.48-78.91,21.9-125.29,103.91-103.39,182.81,21.9,78.91,103.91,125.28,182.81,103.39,64.04-17.77,108.54-76.13,108.83-142.35l-148.53,1.28h-.02c-1.12,0-2.03-.91-2.03-2.03,0-.69.36-1.34.94-1.71l125.46-79.52c-16.78-25.7-41.81-46-70.58-57.2-17.33-6.75-35.43-10.14-53.63-10.14Z"/><path class="cls-4" d="m705.52,852.13c-1.12,0-2.03-.91-2.03-2.02,0-.09,0-.19.02-.28l20.75-149.14c.14-1.11,1.16-1.9,2.27-1.75,1.11.14,1.9,1.16,1.75,2.27,0,.02,0,.03,0,.05l-20.75,149.14c-.14,1-.99,1.75-2.01,1.75Zm199.6-103.87l-126.99,80.49,150.57-1.3h0c-.12-12.88-1.91-25.96-5.51-38.96-4.06-14.64-10.15-28.17-17.88-40.37l-.18.13Z"/><path class="cls-4" d="m778.13,830.78c-1.12,0-2.03-.91-2.02-2.03,0-.69.36-1.34.94-1.71l126.93-80.46.12-.09c.9-.66,2.17-.47,2.83.43.03.04.06.08.08.12,7.99,12.62,14.09,26.38,18.12,40.91,3.58,12.86,5.45,26.13,5.59,39.48,0,1.12-.89,2.03-2.01,2.04l-150.57,1.3s-.01,0-.02,0h0Zm126.54-79.84l-119.46,75.72,141.43-1.22c-.29-12.31-2.11-24.54-5.41-36.41-3.74-13.48-9.31-26.29-16.56-38.09Zm-308.57-4.25c-34.97,37.07-50.25,90.99-35.63,143.67l145.05-40.25-109.42-103.41h0Z"/><path class="cls-4" d="m560.47,892.39c-.91,0-1.71-.61-1.95-1.48-7.15-25.77-7.42-52.99-.79-78.74,6.44-24.97,19.2-48.1,36.9-66.86.37-.39.88-.62,1.42-.64.54-.02,1.06.18,1.45.55l109.42,103.42c.81.77.85,2.05.08,2.87-.25.27-.57.46-.93.56l-145.05,40.25c-.18.05-.36.07-.54.07Zm35.73-142.82c-16.52,18-28.44,39.95-34.54,63.61-6.29,24.41-6.2,50.18.24,74.69l139.63-38.75-105.33-99.55Z"/><path class="cls-2" d="m129.95,761.9l369.38-23.48,26.33,414.21c.85,13.41-9.32,24.96-22.73,25.81l-320.84,20.4c-13.4.85-24.96-9.32-25.82-22.73l-26.33-414.21Z"/><path class="cls-4" d="m180.54,1200.92c-13.77,0-25.39-10.74-26.28-24.68l-26.46-416.23,373.43-23.74,26.46,416.23c.92,14.5-10.12,27.04-24.62,27.97l-320.84,20.4c-.56.04-1.13.06-1.69.06h0Zm-48.44-437.12l26.21,412.19c.78,12.27,11.38,21.61,23.67,20.83l320.84-20.4c12.27-.78,21.61-11.4,20.83-23.67l-26.21-412.19-365.34,23.23Z"/><path class="cls-2" d="m148.34,667.82l320.84-20.4c13.4-.85,24.96,9.32,25.82,22.73l4.34,68.27-369.38,23.48-4.34-68.27c-.85-13.41,9.32-24.96,22.73-25.82h0Z"/><path class="cls-4" d="m128.06,764.05l-4.47-70.29c-.45-7.02,1.87-13.8,6.52-19.08s11.08-8.44,18.1-8.88l.13,2.02-.13-2.02,320.84-20.4c7.02-.45,13.8,1.87,19.08,6.52s8.44,11.08,8.88,18.1l4.47,70.29-373.43,23.74Zm342.7-114.65c-.48,0-.96.02-1.45.05l-320.84,20.4c-5.91.36-11.42,3.07-15.32,7.52-3.92,4.43-5.91,10.24-5.52,16.15l4.21,66.24,365.34-23.23-4.21-66.24c-.36-5.91-3.07-11.42-7.52-15.32-4.1-3.61-9.28-5.56-14.7-5.56h0Z"/><circle class="cls-4" cx="182.64" cy="712.1" r="14.65"/><circle class="cls-4" cx="233.16" cy="708.88" r="14.65"/><circle class="cls-4" cx="283.68" cy="705.67" r="14.65"/><path class="cls-4" d="m193.56,932.59l8.41-.54,4.48,70.56-8.41.53-4.48-70.56Z"/><path class="cls-4" d="m196.2,1005.27l-4.74-74.6,12.46-.79,4.74,74.6-12.46.79Zm-.44-70.82l4.23,66.52,4.37-.28-4.23-66.51-4.37.28Z"/><path class="cls-2" d="m189.07,862.03l8.41-.53,4.48,70.56-8.41.54-4.48-70.56Z"/><path class="cls-4" d="m191.71,934.71l-4.74-74.6,12.46-.79,4.74,74.6-12.46.79Zm-.44-70.82l4.23,66.52,4.36-.28-4.23-66.52-4.36.28Zm22.83,103.33l8.41-.53,4.48,70.56-8.41.54-4.48-70.56Z"/><path class="cls-4" d="m216.74,1039.91l-4.74-74.6,12.46-.79,4.74,74.6-12.46.79Zm-.44-70.82l4.23,66.52,4.37-.28-4.23-66.52-4.37.28Z"/><path class="cls-2" d="m209.62,896.66l8.41-.53,4.48,70.56-8.41.54-4.48-70.56Z"/><path class="cls-4" d="m212.26,969.35l-4.74-74.6,12.46-.79,4.74,74.6-12.46.79Zm-.44-70.82l4.23,66.52,4.36-.28-4.23-66.52-4.36.28Zm22.64,100.3l8.41-.54,4.48,70.56-8.41.53-4.48-70.56Z"/><path class="cls-4" d="m237.1,1071.51l-4.74-74.6,12.46-.79,4.74,74.6-12.46.79Zm-.44-70.82l4.23,66.52,4.36-.28-4.23-66.52-4.36.28Z"/><path class="cls-2" d="m229.97,928.27l8.41-.53,4.48,70.56-8.41.54-4.48-70.56Z"/><path class="cls-4" d="m232.61,1000.95l-4.74-74.6,12.46-.79,4.74,74.6-12.45.79Zm-.44-70.82l4.23,66.51,4.36-.28-4.23-66.51-4.36.28Zm17.6,21l8.41-.53,4.48,70.56-8.41.53-4.48-70.56Z"/><path class="cls-4" d="m252.41,1023.82l-4.74-74.6,12.46-.79,4.74,74.6-12.46.79Zm-.44-70.82l4.23,66.52,4.36-.28-4.23-66.52-4.36.28Z"/><path class="cls-2" d="m245.29,880.57l8.41-.53,4.48,70.56-8.41.54-4.48-70.56Z"/><path class="cls-4" d="m247.92,953.26l-4.74-74.6,12.46-.79,4.74,74.6-12.46.79Zm-.44-70.82l4.23,66.52,4.36-.28-4.23-66.52-4.36.28Zm23.25,109.92l8.41-.53,4.48,70.56-8.41.54-4.48-70.56Z"/><path class="cls-4" d="m273.38,1065.04l-4.74-74.6,12.45-.79,4.74,74.6-12.45.79Zm-.44-70.82l4.23,66.52,4.36-.28-4.23-66.52-4.36.28Z"/><path class="cls-2" d="m266.25,921.8l8.41-.54,4.48,70.56-8.41.54-4.48-70.56Z"/><path class="cls-4" d="m268.89,994.48l-4.74-74.6,12.46-.79,4.74,74.6-12.46.79Zm-.44-70.82l4.23,66.52,4.36-.28-4.23-66.52-4.36.28Zm22.3,94.91l8.41-.53,4.48,70.56-8.41.53-4.48-70.56Z"/><path class="cls-4" d="m293.39,1091.25l-4.74-74.6,12.45-.79,4.74,74.6-12.46.79Zm-.44-70.82l4.23,66.51,4.36-.28-4.23-66.51-4.36.28Z"/><path class="cls-2" d="m286.26,948.01l8.41-.54,4.48,70.56-8.41.54-4.48-70.56Z"/><path class="cls-4" d="m288.9,1020.69l-4.74-74.6,12.45-.79,4.74,74.6-12.45.79Zm-.44-70.82l4.23,66.52,4.36-.28-4.23-66.52-4.36.28Zm22.23,93.92l8.41-.53,4.48,70.56-8.41.54-4.48-70.56Z"/><path class="cls-4" d="m313.34,1116.48l-4.74-74.6,12.45-.79,4.74,74.6-12.46.79Zm-.44-70.82l4.23,66.52,4.36-.28-4.23-66.52-4.36.28Z"/><path class="cls-2" d="m306.21,973.24l8.41-.53,4.48,70.56-8.41.53-4.48-70.56Z"/><path class="cls-4" d="m308.85,1045.92l-4.74-74.6,12.46-.79,4.74,74.6-12.46.79Zm-.44-70.82l4.23,66.52,4.36-.28-4.23-66.52-4.36.28Zm21.52,82.77l8.41-.53,4.48,70.56-8.41.54-4.48-70.56Z"/><path class="cls-4" d="m332.58,1130.55l-4.74-74.6,12.45-.79,4.74,74.6-12.45.79Zm-.44-70.82l4.23,66.52,4.36-.28-4.23-66.52-4.36.28Z"/><path class="cls-2" d="m325.45,987.31l8.41-.53,4.48,70.56-8.41.54-4.48-70.56Z"/><path class="cls-4" d="m328.09,1059.99l-4.74-74.6,12.46-.79,4.74,74.6-12.46.79Zm-.44-70.82l4.23,66.52,4.36-.28-4.23-66.52-4.36.28Zm18.2,30.54l8.41-.54,4.48,70.56-8.41.54-4.48-70.56Z"/><path class="cls-4" d="m348.49,1092.39l-4.74-74.6,12.46-.79,4.74,74.6-12.46.79Zm-.44-70.82l4.23,66.52,4.36-.28-4.23-66.52-4.36.28Z"/><path class="cls-2" d="m341.37,949.15l8.41-.53,4.48,70.56-8.41.54-4.48-70.56Z"/><path class="cls-4" d="m344.01,1021.83l-4.74-74.6,12.45-.79,4.74,74.6-12.46.79Zm-.44-70.82l4.23,66.52,4.36-.28-4.23-66.52-4.36.28Zm21.65,84.8l8.41-.54,4.48,70.56-8.41.53-4.48-70.56Z"/><path class="cls-4" d="m367.86,1108.48l-4.74-74.6,12.45-.79,4.74,74.6-12.46.79Zm-.44-70.82l4.23,66.52,4.36-.28-4.23-66.52-4.36.28Z"/><path class="cls-2" d="m360.74,965.24l8.41-.53,4.48,70.56-8.41.54-4.48-70.56Z"/><path class="cls-4" d="m363.38,1037.92l-4.74-74.6,12.46-.79,4.74,74.6-12.46.79Zm-.44-70.82l4.23,66.52,4.36-.28-4.23-66.52-4.36.28Zm17.33,16.68l8.41-.54,4.48,70.56-8.41.53-4.48-70.56Z"/><path class="cls-4" d="m382.9,1056.46l-4.74-74.6,12.46-.79,4.74,74.6-12.46.79Zm-.44-70.82l4.23,66.52,4.36-.28-4.23-66.52-4.36.28Z"/><path class="cls-2" d="m375.78,913.22l8.41-.53,4.48,70.56-8.41.54-4.48-70.56Z"/><path class="cls-4" d="m378.41,985.9l-4.74-74.6,12.45-.79,4.74,74.6-12.46.79Zm-.44-70.82l4.23,66.52,4.36-.28-4.23-66.52-4.36.28Zm18.94,42.08l8.41-.53,4.48,70.56-8.41.54-4.48-70.56Z"/><path class="cls-4" d="m399.55,1029.84l-4.74-74.6,12.45-.79,4.74,74.6-12.45.79Zm-.44-70.82l4.23,66.52,4.36-.28-4.23-66.52-4.36.28Z"/><path class="cls-2" d="m392.43,886.6l8.41-.53,4.48,70.56-8.41.54-4.48-70.56Z"/><path class="cls-4" d="m395.07,959.28l-4.74-74.6,12.46-.79,4.74,74.6-12.46.79Zm-.44-70.82l4.23,66.52,4.36-.28-4.23-66.52-4.36.28Zm19.52,51.12l8.41-.53,4.48,70.56-8.41.53-4.48-70.56Z"/><path class="cls-4" d="m416.78,1012.26l-4.74-74.6,12.46-.79,4.74,74.6-12.46.79Zm-.44-70.82l4.23,66.51,4.36-.28-4.23-66.52-4.36.28Z"/><path class="cls-2" d="m409.66,869.02l8.41-.53,4.48,70.56-8.41.54-4.48-70.56Z"/><path class="cls-4" d="m412.29,941.7l-4.74-74.6,12.45-.79,4.74,74.6-12.46.79Zm-.44-70.82l4.23,66.52,4.36-.28-4.23-66.51-4.36.28Zm21.97,89.72l8.41-.53,4.48,70.56-8.41.54-4.48-70.56Z"/><path class="cls-4" d="m436.46,1033.27l-4.74-74.6,12.45-.79,4.74,74.6-12.46.79Zm-.44-70.82l4.23,66.52,4.36-.28-4.23-66.52-4.36.28Z"/><path class="cls-2" d="m429.34,890.04l8.41-.53,4.48,70.56-8.41.53-4.48-70.56Z"/><path class="cls-4" d="m431.97,962.71l-4.74-74.6,12.45-.79,4.74,74.6-12.45.79Zm-.44-70.82l4.23,66.51,4.36-.28-4.23-66.51-4.36.28Zm16.43,2.57l8.41-.53,4.48,70.56-8.41.53-4.48-70.56Z"/><path class="cls-4" d="m450.6,967.14l-4.74-74.6,12.45-.79,4.74,74.6-12.45.79Zm-.44-70.82l4.23,66.52,4.36-.28-4.23-66.52-4.36.28Z"/><path class="cls-2" d="m443.48,823.91l8.41-.53,4.48,70.56-8.41.53-4.48-70.56Z"/><path class="cls-4" d="m446.11,896.58l-4.74-74.6,12.46-.79,4.74,74.6-12.46.79Zm-.44-70.82l4.23,66.51,4.36-.28-4.23-66.51-4.36.28Z"/><path class="cls-2" d="m705.52,91.49l9.67,38.63,27.69-28.62-10.94,38.29,38.29-10.94-28.62,27.69,38.64,9.67-38.64,9.67,28.62,27.69-38.29-10.94,10.94,38.29-27.69-28.62-9.67,38.64-9.67-38.64-27.69,28.62,10.94-38.29-38.29,10.94,28.62-27.69-38.64-9.67,38.64-9.67-28.62-27.69,38.29,10.94-10.94-38.29,27.69,28.62,9.67-38.63Z"/><path class="cls-4" d="m705.52,242.96c-.93,0-1.74-.63-1.97-1.54l-8.78-35.1-25.16,26c-.78.81-2.06.83-2.86.05-.54-.52-.75-1.3-.54-2.02l9.94-34.79-34.79,9.94c-1.08.31-2.2-.31-2.51-1.39-.21-.72,0-1.5.54-2.02l26-25.15-35.1-8.78c-1.09-.27-1.74-1.38-1.47-2.46.18-.72.75-1.29,1.47-1.47l35.1-8.78-26-25.15c-.8-.78-.83-2.06-.05-2.87.52-.54,1.29-.75,2.01-.54l34.79,9.94-9.94-34.79c-.31-1.08.32-2.2,1.39-2.51.72-.21,1.49,0,2.01.54l25.16,26,8.78-35.1c.27-1.09,1.38-1.74,2.46-1.47.72.18,1.29.75,1.47,1.47l8.78,35.1,25.16-26c.78-.8,2.06-.83,2.87-.05.54.52.75,1.29.54,2.01l-9.94,34.79,34.79-9.94c1.08-.31,2.2.31,2.51,1.39.21.72,0,1.5-.54,2.02l-26,25.15,35.1,8.78c1.09.27,1.75,1.37,1.47,2.46-.18.72-.75,1.29-1.47,1.47l-35.1,8.78,26,25.15c.8.78.83,2.06.05,2.87-.52.54-1.29.75-2.01.54l-34.79-9.94,9.94,34.79c.31,1.08-.32,2.2-1.39,2.51-.72.21-1.49,0-2.01-.54l-25.16-26-8.78,35.1c-.23.9-1.04,1.53-1.97,1.54Zm-9.67-42.69c.93,0,1.74.63,1.97,1.53l7.7,30.78,7.7-30.78c.27-1.09,1.37-1.75,2.46-1.48.37.09.7.29.97.56l22.06,22.8-8.72-30.51c-.31-1.08.31-2.2,1.39-2.51.36-.1.75-.1,1.12,0l30.51,8.72-22.8-22.06c-.81-.78-.83-2.06-.05-2.86.26-.27.6-.47.97-.56l30.78-7.7-30.78-7.7c-1.09-.27-1.75-1.37-1.48-2.46.09-.37.29-.7.56-.97l22.8-22.06-30.51,8.72c-1.08.31-2.2-.31-2.51-1.39-.1-.36-.1-.75,0-1.12l8.72-30.51-22.06,22.8c-.78.8-2.06.83-2.86.05-.27-.26-.47-.6-.56-.97l-7.7-30.78-7.7,30.78c-.27,1.09-1.37,1.75-2.46,1.48-.37-.09-.7-.29-.97-.56l-22.06-22.8,8.72,30.51c.31,1.08-.31,2.2-1.39,2.51-.36.1-.75.1-1.12,0l-30.51-8.72,22.8,22.06c.81.78.83,2.06.05,2.86-.26.27-.6.47-.97.56l-30.78,7.7,30.78,7.7c1.09.27,1.75,1.37,1.48,2.46-.09.37-.29.7-.56.97l-22.8,22.06,30.51-8.72c1.08-.31,2.2.32,2.51,1.4.1.36.1.74,0,1.11l-8.72,30.51,22.06-22.8c.38-.39.91-.62,1.46-.62h0Zm157.56,949.4l4.52,11.74,11.74,4.52-11.74,4.52-4.52,11.74-4.52-11.74-11.74-4.52,11.74-4.52,4.52-11.74ZM75.27,613.24l4.52,11.74,11.74,4.52-11.74,4.52-4.52,11.74-4.52-11.74-11.74-4.52,11.74-4.52,4.52-11.74Zm1322.54,130.25l4.52,11.74,11.74,4.52-11.74,4.52-4.52,11.74-4.52-11.74-11.74-4.52,11.74-4.52,4.52-11.74Zm-303.51-608.95l4.52,11.74,11.74,4.52-11.74,4.52-4.52,11.74-4.52-11.74-11.74-4.52,11.74-4.52,4.52-11.74Zm-531.25,511.71l4.52,11.74,11.74,4.52-11.74,4.52-4.52,11.74-4.52-11.74-11.74-4.52,11.74-4.52,4.52-11.74ZM272.75,161.45l4.52,11.74,11.74,4.52-11.74,4.52-4.52,11.74-4.52-11.74-11.74-4.52,11.74-4.52,4.52-11.74Z"/></svg>