<?xml version="1.0" encoding="UTF-8"?><svg id="Calque_1" xmlns="http://www.w3.org/2000/svg" viewBox="0 0 1161.99 1063.77"><defs><style>.cls-1{fill:#f1cf25;}.cls-2{fill:#fff;}.cls-3{fill:#231f20;}</style></defs><rect class="cls-1" x="282.68" y="117.32" width="316.61" height="747.43"/><path class="cls-3" d="m20.02,371.67h18.15v152.24h-18.15v-152.24Z"/><path class="cls-3" d="m40.19,525.94h-22.2v-156.29h22.2v156.29Zm-18.15-4.05h14.09v-148.19h-14.09v148.19Z"/><path class="cls-2" d="m20.02,219.43h18.15v152.24h-18.15v-152.24Z"/><path class="cls-3" d="m40.19,373.7h-22.2v-156.29h22.2v156.29Zm-18.15-4.05h14.09v-148.19h-14.09v148.19Zm37.4,79.26h18.15v152.24h-18.15v-152.24Z"/><path class="cls-3" d="m79.61,603.17h-22.2v-156.29h22.2v156.29Zm-18.15-4.05h14.09v-148.19h-14.09v148.19Z"/><path class="cls-2" d="m59.44,296.67h18.15v152.24h-18.15v-152.24Z"/><path class="cls-3" d="m79.61,450.93h-22.2v-156.29h22.2v156.29Zm-18.15-4.05h14.09v-148.19h-14.09v148.19Zm37.4,72.72h18.14v152.24h-18.14v-152.24Z"/><path class="cls-3" d="m119.04,673.86h-22.2v-156.29h22.2v156.29Zm-18.14-4.05h14.09v-148.19h-14.09v148.19Z"/><path class="cls-2" d="m98.86,367.35h18.14v152.24h-18.14v-152.24Z"/><path class="cls-3" d="m119.04,521.62h-22.2v-156.29h22.2v156.29Zm-18.14-4.05h14.09v-148.19h-14.09v148.19Zm37.39-98.37h18.14v152.24h-18.14v-152.24Z"/><path class="cls-3" d="m158.46,573.46h-22.2v-156.29h22.2v156.29Zm-18.14-4.05h14.09v-148.19h-14.09v148.19Z"/><path class="cls-2" d="m138.29,266.95h18.14v152.24h-18.14v-152.24Z"/><path class="cls-3" d="m158.46,421.22h-22.2v-156.29h22.2v156.29Zm-18.14-4.05h14.09v-148.19h-14.09v148.19Zm37.39,93.48h18.14v152.24h-18.14v-152.24Z"/><path class="cls-3" d="m197.88,664.91h-22.2v-156.29h22.2v156.29Zm-18.14-4.05h14.09v-148.19h-14.09v148.19Z"/><path class="cls-2" d="m177.71,358.41h18.14v152.24h-18.14v-152.24Z"/><path class="cls-3" d="m197.88,512.67h-22.2v-156.29h22.2v156.29Zm-18.14-4.05h14.09v-148.19h-14.09v148.19Zm37.39,61.09h18.14v152.24h-18.14v-152.24Z"/><path class="cls-3" d="m237.3,723.98h-22.2v-156.29h22.2v156.29Zm-18.14-4.05h14.09v-148.19h-14.09v148.19Z"/><path class="cls-2" d="m217.13,417.47h18.14v152.24h-18.14v-152.24Z"/><path class="cls-3" d="m237.3,571.74h-22.2v-156.29h22.2v156.29Zm-18.14-4.05h14.09v-148.19h-14.09v148.19Zm37.39,58.96h18.14v152.24h-18.14v-152.24Z"/><path class="cls-3" d="m276.72,780.91h-22.2v-156.29h22.2v156.29h0Zm-18.14-4.05h14.09v-148.19h-14.09v148.19Z"/><path class="cls-2" d="m256.55,474.41h18.14v152.24h-18.14v-152.24Z"/><path class="cls-3" d="m276.72,628.67h-22.2v-156.29h22.2v156.29h0Zm-18.14-4.05h14.09v-148.19h-14.09v148.19Zm37.39,34.88h18.14v152.24h-18.14v-152.24Z"/><path class="cls-3" d="m316.14,813.77h-22.2v-156.29h22.2v156.29Zm-18.14-4.05h14.09v-148.19h-14.09v148.19Z"/><path class="cls-2" d="m295.97,507.26h18.14v152.24h-18.14v-152.24Z"/><path class="cls-3" d="m316.14,661.53h-22.2v-156.29h22.2v156.29Zm-18.14-4.05h14.09v-148.19h-14.09v148.19Zm37.39-77.8h18.14v152.24h-18.14v-152.24Z"/><path class="cls-3" d="m355.56,733.95h-22.2v-156.29h22.2v156.29Zm-18.14-4.05h14.09v-148.19h-14.09v148.19Z"/><path class="cls-2" d="m335.39,427.44h18.15v152.24h-18.14v-152.24Z"/><path class="cls-3" d="m355.56,581.7h-22.2v-156.29h22.2v156.29Zm-18.14-4.05h14.09v-148.19h-14.09v148.19Zm37.39,39.26h18.15v152.24h-18.15v-152.24Z"/><path class="cls-3" d="m394.99,771.17h-22.2v-156.29h22.2v156.29Zm-18.15-4.05h14.09v-148.19h-14.09v148.19Z"/><path class="cls-2" d="m374.81,464.67h18.15v152.24h-18.15v-152.24Z"/><path class="cls-3" d="m394.99,618.93h-22.2v-156.29h22.2v156.29Zm-18.15-4.05h14.09v-148.19h-14.09v148.19Zm37.4-107.71h18.15v152.24h-18.15v-152.24Z"/><path class="cls-3" d="m434.41,661.44h-22.2v-156.29h22.2v156.29Zm-18.15-4.05h14.09v-148.19h-14.09v148.19Z"/><path class="cls-2" d="m414.24,354.93h18.15v152.24h-18.15v-152.24Z"/><path class="cls-3" d="m434.41,509.2h-22.2v-156.29h22.2v156.29Zm-18.15-4.05h14.09v-148.19h-14.09v148.19Zm37.39-52.9h18.15v152.24h-18.15v-152.24Z"/><path class="cls-3" d="m473.83,606.51h-22.2v-156.29h22.2v156.29Zm-18.15-4.05h14.09v-148.19h-14.09v148.19Z"/><path class="cls-2" d="m453.66,300.01h18.15v152.24h-18.15v-152.24Z"/><path class="cls-3" d="m473.83,454.27h-22.2v-156.29h22.2v156.29Zm-18.15-4.05h14.09v-148.19h-14.09v148.19Zm37.4-33.41h18.15v152.24h-18.15v-152.24Z"/><path class="cls-3" d="m513.25,571.08h-22.2v-156.29h22.2v156.29Zm-18.15-4.05h14.09v-148.19h-14.09v148.19Z"/><path class="cls-2" d="m493.08,264.57h18.15v152.24h-18.15v-152.24Z"/><path class="cls-3" d="m513.25,418.84h-22.2v-156.29h22.2v156.29Zm-18.15-4.05h14.09v-148.19h-14.09v148.19Zm37.39,49.88h18.15v152.24h-18.15v-152.24Z"/><path class="cls-3" d="m552.67,618.93h-22.2v-156.29h22.2v156.29Zm-18.15-4.05h14.09v-148.19h-14.09v148.19Z"/><path class="cls-2" d="m532.5,312.43h18.15v152.24h-18.15v-152.24Z"/><path class="cls-3" d="m552.67,466.69h-22.2v-156.29h22.2v156.29Zm-18.15-4.05h14.09v-148.19h-14.09v148.19Zm37.39-138.15h18.15v152.24h-18.15v-152.24Z"/><path class="cls-3" d="m592.09,478.76h-22.2v-156.29h22.2v156.29Zm-18.15-4.05h14.09v-148.19h-14.09v148.19Z"/><path class="cls-2" d="m571.92,172.25h18.15v152.24h-18.15v-152.24Z"/><path class="cls-3" d="m592.09,326.52h-22.2v-156.29h22.2v156.29Zm-18.15-4.05h14.09v-148.19h-14.09v148.19Zm37.4,49.21h18.15v152.24h-18.15v-152.24Z"/><path class="cls-3" d="m631.51,525.94h-22.2v-156.29h22.2v156.29Zm-18.15-4.05h14.09v-148.19h-14.09v148.19Z"/><path class="cls-2" d="m611.34,219.43h18.15v152.24h-18.15v-152.24Z"/><path class="cls-3" d="m631.51,373.7h-22.2v-156.29h22.2v156.29Zm-18.15-4.05h14.09v-148.19h-14.09v148.19Zm37.39,64.88h18.15v152.24h-18.14v-152.24Z"/><path class="cls-3" d="m670.94,588.79h-22.2v-156.29h22.2v156.29Zm-18.15-4.05h14.09v-148.19h-14.09v148.19Z"/><path class="cls-2" d="m650.76,282.29h18.15v152.24h-18.15v-152.24Z"/><path class="cls-3" d="m670.94,436.55h-22.2v-156.29h22.2v156.29Zm-18.15-4.05h14.09v-148.19h-14.09v148.19Zm37.4-13.31h18.15v152.24h-18.15v-152.24Z"/><path class="cls-3" d="m710.36,573.46h-22.2v-156.29h22.2v156.29Zm-18.15-4.05h14.09v-148.19h-14.09v148.19Z"/><path class="cls-2" d="m690.19,266.95h18.15v152.24h-18.15v-152.24Z"/><path class="cls-3" d="m710.36,421.22h-22.2v-156.29h22.2v156.29Zm-18.15-4.05h14.09v-148.19h-14.09v148.19Zm37.39,41.73h18.15v152.24h-18.15v-152.24Z"/><path class="cls-3" d="m749.78,613.17h-22.2v-156.29h22.2v156.29Zm-18.15-4.05h14.09v-148.19h-14.09v148.19Z"/><path class="cls-2" d="m729.61,306.66h18.15v152.24h-18.15v-152.24Z"/><path class="cls-3" d="m749.78,460.93h-22.2v-156.29h22.2v156.29Zm-18.15-4.05h14.09v-148.19h-14.09v148.19Zm37.39-125.64h18.15v152.24h-18.15v-152.24Z"/><path class="cls-3" d="m789.2,485.5h-22.2v-156.29h22.2v156.29Zm-18.15-4.05h14.09v-148.19h-14.09v148.19Z"/><path class="cls-2" d="m769.03,178.99h18.15v152.24h-18.15v-152.24Z"/><path class="cls-3" d="m789.2,333.26h-22.2v-156.29h22.2v156.29Zm-18.15-4.05h14.09v-148.19h-14.09v148.19Zm37.4,58.96h18.15v152.24h-18.15v-152.24Z"/><path class="cls-3" d="m828.62,542.43h-22.2v-156.29h22.2v156.29Zm-18.15-4.05h14.09v-148.19h-14.09v148.19Z"/><path class="cls-2" d="m808.45,235.92h18.15v152.24h-18.15v-152.24Z"/><path class="cls-3" d="m828.62,390.19h-22.2v-156.29h22.2v156.29Zm-18.15-4.05h14.09v-148.19h-14.09v148.19Zm37.39,34.88h18.15v152.24h-18.15v-152.24Z"/><path class="cls-3" d="m868.04,575.29h-22.2v-156.29h22.2v156.29Zm-18.15-4.05h14.09v-148.19h-14.09v148.19Z"/><path class="cls-2" d="m847.87,268.78h18.14v152.24h-18.15v-152.24Z"/><path class="cls-3" d="m868.04,423.05h-22.2v-156.29h22.2v156.29Zm-18.15-4.05h14.09v-148.19h-14.09v148.19Zm37.39-70.12h18.15v152.24h-18.15v-152.24Z"/><path class="cls-3" d="m907.46,503.14h-22.2v-156.29h22.2v156.29Zm-18.15-4.05h14.09v-148.19h-14.09v148.19Z"/><path class="cls-2" d="m887.29,196.63h18.15v152.24h-18.15v-152.24Z"/><path class="cls-3" d="m907.46,350.9h-22.2v-156.29h22.2v156.29Zm-18.15-4.05h14.09v-148.19h-14.09v148.19Zm37.39,39.26h18.15v152.24h-18.15v-152.24Z"/><path class="cls-3" d="m946.89,540.36h-22.2v-156.29h22.2v156.29Zm-18.15-4.05h14.09v-148.19h-14.09v148.19Z"/><path class="cls-2" d="m926.71,233.86h18.15v152.24h-18.15v-152.24Z"/><path class="cls-3" d="m946.89,388.13h-22.2v-156.29h22.2v156.29Zm-18.15-4.05h14.09v-148.19h-14.09v148.19Zm37.39-107.71h18.15v152.24h-18.15v-152.24Z"/><path class="cls-3" d="m986.31,430.63h-22.2v-156.29h22.2v156.29Zm-18.15-4.05h14.09v-148.19h-14.09v148.19Z"/><path class="cls-2" d="m966.13,124.12h18.15v152.24h-18.15V124.12Z"/><path class="cls-3" d="m986.31,278.39h-22.2V122.09h22.2v156.29Zm-18.15-4.05h14.09V126.15h-14.09v148.19Zm37.4,74.53h18.15v152.24h-18.15v-152.24Z"/><path class="cls-3" d="m1025.73,503.14h-22.2v-156.29h22.2v156.29Zm-18.15-4.05h14.09v-148.19h-14.09v148.19Z"/><path class="cls-2" d="m1005.56,196.63h18.15v152.24h-18.15v-152.24Z"/><path class="cls-3" d="m1025.73,350.9h-22.2v-156.29h22.2v156.29Zm-18.15-4.05h14.09v-148.19h-14.09v148.19Zm37.39,100.95h18.15v152.24h-18.15v-152.24Z"/><path class="cls-3" d="m1065.15,602.06h-22.2v-156.29h22.2v156.29Zm-18.15-4.05h14.09v-148.19h-14.09v148.19Z"/><path class="cls-2" d="m1044.98,295.55h18.15v152.24h-18.15v-152.24Z"/><path class="cls-3" d="m1065.15,449.82h-22.2v-156.29h22.2v156.29Zm-18.15-4.05h14.09v-148.19h-14.09v148.19Zm37.39,104.76h18.15v152.24h-18.15v-152.24Z"/><path class="cls-3" d="m1104.57,704.79h-22.2v-156.29h22.2v156.29Zm-18.15-4.05h14.09v-148.19h-14.09v148.19Z"/><path class="cls-2" d="m1084.4,398.29h18.15v152.24h-18.15v-152.24Z"/><path class="cls-3" d="m1104.57,552.55h-22.2v-156.29h22.2v156.29Zm-18.15-4.05h14.09v-148.19h-14.09v148.19Zm37.4-51.36h18.15v152.24h-18.15v-152.24Z"/><path class="cls-3" d="m1143.99,651.41h-22.2v-156.29h22.2v156.29Zm-18.15-4.05h14.09v-148.19h-14.09v148.19Z"/><path class="cls-2" d="m1123.82,344.9h18.15v152.24h-18.15v-152.24Z"/><path class="cls-3" d="m1143.99,499.17h-22.2v-156.29h22.2v156.29Zm-18.15-4.05h14.09v-148.19h-14.09v148.19Zm-534.57,370.35c0-.68.54-1.22,1.21-1.22s1.22.54,1.22,1.22-.55,1.21-1.22,1.21-1.21-.54-1.21-1.21Zm-8.11,0c0-.68.54-1.22,1.22-1.22s1.21.54,1.21,1.22-.54,1.21-1.21,1.21-1.22-.54-1.22-1.21Zm-8.11,0c0-.68.55-1.22,1.22-1.22s1.21.54,1.21,1.22-.54,1.21-1.21,1.21-1.22-.54-1.22-1.21Zm-8.1,0c0-.68.54-1.22,1.21-1.22s1.22.54,1.22,1.22-.55,1.21-1.22,1.21-1.21-.54-1.21-1.21Zm-8.11,0c0-.68.54-1.22,1.21-1.22s1.22.54,1.22,1.22-.54,1.21-1.22,1.21-1.21-.54-1.21-1.21Zm-8.11,0c0-.68.55-1.22,1.22-1.22s1.21.54,1.21,1.22-.54,1.21-1.21,1.21-1.22-.54-1.22-1.21Zm-8.11,0c0-.68.55-1.22,1.22-1.22s1.22.54,1.22,1.22-.55,1.21-1.22,1.21-1.22-.54-1.22-1.21Zm-8.1,0c0-.68.54-1.22,1.21-1.22s1.22.54,1.22,1.22-.54,1.21-1.22,1.21-1.21-.54-1.21-1.21Zm-8.11,0c0-.68.54-1.22,1.22-1.22s1.21.54,1.21,1.22-.54,1.21-1.21,1.21-1.22-.54-1.22-1.21Zm-8.11,0c0-.68.55-1.22,1.22-1.22s1.22.54,1.22,1.22-.55,1.21-1.22,1.21-1.22-.54-1.22-1.21Zm-8.1,0c0-.68.54-1.22,1.21-1.22s1.22.54,1.22,1.22-.55,1.21-1.22,1.21-1.21-.54-1.21-1.21Zm-8.11,0c0-.68.54-1.22,1.22-1.22s1.21.54,1.21,1.22-.54,1.21-1.21,1.21-1.22-.54-1.22-1.21Zm-8.11,0c0-.68.55-1.22,1.22-1.22s1.21.54,1.21,1.22-.54,1.21-1.21,1.21-1.22-.54-1.22-1.21Zm-8.11,0c0-.68.55-1.22,1.22-1.22s1.22.54,1.22,1.22-.55,1.21-1.22,1.21-1.22-.54-1.22-1.21Zm-8.1,0c0-.68.54-1.22,1.22-1.22s1.21.54,1.21,1.22-.54,1.21-1.21,1.21-1.22-.54-1.22-1.21Zm-8.11,0c0-.68.55-1.22,1.22-1.22s1.21.54,1.21,1.22-.54,1.21-1.21,1.21-1.22-.54-1.22-1.21Zm-8.11,0c0-.68.55-1.22,1.22-1.22s1.22.54,1.22,1.22-.55,1.21-1.22,1.21-1.22-.54-1.22-1.21Zm-8.1,0c0-.68.54-1.22,1.21-1.22s1.22.54,1.22,1.22-.54,1.21-1.22,1.21-1.21-.54-1.21-1.21Zm-8.11,0c0-.68.55-1.22,1.22-1.22s1.21.54,1.21,1.22-.54,1.21-1.21,1.21-1.22-.54-1.22-1.21Zm-8.11,0c0-.68.55-1.22,1.22-1.22s1.22.54,1.22,1.22-.55,1.21-1.22,1.21-1.22-.54-1.22-1.21Zm-8.1,0c0-.68.54-1.22,1.21-1.22s1.22.54,1.22,1.22-.55,1.21-1.22,1.21-1.21-.54-1.21-1.21Zm-8.11,0c0-.68.54-1.22,1.22-1.22s1.21.54,1.21,1.22-.54,1.21-1.21,1.21-1.22-.54-1.22-1.21Zm-8.11,0c0-.68.55-1.22,1.22-1.22s1.22.54,1.22,1.22-.55,1.21-1.22,1.21-1.22-.54-1.22-1.21Zm-8.1,0c0-.68.54-1.22,1.21-1.22s1.22.54,1.22,1.22-.55,1.21-1.22,1.21-1.21-.54-1.21-1.21Zm-8.11,0c0-.68.54-1.22,1.21-1.22s1.22.54,1.22,1.22-.54,1.21-1.22,1.21-1.21-.54-1.21-1.21Zm-8.11,0c0-.68.55-1.22,1.22-1.22s1.21.54,1.21,1.22-.54,1.21-1.21,1.21-1.22-.54-1.22-1.21Zm-8.11,0c0-.68.55-1.22,1.22-1.22s1.22.54,1.22,1.22-.55,1.21-1.22,1.21-1.22-.54-1.22-1.21Zm-8.1,0c0-.68.54-1.22,1.22-1.22s1.21.54,1.21,1.22-.54,1.21-1.21,1.21-1.22-.54-1.22-1.21Zm-8.11,0c0-.68.55-1.22,1.22-1.22s1.21.54,1.21,1.22-.54,1.21-1.21,1.21-1.22-.54-1.22-1.21Zm-8.11,0c0-.68.55-1.22,1.22-1.22s1.22.54,1.22,1.22-.55,1.21-1.22,1.21-1.22-.54-1.22-1.21Zm-8.1,0c0-.68.54-1.22,1.21-1.22s1.22.54,1.22,1.22-.55,1.21-1.22,1.21-1.21-.54-1.21-1.21Zm-8.11,0c0-.68.54-1.22,1.22-1.22s1.21.54,1.21,1.22-.54,1.21-1.21,1.21-1.22-.54-1.22-1.21Zm-8.11,0c0-.68.55-1.22,1.22-1.22s1.21.54,1.21,1.22-.54,1.21-1.21,1.21-1.22-.54-1.22-1.21Zm-8.1,0c0-.68.54-1.22,1.21-1.22s1.22.54,1.22,1.22-.55,1.21-1.22,1.21-1.21-.54-1.21-1.21Zm-8.11,0c0-.68.54-1.22,1.22-1.22s1.21.54,1.21,1.22-.54,1.21-1.21,1.21-1.22-.54-1.22-1.21Zm-8.11,0c0-.68.55-1.22,1.22-1.22s1.21.54,1.21,1.22-.54,1.21-1.21,1.21-1.22-.54-1.22-1.21Zm-8.1,0c0-.68.54-1.22,1.21-1.22s1.22.54,1.22,1.22-.55,1.21-1.22,1.21-1.21-.54-1.21-1.21Zm-8.11,0c0-.68.54-1.22,1.21-1.22s1.22.54,1.22,1.22-.54,1.21-1.22,1.21-1.21-.54-1.21-1.21Zm307.98-.08c0-.68.55-1.22,1.22-1.22s1.21.54,1.21,1.22-.54,1.21-1.21,1.21-1.22-.54-1.22-1.21Zm-315.59-.42c0-.68.55-1.22,1.22-1.22s1.21.54,1.21,1.22-.54,1.21-1.21,1.21-1.22-.54-1.22-1.21Zm315.59-7.69c0-.67.55-1.22,1.22-1.22s1.21.55,1.21,1.22-.54,1.21-1.21,1.21-1.22-.54-1.22-1.21Zm-315.59-.42c0-.67.55-1.22,1.22-1.22s1.21.55,1.21,1.22-.54,1.22-1.21,1.22-1.22-.55-1.22-1.22Zm315.59-7.69c0-.67.55-1.22,1.22-1.22s1.21.55,1.21,1.22-.54,1.22-1.21,1.22-1.22-.55-1.22-1.22Zm-315.59-.42c0-.67.55-1.21,1.22-1.21s1.21.54,1.21,1.21-.54,1.22-1.21,1.22-1.22-.55-1.22-1.22Zm315.59-7.68c0-.68.55-1.22,1.22-1.22s1.21.54,1.21,1.22-.54,1.21-1.21,1.21-1.22-.54-1.22-1.21Zm-315.59-.42c0-.68.55-1.22,1.22-1.22s1.21.54,1.21,1.22-.54,1.21-1.21,1.21-1.22-.54-1.22-1.21Zm315.59-7.69c0-.67.55-1.22,1.22-1.22s1.21.55,1.21,1.22-.54,1.21-1.21,1.21-1.22-.54-1.22-1.21Zm-315.59-.42c0-.67.55-1.22,1.22-1.22s1.21.55,1.21,1.22-.54,1.21-1.21,1.21-1.22-.54-1.22-1.21Zm315.59-7.69c0-.67.55-1.22,1.22-1.22s1.21.55,1.21,1.22-.54,1.22-1.21,1.22-1.22-.55-1.22-1.22Zm-315.59-.42c0-.67.55-1.22,1.22-1.22s1.21.55,1.21,1.22-.54,1.22-1.21,1.22-1.22-.55-1.22-1.22Zm315.59-7.69c0-.67.55-1.21,1.22-1.21s1.21.54,1.21,1.21-.54,1.22-1.21,1.22-1.22-.55-1.22-1.22Zm-315.59-.41c0-.68.55-1.22,1.22-1.22s1.21.54,1.21,1.22-.54,1.21-1.21,1.21-1.22-.54-1.22-1.21Zm315.59-7.69c0-.68.55-1.22,1.22-1.22s1.21.54,1.21,1.22-.54,1.21-1.21,1.21-1.22-.54-1.22-1.21Zm-315.59-.42c0-.67.55-1.22,1.22-1.22s1.21.55,1.21,1.22-.54,1.21-1.21,1.21-1.22-.54-1.22-1.21Zm315.59-7.69c0-.67.55-1.22,1.22-1.22s1.21.55,1.21,1.22-.54,1.21-1.21,1.21-1.22-.54-1.22-1.21Zm-315.59-.42c0-.67.55-1.22,1.22-1.22s1.21.55,1.21,1.22-.54,1.22-1.21,1.22-1.22-.55-1.22-1.22Zm315.59-7.69c0-.67.55-1.21,1.22-1.21s1.21.54,1.21,1.21-.54,1.22-1.21,1.22-1.22-.55-1.22-1.22Zm-315.59-.42c0-.67.55-1.21,1.22-1.21s1.21.54,1.21,1.21-.54,1.22-1.21,1.22-1.22-.54-1.22-1.22Zm315.59-7.68c0-.68.55-1.22,1.22-1.22s1.21.54,1.21,1.22-.54,1.21-1.21,1.21-1.22-.54-1.22-1.21Zm-315.59-.42c0-.67.55-1.22,1.22-1.22s1.21.55,1.21,1.22-.54,1.21-1.21,1.21-1.22-.54-1.22-1.21Zm315.59-7.69c0-.67.55-1.22,1.22-1.22s1.21.55,1.21,1.22-.54,1.22-1.21,1.22-1.22-.55-1.22-1.22Zm-315.59-.42c0-.67.55-1.22,1.22-1.22s1.21.55,1.21,1.22-.54,1.22-1.21,1.22-1.22-.55-1.22-1.22Zm315.59-7.69c0-.67.55-1.21,1.22-1.21s1.21.54,1.21,1.21-.54,1.22-1.21,1.22-1.22-.55-1.22-1.22Zm-315.59-.42c0-.67.55-1.21,1.22-1.21s1.21.54,1.21,1.21-.54,1.22-1.21,1.22-1.22-.55-1.22-1.22Zm315.59-7.69c0-.67.55-1.21,1.22-1.21s1.21.54,1.21,1.21-.54,1.22-1.21,1.22-1.22-.54-1.22-1.22Zm-315.59-.41c0-.68.55-1.22,1.22-1.22s1.21.54,1.21,1.22-.54,1.21-1.21,1.21-1.22-.54-1.22-1.21Zm315.59-7.69c0-.67.55-1.22,1.22-1.22s1.21.55,1.21,1.22-.54,1.21-1.21,1.21-1.22-.54-1.22-1.21Zm-315.59-.42c0-.67.55-1.22,1.22-1.22s1.21.55,1.21,1.22-.54,1.22-1.21,1.22-1.22-.55-1.22-1.22Zm315.59-7.69c0-.67.55-1.22,1.22-1.22s1.21.55,1.21,1.22-.54,1.22-1.21,1.22-1.22-.55-1.22-1.22Zm-315.59-.42c0-.67.55-1.21,1.22-1.21s1.21.54,1.21,1.21-.54,1.22-1.21,1.22-1.22-.55-1.22-1.22Zm315.59-7.69c0-.67.55-1.21,1.22-1.21s1.21.54,1.21,1.21-.54,1.22-1.21,1.22-1.22-.54-1.22-1.22Zm-315.59-.42c0-.67.55-1.21,1.22-1.21s1.21.54,1.21,1.21-.54,1.22-1.21,1.22-1.22-.54-1.22-1.22Zm315.59-7.68c0-.68.55-1.22,1.22-1.22s1.21.54,1.21,1.22-.54,1.21-1.21,1.21-1.22-.54-1.22-1.21Zm-315.59-.42c0-.67.55-1.22,1.22-1.22s1.21.55,1.21,1.22-.54,1.21-1.21,1.21-1.22-.54-1.22-1.21Zm315.59-7.69c0-.67.55-1.22,1.22-1.22s1.21.55,1.21,1.22-.54,1.22-1.21,1.22-1.22-.55-1.22-1.22Zm-315.59-.42c0-.67.55-1.22,1.22-1.22s1.21.55,1.21,1.22-.54,1.22-1.21,1.22-1.22-.55-1.22-1.22Zm315.59-7.69c0-.67.55-1.21,1.22-1.21s1.21.54,1.21,1.21-.54,1.22-1.21,1.22-1.22-.55-1.22-1.22Zm-315.59-.42c0-.67.55-1.21,1.22-1.21s1.21.54,1.21,1.21-.54,1.22-1.21,1.22-1.22-.54-1.22-1.22Zm315.59-7.68c0-.68.55-1.22,1.22-1.22s1.21.54,1.21,1.22-.54,1.21-1.21,1.21-1.22-.54-1.22-1.21Zm-315.59-.42c0-.67.55-1.22,1.22-1.22s1.21.55,1.21,1.22-.54,1.21-1.21,1.21-1.22-.54-1.22-1.21Zm315.59-7.69c0-.67.55-1.22,1.22-1.22s1.21.55,1.21,1.22-.54,1.21-1.21,1.21-1.22-.54-1.22-1.21Zm-315.59-.42c0-.67.55-1.22,1.22-1.22s1.21.55,1.21,1.22-.54,1.22-1.21,1.22-1.22-.55-1.22-1.22Zm315.59-7.69c0-.67.55-1.21,1.22-1.21s1.21.54,1.21,1.21-.54,1.22-1.21,1.22-1.22-.55-1.22-1.22Zm-315.59-.42c0-.67.55-1.21,1.22-1.21s1.21.54,1.21,1.21-.54,1.22-1.21,1.22-1.22-.55-1.22-1.22Zm315.59-7.68c0-.68.55-1.22,1.22-1.22s1.21.54,1.21,1.22-.54,1.21-1.21,1.21-1.22-.54-1.22-1.21Zm-315.59-.42c0-.67.55-1.22,1.22-1.22s1.21.55,1.21,1.22-.54,1.21-1.21,1.21-1.22-.54-1.22-1.21Zm315.59-7.69c0-.67.55-1.22,1.22-1.22s1.21.55,1.21,1.22-.54,1.21-1.21,1.21-1.22-.54-1.22-1.21Zm-315.59-.42c0-.67.55-1.22,1.22-1.22s1.21.55,1.21,1.22-.54,1.21-1.21,1.21-1.22-.54-1.22-1.21Zm315.59-7.69c0-.67.55-1.22,1.22-1.22s1.21.55,1.21,1.22-.54,1.22-1.21,1.22-1.22-.55-1.22-1.22Zm-315.59-.42c0-.67.55-1.21,1.22-1.21s1.21.54,1.21,1.21-.54,1.22-1.21,1.22-1.22-.55-1.22-1.22Zm315.59-7.69c0-.67.55-1.21,1.22-1.21s1.21.54,1.21,1.21-.54,1.22-1.21,1.22-1.22-.55-1.22-1.22Zm-315.59-.41c0-.68.55-1.22,1.22-1.22s1.21.54,1.21,1.22-.54,1.21-1.21,1.21-1.22-.54-1.22-1.21Zm315.59-7.69c0-.68.55-1.22,1.22-1.22s1.21.54,1.21,1.22-.54,1.21-1.21,1.21-1.22-.54-1.22-1.21Zm-315.59-.42c0-.67.55-1.22,1.22-1.22s1.21.55,1.21,1.22-.54,1.21-1.21,1.21-1.22-.54-1.22-1.21Zm315.59-7.69c0-.67.55-1.22,1.22-1.22s1.21.55,1.21,1.22-.54,1.22-1.21,1.22-1.22-.55-1.22-1.22Zm-315.59-.42c0-.67.55-1.21,1.22-1.21s1.21.54,1.21,1.21-.54,1.22-1.21,1.22-1.22-.55-1.22-1.22Zm315.59-7.69c0-.67.55-1.21,1.22-1.21s1.21.54,1.21,1.21-.54,1.22-1.21,1.22-1.22-.55-1.22-1.22Zm-315.59-.42c0-.67.55-1.21,1.22-1.21s1.21.54,1.21,1.21-.54,1.22-1.21,1.22-1.22-.54-1.22-1.22Zm315.59-7.68c0-.68.55-1.22,1.22-1.22s1.21.54,1.21,1.22-.54,1.21-1.21,1.21-1.22-.54-1.22-1.21Zm-315.59-.42c0-.67.55-1.22,1.22-1.22s1.21.55,1.21,1.22-.54,1.21-1.21,1.21-1.22-.54-1.22-1.21Zm315.59-7.69c0-.67.55-1.22,1.22-1.22s1.21.55,1.21,1.22-.54,1.22-1.21,1.22-1.22-.55-1.22-1.22Zm-315.59-.42c0-.67.55-1.22,1.22-1.22s1.21.55,1.21,1.22-.54,1.22-1.21,1.22-1.22-.55-1.22-1.22Zm315.59-7.69c0-.67.55-1.21,1.22-1.21s1.21.54,1.21,1.21-.54,1.22-1.21,1.22-1.22-.55-1.22-1.22Zm-315.59-.42c0-.67.55-1.21,1.22-1.21s1.21.54,1.21,1.21-.54,1.22-1.21,1.22-1.22-.55-1.22-1.22Zm315.59-7.69c0-.67.55-1.21,1.22-1.21s1.21.54,1.21,1.21-.54,1.22-1.21,1.22-1.22-.54-1.22-1.22Zm-315.59-.41c0-.68.55-1.22,1.22-1.22s1.21.54,1.21,1.22-.54,1.21-1.21,1.21-1.22-.54-1.22-1.21Zm315.59-7.69c0-.67.55-1.22,1.22-1.22s1.21.55,1.21,1.22-.54,1.21-1.21,1.21-1.22-.54-1.22-1.21Zm-315.59-.42c0-.67.55-1.22,1.22-1.22s1.21.55,1.21,1.22-.54,1.22-1.21,1.22-1.22-.55-1.22-1.22Zm315.59-7.69c0-.67.55-1.22,1.22-1.22s1.21.55,1.21,1.22-.54,1.22-1.21,1.22-1.22-.55-1.22-1.22Zm-315.59-.42c0-.67.55-1.21,1.22-1.21s1.21.54,1.21,1.21-.54,1.22-1.21,1.22-1.22-.55-1.22-1.22Zm315.59-7.69c0-.67.55-1.21,1.22-1.21s1.21.54,1.21,1.21-.54,1.22-1.21,1.22-1.22-.54-1.22-1.22Zm-315.59-.42c0-.67.55-1.21,1.22-1.21s1.21.54,1.21,1.21-.54,1.22-1.21,1.22-1.22-.54-1.22-1.22Zm315.59-7.68c0-.68.55-1.22,1.22-1.22s1.21.54,1.21,1.22-.54,1.21-1.21,1.21-1.22-.54-1.22-1.21Zm-315.59-.42c0-.67.55-1.22,1.22-1.22s1.21.55,1.21,1.22-.54,1.21-1.21,1.21-1.22-.54-1.22-1.21Zm315.59-7.69c0-.67.55-1.22,1.22-1.22s1.21.55,1.21,1.22-.54,1.22-1.21,1.22-1.22-.55-1.22-1.22Zm-315.59-.42c0-.67.55-1.22,1.22-1.22s1.21.55,1.21,1.22-.54,1.22-1.21,1.22-1.22-.55-1.22-1.22Zm315.59-7.69c0-.67.55-1.21,1.22-1.21s1.21.54,1.21,1.21-.54,1.22-1.21,1.22-1.22-.55-1.22-1.22Zm-315.59-.41c0-.68.55-1.22,1.22-1.22s1.21.54,1.21,1.22-.54,1.21-1.21,1.21-1.22-.54-1.22-1.21Zm315.59-7.69c0-.68.55-1.22,1.22-1.22s1.21.54,1.21,1.22-.54,1.21-1.21,1.21-1.22-.54-1.22-1.21Zm-315.59-.42c0-.67.55-1.22,1.22-1.22s1.21.55,1.21,1.22-.54,1.21-1.21,1.21-1.22-.54-1.22-1.21Zm315.59-7.69c0-.67.55-1.22,1.22-1.22s1.21.55,1.21,1.22-.54,1.21-1.21,1.21-1.22-.54-1.22-1.21Zm-315.59-.42c0-.67.55-1.22,1.22-1.22s1.21.55,1.21,1.22-.54,1.22-1.21,1.22-1.22-.55-1.22-1.22Zm315.59-7.69c0-.67.55-1.21,1.22-1.21s1.21.54,1.21,1.21-.54,1.22-1.21,1.22-1.22-.55-1.22-1.22Zm-315.59-.42c0-.67.55-1.21,1.22-1.21s1.21.54,1.21,1.21-.54,1.22-1.21,1.22-1.22-.55-1.22-1.22Zm315.59-7.68c0-.68.55-1.22,1.22-1.22s1.21.54,1.21,1.22-.54,1.21-1.21,1.21-1.22-.54-1.22-1.21Zm-315.59-.42c0-.67.55-1.22,1.22-1.22s1.21.55,1.21,1.22-.54,1.21-1.21,1.21-1.22-.54-1.22-1.21Zm315.59-7.69c0-.67.55-1.22,1.22-1.22s1.21.55,1.21,1.22-.54,1.21-1.21,1.21-1.22-.54-1.22-1.21Zm-315.59-.42c0-.67.55-1.22,1.22-1.22s1.21.55,1.21,1.22-.54,1.21-1.21,1.21-1.22-.54-1.22-1.21Zm315.59-7.69c0-.67.55-1.21,1.22-1.21s1.21.54,1.21,1.21-.54,1.22-1.21,1.22-1.22-.55-1.22-1.22Zm-315.59-.42c0-.67.55-1.21,1.22-1.21s1.21.54,1.21,1.21-.54,1.22-1.21,1.22-1.22-.55-1.22-1.22Zm315.59-7.69c0-.67.55-1.21,1.22-1.21s1.21.54,1.21,1.21-.54,1.22-1.21,1.22-1.22-.55-1.22-1.22Zm-315.59-.41c0-.68.55-1.22,1.22-1.22s1.21.54,1.21,1.22-.54,1.21-1.21,1.21-1.22-.54-1.22-1.21Zm315.59-7.69c0-.67.55-1.22,1.22-1.22s1.21.55,1.21,1.22-.54,1.21-1.21,1.21-1.22-.54-1.22-1.21Zm-315.59-.42c0-.67.55-1.22,1.22-1.22s1.21.55,1.21,1.22-.54,1.21-1.21,1.21-1.22-.54-1.22-1.21Zm315.59-7.69c0-.67.55-1.22,1.22-1.22s1.21.55,1.21,1.22-.54,1.22-1.21,1.22-1.22-.55-1.22-1.22Zm-315.59-.42c0-.67.55-1.21,1.22-1.21s1.21.54,1.21,1.21-.54,1.22-1.21,1.22-1.22-.55-1.22-1.22Zm315.59-7.69c0-.67.55-1.21,1.22-1.21s1.21.54,1.21,1.21-.54,1.22-1.21,1.22-1.22-.54-1.22-1.22Zm-315.59-.42c0-.67.55-1.21,1.22-1.21s1.21.54,1.21,1.21-.54,1.22-1.21,1.22-1.22-.54-1.22-1.22Zm315.59-7.68c0-.68.55-1.22,1.22-1.22s1.21.54,1.21,1.22-.54,1.21-1.21,1.21-1.22-.54-1.22-1.21Zm-315.59-.42c0-.67.55-1.22,1.22-1.22s1.21.55,1.21,1.22-.54,1.21-1.21,1.21-1.22-.54-1.22-1.21Zm315.59-7.69c0-.67.55-1.22,1.22-1.22s1.21.55,1.21,1.22-.54,1.22-1.21,1.22-1.22-.55-1.22-1.22Zm-315.59-.42c0-.67.55-1.22,1.22-1.22s1.21.55,1.21,1.22-.54,1.22-1.21,1.22-1.22-.55-1.22-1.22Zm315.59-7.69c0-.67.55-1.21,1.22-1.21s1.21.54,1.21,1.21-.54,1.22-1.21,1.22-1.22-.55-1.22-1.22Zm-315.59-.42c0-.67.55-1.21,1.22-1.21s1.21.54,1.21,1.21-.54,1.22-1.21,1.22-1.22-.54-1.22-1.22Zm315.59-7.68c0-.68.55-1.22,1.22-1.22s1.21.54,1.21,1.22-.54,1.21-1.21,1.21-1.22-.54-1.22-1.21Zm-315.59-.42c0-.68.55-1.22,1.22-1.22s1.21.54,1.21,1.22-.54,1.21-1.21,1.21-1.22-.54-1.22-1.21Zm315.59-7.69c0-.67.55-1.22,1.22-1.22s1.21.55,1.21,1.22-.54,1.21-1.21,1.21-1.22-.54-1.22-1.21Zm-315.59-.42c0-.67.55-1.22,1.22-1.22s1.21.55,1.21,1.22-.54,1.22-1.21,1.22-1.22-.55-1.22-1.22Zm315.59-7.69c0-.67.55-1.22,1.22-1.22s1.21.55,1.21,1.22-.54,1.22-1.21,1.22-1.22-.55-1.22-1.22Zm-315.59-.42c0-.67.55-1.21,1.22-1.21s1.21.54,1.21,1.21-.54,1.22-1.21,1.22-1.22-.55-1.22-1.22Zm315.59-7.69c0-.67.55-1.21,1.22-1.21s1.21.54,1.21,1.21-.54,1.22-1.21,1.22-1.22-.54-1.22-1.22Zm-315.59-.41c0-.68.55-1.22,1.22-1.22s1.21.54,1.21,1.22-.54,1.21-1.21,1.21-1.22-.54-1.22-1.21Zm315.59-7.69c0-.67.55-1.22,1.22-1.22s1.21.55,1.21,1.22-.54,1.21-1.21,1.21-1.22-.54-1.22-1.21Zm-315.59-.42c0-.67.55-1.22,1.22-1.22s1.21.55,1.21,1.22-.54,1.21-1.21,1.21-1.22-.54-1.22-1.21Zm315.59-7.69c0-.67.55-1.22,1.22-1.22s1.21.55,1.21,1.22-.54,1.22-1.21,1.22-1.22-.55-1.22-1.22Zm-315.59-.42c0-.67.55-1.21,1.22-1.21s1.21.54,1.21,1.21-.54,1.22-1.21,1.22-1.22-.55-1.22-1.22Zm315.59-7.69c0-.67.55-1.21,1.22-1.21s1.21.54,1.21,1.21-.54,1.22-1.21,1.22-1.22-.55-1.22-1.22Zm-315.59-.41c0-.68.55-1.22,1.22-1.22s1.21.54,1.21,1.22-.54,1.21-1.21,1.21-1.22-.54-1.22-1.21Zm315.59-7.69c0-.67.55-1.22,1.22-1.22s1.21.55,1.21,1.22-.54,1.21-1.21,1.21-1.22-.54-1.22-1.21Zm-315.59-.42c0-.67.55-1.22,1.22-1.22s1.21.55,1.21,1.22-.54,1.21-1.21,1.21-1.22-.54-1.22-1.21Zm315.59-7.69c0-.67.55-1.22,1.22-1.22s1.21.55,1.21,1.22-.54,1.21-1.21,1.21-1.22-.54-1.22-1.21Zm-315.59-.42c0-.67.55-1.21,1.22-1.21s1.21.54,1.21,1.21-.54,1.22-1.21,1.22-1.22-.55-1.22-1.22Zm315.59-7.69c0-.67.55-1.21,1.22-1.21s1.21.54,1.21,1.21-.54,1.22-1.21,1.22-1.22-.55-1.22-1.22Zm-315.59-.42c0-.67.55-1.21,1.22-1.21s1.21.54,1.21,1.21-.54,1.22-1.21,1.22-1.22-.54-1.22-1.22Zm315.59-7.68c0-.68.55-1.22,1.22-1.22s1.21.54,1.21,1.22-.54,1.21-1.21,1.21-1.22-.54-1.22-1.21Zm-315.59-.42c0-.67.55-1.22,1.22-1.22s1.21.55,1.21,1.22-.54,1.21-1.21,1.21-1.22-.54-1.22-1.21Zm315.59-7.69c0-.67.55-1.22,1.22-1.22s1.21.55,1.21,1.22-.54,1.21-1.21,1.21-1.22-.54-1.22-1.21Zm-315.59-.42c0-.67.55-1.22,1.22-1.22s1.21.55,1.21,1.22-.54,1.22-1.21,1.22-1.22-.55-1.22-1.22Zm315.59-7.69c0-.67.55-1.21,1.22-1.21s1.21.54,1.21,1.21-.54,1.22-1.21,1.22-1.22-.55-1.22-1.22Zm-315.59-.42c0-.67.55-1.21,1.22-1.21s1.21.54,1.21,1.21-.54,1.22-1.21,1.22-1.22-.55-1.22-1.22Zm315.59-7.69c0-.67.55-1.21,1.22-1.21s1.21.54,1.21,1.21-.54,1.22-1.21,1.22-1.22-.54-1.22-1.22Zm-315.59-.41c0-.68.55-1.22,1.22-1.22s1.21.54,1.21,1.22-.54,1.21-1.21,1.21-1.22-.54-1.22-1.21Zm315.59-7.69c0-.67.55-1.22,1.22-1.22s1.21.55,1.21,1.22-.54,1.21-1.21,1.21-1.22-.54-1.22-1.21Zm-315.59-.42c0-.67.55-1.22,1.22-1.22s1.21.55,1.21,1.22-.54,1.22-1.21,1.22-1.22-.55-1.22-1.22Zm315.59-7.69c0-.67.55-1.22,1.22-1.22s1.21.55,1.21,1.22-.54,1.22-1.21,1.22-1.22-.55-1.22-1.22Zm-315.59-.42c0-.67.55-1.21,1.22-1.21s1.21.54,1.21,1.21-.54,1.22-1.21,1.22-1.22-.55-1.22-1.22Zm315.59-7.69c0-.67.55-1.21,1.22-1.21s1.21.54,1.21,1.21-.54,1.22-1.21,1.22-1.22-.54-1.22-1.22Zm-315.59-.41c0-.68.55-1.22,1.22-1.22s1.21.54,1.21,1.22-.54,1.21-1.21,1.21-1.22-.54-1.22-1.21Zm315.59-7.69c0-.67.55-1.22,1.22-1.22s1.21.55,1.21,1.22-.54,1.21-1.21,1.21-1.22-.54-1.22-1.21Zm-315.59-.42c0-.67.55-1.22,1.22-1.22s1.21.55,1.21,1.22-.54,1.21-1.21,1.21-1.22-.54-1.22-1.21Zm315.59-7.69c0-.67.55-1.22,1.22-1.22s1.21.55,1.21,1.22-.54,1.22-1.21,1.22-1.22-.55-1.22-1.22Zm-315.59-.42c0-.67.55-1.22,1.22-1.22s1.21.55,1.21,1.22-.54,1.22-1.21,1.22-1.22-.55-1.22-1.22Zm315.59-7.69c0-.67.55-1.21,1.22-1.21s1.21.54,1.21,1.21-.54,1.22-1.21,1.22-1.22-.55-1.22-1.22Zm-315.59-.41c0-.68.55-1.22,1.22-1.22s1.21.54,1.21,1.22-.54,1.21-1.21,1.21-1.22-.54-1.22-1.21Zm315.59-7.69c0-.68.55-1.22,1.22-1.22s1.21.54,1.21,1.22-.54,1.21-1.21,1.21-1.22-.54-1.22-1.21Zm-315.59-.42c0-.67.55-1.22,1.22-1.22s1.21.55,1.21,1.22-.54,1.21-1.21,1.21-1.22-.54-1.22-1.21Zm315.59-7.69c0-.67.55-1.22,1.22-1.22s1.21.55,1.21,1.22-.54,1.21-1.21,1.21-1.22-.54-1.22-1.21Zm-315.59-.42c0-.67.55-1.22,1.22-1.22s1.21.55,1.21,1.22-.54,1.22-1.21,1.22-1.22-.55-1.22-1.22Zm315.59-7.69c0-.67.55-1.21,1.22-1.21s1.21.54,1.21,1.21-.54,1.22-1.21,1.22-1.22-.55-1.22-1.22Zm-315.59-.42c0-.67.55-1.21,1.22-1.21s1.21.54,1.21,1.21-.54,1.22-1.21,1.22-1.22-.54-1.22-1.22Zm315.59-7.68c0-.68.55-1.22,1.22-1.22s1.21.54,1.21,1.22-.54,1.21-1.21,1.21-1.22-.54-1.22-1.21Zm-315.59-.42c0-.67.55-1.22,1.22-1.22s1.21.55,1.21,1.22-.54,1.21-1.21,1.21-1.22-.54-1.22-1.21Zm315.59-7.69c0-.67.55-1.22,1.22-1.22s1.21.55,1.21,1.22-.54,1.21-1.21,1.21-1.22-.54-1.22-1.21Zm-315.59-.42c0-.67.55-1.22,1.22-1.22s1.21.55,1.21,1.22-.54,1.21-1.21,1.21-1.22-.54-1.22-1.21Zm315.59-7.69c0-.67.55-1.22,1.22-1.22s1.21.55,1.21,1.22-.54,1.22-1.21,1.22-1.22-.55-1.22-1.22Zm-315.59-.42c0-.67.55-1.21,1.22-1.21s1.21.54,1.21,1.21-.54,1.22-1.21,1.22-1.22-.55-1.22-1.22Zm315.59-7.69c0-.67.55-1.21,1.22-1.21s1.21.54,1.21,1.21-.54,1.22-1.21,1.22-1.22-.55-1.22-1.22Zm-315.59-.41c0-.68.55-1.22,1.22-1.22s1.21.54,1.21,1.22-.54,1.21-1.21,1.21-1.22-.54-1.22-1.21Zm315.59-7.69c0-.68.55-1.22,1.22-1.22s1.21.54,1.21,1.22-.54,1.21-1.21,1.21-1.22-.54-1.22-1.21Zm-315.59-.42c0-.67.55-1.22,1.22-1.22s1.21.55,1.21,1.22-.54,1.22-1.21,1.22-1.22-.55-1.22-1.22Zm315.59-7.69c0-.67.55-1.22,1.22-1.22s1.21.55,1.21,1.22-.54,1.22-1.21,1.22-1.22-.55-1.22-1.22Zm-315.59-.42c0-.67.55-1.21,1.22-1.21s1.21.54,1.21,1.21-.54,1.22-1.21,1.22-1.22-.55-1.22-1.22Zm315.59-7.69c0-.67.55-1.21,1.22-1.21s1.21.54,1.21,1.21-.54,1.22-1.21,1.22-1.22-.55-1.22-1.22Zm-315.59-.42c0-.67.55-1.21,1.22-1.21s1.21.54,1.21,1.21-.54,1.22-1.21,1.22-1.22-.54-1.22-1.22Zm315.59-7.68c0-.68.55-1.22,1.22-1.22s1.21.54,1.21,1.22-.54,1.21-1.21,1.21-1.22-.54-1.22-1.21Zm-315.59-.42c0-.67.55-1.22,1.22-1.22s1.21.55,1.21,1.22-.54,1.21-1.21,1.21-1.22-.54-1.22-1.21Zm315.59-7.69c0-.67.55-1.22,1.22-1.22s1.21.55,1.21,1.22-.54,1.22-1.21,1.22-1.22-.55-1.22-1.22Zm-315.59-.42c0-.67.55-1.22,1.22-1.22s1.21.55,1.21,1.22-.54,1.22-1.21,1.22-1.22-.55-1.22-1.22Zm315.59-7.69c0-.67.55-1.21,1.22-1.21s1.21.54,1.21,1.21-.54,1.22-1.21,1.22-1.22-.55-1.22-1.22Zm-315.59-.42c0-.67.55-1.21,1.22-1.21s1.21.54,1.21,1.21-.54,1.22-1.21,1.22-1.22-.54-1.22-1.22Zm315.59-7.68c0-.68.55-1.22,1.22-1.22s1.21.54,1.21,1.22-.54,1.21-1.21,1.21-1.22-.54-1.22-1.21Zm-315.59-.42c0-.68.55-1.22,1.22-1.22s1.21.54,1.21,1.22-.54,1.21-1.21,1.21-1.22-.54-1.22-1.21Zm315.59-7.69c0-.67.55-1.22,1.22-1.22s1.21.55,1.21,1.22-.54,1.21-1.21,1.21-1.22-.54-1.22-1.21Zm-315.59-.42c0-.67.55-1.22,1.22-1.22s1.21.55,1.21,1.22-.54,1.22-1.21,1.22-1.22-.55-1.22-1.22Zm315.59-7.69c0-.67.55-1.22,1.22-1.22s1.21.55,1.21,1.22-.54,1.22-1.21,1.22-1.22-.55-1.22-1.22Zm-315.59-.42c0-.67.55-1.21,1.22-1.21s1.21.54,1.21,1.21-.54,1.22-1.21,1.22-1.22-.55-1.22-1.22Zm315.59-7.68c0-.68.55-1.22,1.22-1.22s1.21.54,1.21,1.22-.54,1.21-1.21,1.21-1.22-.54-1.22-1.21Zm-315.59-.42c0-.68.55-1.22,1.22-1.22s1.21.54,1.21,1.22-.54,1.21-1.21,1.21-1.22-.54-1.22-1.21Zm315.59-7.69c0-.67.55-1.22,1.22-1.22s1.21.55,1.21,1.22-.54,1.21-1.21,1.21-1.22-.54-1.22-1.21Zm-315.59-.42c0-.67.55-1.22,1.22-1.22s1.21.55,1.21,1.22-.54,1.21-1.21,1.21-1.22-.54-1.22-1.21Zm315.59-7.69c0-.67.55-1.22,1.22-1.22s1.21.55,1.21,1.22-.54,1.22-1.21,1.22-1.22-.55-1.22-1.22Zm-315.59-.42c0-.67.55-1.21,1.22-1.21s1.21.54,1.21,1.21-.54,1.22-1.21,1.22-1.22-.55-1.22-1.22Zm315.59-7.69c0-.17.04-.34.11-.5-.07-.15-.11-.32-.11-.5,0-.67.55-1.21,1.22-1.21s1.21.54,1.21,1.21c0,.18-.03.35-.1.5.07.16.1.33.1.5,0,.67-.54,1.22-1.21,1.22s-1.22-.55-1.22-1.22Zm-315.59-.41c0-.68.55-1.22,1.22-1.22s1.21.54,1.21,1.22-.54,1.21-1.21,1.21-1.22-.54-1.22-1.21Zm307.48-.59c0-.67.55-1.21,1.22-1.21s1.22.54,1.22,1.21-.55,1.22-1.22,1.22-1.22-.55-1.22-1.22Zm-8.1,0c0-.67.54-1.21,1.21-1.21s1.22.54,1.22,1.21-.54,1.22-1.22,1.22-1.21-.55-1.21-1.22Zm-8.11,0c0-.67.54-1.21,1.22-1.21s1.21.54,1.21,1.21-.54,1.22-1.21,1.22-1.22-.55-1.22-1.22Zm-8.11,0c0-.67.55-1.21,1.22-1.21s1.22.54,1.22,1.21-.55,1.22-1.22,1.22-1.22-.55-1.22-1.22Zm-8.1,0c0-.67.54-1.21,1.21-1.21s1.22.54,1.22,1.21-.54,1.22-1.22,1.22-1.21-.55-1.21-1.22Zm-8.11,0c0-.67.54-1.21,1.22-1.21s1.21.54,1.21,1.21-.54,1.22-1.21,1.22-1.22-.55-1.22-1.22Zm-8.11,0c0-.67.55-1.21,1.22-1.21s1.22.54,1.22,1.21-.55,1.22-1.22,1.22-1.22-.55-1.22-1.22Zm-8.1,0c0-.67.54-1.21,1.21-1.21s1.22.54,1.22,1.21-.55,1.22-1.22,1.22-1.21-.55-1.21-1.22Zm-8.11,0c0-.67.54-1.21,1.22-1.21s1.21.54,1.21,1.21-.54,1.22-1.21,1.22-1.22-.55-1.22-1.22Zm-8.11,0c0-.67.55-1.21,1.22-1.21s1.21.54,1.21,1.21-.54,1.22-1.21,1.22-1.22-.55-1.22-1.22Zm-8.1,0c0-.67.54-1.21,1.21-1.21s1.22.54,1.22,1.21-.55,1.22-1.22,1.22-1.21-.55-1.21-1.22Zm-8.11,0c0-.67.54-1.21,1.21-1.21s1.22.54,1.22,1.21-.54,1.22-1.22,1.22-1.21-.55-1.21-1.22Zm-8.11,0c0-.67.55-1.21,1.22-1.21s1.21.54,1.21,1.21-.54,1.22-1.21,1.22-1.22-.55-1.22-1.22Zm-8.11,0c0-.67.55-1.21,1.22-1.21s1.22.54,1.22,1.21-.55,1.22-1.22,1.22-1.22-.55-1.22-1.22Zm-8.1,0c0-.67.54-1.21,1.21-1.21s1.22.54,1.22,1.21-.55,1.22-1.22,1.22-1.21-.55-1.21-1.22Zm-8.11,0c0-.67.54-1.21,1.22-1.21s1.21.54,1.21,1.21-.54,1.22-1.21,1.22-1.22-.55-1.22-1.22Zm-8.11,0c0-.67.55-1.21,1.22-1.21s1.22.54,1.22,1.21-.55,1.22-1.22,1.22-1.22-.55-1.22-1.22Zm-8.1,0c0-.67.54-1.21,1.21-1.21s1.22.54,1.22,1.21-.55,1.22-1.22,1.22-1.21-.55-1.21-1.22Zm-8.11,0c0-.67.54-1.21,1.21-1.21s1.22.54,1.22,1.21-.54,1.22-1.22,1.22-1.21-.55-1.21-1.22Zm-8.11,0c0-.67.55-1.21,1.22-1.21s1.21.54,1.21,1.21-.54,1.22-1.21,1.22-1.22-.55-1.22-1.22Zm-8.11,0c0-.67.55-1.21,1.22-1.21s1.22.54,1.22,1.21-.55,1.22-1.22,1.22-1.22-.55-1.22-1.22Zm-8.1,0c0-.67.54-1.21,1.22-1.21s1.21.54,1.21,1.21-.54,1.22-1.21,1.22-1.22-.55-1.22-1.22Zm-8.11,0c0-.67.55-1.21,1.22-1.21s1.21.54,1.21,1.21-.54,1.22-1.21,1.22-1.22-.55-1.22-1.22Zm-8.11,0c0-.67.55-1.21,1.22-1.21s1.22.54,1.22,1.21-.55,1.22-1.22,1.22-1.22-.55-1.22-1.22Zm-8.1,0c0-.67.54-1.21,1.21-1.21s1.22.54,1.22,1.21-.54,1.22-1.22,1.22-1.21-.55-1.21-1.22Zm-8.11,0c0-.67.55-1.21,1.22-1.21s1.21.54,1.21,1.21-.54,1.22-1.21,1.22-1.22-.55-1.22-1.22Zm-8.11,0c0-.67.55-1.21,1.22-1.21s1.22.54,1.22,1.21-.55,1.22-1.22,1.22-1.22-.55-1.22-1.22Zm-8.1,0c0-.67.54-1.21,1.21-1.21s1.22.54,1.22,1.21-.55,1.22-1.22,1.22-1.21-.55-1.21-1.22Zm-8.11,0c0-.67.54-1.21,1.22-1.21s1.21.54,1.21,1.21-.54,1.22-1.21,1.22-1.22-.55-1.22-1.22Zm-8.11,0c0-.67.55-1.21,1.22-1.21s1.21.54,1.21,1.21-.54,1.22-1.21,1.22-1.22-.55-1.22-1.22Zm-8.1,0c0-.67.54-1.21,1.21-1.21s1.22.54,1.22,1.21-.55,1.22-1.22,1.22-1.21-.55-1.21-1.22Zm-8.11,0c0-.67.54-1.21,1.21-1.21s1.22.54,1.22,1.21-.54,1.22-1.22,1.22-1.21-.55-1.21-1.22Zm-8.11,0c0-.67.55-1.21,1.22-1.21s1.21.54,1.21,1.21-.54,1.22-1.21,1.22-1.22-.55-1.22-1.22Zm-8.11,0c0-.67.55-1.21,1.22-1.21s1.22.54,1.22,1.21-.55,1.22-1.22,1.22-1.22-.55-1.22-1.22Zm-8.1,0c0-.67.54-1.21,1.21-1.21s1.22.54,1.22,1.21-.54,1.22-1.22,1.22-1.21-.55-1.21-1.22Zm-8.11,0c0-.67.54-1.21,1.22-1.21s1.21.54,1.21,1.21-.54,1.22-1.21,1.22-1.22-.55-1.22-1.22Zm-8.11,0c0-.67.55-1.21,1.22-1.21s1.22.54,1.22,1.21-.55,1.22-1.22,1.22-1.22-.55-1.22-1.22Zm-8.1,0c0-.67.54-1.21,1.21-1.21s1.22.54,1.22,1.21-.55,1.22-1.22,1.22-1.21-.55-1.21-1.22Z"/><path class="cls-3" d="m778.67,912.13l-89.81-24.06-89.81-24.06,24.07,89.81,24.06,89.81,44.05-59.87,44.32,44.32,27.58-27.57-44.32-44.32,59.87-44.05Z"/><circle class="cls-2" cx="828.09" cy="924.06" r="35.09"/><path class="cls-3" d="m828.09,961.18c-20.47,0-37.12-16.65-37.12-37.12s16.65-37.12,37.12-37.12,37.12,16.65,37.12,37.12-16.65,37.12-37.12,37.12h0Zm0-70.18c-18.23,0-33.07,14.83-33.07,33.06s14.83,33.06,33.07,33.06,33.07-14.83,33.07-33.06-14.83-33.06-33.07-33.06Z"/><path class="cls-3" d="m846.44,955.48l-3.99-.73c.01-.06,1.17-6.57-.19-13.39-1.73-8.69-6.62-13.84-14.55-15.31l.74-3.98c18.47,3.42,19.84,23.35,17.99,33.41h0Z"/><path class="cls-3" d="m861.85,926.96c-.05-.04-5.11-4.3-11.69-6.53-8.39-2.84-15.29-1.18-20.53,4.95l-3.08-2.63c12.2-14.28,30.14-5.51,37.93,1.13l-2.63,3.09Z"/><path class="cls-3" d="m826.18,924.74c-6.27-17.7,10.3-28.86,19.94-32.28l1.36,3.82c-.06.02-6.28,2.28-11.5,6.86-6.66,5.84-8.67,12.66-5.98,20.25l-3.82,1.35Z"/><path class="cls-3" d="m827.72,926.06c-18.47-3.42-19.84-23.35-17.99-33.41l3.99.73c-.01.06-1.17,6.57.19,13.39,1.73,8.69,6.62,13.84,14.55,15.31l-.74,3.99Z"/><path class="cls-3" d="m813.47,933.06c-8.63,0-17.06-4.8-21.77-8.81l2.63-3.09s5.11,4.3,11.69,6.53c8.39,2.85,15.29,1.18,20.53-4.95l3.08,2.63c-4.82,5.64-10.53,7.68-16.16,7.68h0Z"/><path class="cls-3" d="m810.06,955.67l-1.36-3.82c.06-.02,6.28-2.28,11.5-6.86,6.66-5.84,8.67-12.66,5.98-20.25l3.82-1.35c6.27,17.7-10.3,28.86-19.94,32.28ZM700.36,20.15l-5.11,11.5,5.11,11.5-11.5-5.11-11.5,5.11,5.1-11.5-5.1-11.5,11.5,5.11,11.5-5.11Zm385.76,129.1l-5.11,11.5,5.11,11.5-11.5-5.11-11.5,5.11,5.1-11.5-5.1-11.5,11.5,5.11,11.5-5.11Zm-197.11,574.87l-5.11,11.5,5.11,11.5-11.5-5.11-11.5,5.11,5.1-11.5-5.1-11.5,11.5,5.11,11.5-5.11ZM218.85,188.74l-5.11,11.5,5.11,11.5-11.5-5.11-11.5,5.11,5.1-11.5-5.1-11.5,11.5,5.11,11.5-5.11Zm-99.42,625.59l-5.11,11.5,5.11,11.5-11.5-5.11-11.5,5.11,5.1-11.5-5.1-11.5,11.5,5.11,11.5-5.11Z"/></svg>