<?xml version="1.0" encoding="UTF-8"?><svg id="Calque_1" xmlns="http://www.w3.org/2000/svg" viewBox="0 0 1274.67 1000"><defs><style>.cls-1{fill:#f1cf25;}.cls-2{fill:#fff;}.cls-3{fill:#231f20;}</style></defs><circle class="cls-1" cx="990.7" cy="301.19" r="263.51"/><path class="cls-3" d="m903.06,207.19h-250.08v-3.05h250.08v3.05Z"/><path class="cls-3" d="m779.54,330.7h-3.05V80.63h3.05v250.08Z"/><path class="cls-3" d="m734.81,205.66c0-69.48,41.57-125.4,41.99-125.96l2.43,1.84c-.41.55-41.37,55.69-41.37,124.12,0,68.43,40.96,123.57,41.37,124.12l-2.43,1.84c-.42-.56-41.99-56.48-41.99-125.96Z"/><path class="cls-3" d="m651.46,205.66c0-69.79,56.77-126.56,126.56-126.56,69.79,0,126.56,56.78,126.56,126.56s-56.78,126.56-126.56,126.56c-69.79,0-126.56-56.78-126.56-126.56Zm126.56-123.51c-68.11,0-123.52,55.41-123.52,123.51,0,68.11,55.41,123.51,123.52,123.51s123.52-55.41,123.52-123.51c0-68.11-55.41-123.51-123.52-123.51h0Z"/><path class="cls-3" d="m735.31,305.74c-19.24-17.65-42.17-49.34-42.17-100.07s22.93-82.42,42.17-100.07c20.84-19.12,41.36-26.12,42.23-26.41l.97,2.89c-.21.07-20.86,7.14-41.23,25.85-18.75,17.23-41.09,48.17-41.09,97.74,0,49.57,22.35,80.51,41.09,97.74,20.37,18.72,41.02,25.79,41.23,25.85l-.97,2.89c-.86-.29-21.39-7.3-42.23-26.41Z"/><path class="cls-3" d="m776.8,329.79c.41-.55,41.37-55.69,41.37-124.12,0-68.43-40.96-123.57-41.37-124.12l2.43-1.84c.42.56,41.99,56.48,41.99,125.96,0,69.48-41.57,125.4-41.99,125.96l-2.43-1.84Z"/><path class="cls-3" d="m777.53,329.26c.21-.07,20.86-7.14,41.23-25.85,18.75-17.23,41.09-48.17,41.09-97.74,0-49.57-22.35-80.51-41.09-97.74-20.37-18.72-41.02-25.79-41.23-25.85l.97-2.89c.86.29,21.39,7.3,42.23,26.41,19.24,17.65,42.17,49.34,42.17,100.07s-22.93,82.42-42.17,100.07c-20.84,19.12-41.36,26.12-42.23,26.41l-.97-2.89Z"/><path class="cls-3" d="m665.59,260.27c37.93-16.29,91.26-18.05,112.43-18.05,21.17,0,74.5,1.76,112.43,18.05l-1.2,2.8c-12.46-5.35-48.25-17.8-111.23-17.8-62.98,0-98.76,12.45-111.23,17.8l-1.2-2.8Zm194.07,40.92c-13.79-6.5-39.14-14.24-81.64-14.24-42.26,0-67.57,7.67-81.35,14.1l-1.29-2.76c14.06-6.56,39.82-14.39,82.64-14.39s68.87,7.9,82.94,14.53l-1.3,2.76h0Zm-81.64-132.08c-21.17,0-74.5-1.76-112.43-18.05l1.2-2.8c12.46,5.35,48.25,17.8,111.23,17.8,62.98,0,98.76-12.45,111.23-17.8l1.2,2.8c-37.93,16.29-91.26,18.05-112.43,18.05h0Zm-82.64-56.07l1.29-2.76c13.79,6.43,39.09,14.1,81.35,14.1,42.5,0,67.85-7.74,81.64-14.24l1.3,2.76c-14.07,6.63-39.88,14.53-82.94,14.53-42.82,0-68.58-7.83-82.64-14.39Z"/><path class="cls-2" d="m717.2,689.65c-28.4,0-55.12-17.71-73.32-48.6-15.93-27.03-24.7-62.42-24.7-99.66s8.77-72.62,24.7-99.65c18.2-30.89,44.93-48.6,73.32-48.6s55.12,17.71,73.32,48.6c15.93,27.03,24.7,62.42,24.7,99.65s-8.77,72.62-24.7,99.65c-18.2,30.89-44.92,48.6-73.32,48.6h0Z"/><path class="cls-3" d="m642.56,641.83c-16.07-27.26-24.91-62.93-24.91-100.43,0-37.5,8.85-73.17,24.91-100.43,18.48-31.36,45.69-49.35,74.64-49.35,28.95,0,56.16,17.99,74.64,49.35,16.07,27.26,24.91,62.93,24.91,100.43,0,37.5-8.85,73.17-24.91,100.43-18.48,31.36-45.69,49.35-74.64,49.35-28.95,0-56.16-17.99-74.64-49.35Zm2.63-199.31c-15.79,26.8-24.49,61.92-24.49,98.88,0,36.96,8.7,72.08,24.49,98.88,17.92,30.41,44.17,47.85,72.01,47.85,27.84,0,54.09-17.44,72.01-47.85,15.79-26.8,24.49-61.92,24.49-98.88,0-36.96-8.7-72.08-24.49-98.88-17.92-30.41-44.17-47.85-72.01-47.85s-54.09,17.44-72.01,47.85Z"/><ellipse class="cls-3" cx="717.2" cy="541.4" rx="72.07" ry="122.29"/><path class="cls-3" d="m717.2,665.22c-40.58,0-73.59-55.54-73.59-123.82s33.01-123.82,73.59-123.82c40.58,0,73.59,55.54,73.59,123.82s-33.01,123.82-73.59,123.82h0Zm-70.54-123.82c0,66.59,31.65,120.77,70.54,120.77s70.54-54.18,70.54-120.77c0-66.59-31.65-120.77-70.54-120.77s-70.54,54.18-70.54,120.77Z"/><path class="cls-3" d="m287.6,655.09l-.41-.03-.34-.24c-.43-.3-10.62-7.57-20.9-25.26-9.43-16.23-20.66-44.69-20.66-88.16s11.24-71.94,20.66-88.17c10.28-17.7,20.47-24.97,20.9-25.27l.34-.24,423.99-35.85.26,3.04-423.14,35.77c-1.79,1.37-10.85,8.77-19.81,24.25-9.19,15.89-20.15,43.78-20.15,86.45s10.96,70.56,20.14,86.44c8.96,15.48,18.02,22.88,19.81,24.24l423.14,35.79-.26,3.04-423.58-35.83Z"/><path class="cls-3" d="m87.97,627.64l-.41-.03-.34-.24c-1.29-.9-31.55-22.84-31.55-85.97s30.26-85.08,31.55-85.99l.34-.24,188.61-15.95.26,3.04-187.77,15.87c-1.51,1.17-8.19,6.74-14.8,18.19-12.51,21.66-15.14,47.34-15.14,65.07,0,32.12,8.23,53.11,15.14,65.06,6.61,11.45,13.3,17.02,14.8,18.18l187.78,15.88-.26,3.04-188.21-15.92Z"/><path class="cls-3" d="m39.71,592.93l-.34-.24c-.77-.54-18.9-13.69-18.9-51.3,0-37.61,18.13-50.77,18.9-51.31l.34-.24,26.22-2.22.26,3.04-25.36,2.14c-2.33,1.89-17.31,15.31-17.31,48.58,0,33.28,14.98,46.69,17.31,48.57l25.36,2.15-.26,3.04-26.22-2.22Z"/><path class="cls-2" d="m930.73,689.65c-28.4,0-55.12-17.71-73.32-48.6-15.93-27.03-24.7-62.42-24.7-99.66s8.77-72.62,24.7-99.65c18.2-30.89,44.92-48.6,73.32-48.6s55.12,17.71,73.32,48.6c15.93,27.03,24.7,62.42,24.7,99.65s-8.77,72.62-24.7,99.65c-18.2,30.89-44.93,48.6-73.32,48.6h0Z"/><path class="cls-3" d="m856.09,641.83c-16.06-27.26-24.91-62.93-24.91-100.43,0-37.5,8.85-73.17,24.91-100.43,18.48-31.36,45.69-49.35,74.64-49.35,28.95,0,56.16,17.99,74.64,49.35,16.07,27.26,24.91,62.93,24.91,100.43,0,37.5-8.85,73.17-24.91,100.43-18.48,31.36-45.69,49.35-74.64,49.35-28.95,0-56.16-17.99-74.64-49.35Zm74.64-247.16c-27.84,0-54.09,17.44-72.01,47.85-15.79,26.8-24.49,61.92-24.49,98.88,0,36.96,8.7,72.08,24.49,98.88,17.92,30.41,44.17,47.85,72.01,47.85,27.84,0,54.09-17.44,72.01-47.85,15.79-26.8,24.49-61.92,24.49-98.88,0-36.96-8.7-72.08-24.49-98.88-17.92-30.41-44.17-47.85-72.01-47.85h0Z"/><ellipse class="cls-3" cx="930.73" cy="541.4" rx="72.07" ry="122.29"/><path class="cls-3" d="m857.14,541.4c0-68.27,33.01-123.82,73.59-123.82,40.58,0,73.59,55.54,73.59,123.82s-33.01,123.82-73.59,123.82c-40.58,0-73.59-55.54-73.59-123.82Zm3.05,0c0,66.59,31.65,120.77,70.54,120.77s70.54-54.18,70.54-120.77c0-66.59-31.65-120.77-70.54-120.77s-70.54,54.18-70.54,120.77Zm64.54,149.54l-164.95-13.99.26-3.04,164.95,13.99-.26,3.04Zm-163.75-282.14l-.26-3.04,164.02-13.86.26,3.04-164.01,13.86Zm-120.13,342.54l21.25,8.18-21.25,8.19-8.19,21.25-8.18-21.25-21.25-8.18,21.25-8.18,8.18-21.25,8.18,21.25Zm399.56-390.19l21.25,8.18-21.24,8.19-8.19,21.24-8.18-21.25-21.25-8.18,21.25-8.18,8.18-21.25,8.18,21.25Zm-506.85-19.53l21.25,8.18-21.24,8.19-8.19,21.24-8.18-21.25-21.25-8.18,21.25-8.18,8.18-21.25,8.18,21.25ZM65.37,655.51l21.25,8.18-21.24,8.19-8.19,21.24-8.18-21.25-21.25-8.18,21.25-8.18,8.18-21.25,8.18,21.25Zm204.87,306.81h-5.01v-222.7h5.01v222.7Z"/><path class="cls-3" d="m379.09,848.47v5.01h-222.7v-5.01h222.7Z"/><path class="cls-3" d="m190.79,931.48l-3.54-3.54,157.47-157.47,3.54,3.54-157.47,157.47Z"/><path class="cls-3" d="m348.25,927.92l-3.54,3.54-157.47-157.47,3.54-3.54,157.47,157.47Z"/><circle class="cls-3" cx="267.74" cy="850.98" r="19.88"/><path class="cls-3" d="m44.02,384.81h197.43c8.86,0,16.07-7.21,16.07-16.08v-113.81c0-10.55,8.58-19.12,19.12-19.12h201.6c8.86,0,16.08-7.21,16.08-16.07v-101.01h3.05v101.01c0,10.55-8.58,19.12-19.12,19.12h-201.6c-8.86,0-16.07,7.21-16.07,16.08v113.82c0,10.54-8.58,19.12-19.12,19.12H44.02v-3.05Z"/><circle class="cls-3" cx="495.86" cy="118.71" r="8.36"/><circle class="cls-3" cx="44.02" cy="386.34" r="8.36"/><path class="cls-3" d="m499.53,901.36h332.76c9.68,0,17.56-7.88,17.56-17.56v-110.85c0-11.36,9.24-20.6,20.61-20.6h198.64c9.68,0,17.56-7.88,17.56-17.56v-65.3c0-11.36,9.24-20.6,20.61-20.6h78.84v3.05h-78.84c-9.68,0-17.56,7.88-17.56,17.56v65.3c0,11.36-9.24,20.6-20.61,20.6h-198.64c-9.68,0-17.56,7.88-17.56,17.56v110.85c0,11.36-9.24,20.61-20.61,20.61h-332.76v-3.05Z"/><circle class="cls-3" cx="1186.1" cy="650.41" r="8.36"/><circle class="cls-3" cx="499.53" cy="902.88" r="8.36"/></svg>