<svg xmlns="http://www.w3.org/2000/svg" xml:space="preserve" viewBox="0 0 422.5 151.1">
  <circle cx="211.3" cy="75.6" r="66" fill="#fff"/>
  <path d="M211.3 144.6c-38.1 0-69-31-69-69s31-69 69-69 69 31 69 69-31 69-69 69zm0-135c-36.4 0-66 29.6-66 66s29.6 66 66 66 66-29.6 66-66-29.6-66-66-66z" class="st1"/>
  <path d="M211.3 124.8c-20.9 0-39.6-13.3-46.5-33.1l2.9-1c6.5 18.6 24 31 43.7 31 19.6 0 37.2-12.5 43.7-31l2.9 1c-7.1 19.9-25.8 33.1-46.7 33.1z" class="st1"/>
  <path d="M259 93.7c-4.2 0-7.6-1.8-7.8-1.9l1.4-2.7-.7 1.3.7-1.3s3.4 1.8 7.3 1.5l.2 3c-.3 0-.7.1-1.1.1zm-95.8 0H162l.2-3c3.9.3 7.3-1.5 7.3-1.5l1.4 2.7c-.1 0-3.5 1.8-7.7 1.8z" class="st1"/>
  <ellipse cx="228.1" cy="56.7" class="st1" rx="10.8" ry="22.8"/>
  <ellipse cx="194.4" cy="56.7" class="st1" rx="10.8" ry="22.8"/>
  <path d="M417.9 77v-2.8h-40.1c-.2-1.3-.7-2.6-1.5-3.6l28.3-28.3-2-2-28.3 28.3c-1.1-.8-2.3-1.3-3.6-1.5V26.9h-2.8V67c-1.3.2-2.6.7-3.6 1.5L336 40.2l-2 2 28.3 28.3c-.8 1.1-1.3 2.3-1.5 3.6h-40.1V77h40.1c.2 1.3.7 2.6 1.5 3.6L334 108.9l2 2 28.3-28.3c1.1.8 2.3 1.3 3.6 1.5v40.1h2.8V84.1c1.3-.2 2.6-.7 3.6-1.5l28.3 28.3 2-2-28.3-28.3c.8-1.1 1.3-2.3 1.5-3.6h40.1zm-316 0v-2.8H61.8c-.2-1.3-.7-2.6-1.5-3.6l28.3-28.3-2-2-28.3 28.2c-1.1-.8-2.3-1.3-3.6-1.5V26.9h-2.8V67c-1.3.2-2.6.7-3.6 1.5L19.9 40.2l-2 2 28.3 28.3c-.8 1.1-1.3 2.3-1.5 3.6H4.6V77h40.1c.2 1.3.7 2.6 1.5 3.6l-28.3 28.3 2 2 28.3-28.3c1.1.8 2.3 1.3 3.6 1.5v40.1h2.8V84.1c1.3-.2 2.6-.7 3.6-1.5L86.6 111l2-2-28.3-28.4c.8-1.1 1.3-2.3 1.5-3.6h40.1z" class="st2"/>
</svg>