<?xml version="1.0" encoding="UTF-8"?><svg id="Calque_1" xmlns="http://www.w3.org/2000/svg" viewBox="0 0 1302.83 884.64"><defs><style>.cls-1,.cls-2{fill:none;}.cls-1,.cls-2,.cls-3,.cls-4{stroke:#201d1d;stroke-miterlimit:10;}.cls-1,.cls-3,.cls-4{stroke-width:3px;}.cls-5{fill:#fd907c;}.cls-6{fill:#8ed5b0;}.cls-7,.cls-3{fill:#201d1d;}.cls-2{stroke-width:2.5px;}.cls-8{font-family:Bornia-Bold, Bornia;font-size:48.41px;font-weight:700;}.cls-4{fill:#fff;}</style></defs><circle class="cls-6" cx="343.35" cy="710.83" r="56.87"/><circle class="cls-5" cx="715.05" cy="269.48" r="56.87"/><circle class="cls-5" cx="893.41" cy="568.05" r="56.87"/><circle class="cls-5" cx="496.16" cy="420" r="56.87"/><polygon class="cls-3" points="940.45 694.62 381.5 694.62 316.21 807.69 1005.73 807.69 940.45 694.62"/><polygon class="cls-4" points="916.84 653.96 858.4 552.73 463.54 552.73 405.1 653.96 916.84 653.96"/><polygon class="cls-4" points="487.15 511.62 834.79 511.62 776.35 410.4 545.59 410.4 487.15 511.62"/><polygon class="cls-4" points="752.09 370.07 660.31 211.11 568.54 370.07 752.09 370.07"/><circle class="cls-7" cx="260.65" cy="293.27" r="8.51"/><path class="cls-1" d="m260.65,293.27h93.37c15.83,0,28.66,12.83,28.66,28.66v91.73c0,15.83,12.83,28.66,28.66,28.66h93.37"/><path class="cls-1" d="m803.23,156.79v91.73c0,15.83-12.83,28.66-28.66,28.66h-93.37"/><circle class="cls-7" cx="1085.25" cy="462.2" r="8.51"/><path class="cls-1" d="m1085.25,462.2h-73.35c-15.83,0-28.66,12.83-28.66,28.66v71.72c0,15.83-12.83,28.66-28.66,28.66h-93.37"/><polygon class="cls-7" points="510.96 239.64 517.58 256.84 534.78 263.45 517.58 270.07 510.96 287.27 504.34 270.08 487.15 263.45 504.35 256.84 510.96 239.64"/><polygon class="cls-7" points="1032.66 638.74 1036.89 649.73 1047.87 653.96 1036.89 658.18 1032.66 669.17 1028.43 658.19 1017.44 653.96 1028.43 649.73 1032.66 638.74"/><polygon class="cls-7" points="237.78 801.81 242.01 812.79 253 817.02 242.01 821.25 237.78 832.24 233.55 821.25 222.57 817.02 233.56 812.79 237.78 801.81"/><polygon class="cls-4" points="462.93 499.51 810.57 499.51 752.13 398.29 521.37 398.29 462.93 499.51"/><polygon class="cls-4" points="892.62 641.62 834.18 540.4 439.32 540.4 380.88 641.62 892.62 641.62"/><polygon class="cls-4" points="728.52 357.4 636.75 198.44 544.98 357.4 728.52 357.4"/><polygon class="cls-4" points="916.22 682.51 357.28 682.51 291.99 795.58 981.51 795.58 916.22 682.51"/><circle class="cls-7" cx="803.23" cy="156.79" r="8.51"/><circle class="cls-2" cx="803.23" cy="90.48" r="38.08"/><text class="cls-8" transform="translate(789.25 105.27)"><tspan x="0" y="0">1</tspan></text><circle class="cls-2" cx="260.65" cy="225.38" r="38.08"/><text class="cls-8" transform="translate(246.66 240.16)"><tspan x="0" y="0">2</tspan></text><circle class="cls-2" cx="1085.25" cy="400.29" r="38.08"/><text class="cls-8" transform="translate(1071.27 415.07)"><tspan x="0" y="0">3</tspan></text><line class="cls-1" x1="328.37" y1="730.78" x2="155.66" y2="730.78"/><circle class="cls-7" cx="155.66" cy="730.78" r="8.51"/><circle class="cls-2" cx="155.66" cy="663.81" r="38.08"/><text class="cls-8" transform="translate(141.67 678.59)"><tspan x="0" y="0">4</tspan></text><circle class="cls-7" cx="892.33" cy="391" r="7.3"/><line class="cls-1" x1="892.33" y1="350.13" x2="892.33" y2="431.86"/><line class="cls-1" x1="921.23" y1="362.1" x2="863.44" y2="419.89"/><line class="cls-1" x1="933.2" y1="391" x2="851.47" y2="391"/><line class="cls-1" x1="921.23" y1="419.89" x2="863.44" y2="362.1"/><path class="cls-7" d="m286.6,666.82c.67,0,1.21.55,1.21,1.22s-.54,1.21-1.21,1.21-1.22-.54-1.22-1.21.55-1.22,1.22-1.22Z"/><path class="cls-7" d="m294.7,666.82c.68,0,1.22.55,1.22,1.22s-.54,1.21-1.22,1.21-1.21-.54-1.21-1.21.54-1.22,1.21-1.22Z"/><path class="cls-7" d="m302.81,666.82c.67,0,1.22.55,1.22,1.22s-.55,1.21-1.22,1.21-1.21-.54-1.21-1.21.54-1.22,1.21-1.22Z"/><path class="cls-7" d="m310.92,666.82c.67,0,1.22.55,1.22,1.22s-.55,1.21-1.22,1.21-1.22-.54-1.22-1.21.55-1.22,1.22-1.22Z"/><path class="cls-7" d="m319.02,666.82c.68,0,1.22.55,1.22,1.22s-.54,1.21-1.22,1.21-1.21-.54-1.21-1.21.54-1.22,1.21-1.22Z"/><path class="cls-7" d="m327.13,666.82c.67,0,1.22.55,1.22,1.22s-.55,1.21-1.22,1.21-1.21-.54-1.21-1.21.54-1.22,1.21-1.22Z"/><path class="cls-7" d="m335.24,666.82c.67,0,1.22.55,1.22,1.22s-.55,1.21-1.22,1.21-1.22-.54-1.22-1.21.55-1.22,1.22-1.22Z"/><path class="cls-7" d="m343.35,666.82c.67,0,1.21.55,1.21,1.22s-.54,1.21-1.21,1.21-1.22-.54-1.22-1.21.54-1.22,1.22-1.22Z"/><path class="cls-7" d="m351.45,666.82c.67,0,1.22.55,1.22,1.22s-.55,1.21-1.22,1.21-1.21-.54-1.21-1.21.54-1.22,1.21-1.22Z"/><path class="cls-7" d="m359.56,666.82c.67,0,1.22.55,1.22,1.22s-.55,1.21-1.22,1.21-1.22-.54-1.22-1.21.55-1.22,1.22-1.22Z"/><path class="cls-7" d="m367.67,666.82c.67,0,1.21.55,1.21,1.22s-.54,1.21-1.21,1.21-1.22-.54-1.22-1.21.55-1.22,1.22-1.22Z"/><path class="cls-7" d="m375.77,666.82c.68,0,1.22.55,1.22,1.22s-.54,1.21-1.22,1.21-1.21-.54-1.21-1.21.54-1.22,1.21-1.22Z"/><path class="cls-7" d="m383.88,666.82c.67,0,1.22.55,1.22,1.22s-.55,1.21-1.22,1.21-1.22-.54-1.22-1.21.55-1.22,1.22-1.22Z"/><path class="cls-7" d="m391.99,666.82c.67,0,1.21.55,1.21,1.22s-.54,1.21-1.21,1.21-1.22-.54-1.22-1.21.55-1.22,1.22-1.22Z"/><path class="cls-7" d="m400.1,666.82c.67,0,1.21.55,1.21,1.22s-.54,1.21-1.21,1.21-1.22-.54-1.22-1.21.54-1.22,1.22-1.22Z"/><path class="cls-7" d="m408.2,666.82c.67,0,1.22.55,1.22,1.22s-.55,1.21-1.22,1.21-1.21-.54-1.21-1.21.54-1.22,1.21-1.22Z"/><path class="cls-7" d="m416.31,666.82c.67,0,1.22.55,1.22,1.22s-.55,1.21-1.22,1.21-1.22-.54-1.22-1.21.55-1.22,1.22-1.22Z"/><path class="cls-7" d="m424.42,666.82c.67,0,1.21.55,1.21,1.22s-.54,1.21-1.21,1.21-1.22-.54-1.22-1.21.54-1.22,1.22-1.22Z"/><path class="cls-7" d="m432.52,666.82c.67,0,1.22.55,1.22,1.22s-.55,1.21-1.22,1.21-1.21-.54-1.21-1.21.54-1.22,1.21-1.22Z"/><path class="cls-7" d="m440.63,666.82c.67,0,1.22.55,1.22,1.22s-.55,1.21-1.22,1.21-1.22-.54-1.22-1.21.55-1.22,1.22-1.22Z"/><path class="cls-7" d="m448.74,666.82c.67,0,1.21.55,1.21,1.22s-.54,1.21-1.21,1.21-1.22-.54-1.22-1.21.55-1.22,1.22-1.22Z"/><path class="cls-7" d="m456.84,666.82c.67,0,1.22.55,1.22,1.22s-.55,1.21-1.22,1.21-1.21-.54-1.21-1.21.54-1.22,1.21-1.22Z"/><path class="cls-7" d="m464.95,666.82c.67,0,1.22.55,1.22,1.22s-.55,1.21-1.22,1.21-1.21-.54-1.21-1.21.54-1.22,1.21-1.22Z"/><path class="cls-7" d="m473.06,666.82c.67,0,1.21.55,1.21,1.22s-.54,1.21-1.21,1.21-1.22-.54-1.22-1.21.55-1.22,1.22-1.22Z"/><path class="cls-7" d="m481.16,666.82c.68,0,1.22.55,1.22,1.22s-.54,1.21-1.22,1.21-1.21-.54-1.21-1.21.54-1.22,1.21-1.22Z"/><path class="cls-7" d="m489.27,666.82c.67,0,1.22.55,1.22,1.22s-.55,1.21-1.22,1.21-1.21-.54-1.21-1.21.54-1.22,1.21-1.22Z"/><path class="cls-7" d="m497.38,666.82c.67,0,1.21.55,1.21,1.22s-.54,1.21-1.21,1.21-1.22-.54-1.22-1.21.55-1.22,1.22-1.22Z"/><path class="cls-7" d="m505.49,666.82c.67,0,1.21.55,1.21,1.22s-.54,1.21-1.21,1.21-1.22-.54-1.22-1.21.54-1.22,1.22-1.22Z"/><path class="cls-7" d="m513.59,666.82c.67,0,1.22.55,1.22,1.22s-.55,1.21-1.22,1.21-1.21-.54-1.21-1.21.54-1.22,1.21-1.22Z"/><path class="cls-7" d="m521.7,666.82c.67,0,1.22.55,1.22,1.22s-.55,1.21-1.22,1.21-1.22-.54-1.22-1.21.55-1.22,1.22-1.22Z"/><path class="cls-7" d="m529.81,666.82c.67,0,1.21.55,1.21,1.22s-.54,1.21-1.21,1.21-1.22-.54-1.22-1.21.55-1.22,1.22-1.22Z"/><path class="cls-7" d="m537.91,666.82c.68,0,1.22.55,1.22,1.22s-.54,1.21-1.22,1.21-1.21-.54-1.21-1.21.54-1.22,1.21-1.22Z"/><path class="cls-7" d="m546.02,666.82c.67,0,1.22.55,1.22,1.22s-.55,1.21-1.22,1.21-1.22-.54-1.22-1.21.55-1.22,1.22-1.22Z"/><path class="cls-7" d="m554.13,666.82c.67,0,1.21.55,1.21,1.22s-.54,1.21-1.21,1.21-1.22-.54-1.22-1.21.55-1.22,1.22-1.22Z"/><path class="cls-7" d="m562.24,666.82c.67,0,1.21.55,1.21,1.22s-.54,1.21-1.21,1.21-1.22-.54-1.22-1.21.54-1.22,1.22-1.22Z"/><path class="cls-7" d="m570.34,666.82c.67,0,1.22.55,1.22,1.22s-.55,1.21-1.22,1.21-1.21-.54-1.21-1.21.54-1.22,1.21-1.22Z"/><path class="cls-7" d="m578.45,666.82c.67,0,1.22.55,1.22,1.22s-.55,1.21-1.22,1.21-1.22-.54-1.22-1.21.55-1.22,1.22-1.22Z"/><path class="cls-7" d="m586.55,666.82c.68,0,1.22.55,1.22,1.22s-.54,1.21-1.22,1.21-1.21-.54-1.21-1.21.54-1.22,1.21-1.22Z"/><path class="cls-7" d="m594.66,666.82c.67,0,1.22.55,1.22,1.22s-.55,1.21-1.22,1.21-1.21-.54-1.21-1.21.54-1.22,1.21-1.22Z"/><path class="cls-7" d="m602.77,666.82c.67,0,1.22.55,1.22,1.22s-.55,1.21-1.22,1.21-1.22-.54-1.22-1.21.55-1.22,1.22-1.22Z"/><path class="cls-7" d="m610.88,666.82c.67,0,1.21.55,1.21,1.22s-.54,1.21-1.21,1.21-1.22-.54-1.22-1.21.55-1.22,1.22-1.22Z"/><path class="cls-7" d="m618.98,666.82c.67,0,1.22.55,1.22,1.22s-.55,1.21-1.22,1.21-1.21-.54-1.21-1.21.54-1.22,1.21-1.22Z"/><path class="cls-7" d="m627.09,666.82c.67,0,1.22.55,1.22,1.22s-.55,1.21-1.22,1.21-1.21-.54-1.21-1.21.54-1.22,1.21-1.22Z"/><path class="cls-7" d="m635.2,666.82c.67,0,1.21.55,1.21,1.22s-.54,1.21-1.21,1.21-1.22-.54-1.22-1.21.55-1.22,1.22-1.22Z"/><path class="cls-7" d="m643.3,666.82c.68,0,1.22.55,1.22,1.22s-.54,1.21-1.22,1.21-1.21-.54-1.21-1.21.54-1.22,1.21-1.22Z"/><path class="cls-7" d="m651.41,666.82c.67,0,1.22.55,1.22,1.22s-.55,1.21-1.22,1.21-1.21-.54-1.21-1.21.54-1.22,1.21-1.22Z"/><path class="cls-7" d="m659.52,666.82c.67,0,1.21.55,1.21,1.22s-.54,1.21-1.21,1.21-1.22-.54-1.22-1.21.55-1.22,1.22-1.22Z"/><path class="cls-7" d="m667.63,666.82c.67,0,1.21.55,1.21,1.22s-.54,1.21-1.21,1.21-1.22-.54-1.22-1.21.54-1.22,1.22-1.22Z"/><path class="cls-7" d="m675.73,666.82c.67,0,1.22.55,1.22,1.22s-.55,1.21-1.22,1.21-1.21-.54-1.21-1.21.54-1.22,1.21-1.22Z"/><path class="cls-7" d="m683.84,666.82c.67,0,1.22.55,1.22,1.22s-.55,1.21-1.22,1.21-1.22-.54-1.22-1.21.55-1.22,1.22-1.22Z"/><path class="cls-7" d="m691.95,666.82c.67,0,1.21.55,1.21,1.22s-.54,1.21-1.21,1.21-1.22-.54-1.22-1.21.54-1.22,1.22-1.22Z"/><path class="cls-7" d="m700.05,666.82c.68,0,1.22.55,1.22,1.22s-.54,1.21-1.22,1.21-1.21-.54-1.21-1.21.54-1.22,1.21-1.22Z"/><path class="cls-7" d="m708.16,666.82c.67,0,1.22.55,1.22,1.22s-.55,1.21-1.22,1.21-1.22-.54-1.22-1.21.55-1.22,1.22-1.22Z"/><path class="cls-7" d="m716.27,666.82c.67,0,1.21.55,1.21,1.22s-.54,1.21-1.21,1.21-1.22-.54-1.22-1.21.55-1.22,1.22-1.22Z"/><path class="cls-7" d="m724.37,666.82c.68,0,1.22.55,1.22,1.22s-.54,1.21-1.22,1.21-1.21-.54-1.21-1.21.54-1.22,1.21-1.22Z"/><path class="cls-7" d="m732.48,666.82c.67,0,1.22.55,1.22,1.22s-.55,1.21-1.22,1.21-1.21-.54-1.21-1.21.54-1.22,1.21-1.22Z"/><path class="cls-7" d="m740.59,666.82c.67,0,1.21.55,1.21,1.22s-.54,1.21-1.21,1.21-1.22-.54-1.22-1.21.55-1.22,1.22-1.22Z"/><path class="cls-7" d="m748.69,666.82c.68,0,1.22.55,1.22,1.22s-.54,1.21-1.22,1.21-1.21-.54-1.21-1.21.54-1.22,1.21-1.22Z"/><path class="cls-7" d="m756.8,666.82c.67,0,1.22.55,1.22,1.22s-.55,1.21-1.22,1.21-1.21-.54-1.21-1.21.54-1.22,1.21-1.22Z"/><path class="cls-7" d="m764.91,666.82c.67,0,1.21.55,1.21,1.22s-.54,1.21-1.21,1.21-1.22-.54-1.22-1.21.55-1.22,1.22-1.22Z"/><path class="cls-7" d="m773.02,666.82c.67,0,1.21.55,1.21,1.22s-.54,1.21-1.21,1.21-1.22-.54-1.22-1.21.54-1.22,1.22-1.22Z"/><path class="cls-7" d="m781.12,666.82c.67,0,1.22.55,1.22,1.22s-.55,1.21-1.22,1.21-1.21-.54-1.21-1.21.54-1.22,1.21-1.22Z"/><path class="cls-7" d="m789.23,666.82c.67,0,1.22.55,1.22,1.22s-.55,1.21-1.22,1.21-1.22-.54-1.22-1.21.55-1.22,1.22-1.22Z"/><path class="cls-7" d="m797.34,666.82c.67,0,1.21.55,1.21,1.22s-.54,1.21-1.21,1.21-1.22-.54-1.22-1.21.55-1.22,1.22-1.22Z"/><path class="cls-7" d="m805.44,666.82c.68,0,1.22.55,1.22,1.22s-.54,1.21-1.22,1.21-1.21-.54-1.21-1.21.54-1.22,1.21-1.22Z"/><path class="cls-7" d="m813.55,666.82c.67,0,1.22.55,1.22,1.22s-.55,1.21-1.22,1.21-1.22-.54-1.22-1.21.55-1.22,1.22-1.22Z"/><path class="cls-7" d="m821.66,666.82c.67,0,1.21.55,1.21,1.22s-.54,1.21-1.21,1.21-1.22-.54-1.22-1.21.55-1.22,1.22-1.22Z"/><path class="cls-7" d="m829.76,666.82c.68,0,1.22.55,1.22,1.22s-.54,1.21-1.22,1.21-1.21-.54-1.21-1.21.54-1.22,1.21-1.22Z"/><path class="cls-7" d="m837.87,666.82c.67,0,1.22.55,1.22,1.22s-.55,1.21-1.22,1.21-1.21-.54-1.21-1.21.54-1.22,1.21-1.22Z"/><path class="cls-7" d="m845.98,666.82c.67,0,1.22.55,1.22,1.22s-.55,1.21-1.22,1.21-1.22-.54-1.22-1.21.55-1.22,1.22-1.22Z"/><path class="cls-7" d="m854.08,666.82c.68,0,1.22.55,1.22,1.22s-.54,1.21-1.22,1.21-1.21-.54-1.21-1.21.54-1.22,1.21-1.22Z"/><path class="cls-7" d="m862.19,666.82c.67,0,1.22.55,1.22,1.22s-.55,1.21-1.22,1.21-1.21-.54-1.21-1.21.54-1.22,1.21-1.22Z"/><path class="cls-7" d="m870.3,666.82c.67,0,1.22.55,1.22,1.22s-.55,1.21-1.22,1.21-1.22-.54-1.22-1.21.55-1.22,1.22-1.22Z"/><path class="cls-7" d="m878.41,666.82c.67,0,1.21.55,1.21,1.22s-.54,1.21-1.21,1.21-1.22-.54-1.22-1.21.54-1.22,1.22-1.22Z"/><path class="cls-7" d="m886.51,666.82c.67,0,1.22.55,1.22,1.22s-.55,1.21-1.22,1.21-1.21-.54-1.21-1.21.54-1.22,1.21-1.22Z"/><path class="cls-7" d="m894.62,666.82c.67,0,1.22.55,1.22,1.22s-.55,1.21-1.22,1.21-1.21-.54-1.21-1.21.54-1.22,1.21-1.22Z"/><path class="cls-7" d="m902.73,666.82c.67,0,1.21.55,1.21,1.22s-.54,1.21-1.21,1.21-1.22-.54-1.22-1.21.55-1.22,1.22-1.22Z"/><path class="cls-7" d="m910.83,666.82c.68,0,1.22.55,1.22,1.22s-.54,1.21-1.22,1.21-1.21-.54-1.21-1.21.54-1.22,1.21-1.22Z"/><path class="cls-7" d="m918.94,666.82c.67,0,1.22.55,1.22,1.22s-.55,1.21-1.22,1.21-1.22-.54-1.22-1.21.55-1.22,1.22-1.22Z"/><path class="cls-7" d="m927.05,666.82c.67,0,1.21.55,1.21,1.22s-.54,1.21-1.21,1.21-1.22-.54-1.22-1.21.55-1.22,1.22-1.22Z"/><path class="cls-7" d="m935.16,666.82c.67,0,1.21.55,1.21,1.22s-.54,1.21-1.21,1.21-1.22-.54-1.22-1.21.54-1.22,1.22-1.22Z"/><path class="cls-7" d="m943.26,666.82c.67,0,1.22.55,1.22,1.22s-.55,1.21-1.22,1.21-1.21-.54-1.21-1.21.54-1.22,1.21-1.22Z"/><path class="cls-7" d="m951.37,666.82c.67,0,1.22.55,1.22,1.22s-.55,1.21-1.22,1.21-1.22-.54-1.22-1.21.55-1.22,1.22-1.22Z"/><path class="cls-7" d="m959.48,666.82c.67,0,1.21.55,1.21,1.22s-.54,1.21-1.21,1.21-1.22-.54-1.22-1.21.54-1.22,1.22-1.22Z"/><path class="cls-7" d="m967.58,666.82c.68,0,1.22.55,1.22,1.22s-.54,1.21-1.22,1.21-1.21-.54-1.21-1.21.54-1.22,1.21-1.22Z"/><path class="cls-7" d="m975.69,666.82c.67,0,1.22.55,1.22,1.22s-.55,1.21-1.22,1.21-1.22-.54-1.22-1.21.55-1.22,1.22-1.22Z"/><path class="cls-7" d="m983.8,666.82c.67,0,1.21.55,1.21,1.22s-.54,1.21-1.21,1.21-1.22-.54-1.22-1.21.55-1.22,1.22-1.22Z"/><path class="cls-7" d="m991.9,666.82c.68,0,1.22.55,1.22,1.22s-.54,1.21-1.22,1.21-1.21-.54-1.21-1.21.54-1.22,1.21-1.22Z"/><path class="cls-7" d="m1000.01,666.82c.67,0,1.22.55,1.22,1.22s-.55,1.21-1.22,1.21-1.21-.54-1.21-1.21.54-1.22,1.21-1.22Z"/><path class="cls-7" d="m1008.12,666.82c.67,0,1.21.55,1.21,1.22s-.54,1.21-1.21,1.21-1.22-.54-1.22-1.21.55-1.22,1.22-1.22Z"/><path class="cls-7" d="m1016.22,666.82c.68,0,1.22.55,1.22,1.22s-.54,1.21-1.22,1.21-1.21-.54-1.21-1.21.54-1.22,1.21-1.22Z"/></svg>