<?xml version="1.0" encoding="UTF-8"?><svg id="Calque_1" xmlns="http://www.w3.org/2000/svg" viewBox="0 0 1500 586.1"><defs><style>.cls-1{fill:#f1cf25;}.cls-2{fill:#fff;}.cls-3{fill:#231f20;}</style></defs><rect class="cls-1" x="41.39" y="298.01" width="841.43" height="105.61"/><path class="cls-2" d="m1357.19,363.23H95.13c-6.86,0-12.41-5.56-12.41-12.41s5.56-12.41,12.41-12.41h1262.07c6.85,0,12.41,5.56,12.41,12.41,0,6.85-5.56,12.41-12.41,12.41h0Z"/><path class="cls-3" d="m1357.19,364.75H95.13c-7.68,0-13.94-6.25-13.94-13.94s6.25-13.94,13.94-13.94h1262.07c7.69,0,13.94,6.25,13.94,13.94s-6.25,13.94-13.94,13.94h0Zm-1262.07-24.82c-6,0-10.89,4.88-10.89,10.89s4.88,10.89,10.89,10.89h1262.07c6,0,10.89-4.88,10.89-10.89s-4.88-10.89-10.89-10.89H95.13Z"/><path class="cls-3" d="m95.13,338.4c-6.86,0-12.41,5.56-12.41,12.41s5.56,12.41,12.41,12.41h10.93l17.93-24.82h-28.86Z"/><path class="cls-3" d="m106.84,364.75h-11.71c-7.68,0-13.94-6.25-13.94-13.94s6.25-13.94,13.94-13.94h31.84l-20.13,27.87Zm-11.71-24.82c-6,0-10.89,4.89-10.89,10.89s4.88,10.89,10.89,10.89h10.15l15.72-21.77h-25.87Zm131.39-1.52h-48.66l-17.93,24.82h48.66l17.93-24.82Z"/><path class="cls-3" d="m209.38,364.75h-52.42l20.13-27.87h52.42l-20.13,27.87Zm-46.45-3.05h44.9l15.73-21.77h-44.9l-15.73,21.77Zm166.14-23.3h-48.66l-17.93,24.82h48.66l17.93-24.82Z"/><path class="cls-3" d="m311.92,364.75h-52.42l20.13-27.87h52.42l-20.13,27.87Zm-46.45-3.05h44.9l15.72-21.77h-44.9l-15.72,21.77Zm166.14-23.3h-48.66l-17.93,24.82h48.66l17.93-24.82Z"/><path class="cls-3" d="m414.45,364.75h-52.42l20.13-27.87h52.42l-20.13,27.87Zm-46.45-3.05h44.9l15.72-21.77h-44.9l-15.72,21.77Zm166.14-23.3h-48.66l-17.93,24.82h48.66l17.93-24.82Z"/><path class="cls-3" d="m516.99,364.75h-52.42l20.13-27.87h52.42l-20.13,27.87Zm-46.45-3.05h44.9l15.72-21.77h-44.9l-15.72,21.77Zm166.14-23.3h-48.66l-17.93,24.82h48.66l17.93-24.82Z"/><path class="cls-3" d="m619.53,364.75h-52.42l20.13-27.87h52.42l-20.13,27.87Zm-46.45-3.05h44.9l15.72-21.77h-44.9l-15.72,21.77Zm166.14-23.3h-48.66l-17.93,24.82h48.66l17.93-24.82Z"/><path class="cls-3" d="m722.07,364.75h-52.42l20.13-27.87h52.42l-20.13,27.87Zm-46.45-3.05h44.9l15.72-21.77h-44.9l-15.72,21.77Zm166.14-23.3h-48.66l-17.93,24.82h48.66l17.93-24.82Z"/><path class="cls-3" d="m824.61,364.75h-52.42l20.13-27.87h52.42l-20.13,27.87Zm-46.45-3.05h44.9l15.72-21.77h-44.9l-15.72,21.77Z"/><circle class="cls-2" cx="1369.61" cy="253.7" r="47.68"/><path class="cls-3" d="m1369.61,302.9c-27.13,0-49.2-22.07-49.2-49.2s22.07-49.2,49.2-49.2,49.2,22.07,49.2,49.2-22.07,49.2-49.2,49.2Zm0-95.36c-25.45,0-46.15,20.7-46.15,46.15s20.7,46.15,46.15,46.15,46.15-20.7,46.15-46.15-20.7-46.15-46.15-46.15Z"/><path class="cls-3" d="m1393.34,296.17l-3-.55c.02-.09,1.62-9.1-.25-18.59-2.44-12.38-9.43-19.73-20.76-21.83l.56-3c30.16,5.59,23.52,43.58,23.45,43.96h0Z"/><path class="cls-3" d="m1416.27,256.71c-.07-.06-7.07-5.96-16.22-9.08-11.94-4.07-21.8-1.7-29.28,7.07l-2.32-1.98c19.93-23.33,49.5,1.42,49.8,1.67l-1.98,2.32Z"/><path class="cls-3" d="m1368.17,254.21c-10.24-28.92,25.98-42.16,26.35-42.29l1.02,2.87c-.09.03-8.69,3.14-15.97,9.51-9.5,8.31-12.37,18.03-8.52,28.89l-2.88,1.02Z"/><path class="cls-3" d="m1369.33,255.2c-30.16-5.59-23.52-43.58-23.45-43.96l3,.55c-.02.09-1.62,9.1.25,18.59,2.44,12.38,9.43,19.73,20.76,21.83l-.56,3Z"/><path class="cls-3" d="m1349.96,264.7c-15.05,0-28.79-11.5-28.99-11.67l1.98-2.32c.07.06,7.07,5.96,16.22,9.08,11.95,4.08,21.8,1.7,29.28-7.07l2.32,1.98c-6.37,7.46-13.73,10-20.81,10Z"/><path class="cls-3" d="m1344.7,295.49l-1.02-2.87c.09-.03,8.69-3.14,15.97-9.51,9.5-8.31,12.37-18.03,8.52-28.89l2.88-1.02c10.24,28.92-25.98,42.16-26.35,42.29Zm-1042.97-21.72l-16.22-64.81-46.45,48.02,18.36-64.24-64.24,18.36,48.02-46.45-64.81-16.22,64.81-16.22-48.02-46.45,64.24,18.36-18.36-64.24,46.45,48.02,16.22-64.81,16.22,64.81,46.45-48.02-18.36,64.24,64.24-18.36-48.02,46.45,64.81,16.22-64.81,16.22,48.02,46.45-64.24-18.36,18.36,64.24-46.45-48.02-16.22,64.81Zm-14.6-70.88l14.6,58.32,14.6-58.32,41.8,43.21-16.52-57.8,57.8,16.52-43.21-41.8,58.32-14.6-58.32-14.6,43.21-41.8-57.8,16.52,16.52-57.8-41.8,43.21-14.6-58.32-14.6,58.32-41.8-43.21,16.52,57.8-57.8-16.52,43.21,41.8-58.32,14.6,58.32,14.6-43.21,41.8,57.8-16.52-16.52,57.8,41.8-43.21Zm-163.15,226.74l6.29,16.35,16.35,6.29-16.35,6.29-6.29,16.35-6.3-16.35-16.35-6.3,16.36-6.29,6.29-16.35Zm456.76-238.93l6.29,16.36,16.36,6.29-16.36,6.29-6.29,16.36-6.3-16.35-16.35-6.3,16.35-6.29,6.29-16.35Zm777.41,216.28l6.29,16.35,16.35,6.29-16.35,6.29-6.29,16.35-6.3-16.35-16.35-6.3,16.36-6.29,6.29-16.35Zm-273.96-317.61l6.29,16.36,16.35,6.29-16.35,6.29-6.29,16.36-6.3-16.35-16.35-6.3,16.35-6.29,6.29-16.35Zm-157.53,146.63l6.29,16.36,16.35,6.29-16.35,6.29-6.29,16.36-6.3-16.35-16.35-6.3,16.35-6.29,6.29-16.36ZM294.6,492.48h135.01v3.05h-135.01v-3.05Z"/><path class="cls-3" d="m360.58,426.5h3.05v135.01h-3.05v-135.01Z"/><path class="cls-3" d="m363.32,562.42l-2.43-1.84c.22-.29,22.2-29.89,22.2-66.59s-21.97-66.29-22.19-66.59l2.43-1.84c.23.3,22.81,30.68,22.81,68.42s-22.58,68.12-22.81,68.42Z"/><path class="cls-3" d="m362.1,563.03c-38.06,0-69.03-30.97-69.03-69.03s30.97-69.03,69.03-69.03,69.03,30.97,69.03,69.03-30.97,69.03-69.03,69.03Zm0-135.01c-36.38,0-65.98,29.6-65.98,65.98s29.6,65.98,65.98,65.98,65.98-29.6,65.98-65.98-29.6-65.98-65.98-65.98Z"/><path class="cls-3" d="m362.58,562.95l-.97-2.89c.11-.04,11.16-3.83,22.05-13.85,14.54-13.39,21.91-30.95,21.91-52.21s-7.37-38.82-21.91-52.21c-10.89-10.02-21.94-13.81-22.05-13.85l.97-2.89c.47.16,11.69,3.99,23.05,14.41,10.49,9.62,22.99,26.9,22.99,54.54s-12.51,44.92-22.99,54.54c-11.36,10.42-22.58,14.25-23.05,14.41h0Z"/><path class="cls-3" d="m360.89,562.42c-.23-.3-22.81-30.68-22.81-68.42s22.58-68.12,22.81-68.42l2.43,1.84c-.22.29-22.19,29.89-22.19,66.59s21.97,66.29,22.19,66.59l-2.43,1.84Z"/><path class="cls-3" d="m361.62,562.95c-.47-.16-11.69-3.99-23.05-14.41-10.49-9.62-22.99-26.9-22.99-54.54s12.51-44.92,22.99-54.54c11.36-10.42,22.58-14.25,23.05-14.41l.97,2.89c-.11.04-11.16,3.83-22.05,13.85-14.54,13.39-21.91,30.95-21.91,52.21s7.37,38.82,21.91,52.21c10.89,10.02,21.94,13.81,22.05,13.85l-.97,2.89Z"/><path class="cls-3" d="m421.87,525.63c-6.69-2.87-25.9-9.55-59.77-9.55s-53.08,6.68-59.77,9.55l-1.2-2.8c6.86-2.95,26.54-9.8,60.97-9.8s54.11,6.85,60.97,9.8l-1.2,2.8Zm-103.55,20.57l-1.3-2.76c7.66-3.61,21.7-7.91,45.08-7.91s37.25,4.26,44.91,7.83l-1.29,2.76c-7.38-3.44-20.93-7.55-43.62-7.55s-36.4,4.14-43.78,7.62Zm43.78-71.24c-34.43,0-54.11-6.85-60.97-9.8l1.2-2.8c6.69,2.87,25.91,9.55,59.77,9.55s53.08-6.68,59.77-9.55l1.2,2.8c-6.86,2.95-26.54,9.8-60.97,9.8Zm0-22.5c-23.38,0-37.42-4.3-45.08-7.91l1.3-2.76c7.38,3.48,20.96,7.62,43.78,7.62s36.24-4.1,43.62-7.55l1.29,2.76c-7.66,3.57-21.67,7.83-44.91,7.83Zm101.88,40.01h524.36v3.05H463.98v-3.05Z"/><path class="cls-3" d="m928.12,537.92l-2.93-.83c.13-.46,3.28-11.32,12.64-22.33,6.8-7.99,18.02-17.2,35.17-20.77-17.15-3.57-28.37-12.77-35.17-20.77-9.36-11-12.51-21.87-12.64-22.33l2.93-.83c.03.11,3.14,10.78,12.11,21.28,11.97,14.02,28.16,21.12,48.11,21.12v3.05c-19.95,0-36.14,7.11-48.11,21.12-8.97,10.5-12.08,21.17-12.11,21.28Zm162.1,25.1c-38.06,0-69.03-30.97-69.03-69.03s30.97-69.03,69.03-69.03,69.03,30.97,69.03,69.03-30.97,69.03-69.03,69.03Zm0-135.01c-36.38,0-65.98,29.6-65.98,65.98s29.6,65.98,65.98,65.98,65.98-29.6,65.98-65.98-29.6-65.98-65.98-65.98Z"/><path class="cls-3" d="m1090.22,543.27c-20.93,0-39.63-13.29-46.54-33.07l2.88-1c6.48,18.56,24.02,31.03,43.66,31.03s37.18-12.47,43.66-31.03l2.88,1c-6.91,19.78-25.61,33.07-46.54,33.07Z"/><path class="cls-3" d="m1137.98,512.09c-4.24,0-7.65-1.8-7.8-1.88l1.44-2.69-.72,1.34.72-1.35s3.44,1.8,7.29,1.48l.25,3.04c-.4.03-.79.05-1.17.05h0Zm-95.87,0c-.38,0-.77-.02-1.17-.05l.25-3.04c3.86.32,7.26-1.47,7.29-1.48l1.44,2.69c-.16.08-3.56,1.88-7.8,1.88Z"/><ellipse class="cls-3" cx="1107.08" cy="475.1" rx="10.82" ry="22.82"/><ellipse class="cls-3" cx="1073.36" cy="475.1" rx="10.82" ry="22.82"/></svg>