<?xml version="1.0" encoding="UTF-8"?>
<svg width="982px" height="888px" viewBox="0 0 982 888" version="1.1" xmlns="http://www.w3.org/2000/svg" xmlns:xlink="http://www.w3.org/1999/xlink">
    <!-- Generator: Sketch 55.1 (78136) - https://sketchapp.com -->
    <title>about-us</title>
    <desc>Created with Sketch.</desc>
    <g id="about-us" stroke="none" stroke-width="1" fill="none" fill-rule="evenodd">
        <g id="066-storefront-monochrome">
            <path d="M197.65,11.3 C92.05,42 -3.55,142.11 3.71,240 C10.71,337.87 120.89,433.48 190.84,549.75 C260.56,666.25 290.31,803.42 371.38,857.92 C452.22,912.41 584.16,884 690.67,827 C797,770 877.8,684.64 928,587 C978,489.12 997.49,379 965.93,291.09 C934.57,203.2 852.36,137.8 772,102.6 C691.38,67.6 612.58,63.31 515.61,41.51 C418.39,19.71 303,-19.35 197.65,11.3 Z" id="Path" fill="#F8F8F8" fill-rule="nonzero"></path>
            <path d="M0,650.12 C0,595.12 23,587.12 23,553.12 C23,415.12 69,392.12 99,392.12 C156,392.12 149.6,452.01 163,472.12 C193,517.12 206,550.12 206,581.12 C206,707.12 154,782.12 110,782.12 C62,782.12 0,714.19 0,650.12 Z" id="Path" fill="#293241" fill-rule="nonzero"></path>
            <path d="M108,560.12 L108,865.12" id="Path" stroke="#DFDFDF" stroke-width="6" stroke-linecap="round"></path>
            <path d="M108,639.12 L155,592.12" id="Path" stroke="#DFDFDF" stroke-width="6" stroke-linecap="round"></path>
            <path d="M108,716.12 L66.5,674.62" id="Path" stroke="#DFDFDF" stroke-width="6" stroke-linecap="round"></path>
            <polyline id="Path" stroke="#293241" stroke-width="2.5" fill="#FFFFFF" fill-rule="nonzero" stroke-linecap="round" stroke-linejoin="round" points="757 566.12 757 843.12 185 843.12 185 117.12 757 117.12 757 540.12"></polyline>
            <rect id="Rectangle" fill="#DFDFDF" fill-rule="nonzero" x="168.5" y="808.12" width="605" height="37"></rect>
            <rect id="Rectangle" fill="#293241" fill-rule="nonzero" x="249" y="611.12" width="153" height="234"></rect>
            <rect id="Rectangle" fill="#DFDFDF" fill-rule="nonzero" x="439" y="609.12" width="282" height="133"></rect>
            <rect id="Rectangle" fill="#DFDFDF" fill-rule="nonzero" x="144" y="419.12" width="649" height="15"></rect>
            <rect id="Rectangle" fill="#DFDFDF" fill-rule="nonzero" x="144" y="293.12" width="649" height="15"></rect>
            <rect id="Rectangle" fill="#DFDFDF" fill-rule="nonzero" x="144" y="92.12" width="649" height="35"></rect>
            <rect id="Rectangle" fill="#DFDFDF" fill-rule="nonzero" x="218" y="158.12" width="107" height="135"></rect>
            <rect id="Rectangle" fill="#FFFFFF" fill-rule="nonzero" x="223" y="162.42" width="97" height="130.69"></rect>
            <rect id="Rectangle" fill="#DFDFDF" fill-rule="nonzero" x="414" y="158.12" width="107" height="135"></rect>
            <rect id="Rectangle" fill="#FFFFFF" fill-rule="nonzero" x="419" y="162.42" width="97" height="130.69"></rect>
            <rect id="Rectangle" fill="#DFDFDF" fill-rule="nonzero" x="610" y="158.12" width="107" height="135"></rect>
            <rect id="Rectangle" fill="#FFFFFF" fill-rule="nonzero" x="615" y="162.42" width="97" height="130.69"></rect>
            <polygon id="Path" fill="#DFDFDF" fill-rule="nonzero" points="811 540.12 757 434.12 185 434.12 131 540.12"></polygon>
            <rect id="Rectangle" fill="#FFFFFF" fill-rule="nonzero" x="185" y="434.12" width="18" height="106"></rect>
            <rect id="Rectangle" fill="#FFFFFF" fill-rule="nonzero" x="227.62" y="434.12" width="18" height="106"></rect>
            <rect id="Rectangle" fill="#FFFFFF" fill-rule="nonzero" x="270.23" y="434.12" width="18" height="106"></rect>
            <rect id="Rectangle" fill="#FFFFFF" fill-rule="nonzero" x="312.85" y="434.12" width="18" height="106"></rect>
            <rect id="Rectangle" fill="#FFFFFF" fill-rule="nonzero" x="355.46" y="434.12" width="18" height="106"></rect>
            <rect id="Rectangle" fill="#FFFFFF" fill-rule="nonzero" x="398.08" y="434.12" width="18" height="106"></rect>
            <rect id="Rectangle" fill="#FFFFFF" fill-rule="nonzero" x="440.69" y="434.12" width="18" height="106"></rect>
            <rect id="Rectangle" fill="#FFFFFF" fill-rule="nonzero" x="483.31" y="434.12" width="18" height="106"></rect>
            <rect id="Rectangle" fill="#FFFFFF" fill-rule="nonzero" x="525.92" y="434.12" width="18" height="106"></rect>
            <rect id="Rectangle" fill="#FFFFFF" fill-rule="nonzero" x="568.54" y="434.12" width="18" height="106"></rect>
            <rect id="Rectangle" fill="#FFFFFF" fill-rule="nonzero" x="611.15" y="434.12" width="18" height="106"></rect>
            <rect id="Rectangle" fill="#FFFFFF" fill-rule="nonzero" x="653.77" y="434.12" width="18" height="106"></rect>
            <rect id="Rectangle" fill="#FFFFFF" fill-rule="nonzero" x="696.38" y="434.12" width="18" height="106"></rect>
            <rect id="Rectangle" fill="#FFFFFF" fill-rule="nonzero" x="739" y="434.12" width="18" height="106"></rect>
            <rect id="Rectangle" fill="#FFFFFF" fill-rule="nonzero" x="448" y="617.12" width="264" height="117"></rect>
            <polygon id="Path" fill="#F8F8F8" fill-rule="nonzero" points="320 183.51 223 280.51 223 293.12 227 293.12 320 200.12"></polygon>
            <polygon id="Path" fill="#F8F8F8" fill-rule="nonzero" points="295 162.12 223 234.12 223 270.72 320 173.72 320 162.12"></polygon>
            <polygon id="Path" fill="#F8F8F8" fill-rule="nonzero" points="516 183.51 419 280.51 419 293.12 423 293.12 516 200.12"></polygon>
            <polygon id="Path" fill="#F8F8F8" fill-rule="nonzero" points="491 162.12 419 234.12 419 270.72 516 173.72 516 162.12"></polygon>
            <polygon id="Path" fill="#F8F8F8" fill-rule="nonzero" points="712 183.51 615 280.51 615 293.12 619 293.12 712 200.12"></polygon>
            <polygon id="Path" fill="#F8F8F8" fill-rule="nonzero" points="687 162.12 615 234.12 615 270.72 712 173.72 712 162.12"></polygon>
            <rect id="Rectangle" fill="#FFFFFF" fill-rule="nonzero" x="257" y="619.12" width="137" height="226"></rect>
            <rect id="Rectangle" fill="#DFDFDF" fill-rule="nonzero" x="256.97" y="720.12" width="141.03" height="6"></rect>
            <rect id="Rectangle" fill="#DFDFDF" fill-rule="nonzero" x="758.24" y="360.12" width="59.76" height="12"></rect>
            <circle id="Oval" fill="#D0DBDD" fill-rule="nonzero" cx="860.5" cy="366.12" r="42.5"></circle>
            <circle id="Oval" fill="#FF6F61" fill-rule="nonzero" cx="860.5" cy="366.12" r="29.76"></circle>
            <polygon id="Path" fill="#F8F8F8" fill-rule="nonzero" points="570.13 617.12 453.13 734.12 531 734.12 648 617.12"></polygon>
            <polygon id="Path" fill="#F8F8F8" fill-rule="nonzero" points="563 734.12 680 617.12 665.13 617.12 548.13 734.12"></polygon>
            <polygon id="Path" fill="#F8F8F8" fill-rule="nonzero" points="712 617.12 696.13 617.12 579.13 734.12 614 734.12 712 636.12"></polygon>
            <rect id="Rectangle" fill="#FF6F61" fill-rule="nonzero" x="131" y="540.12" width="680" height="26"></rect>
        </g>
        <path d="M851,379.924023 C852.400237,380.361763 853.890812,380.597826 855.437027,380.597826 C863.572842,380.597826 870.168224,374.062157 870.168224,366 C870.168224,357.937843 863.572842,351.402174 855.437027,351.402174 C853.890812,351.402174 852.400237,351.638237 851,352.075977 C853.786604,350.137701 857.181566,349 860.844681,349 C870.319302,349 878,356.611159 878,366 C878,375.388841 870.319302,383 860.844681,383 C857.181566,383 853.786604,381.862299 851,379.924023 Z M861.001667,357.373016 C855.898536,357.373016 851.76163,361.459306 851.76163,366.5 C851.76163,371.540694 855.898536,375.626984 861.001667,375.626984 C861.687815,375.626984 862.356495,375.55311 863,375.412975 C860.994568,377.030115 858.433174,378 855.642446,378 C849.2125,378 844,372.851275 844,366.5 C844,360.148725 849.2125,355 855.642446,355 C858.433174,355 860.994568,355.969885 863,357.587023 C862.356495,357.44689 861.687815,357.373016 861.001667,357.373016 Z" id="Shape-Copy-3" fill="#293241" fill-rule="nonzero" transform="translate(861.000000, 366.000000) rotate(-360.000000) translate(-861.000000, -366.000000) "></path>
    </g>
</svg>