<?xml version="1.0" encoding="UTF-8"?>
<svg width="800px" height="800px" viewBox="0 0 800 800" version="1.1" xmlns="http://www.w3.org/2000/svg" xmlns:xlink="http://www.w3.org/1999/xlink">
    <!-- Generator: Sketch 55.1 (78136) - https://sketchapp.com -->
    <title>excel-ops</title>
    <desc>Created with Sketch.</desc>
    <g id="excel-ops" stroke="none" stroke-width="1" fill="none" fill-rule="evenodd">
        <g transform="translate(17.000000, 93.000000)">
            <path d="M119,440.899209 L119,175 L73,175 L73,380.229249 C91.852459,392.962451 107.688525,416.93083 119,440.899209 Z M73,530.780632 L73,554 L86.5737705,554 C81.2235411,546.766356 76.6727407,538.981732 73,530.780632 L73,530.780632 Z" id="Shape" fill="#293241" fill-rule="nonzero"></path>
            <path d="M119,175 L119,439.401186 C129.486692,461.871542 136.977186,485.090909 139.224335,497.075099 C143.718631,518.047431 158.69962,531.529644 158.69962,553.250988 L158.69962,554 L316,554 L316,175 L119,175 Z" id="Path" fill="#98C0D9" fill-rule="nonzero"></path>
            <path d="M76.7648262,197.39599 L55,197.39599 L55,372 M415.245399,73 L415.245399,320.293233 L422,320.293233" id="Shape" stroke="#293241" stroke-width="4"></path>
            <path d="M648.069307,591 L600.975248,512 M669,591 L622.653465,512.745283 M518,584.292453 L560.608911,512.745283" id="Shape" stroke="#000000" stroke-width="4" stroke-linecap="round" stroke-linejoin="round"></path>
            <polyline id="Path" stroke="#000000" stroke-width="2.5" stroke-linecap="round" stroke-linejoin="round" points="631.25 336 698 336 650 511 527 511 527 504.269231 617.75 504.269231 620 463.884615"></polyline>
            <path d="M484.297337,451 C473.875575,451 424,568.298851 424,572.034483 C424,575.770115 435.166174,581 436.654997,581 C438.888231,578.758621 486.530572,509.275862 491.741453,504.793103 C496.952334,500.310345 484.297337,451 484.297337,451 Z" id="Path" fill="#293241" fill-rule="nonzero"></path>
            <path d="M512.410526,392.439024 C509.462061,389.98878 505.763031,388.652268 501.947368,388.658515 C493.726316,388.658515 487,393.95122 487,400 M558,369 C553.515789,373.536585 546.789474,381.853659 543.052632,390.926829" id="Shape" stroke="#000000" stroke-width="2.5" stroke-linecap="round" stroke-linejoin="round"></path>
            <path d="M586,342.801102 C584.057363,342.142455 582.00077,341.885733 579.955556,342.046581 C570.133333,342.046581 552,360.909592 552,363.173153 C552,365.436714 561.822222,372.981918 570.888889,376" id="Path" stroke="#000000" stroke-width="2.5" stroke-linecap="round" stroke-linejoin="round"></path>
            <path d="M568,394.403086 C570.248257,367.489217 578.491865,340.575347 601.723853,333.84688 M653.433761,371.974862 C663.925626,410.850451 657.180856,465.425798 652.684342,468.416228 C645.190152,474.397088 580.740122,474.397088 576.243609,469.163836 C574.744771,466.921013 568.749419,442.249966 568,414.588489 M624.955841,333.84688 C633.948868,336.837309 640.693639,342.818169 645.939571,351.789459 M613.714556,342.070562 C618.960489,342.070562 624.955841,340.575347 624.955841,338.332524 L624.955841,312.91387 M601.723853,324.87559 L601.723853,333.84688 M611.466299,324.87559 C609.059517,325.698272 606.494535,325.95415 603.97211,325.623197 C591.231988,323.380375 583.737798,306.93301 586.735474,288.242822 L586.735474,286 M630.201773,302.447365 C628.926857,306.153137 627.162692,309.672939 624.955841,312.91387" id="Shape" stroke="#000000" stroke-width="2.5" stroke-linecap="round" stroke-linejoin="round"></path>
            <path d="M635,255.878049 C638,249.926829 646.25,241 663.5,241 C674.75,241 686,246.95122 700.25,246.95122 C711.5,246.95122 722,242.487805 735.5,242.487805 C759.5,242.487805 767,258.109756 767,267.780488 C767,292.329268 746.75,302 731.75,302 C707.75,302 704.75,285.634146 676.25,285.634146 C648.5,285.634146 652.25,263.317073 646.25,263.317073 C644.759467,263.080674 643.240533,263.080674 641.75,263.317073" id="Path" stroke="#000000" stroke-width="2.5"></path>
            <path d="M628.068966,309 C640.022989,309 646,296.25 646,280.5 C646,254.25 622.83908,249 613.126437,249 C586.229885,249 581,268.5 581,274.5 C581,280.5 584.735632,285 586.229885,285 C587.724138,278.25 592.954023,268.5 592.954023,267.75 C595.533584,270.30618 598.576891,272.342854 601.91954,273.75" id="Path" stroke="#000000" stroke-width="2.5" stroke-linecap="round" stroke-linejoin="round"></path>
            <path d="M626.247472,289.747126 C626.944342,289.367751 627.702847,289.114805 628.487869,289 C631.189471,289.940582 633,292.488802 633,295.350575 C633,298.212348 631.189471,300.760567 628.487869,301.701149 C627.991549,301.756664 627.490591,301.756664 626.994271,301.701149 M567.250336,413.770115 C574.718328,416.758621 582.18632,419 591.14791,419 C597.869103,419 611.311488,414.517241 621.766676,404.057471 M600.856299,383.137931 C595.652751,387.203204 591.332819,392.287704 588.160713,398.08046 C581.439521,396.586207 556.795148,390.609195 534.391172,390.609195 L524.682783,389.114943 C511.987197,389.114943 509,395.83908 509,398.08046 L509.746799,400.321839 C538.871967,400.321839 553.807951,407.793103 567.250336,413.770115" id="Shape" stroke="#000000" stroke-width="2.5" stroke-linecap="round" stroke-linejoin="round"></path>
            <path d="M633.489922,352.534213 C641.040969,350.286145 647.836912,350.286145 651.612435,354.032925 C665.959425,367.521333 630.469503,405.738491 624.428665,404.989135 C618.387827,404.239779 598,382.508454 598,376.513606 C598,374.265538 602.530628,369.020045 609.326571,364.523909" id="Path" stroke="#000000" stroke-width="2.5" stroke-linecap="round" stroke-linejoin="round"></path>
            <polygon id="Path" fill="#293241" fill-rule="nonzero" points="364 403 681 403 681 413 364 413"></polygon>
            <path d="M663.625,565.457831 L663.625,410 M400.375,565.457831 L400.375,410 M641.875,597 L641.875,410 M376.375,597 L376.375,410 M533.875,594.746988 L582.625,512.88755" id="Shape" stroke="#000000" stroke-width="4" stroke-linecap="round" stroke-linejoin="round"></path>
            <polygon id="Path" fill="#293241" fill-rule="nonzero" points="480 400 532 400 532 402 480 402"></polygon>
            <polyline id="Path" stroke="#000000" stroke-width="2.5" stroke-linecap="round" stroke-linejoin="round" points="458.590909 361 422 361 422 278 537 278 537 361 486.220779 361"></polyline>
            <polygon id="Path" stroke="#000000" stroke-width="2.5" stroke-linecap="round" stroke-linejoin="round" points="462.568966 345 447 402 474.431034 402 490 345"></polygon>
            <path d="M485.329312,76 C496.323361,64.8757757 498.152293,47.6843608 489.742257,34.519619 C481.332222,21.3548771 464.903554,15.692432 450.102273,20.8569633 C440.680558,6.57997331 424.106501,-1.36622336 407.003352,0.193796948 C389.900204,1.75381726 375.057079,12.5656524 368.405522,28.308725 C355.087515,22.9381293 339.809385,26.5479308 330.345476,37.3012661 C320.881567,48.0546014 319.310965,63.5891145 326.432879,76 L485.329312,76 Z" id="Path" fill="#293241" fill-rule="nonzero"></path>
            <polyline id="Path" stroke="#293241" stroke-width="4" points="403 70 403 123.122302 238 123.122302 238 174"></polyline>
            <path d="M144.5,596 C149,596 158,581.049834 158,552.644518 C158,531.714286 143,517.511628 138.5,497.328904 C131.75,465.186047 98.75,371 46.25,371 C40.25,371 32,383.707641 32,409.870432 C32,441.265781 62.75,473.408638 62.75,480.136213 C62.75,557.129568 131,596 144.5,596 Z" id="Path" stroke="#000000" stroke-width="2.5" stroke-linecap="round" stroke-linejoin="round"></path>
            <path d="M145,596 C145,591.505085 139,563.786441 136,556.294915 C133,548.80339 120.25,513.59322 118,503.854237 C115.75,494.115254 79.75,398.972881 46,375 M129.25,539.813559 L72.25,527.827119 M132.25,547.305085 L79.75,543.559322 M115.75,497.111864 L63.25,480.630508 M121,514.342373 L136.75,502.355932 M90.25,437.179661 L106,419.2 M85,427.440678 L99.25,409.461017" id="Shape" stroke="#000000" stroke-width="2.5" stroke-linecap="round" stroke-linejoin="round"></path>
            <polygon id="Path" fill="#293241" fill-rule="nonzero" points="135 199 299 199 299 230 135 230"></polygon>
            <circle id="Oval" fill="#98C0D9" fill-rule="nonzero" cx="287.5" cy="210.5" r="5.5"></circle>
            <path d="M192,210.5 L277,210.5" id="Path" stroke="#F3F3F3" stroke-width="4" stroke-linecap="round" stroke-linejoin="round"></path>
            <polygon id="Path" fill="#293241" fill-rule="nonzero" points="135 253 299 253 299 284 135 284"></polygon>
            <circle id="Oval" fill="#98C0D9" fill-rule="nonzero" cx="287.5" cy="264.5" r="5.5"></circle>
            <path d="M192,264.5 L277,264.5" id="Path" stroke="#F3F3F3" stroke-width="4" stroke-linecap="round" stroke-linejoin="round"></path>
            <polygon id="Path" fill="#293241" fill-rule="nonzero" points="135 306 299 306 299 337 135 337"></polygon>
            <circle id="Oval" fill="#98C0D9" fill-rule="nonzero" cx="287.5" cy="317.5" r="5.5"></circle>
            <path d="M192,317.5 L277,317.5" id="Path" stroke="#F3F3F3" stroke-width="4" stroke-linecap="round" stroke-linejoin="round"></path>
            <polygon id="Path" fill="#293241" fill-rule="nonzero" points="135 360 299 360 299 391 135 391"></polygon>
            <circle id="Oval" fill="#98C0D9" fill-rule="nonzero" cx="287.5" cy="371.5" r="5.5"></circle>
            <path d="M192,370.5 L277,370.5" id="Path" stroke="#F3F3F3" stroke-width="4" stroke-linecap="round" stroke-linejoin="round"></path>
            <polygon id="Path" fill="#293241" fill-rule="nonzero" points="135 413 299 413 299 444 135 444"></polygon>
            <circle id="Oval" fill="#98C0D9" fill-rule="nonzero" cx="287.5" cy="424.5" r="5.5"></circle>
            <path d="M192,424.5 L277,424.5" id="Path" stroke="#F3F3F3" stroke-width="4" stroke-linecap="round" stroke-linejoin="round"></path>
            <path d="M84,221.37561 L109,221.37561 M84,227.385366 L109,227.385366 M84,264.946341 L109,264.946341 M84,270.956098 L109,270.956098 M84,317.531707 L109,317.531707 M84,323.541463 L109,323.541463 M84,368.614634 L109,368.614634 M84,374.62439 L109,374.62439" id="Shape" stroke="#F3F3F3" stroke-width="2" stroke-linecap="round" stroke-linejoin="round"></path>
            <path d="M591.5,265 C591.709444,266.346535 592.222358,267.627905 593,268.747323 M518.75,589.518201 L521.75,607.505353 L482.75,615 L509.75,597.762313 L508.25,591.017131 M436.25,579.775161 L426.5,595.513919 L392,574.528908 L423.5,579.775161 L427.25,573.779443" id="Shape" stroke="#000000" stroke-width="2.5" stroke-linecap="round" stroke-linejoin="round"></path>
            <path d="M651.879976,474.529119 C651.879976,471.52724 652.630126,467.774892 650.379677,467.024422 C603.120254,446.761741 533.356344,444.510332 522.104101,444.510332 C510.851857,444.510332 480.095725,445.260802 480.095725,454.266438 C480.095725,487.287103 498.099314,587.099567 501.850062,590.851915 C503.350361,593.103324 519.103502,591.602385 520.603801,590.101445 C520.603801,581.846279 525.854848,498.544147 521.353951,488.788042 C561.111878,503.046965 606.871002,510.551662 618.873395,510.551662 C653.380275,510.551662 651.879976,478.281467 651.879976,474.529119 Z M63.0125639,479.782406 C63.0125639,476.030058 52.5104699,463.272074 44.2588246,447.512211 C28.5056836,435.504697 14.2528418,428 6.00119656,428 C1.50029914,428 0,436.255166 0,440.007514 C0,485.035694 48.0095725,537.568569 90.0179484,557.08078 C75.014957,538.319039 63.0125639,512.052601 63.0125639,479.782406 Z" id="Shape" fill="#293241" fill-rule="nonzero"></path>
        </g>
    </g>
</svg>