<?xml version="1.0" encoding="UTF-8"?>
<svg width="908px" height="683px" viewBox="0 0 908 683" version="1.1" xmlns="http://www.w3.org/2000/svg" xmlns:xlink="http://www.w3.org/1999/xlink">
    <!-- Generator: Sketch 55.1 (78136) - https://sketchapp.com -->
    <title>Artboard</title>
    <desc>Created with Sketch.</desc>
    <g id="Artboard" stroke="none" stroke-width="1" fill="none" fill-rule="evenodd">
        <g id="formation" transform="translate(72.000000, 76.000000)">
            <path d="M677,295.096386 C673.769231,279.072289 658.423077,231 620.461538,231 C604.307692,231 593,247.825301 593,269.457831 C593,298.301205 632.576923,319.933735 639.038462,326.343373 C647.923077,335.957831 653.576923,358.391566 663.269231,364" id="Path" stroke="#000000" stroke-width="2.5" stroke-linecap="round" stroke-linejoin="round"></path>
            <path d="M676.428571,394 C672.420635,394 662,365.139241 662,341.088608 C662,313.831224 686.849206,280.160338 690.857143,268.135021 C696.468254,246.489451 706.087302,204 736.547619,204 C753.380952,204 763,223.240506 763,242.481013 C763,260.919831 745.365079,276.953586 728.531746,295.392405 C712.5,313.831224 714.103175,329.063291 705.285714,351.510549 C696.468254,373.957806 681.238095,394 676.428571,394 Z" id="Path" stroke="#000000" stroke-width="2.5" stroke-linecap="round" stroke-linejoin="round"></path>
            <path d="M675.779528,388 C670.15748,355.116751 705.496063,257.269036 732,230 M630,254.862944 C634.015748,258.071066 657.307087,294.964467 665.338583,322.233503" id="Shape" stroke="#000000" stroke-width="2.5" stroke-linecap="round" stroke-linejoin="round"></path>
            <polygon id="Path" fill="#C9C9C9" fill-rule="nonzero" points="699.25 491.747312 677.5 482.134409 681.527778 468.516129 689.583333 470.11828 709.722222 458.102151 721 382 634 382 655.75 531 699.25 531 707.305556 476.526882"></polygon>
            <path d="M417.145349,401.860158 C412.713269,412.675146 406.153834,422.493878 397.854651,430.736148 C372.9375,424.319261 349.627907,420.308707 337.571221,419.506596 C329.53343,409.881266 314.261628,396.245383 296.578488,381.005277 L291.755814,377.796834 L291.755814,376.994723 L286.93314,372.984169 L286.12936,372.984169 L255.585756,349.722955 L249.959302,338.493404 C248.888381,338.551256 247.815107,338.551256 246.744186,338.493404 C241.117733,333.680739 223.434593,287.158311 235.491279,268.709763 C232.276163,263.094987 229.864826,254.271768 229.864826,241.437995 L230.668605,231.812665 C222.630814,228.604222 214.593023,227 207.359012,227 C162.347384,227 131,255.875989 131,322.451187 C131,406.672823 164.758721,478.060686 212.181686,531 L670.335756,531 C679.981105,516.562005 684,505.332454 684,500.519789 C684,459.612137 556.199128,415.496042 417.145349,401.860158 Z M602.014535,486.081794 L592.369186,464.424802 L605.229651,457.205805 L609.248547,463.622691 L643.811047,470.841689 L602.014535,486.081794 Z" id="Shape" fill="#9ADBBA" fill-rule="nonzero"></path>
            <path d="M52.8,350.697674 C48,350.697674 46.4,345 40,345 C36,345 28,347.44186 28,351.511628 L32,380 L55.2,380 L60,348.255814 C59.2,349.883721 56.8,350.697674 52.8,350.697674 Z" id="Path" fill="#000000" fill-rule="nonzero"></path>
            <path d="M314,195.807692 L314.810362,195 C314.810362,263.653846 335.879781,262.846154 335.879781,272.538462 C336.040073,274.689345 336.040073,276.849117 335.879781,279" id="Path" stroke="#000000" stroke-width="2.5" stroke-linecap="round" stroke-linejoin="round"></path>
            <path d="M91.4017857,63 L91.4017857,0 M495.598214,63 L495.598214,0" id="Shape" stroke="#C4C4C4" stroke-width="2.38" stroke-linecap="round" stroke-linejoin="round"></path>
            <path d="M324.598917,271.876712 C314.356676,265.33607 303.566799,259.689513 292.349594,255 M389.097564,324.114155 C375.895842,310.643649 361.604135,298.279222 346.367211,287.146119 M273,363.493151 C299.605692,383.584475 325.40515,406.086758 337.498647,419.748858 C349.592143,420.552511 372.972902,424.570776 397.966128,431 C412.478324,415.730594 423.765587,396.442922 422.959354,372.333333 C416.509489,357.063927 403.60976,340.187215 389.097564,324.114155" id="Shape" stroke="#000000" stroke-width="2.5" stroke-linecap="round" stroke-linejoin="round"></path>
            <path d="M293.005518,241 C292.952284,247.010209 293.284238,253.018548 294,259" id="Path" stroke="#000000" stroke-width="2.5" stroke-linecap="round" stroke-linejoin="round"></path>
            <path d="M314.186047,198 C314.593945,200.123839 314.865802,202.270956 315,204.428571 C315,226.125 301.162791,243 284.883721,243 C283.231782,242.901899 281.594873,242.632561 280,242.196429" id="Path" stroke="#000000" stroke-width="2.5" stroke-linecap="round" stroke-linejoin="round"></path>
            <path d="M284.704545,290.580645 C287.081206,292.124326 289.836761,292.962421 292.659091,293 C299.022727,293 303,285.741935 303,280.903226 C303,260.741935 274.363636,244.612903 268,218" id="Path" stroke="#000000" stroke-width="2.5" stroke-linecap="round" stroke-linejoin="round"></path>
            <path d="M276.577922,202.4 C287.017801,196 299.866883,184.8 299.866883,179.2 C299.866883,184 313.519032,198.4 315.928235,199.2 C316.731303,196 311.109829,156 283.002463,156 C245.258285,156 230,210.4 230,240.8 C230,253.6 232.409203,262.4 235.621473,268" id="Path" stroke="#000000" stroke-width="2.5" stroke-linecap="round" stroke-linejoin="round"></path>
            <polygon id="Path" fill="#C9C9C9" fill-rule="nonzero" points="463.97561 354.508197 435 377 439.02439 301.491803 468 279"></polygon>
            <path d="M389,296.5 L431.761364,303 M455.159091,277 L434.181818,303 M460,279.4375 L435.795455,302.1875" id="Shape" stroke="#D3D3D3" stroke-width="2.4" stroke-linecap="round" stroke-linejoin="round"></path>
            <path d="M90.2870662,63 C61.5903934,63.4292322 38.4316018,86.4608775 38,115 L143.378549,115 C142.938999,86.1522607 119.29739,62.9966882 90.2870662,63 Z M495.712934,63 C466.70261,62.9966882 443.061001,86.1522607 442.621451,115 L548,115 C547.568398,86.4608775 524.409607,63.4292322 495.712934,63 Z" id="Shape" fill="#293241" fill-rule="nonzero"></path>
            <path d="M0,381.14218 L162,381.14218 L0,381.14218 Z M81.4029851,381.14218 L81.4029851,531 L81.4029851,381.14218 Z M87.0447761,361 L124.119403,361 L124.119403,381.14218 L87.0447761,381.14218 L87.0447761,361 Z" id="Shape" stroke="#C4C4C4" stroke-width="2.38" stroke-linecap="round" stroke-linejoin="round"></path>
            <path d="M270,217.577238 C267.019472,219.692771 262.82715,219.422386 260.18493,216.944212 C257.542711,214.466038 257.26318,210.542211 259.530493,207.757744 C261.797806,204.973276 265.914674,204.184501 269.16891,205.911063" id="Path" stroke="#000000" stroke-width="2.5" stroke-linecap="round" stroke-linejoin="round"></path>
            <polygon id="Path" fill="#D3D3D3" fill-rule="nonzero" points="435.111111 376.587629 425 379 429.666667 303.412371 439 301"></polygon>
            <path d="M677.221517,482.369575 L698.914191,492 L719,452.675763 L689.273002,470.331543 L681.238679,468.726472 L677.221517,482.369575 Z M284.343087,291.36614 C288.481743,299.751197 291.455111,308.661343 293.180844,317.84981 C288.360249,324.270093 261.846981,339.518266 246.581766,338.715731 C239.350875,333.097983 216.854768,271.302754 244.171469,261.672329 C253.812657,258.462187 272.291602,266.487541 284.343087,291.36614 L284.343087,291.36614 Z" id="Shape" stroke="#000000" stroke-width="2.5" stroke-linecap="round" stroke-linejoin="round"></path>
            <polyline id="Path" stroke="#C4C4C4" stroke-width="2.38" stroke-linecap="round" stroke-linejoin="round" points="62 333 55.6 380 32.4 380 26 333"></polyline>
            <path d="M387.051724,301 L384.62069,343.618557 C387.862069,339.597938 390.293103,330.752577 391.103448,330.752577 C392.724138,330.752577 395.155172,330.752577 396.775862,333.969072 C402.448276,345.226804 396.775862,365.329897 390.293103,366.134021 L383,367.742268 L383,376.587629 L425.137931,379 L430,303.412371 L387.051724,301 Z" id="Path" fill="#9ADBBA" fill-rule="nonzero"></path>
            <polygon id="Path" stroke="#000000" stroke-width="2.5" stroke-linecap="round" stroke-linejoin="round" points="593 464.25 602.5625 486 644 470.694444 609.734375 463.444444 605.75 457"></polygon>
            <path d="M681.415251,461.257196 C676.588772,452.443031 486.747244,393.949028 465.028086,393.14774 C424.00301,386.737438 397.457372,408.372206 387,428.404399 C425.611836,436.417276 470.658978,449.23788 482.725177,454.045606 L490.76931,454.045606 L523.750253,453.244318 C532.598799,456.449469 563.970916,463.661059 596.147446,470.872648 L592.929793,464.462347 L605.800405,457.250757 L609.822472,463.661059 L644.412242,470.872648 L625.106323,477.28295 C651.651961,483.693252 673.371119,487.69969 674.979945,486.898403 C678.197598,485.295827 683.828491,465.263634 681.415251,461.257196 Z" id="Path" fill="#293241" fill-rule="nonzero"></path>
            <path d="M78,115 C79.5130553,121.244548 84.988873,125.629561 91.273743,125.629561 C97.5586131,125.629561 103.034431,121.244548 104.547486,115 L78,115 Z M482.648045,115 C482.648045,122.731986 488.770988,129 496.324022,129 C503.877056,129 510,122.731986 510,115 L482.648045,115 Z" id="Shape" stroke="#C4C4C4" stroke-width="2.38" stroke-linecap="round" stroke-linejoin="round"></path>
            <path d="M250,338.657895 L255.641653,349.894737 C269.342809,359.526316 283.849915,370.763158 296.745121,382 C326.565284,378.789474 385.399661,368.355263 390.235363,366.75 C396.682966,365.947368 402.324618,345.881579 396.682966,334.644737 C395.071065,331.434211 392.653214,331.434211 391.041313,331.434211 C389.429413,331.434211 386.205611,345.881579 382.175859,346.684211 L299.162972,352.302632 C298.357022,349.092105 293.52132,328.223684 290.297518,321" id="Path" stroke="#000000" stroke-width="2.5" stroke-linecap="round" stroke-linejoin="round"></path>
            <path d="M515.243902,293.050874 C475.804878,301.899434 409,373.492328 376,425.779273 C400.146341,430.60576 429.121951,437.845491 450.853659,444.280807 C484.658537,417.735128 508.804878,376.709986 512.02439,371.883499 C521.682927,390.385033 586.878049,466 590.902439,466 C594.926829,466 603.780488,462.782342 607,457.15144 C603.780488,440.258735 535.365854,289.833216 515.243902,293.050874 Z" id="Path" fill="#293241" fill-rule="nonzero"></path>
        </g>
    </g>
</svg>