<?xml version="1.0" encoding="UTF-8"?>
<svg width="908px" height="858px" viewBox="0 0 908 858" version="1.1" xmlns="http://www.w3.org/2000/svg" xmlns:xlink="http://www.w3.org/1999/xlink">
    <!-- Generator: Sketch 55.1 (78136) - https://sketchapp.com -->
    <title>hero</title>
    <desc>Created with Sketch.</desc>
    <g id="Page-1" stroke="none" stroke-width="1" fill="none" fill-rule="evenodd">
        <g id="hero">
            <rect id="Rectangle" fill="#FFFFFF" fill-rule="nonzero" x="78" y="1" width="709" height="707"></rect>
            <g>
                <g id="Background" transform="translate(78.000000, 0.000000)" fill-rule="nonzero">
                    <path d="M728.7,205.935933 L728.7,233.520195 L711.7,233.520195 C714.1,235.810585 717.5,238.100975 722.3,240.391365 C723.153884,240.650157 725.565239,241.389336 728.7,242.389791 L728.7,242.482591 C725.4,241.486769 722.9,240.690111 722,240.391365 C702.6,231.030641 705.9,220.972841 706.1,219.180362 C706.1,219.180362 703.4,222.466574 702.5,225.553621 C701.809324,227.97999 702.204487,230.703259 703.294265,233.520195 L377.9,233.520195 L377.9,248.656685 L713.835645,248.656685 C719.3749,254.575016 724.8,258.913649 724.8,258.913649 L722,264.788997 L715.1,277.834262 L712,284.008357 L712.9,285.800836 L716.6,289.584958 L717.9,291.178273 L717.9,296.456128 L718.4,299.443593 L720.7,303.924791 L724,307.211003 L726.6,309.302228 L725.6,324.637883 C718.9,327.426184 713.3,331.807799 708.4,337.384401 C708.4,337.384401 708.3,337.284819 708.3,337.284819 C703.408139,335.424206 696.33513,338.332876 689.1,343.531748 L689.1,288.190808 L398.2,288.190808 L398.2,626.670613 L689.1,626.670613 L689.1,502.298583 C696.271784,506.70224 712.066174,507.573886 728.7,506.773677 L728.7,714.302925 L74.1,714.302925 C74.7,713.307103 75.2,712.610028 75.5,712.112117 C90,689.80571 138.2,665.308496 138.2,612.032033 C138.2,604.463788 135.5,594.505571 123.3,594.505571 C111.1,594.505571 97.9,629.75766 83.2,629.75766 C79.9,629.75766 77.9,626.172702 77.9,622.986072 C77.9,619.799443 88,584.746518 88,567.717967 C88,566.124652 87.9,564.630919 87.7,563.037604 C86.1,564.033426 84.2,564.630919 82.1,564.630919 C76.1,564.630919 71.2,559.751393 71.2,553.776462 C71.2,548.498607 74.9,544.116992 79.9,543.12117 C74.8,536.648329 67.3,532.067549 57.1,532.067549 C44.2,532.067549 26,543.519499 26,561.245125 C26,566.224234 27.5,578.87117 27.5,590.32312 C27.5,623.683148 14,642.504178 0.9,662.619777 L0.9,2.27373675e-13 L728.7,2.27373675e-13 L728.7,105.357939 L377.9,105.357939 L377.9,120.494429 L728.7,120.494429 L728.7,148.078691 L377.9,148.078691 L377.9,163.215181 L728.7,163.215181 L728.7,190.799443 L377.9,190.799443 L377.9,205.935933 L728.7,205.935933 Z M36.5,288.190808 L36.5,445.132312 L327.4,445.132312 L327.4,288.190808 L36.5,288.190808 Z M36.5,94.005571 L36.5,250.947075 L327.4,250.947075 L327.4,94.005571 L36.5,94.005571 Z" id="Combined-Shape" fill="#D0DBDD"></path>
                    <rect id="Rectangle" fill="#E1E1E1" x="0.9" y="0" width="727.7" height="54.3718663"></rect>
                    <ellipse id="Oval" fill="#293241" cx="39.3" cy="27.8830084" rx="8.6" ry="8.56406685"></ellipse>
                    <ellipse id="Oval" fill="#293241" cx="67" cy="27.8830084" rx="8.6" ry="8.56406685"></ellipse>
                    <ellipse id="Oval" fill="#293241" cx="94.7" cy="27.8830084" rx="8.6" ry="8.56406685"></ellipse>
                </g>
                <g id="Group-2" transform="translate(124.000000, 301.000000)">
                    <rect id="Rectangle" fill="#F3F3F3" fill-rule="nonzero" x="0" y="0" width="184" height="59"></rect>
                    <circle id="Oval" fill="#DFDFDF" fill-rule="nonzero" cx="30.5" cy="28.5" r="19.5"></circle>
                    <rect id="Rectangle" fill="#DFDFDF" fill-rule="nonzero" x="63" y="11" width="108" height="7"></rect>
                    <rect id="Rectangle" fill="#DFDFDF" fill-rule="nonzero" x="63" y="26" width="36" height="7"></rect>
                    <polyline id="Path" stroke="#F3F3F3" stroke-width="6" points="43 21 27.4373164 37 21 30.3762548"></polyline>
                </g>
                <g id="Group-2-Copy" transform="translate(124.000000, 372.000000)">
                    <rect id="Rectangle" fill="#F3F3F3" fill-rule="nonzero" x="0" y="0" width="184" height="59"></rect>
                    <circle id="Oval" fill="#DFDFDF" fill-rule="nonzero" cx="30.5" cy="28.5" r="19.5"></circle>
                    <rect id="Rectangle" fill="#DFDFDF" fill-rule="nonzero" x="63" y="11" width="108" height="7"></rect>
                    <rect id="Rectangle" fill="#DFDFDF" fill-rule="nonzero" x="63" y="26" width="36" height="7"></rect>
                    <polyline id="Path" stroke="#F3F3F3" stroke-width="6" points="43 21 27.4373164 37 21 30.3762548"></polyline>
                </g>
                <path d="M859.613637,497.815303 C802.844641,510.476891 770.927091,510.476891 763.860986,497.815303 C759.953662,477.849094 758.851906,453.371274 760.555717,424.381845 C745.732085,435.935602 732.444235,444.094875 720.692166,448.859664 C704.769554,445.42053 679.295609,428.173286 644.270333,397.117932 C620.54046,391.070254 608.454526,386.957449 608.01253,384.779519 C607.570535,382.601588 618.821805,382.601588 641.766341,384.779519 C638.582243,377.783 638.582243,373.703363 641.766341,372.540609 C645.223065,375.13569 649.256534,379.794681 653.866748,386.517583 L712.114437,415.261807 L740.623942,384.779519 C740.623942,384.779519 739.856051,383.13725 738.320269,379.852713 C742.45145,368.626779 763.860986,336.155494 786.797552,336.818913 C792.74036,330.502592 798.516234,326.290284 804.125176,324.18199 C804.125176,318.576367 804.459042,313.720984 805.126773,309.615841 C796.780133,303.292958 793.942276,297.169807 796.613201,291.246387 L790.102822,284.241725 C793.842116,276.042402 798.115596,267.398755 802.92326,258.310784 C790.637007,248.387314 783.291964,238.967666 780.888131,230.051838 C780.888131,221.892565 785.377116,214.84354 784.49388,221.892565 C782.149957,240.599191 820.96841,244.144324 841.796206,256.139736 C854.606208,263.517437 858.193694,290.88829 839.581702,295.326023 C838.517374,295.579795 831.423224,309.615841 829.465574,324.18199 C829.343613,325.089461 830.576619,323.918184 831.423224,324.18199 C845.67626,328.623299 856.308368,335.238725 863.319545,344.028267 C871.29932,346.986383 878.86258,354.034309 886.009325,365.172046 C893.15607,376.309783 896.309895,387.42276 895.470801,398.510978 C903.8236,415.758222 908,441.299549 908,475.090851 C890.001565,501.668896 886.009325,509.336359 854.004695,543.188822 L844.189047,545 L844.189047,530.352893 L859.613637,497.815303 Z M865,432.902041 L860.9,494.125322 L880.8,457.88383 L865,432.902041 Z" id="Combined-Shape" fill="#FFFFFF" fill-rule="nonzero"></path>
                <g id="personnage" transform="translate(567.000000, 222.000000)">
                    <path d="M295.8,122.818838 C289,113.861224 277.7,105.699843 262,102.415385" id="Path" stroke="#293241"></path>
                    <path d="M293.6,273.505808 C295.6,265.04584 296.3,240.661224 298,210.902041" id="Path" stroke="#293241"></path>
                    <path d="M236.7,102.614443 C180.1,126.103297 192.6,266.339717 196.5,276.193093 C203.1,292.913972 284.8,280.970487 292.1,276.49168" id="Path" stroke="#293241" fill="#FFFFFF" fill-rule="nonzero"></path>
                    <path d="M272.1,73.7510204 C265.6,81.7133438 261.1,106.197488 261,108.984301 C260,110.676295 255.1,111.17394 250.2,111.273469" id="Path" stroke="#293241" stroke-width="1.0746" stroke-linecap="round"></path>
                    <path d="M173.3,163.22763 C164.1,171.189953 146,191.493878 144.5,194.081633 C139.9,191.891994 92,166.810675 88.4,165.21821 C84.8,163.625746 77.2,150.985557 74.6,150.985557 C73.1,150.985557 71.7,153.8719 71.7,155.86248 C71.7,159.246468 73.3,161.834223 74.3,162.929042 C70.9,162.431397 40.9,160.142229 40.9,162.13281 C40.9,167.30832 74.5,174.175824 77.1,175.569231 C79.7,176.962637 134.4,227.324333 153.4,227.324333 C160.8,227.324333 193.2,205.228885 193.2,202.840188" id="Path" stroke="#293241" stroke-linecap="round" stroke-linejoin="round"></path>
                    <polyline id="Path" stroke="#293241" stroke-linecap="round" stroke-linejoin="round" points="287.5 608.520565 287.5 625.042386 245.3 625.042386 272.2 608.520565"></polyline>
                    <path d="M287.5,608.520565 L287.5,585.429827" id="Path" stroke="#293241" stroke-linecap="round" stroke-linejoin="round"></path>
                    <path d="M272.4,608.520565 L272.4,585.429827" id="Path" stroke="#293241" stroke-linecap="round" stroke-linejoin="round"></path>
                    <polyline id="Path" stroke="#293241" stroke-linecap="round" stroke-linejoin="round" points="106.5 510.982104 106.5 527.503925 64.4 527.503925 91.2 510.982104"></polyline>
                    <path d="M106.5,516.953846 L106.5,493.863108" id="Path" stroke="#293241" stroke-linecap="round" stroke-linejoin="round"></path>
                    <path d="M91.5,510.982104 L91.5,491.972057" id="Path" stroke="#293241" stroke-linecap="round" stroke-linejoin="round"></path>
                    <rect id="socle" stroke="#D0DBDD" stroke-width="2" fill="#FFFFFF" fill-rule="nonzero" stroke-linecap="round" stroke-linejoin="round" x="0" y="527.503925" width="182.1" height="106.097959"></rect>
                    <path d="M289.4,194.579278 C290.3,200.053375 311.3,232.997488 313.8,235.88383 C308.5,240.462166 279,304.658399 276.7,308.838619 C276.7,311.227316 283.9,319.09011 286.5,321.677865 C290.9,321.677865 340.4,258.277865 340.4,251.111774 C340.4,243.945683 341.2,197.167033 327.9,176.962637" id="Path" stroke="#293241" stroke-linecap="round"></path>
                    <path d="M283.5,193.583987 C290.7,196.669388 325.7,186.218838 328.5,175.66876 C331.5,160.0427 307.9,115.055573 286.9,123.515542" id="Path" stroke="#293241" stroke-linecap="round"></path>
                    <path d="M286.4,321.777394 C283.8,319.189639 276.6,311.326845 276.6,308.938148 C277.7,307.047096 284.5,292.316797 292.1,276.690738 C273.3,281.766719 226.5,285.548823 209.4,281.66719 C204.8,280.6719 200.2,278.482261 196.5,276.292622 C192,279.178964 125.8,325.260911 95.2,370.447096 C93.6,374.030141 91.2,492.171115 91.2,492.171115 L115.5,494.261224 L137.2,393.637363 C140.7,393.637363 188,375.622606 221.9,354.124333 L262.1,585.628885 L288.2,585.628885 L293.9,315.108948 C290.1,319.09011 287.3,321.777394 286.4,321.777394 Z" id="Path" fill="#293241" fill-rule="nonzero"></path>
                    <path d="M217.1,0.298587127 C217.1,27.1714286 285.3,20.2043956 285.3,54.6414443 C285.3,69.5708006 277.1,73.1538462 272.3,73.1538462" id="Path" stroke="#293241" stroke-width="1.0746" stroke-linecap="round"></path>
                    <path d="M213.5,8.4599686 C213.5,11.4458399 217.3,19.8062794 228.3,30.1572998" id="Path" stroke="#293241" stroke-width="1.0746" stroke-linecap="round"></path>
                    <path d="M235.5,36.7262166 C234.3,40.7073783 223.3,60.0160126 223.3,62.4047096 C223.3,64.7934066 228.8,67.8788069 228.8,69.5708006 C228.8,71.2627943 226.6,80.1208791 237.6,87.3864992 C237.1,90.6709576 236.7,102.614443 236.7,102.614443" id="Path" stroke="#293241" stroke-width="1.0746" stroke-linecap="round"></path>
                    <ellipse id="Oval" fill="#293241" fill-rule="nonzero" cx="239.2" cy="51.8546311" rx="1.5" ry="1.49293564"></ellipse>
                    <path d="M235.5,74.4477237 C233.5,75.3434851 231.4,75.9406593 229.2,76.2392465" id="Path" stroke="#293241" stroke-width="1.0746" stroke-linecap="round"></path>
                    <path d="M219.4,115.155102 C205,109.681005 171.6,145.51146 171,159.445526 C173.6,166.31303 187.2,174.872527 196.1,179.550392" id="Path" stroke="#293241" stroke-width="0.95"></path>
                </g>
                <g id="plant" transform="translate(0.000000, 525.000000)" fill-rule="nonzero">
                    <polygon id="Path" stroke="#D0DBDD" stroke-width="2" fill="#FFFFFF" stroke-linecap="round" stroke-linejoin="round" points="109.212322 331.304192 38.9123219 330.608383 14.3123219 240.849102 132.212322 240.849102"></polygon>
                    <path d="M64.9123219,240.352096 C62.3123219,236.276647 54.0123219,219.676647 54.0123219,204.567665 C54.0123219,176.934132 61.6123219,158.445509 70.9123219,142.541317 C47.5123219,48.6071856 12.3123219,0.0994011976 7.11232186,2.38562874 C-1.78767814,6.26227545 -4.38767814,82.1053892 11.5123219,160.433533 C11.9123219,160.433533 12.2123219,160.334132 12.6123219,160.334132 C17.2123219,160.334132 20.9123219,164.011976 20.9123219,168.584431 C20.9123219,169.976048 20.6123219,171.268263 20.0123219,172.361677 C22.7123219,173.753293 24.6123219,176.536527 24.6123219,179.717365 C24.6123219,183.693413 21.7123219,187.073054 17.9123219,187.868263 C22.6123219,205.959281 28.5123219,223.851497 35.5123219,240.451497 C39.1123219,240.451497 79.5123219,240.451497 79.5123219,240.451497 L79.5123219,240.451497 C71.3123219,240.451497 64.9123219,240.352096 64.9123219,240.352096 Z" id="Path" fill="#293241"></path>
                    <path d="M200.812322,62.3245509 C188.512322,62.3245509 175.312322,97.5125749 160.712322,97.5125749 C157.512322,97.5125749 155.412322,94.0335329 155.412322,90.7532934 C155.412322,87.5724551 165.512322,52.5832335 165.512322,35.5856287 C165.512322,34.0946108 165.412322,32.5041916 165.212322,30.9137725 C163.612322,31.9077844 161.612322,32.5041916 159.612322,32.5041916 C153.612322,32.5041916 148.712322,27.6335329 148.712322,21.6694611 C148.712322,16.4011976 152.412322,12.1269461 157.412322,11.0335329 C152.312322,4.57245509 144.812322,2.84217094e-14 134.612322,2.84217094e-14 C121.712322,2.84217094e-14 103.512322,11.4311377 103.512322,29.1245509 C103.512322,34.0946108 105.012322,46.7185629 105.012322,58.1497006 C105.012322,122.959281 53.9123219,132.700599 53.9123219,204.468263 C53.9123219,219.577246 62.3123219,236.177246 64.8123219,240.252695 C64.8123219,240.252695 107.612322,240.749701 111.712322,240.749701 C115.812322,240.749701 149.112322,185.482635 152.912322,179.617964 C167.412322,157.352096 215.612322,132.899401 215.612322,79.7197605 C215.612322,72.2646707 212.912322,62.3245509 200.812322,62.3245509 Z" id="Path" stroke="#293241" fill="#FFFFFF" stroke-linecap="round" stroke-linejoin="round"></path>
                </g>
            </g>
            <g id="Group-3" stroke-linecap="round" stroke-linejoin="round" transform="translate(138.000000, 146.000000)" stroke="#293241">
                <path d="M225.326515,3.64428692 L173.237259,55.6507459 C173.449278,56.0041945 173.571149,56.4177341 173.571149,56.859693 C173.571149,58.1610423 172.514517,59.2159943 171.211096,59.2159943 C169.907675,59.2159943 168.851043,58.1610423 168.851043,56.859693 C168.851043,56.3954552 168.985511,55.9625741 169.21768,55.5977566 L137.351245,23.781975 C137.716891,23.3669683 137.938644,22.8225134 137.938644,22.2263477 C137.938644,20.9249984 136.882012,19.8700464 135.578591,19.8700464 C134.27517,19.8700464 133.218539,20.9249984 133.218539,22.2263477 C133.218539,22.8334239 133.448483,23.3868792 133.826156,23.8046297 L127.084897,30.5351738 C127.472288,30.9549541 127.708888,31.5155813 127.708888,32.1313816 C127.708888,33.4327309 126.652257,34.487683 125.348836,34.487683 C124.045414,34.487683 122.988783,33.4327309 122.988783,32.1313816 C122.988783,31.7434089 123.082699,31.3773365 123.24907,31.0545899 L105.78375,13.6170317 C105.819932,13.5497879 105.853067,13.4803697 105.882938,13.40892 C106.250935,12.5287107 106.051143,11.5138214 105.376853,10.8381461 C104.702563,10.1624709 103.686792,9.95930034 102.803847,10.3235033 C101.920902,10.6877062 101.344954,11.5474363 101.344954,12.5012496 C101.344954,12.9071283 101.447757,13.2891065 101.62882,13.6225904 L63.3796434,51.8032175 C63.0113404,50.9807898 62.1847306,50.4077115 61.2240581,50.4077115 C60.3342661,50.4077115 59.5594837,50.8993436 59.1573499,51.6253784 L41.5664155,34.0552629 C41.1396894,34.6638229 40.4322514,35.0617637 39.6317214,35.0617637 C38.9080016,35.0617637 38.2603667,34.7365236 37.8274467,34.2244531 L5.68434189e-14,72 L37.8274467,34.2244531 C37.4806766,33.8142834 37.2716687,33.2842423 37.2716687,32.7054623 C37.2716687,31.404113 38.3283003,30.349161 39.6317214,30.349161 C40.9351425,30.349161 41.9917741,31.404113 41.9917741,32.7054623 C41.9917741,33.2075541 41.8344838,33.672967 41.5664155,34.0552629 L59.1573499,51.6253784 C58.9704139,51.9628832 58.8640054,52.3510412 58.8640054,52.7640129 C58.8640054,54.0653621 59.920637,55.1203142 61.2240581,55.1203142 C62.5274792,55.1203142 63.5841108,54.0653621 63.5841108,52.7640129 C63.5841108,52.421809 63.5110465,52.0966432 63.3796434,51.8032175 L101.62882,13.6225904 C102.0268,14.3555965 102.802879,14.8543117 103.696425,14.8575666 C104.574203,14.860739 105.374198,14.3781829 105.78375,13.6170317 L123.24907,31.0545899 C123.640748,30.2947707 124.434005,29.7750803 125.348836,29.7750803 C126.035476,29.7750803 126.653628,30.0678472 127.084897,30.5351738 L133.826156,23.8046297 C134.258077,24.2823834 134.883213,24.5826491 135.578591,24.5826491 C136.284898,24.5826491 136.918736,24.2728719 137.351245,23.781975 L169.21768,55.5977566 C169.636326,54.9399192 170.372652,54.5033916 171.211096,54.5033916 C172.071855,54.5033916 172.824987,54.9634639 173.237259,55.6507459 L225.326515,3.64428692 C225.084034,3.27410112 224.94306,2.83163816 224.94306,2.35630132 C224.94306,1.05495204 225.999691,0 227.303112,0 C228.606533,0 229.663165,1.05495204 229.663165,2.35630132 C229.663165,2.82466437 229.526297,3.26111106 229.290316,3.62794709 L241,15.3116744 L229.290316,3.62794709 C228.870622,4.28036697 228.137425,4.71260264 227.303112,4.71260264 C226.475785,4.71260264 225.747886,4.28757406 225.326515,3.64428692 Z" id="Combined-Shape"></path>
            </g>
        </g>
    </g>
</svg>