<svg xmlns="http://www.w3.org/2000/svg" viewBox="0 0 1200 1200" fill="#293241">
  <defs>
    <pattern id="New_Pattern" width="12" height="12" data-name="New Pattern" patternUnits="userSpaceOnUse">
      <path fill="none" d="M0 0h12v12H0z"/>
      <circle cx="12" cy="9" r="2" class="cls-2"/>
      <circle cx="6" cy="12" r="2" class="cls-2"/>
      <circle cy="9" r="2" class="cls-2"/>
      <circle cx="12" cy="3" r="2" class="cls-2"/>
      <circle cx="6" cy="6" r="2" class="cls-2"/>
      <circle cy="3" r="2" class="cls-2"/>
      <circle cx="6" r="2" class="cls-2"/>
    </pattern>
    <style>
      .cls-8,.cls-9{fill:none}.cls-2{fill:#949494}.cls-5{fill:#ff6f61}.cls-6{fill:#f9f9f9}.cls-8,.cls-9{stroke:#000;stroke-linecap:round;stroke-width:2.5px}.cls-8{stroke-miterlimit:10}.cls-9{stroke-linejoin:round}
    </style>
  </defs>
  <path id="Shadows" fill="url(#New_Pattern)" d="M464 317c3 6 24 43 23 72l-33-15-2-10-7-28-5-11-6-14-5-6 12 3Zm-103 41c0-8 3 112 40 127-20 6-53 1-53 1l-10-10-3-7-2-27v-25l1-23 2-8 4-10 2-4 7 1c2 0 12-11 12-15Z"/>
  <g id="Vector">
    <path fill="#f3f3f3" d="M595 89v574h19v124h461V89H595z"/>
    <path d="M595 89h480v45H595zm111 102h403v115H706z" class="cls-5"/>
    <path d="M729 213h361v10H729zm0 25h361v10H729zm0 25h361v10H729z" class="cls-6"/>
    <path d="M706 352h403v115H706z" class="cls-5"/>
    <circle cx="759.4" cy="409.3" r="34.2" class="cls-6"/>
    <path d="M819 375h263v33H819zm0 44h263v12H819z" class="cls-6"/>
    <path fill="#fff" d="M642 517h379v186H642z"/>
    <path d="M614 1112V663H471v449m51-426v-20l12-1v10l25 11Zm-93 426V811H285v301m55-266v-21h12v9l25 12ZM99 1112V941h144v171" class="cls-8"/>
    <path d="M451 476c10 0 90 11 126 29l-37 162h-20s-7-116-9-115c-10 5-52 19-97 20"/>
    <path d="M474 332c6 5 17 14 19 18 28-34 72-68 76-72s5-26 5-31 6-17 13-17v57s-75 105-87 105c-7 0-33-11-46-18" class="cls-9"/>
    <path d="M429 305c20 3 46 16 46 21 0 6-13 29-23 38m-4-160a13 13 0 0 0 2-7c0-9-8-10-11-13-4-3-2-12-12-12-9 0-14 9-19 13-7 4-21 1-29 10-5 4-6 15-8 19-4 6-10 7-10 16 0 5 3 12 8 16" class="cls-8"/>
    <path d="M412 291c54 27 50 177 39 185-11 9-105 13-114 0-4-6-7-48-2-90m26-81c6-8 13-14 22-17" class="cls-8"/>
    <path d="M307 350c-15 17-37 62-37 70 0 20 67 108 76 108l9-19s-41-76-48-86c6-6 30-37 34-47a26 26 0 0 0 1-4" class="cls-8"/>
    <path d="M349 373c-8 1-44-18-44-28 0-8 40-49 57-39 2 1 4 3 5 7m45-22v-13m-29-22v36c0 5 8 7 15 7m14-21a19 19 0 0 0 4 0c14-4 22-24 17-46a58 58 0 0 0-4-11m-51 14a9 9 0 0 0 3 19 10 10 0 0 0 2 0v2" class="cls-8"/>
    <path d="M338 476v1l17 32-9 19c-2 0-5-3-8-6v304h17l96-350c-6 5-91 17-113 0Z"/>
    <path d="M340 825v21h37l-25-12v-9m170-159v20h37l-25-11v-10" class="cls-9"/>
  </g>
</svg>