<?xml version="1.0" encoding="UTF-8"?>
<svg width="800px" height="800px" viewBox="0 0 800 800" version="1.1" xmlns="http://www.w3.org/2000/svg" xmlns:xlink="http://www.w3.org/1999/xlink">
    <!-- Generator: Sketch 55.1 (78136) - https://sketchapp.com -->
    <title>organisation</title>
    <desc>Created with Sketch.</desc>
    <g id="organisation" stroke="none" stroke-width="1" fill="none" fill-rule="evenodd">
        <g transform="translate(91.000000, 41.000000)">
            <path d="M496.100257,215 C495.280206,219.075949 492.820051,221.521519 492,223.967089 L492,252.498734 C497.74036,261.465823 500.200514,274.508861 501.020566,289.182278 C502.660669,308.746835 515.781492,333.202532 515.781492,347.060759 C515.781492,356.027848 508.401029,371.516456 495.280206,376.407595 C499.380463,410.64557 493.640103,450.589873 492,453.850633 L506.760926,537 C539.562984,499.501266 562.524425,457.111392 574.005145,411.460759 C589.586122,346.24557 582.205659,275.324051 553.503859,223.151899 L496.100257,215 Z" id="Path" fill="#FFA266" fill-rule="nonzero"></path>
            <path d="M564.965669,663.669065 C561.716475,659.586331 517.852362,590.179856 515.415466,579.564748 L492.671111,453.816547 C490.234216,454.633094 484.548127,453.816547 478.04974,453 C456.117683,470.964029 460.991473,555.884892 462.61607,560.784173 C464.240667,565.683453 539.784418,675.100719 545.470507,680 C551.968894,680 565.777967,669.384892 564.965669,663.669065 Z" id="Path" fill="#293241" fill-rule="nonzero"></path>
            <path d="M488.976072,453.618703 C473.417079,453.618703 419.370049,441.357014 412,434 C412.818894,450.348919 424.283416,543.537757 425.10231,556.616892 C426.740099,571.330919 451.306931,686.590797 453.763614,689.043135 C456.220297,691.495473 472.598185,691.495473 475.054868,689.860581 C477.511551,688.225689 469.322607,569.696027 469.322607,561.521568 C469.322607,553.347108 489.794967,480.594419 488.976072,453.618703 Z" id="Path" fill="#293241" fill-rule="nonzero"></path>
            <path d="M519.626277,176.962573 C485.356934,146.768986 439.664476,133.7123 387.444525,128 L387.444525,191.651345 L396.419829,192.467388 C398.867639,189.203217 401.315449,186.755088 402.947323,186.755088 C404.579196,187.571131 406.21107,190.835302 407.842943,194.099474 L478.013503,203.891988 L478.013503,203.075946 C477.998732,201.193394 478.797269,199.39611 480.204165,198.145372 C481.611062,196.894635 483.489341,196.312218 485.356934,196.547603 L486.172871,196.547603 C489.777906,196.547603 492.700365,199.470441 492.700365,203.075946 L492.700365,205.524074 L493.516301,205.524074 C493.516301,203.891988 494.332238,201.44386 496.780048,201.44386 L498.411922,206.340117 L549,213.684503 C541.042155,200.083288 531.147185,187.712967 519.626277,176.962573 L519.626277,176.962573 Z M413.554501,203.075946 L411.10669,203.075946 C411.528808,204.679428 411.801947,206.318475 411.922627,207.972203 C412.173384,206.256583 412.725868,204.598915 413.554501,203.075946 L413.554501,203.075946 Z M478.82944,212.052417 L420.897931,204.708031 C420.290691,210.014528 418.323297,215.0742 415.186374,219.396803 C415.186374,225.109104 423.345742,287.128363 424.977615,290.392534 C425.793552,293.656706 434.768856,308.345478 438.84854,315.689864 C439.660648,315.578063 440.484242,315.578063 441.29635,315.689864 C442.928223,315.689864 447.007907,322.218207 450.271654,330.378636 C452.498663,328.8495 454.987878,327.743038 457.615085,327.114464 L457.615085,306.713392 C447.823844,302.633178 440.480413,290.392534 440.480413,275.703763 C440.544872,270.37185 441.65369,265.104276 443.74416,260.198948 C443.333847,258.870244 443.060446,257.503063 442.928223,256.118733 C442.928223,246.326219 453.535401,238.981833 471.486009,238.981833 C473.414158,239.04199 475.329702,239.315675 477.197567,239.797876 L480.461314,221.028889 C481.27725,216.132632 478.013503,212.86846 478.82944,212.052417 L478.82944,212.052417 Z M412.738564,434.016083 C412.266452,433.597544 411.974148,433.012859 411.922627,432.383997 C408.65888,416.879182 416.002311,385.053509 428.241362,359.75618 C421.257059,353.496877 415.453397,346.034055 411.10669,337.723022 L413.554501,332.010722 C409.474817,325.482379 402.947323,309.161521 402.131386,305.081306 L398.867639,223.477018 C398.867639,218.58076 393.156082,208.788246 393.156082,202.259903 C393.117178,201.71657 393.117178,201.17115 393.156082,200.627817 L386.628588,199.811774 L386.628588,390.76581 C386.851573,395.666978 385.059258,400.445889 381.668395,403.991343 C378.277532,407.536797 373.583579,409.539867 368.67798,409.534796 L95.3391708,409.534796 C90.4335719,409.539867 85.7396186,407.536797 82.3487558,403.991343 C78.9578929,400.445889 77.1655779,395.666978 77.3885624,390.76581 L77.3885624,141.056686 C63.5176378,147.585029 51.2785866,154.929415 40.671409,165.537973 C-7.46885887,213.684503 -6.65292213,313.241735 11.2976862,414.431053 C29.2482946,515.620371 65.1495113,618.441775 137.767881,657.611834 C210.386252,696.781892 318.905838,672.300606 404.579196,622.521989 L434.768856,602.93696 L425.793552,556.422516 C424.977615,543.365829 413.554501,450.33694 412.738564,434.016083 Z M470.670073,573.559416 L470.670073,574.375459 L471.486009,574.375459 L470.670073,573.559416 Z" id="Shape" fill="#FFA266" fill-rule="nonzero"></path>
            <rect id="Rectangle" stroke="#000000" stroke-width="2.5" stroke-linecap="round" stroke-linejoin="round" x="478" y="197" width="14" height="17" rx="7"></rect>
            <path d="M457.5,326 L457.5,306" id="Path" stroke="#000000" stroke-width="2.5" stroke-linecap="round" stroke-linejoin="round"></path>
            <rect id="Rectangle" stroke="#000000" stroke-width="2.5" stroke-linecap="round" stroke-linejoin="round" x="77" y="99" width="310" height="310" rx="22.4"></rect>
            <path d="M251.079208,240.908553 C259.785582,232.951051 262.7399,220.409087 258.512675,209.351257 C254.285451,198.293426 243.748394,191 232,191 C220.251606,191 209.714549,198.293426 205.487325,209.351257 C201.2601,220.409087 204.214418,232.951051 212.920792,240.908553 L191,331 L273,331 L251.079208,240.908553 Z" id="Path" fill="#293241" fill-rule="nonzero"></path>
            <path d="M133,100 C133,44.771525 177.547667,0 232.5,0 C287.452333,0 332,44.771525 332,100" id="Path" stroke="#000000" stroke-width="2.5" stroke-linecap="round" stroke-linejoin="round"></path>
            <ellipse id="Oval" stroke="#000000" stroke-width="2.5" stroke-linecap="round" stroke-linejoin="round" cx="464.5" cy="276" rx="23.5" ry="32"></ellipse>
            <path d="M428.026453,359.572712 C415.835847,384.956957 408.521483,416.891976 411.772312,432.450062 C413.397726,440.638528 481.665118,456.196614 492.23031,453.740075 C495.481138,448.826995 510.922572,326 460.534735,326 C456.688747,326.282464 453.012158,327.707219 449.969543,330.094233" id="Path" stroke="#000000" stroke-width="2.5" stroke-linecap="round" stroke-linejoin="round"></path>
            <path d="M456.84274,367 C462.570317,352.997937 445.387587,315.933654 441.296461,315.110003 C432.295983,313.462702 410.203901,330.759367 411.022126,337.348573 C411.022126,340.643176 424.931956,358.763493 437.205334,367" id="Path" stroke="#000000" stroke-width="2.5" stroke-linecap="round" stroke-linejoin="round"></path>
            <path d="M301.083333,181 L591,219.896552 L590.183333,228 L300.266667,189.103448 L301.083333,181 Z M300.266667,189.103448 L318.233333,191.534483 L314.966667,215.034483 L297,212.603448 L300.266667,189.103448 Z" id="Shape" fill="#293241" fill-rule="nonzero"></path>
            <polygon id="Path" fill="#293241" fill-rule="nonzero" points="326.25 191 336 192.625 332.75 217 323 215.375"></polygon>
            <path d="M493.2,260 C492.4,256.738369 491.6,228.199101 492.4,224.122063 C493.2,220.045024 496.4,217.598801 498,211.890948 L496.4,202.106056 C493.2,201.290648 493.2,205.367686 492.4,207.813909 C491.6,215.967986 488.4,214.337171 486.8,214.337171 L478.8,212.706355 C477.2,212.706355 481.2,215.967986 480.4,221.67584 L474,257.553777 L493.2,260 Z" id="Path" stroke="#000000" stroke-width="2.5" stroke-linecap="round" stroke-linejoin="round"></path>
            <polygon id="Path" fill="#293241" fill-rule="nonzero" points="342.25 193 352 194.625 348.75 219 339 217.375"></polygon>
            <path d="M300.629846,188 L351.155076,194.574603 L350.340153,203.614681 L299,197.040078 L300.629846,188 Z M598.89169,201.97103 C590.03285,200.363445 581.096408,204.359493 576.330075,212.059754 C571.563743,219.760015 571.928805,229.611481 577.25174,236.931507 C582.574675,244.251533 591.781939,247.563798 600.497092,245.2939 C609.212245,243.024002 615.677594,235.62974 616.819997,226.62579 C618.307201,214.904271 610.424301,204.063817 598.89169,201.97103 L598.89169,201.97103 Z M610.300613,225.803965 C609.560083,231.788523 605.291152,236.720526 599.511333,238.269092 C593.731513,239.817658 587.598193,237.672692 584.009999,232.847912 C580.421805,228.023132 580.097262,221.484683 583.189749,216.322659 C586.282236,211.160635 592.172494,208.408712 598.076767,209.367458 C605.874947,210.633741 611.278682,217.899745 610.300613,225.803965 L610.300613,225.803965 Z" id="Shape" fill="#293241" fill-rule="nonzero"></path>
            <polygon id="Path" stroke="#000000" stroke-width="2.5" stroke-linecap="round" stroke-linejoin="round" points="563.058824 666 582 688.830769 560.588235 719 540 719 558.117647 694.538462 548.235294 678.230769"></polygon>
            <path d="M474.18,688.809816 L475,719 L415.14,719 L457.78,701.04908 L458.6,688.809816 M413.5,332.239264 C409.4,325.711656 402.84,309.392638 402.02,305.312883 L398.74,223.717791 C398.74,218.822086 393,209.030675 393,202.503067 C393,195.97546 399.56,187 402.84,187 C406.94,189.447853 411.86,204.134969 411.86,208.214724 C412.68,200.055215 419.24,198.423313 420.88,198.423313 C422.52,198.423313 421.7,210.662577 415.14,219.638037 C415.14,225.349693 423.34,287.361963 424.98,290.625767 C425.8,293.889571 434.82,307.760736 438.92,315.920245" id="Shape" stroke="#000000" stroke-width="2.5" stroke-linecap="round" stroke-linejoin="round"></path>
            <path d="M413.535714,332 C409.428571,325.483146 402.857143,309.191011 402.035714,305.117978 L398.75,223.657303 C398.75,218.769663 393,208.994382 393,202.477528 C393,195.960674 399.571429,187 402.857143,187 C406.964286,189.44382 411.892857,204.106742 411.892857,208.179775 C412.714286,200.033708 419.285714,198.404494 420.928571,198.404494 C422.571429,198.404494 421.75,210.623596 415.178571,219.58427 C415.178571,225.286517 423.392857,287.196629 425.035714,290.455056 C425.857143,293.713483 434.892857,307.561798 439,315.707865" id="Path" stroke="#000000" stroke-width="2.5" stroke-linecap="round" stroke-linejoin="round"></path>
            <path d="M501.4,288.876471 C500.588889,261.894118 491.666667,239 471.388889,239 C453.544444,239 443,246.358824 443,256.170588 C443,265.982353 449.488889,272.523529 459.222222,275.794118 C461.129796,273.395246 464.437163,272.659296 467.169252,274.025756 C469.90134,275.392216 471.320684,278.492243 470.57969,281.474582 C469.838695,284.45692 467.137376,286.516556 464.088889,286.423529 C463.818864,286.443022 463.547802,286.443022 463.277778,286.423529 C464.088889,292.964706 465.711111,295.417647 465.711111,301.958824 C465.711111,322.4 461.655556,312.588235 461.655556,346.111765 C461.655556,367.370588 470.577778,378 485.988889,378 C505.455556,378 516,357.558824 516,346.929412 C516,333.029412 503.022222,308.5 501.4,288.876471 Z" id="Path" fill="#293241" fill-rule="nonzero"></path>
            <path d="M458,277.222665 C458.971336,274.70821 461.439159,273.030696 464.211432,273.000416 C466.983705,272.970137 469.489977,274.593321 470.519639,277.085921 C471.549301,279.578521 470.890479,282.427632 468.861405,284.257044 C466.832331,286.086456 463.850528,286.51973 461.356302,285.34758" id="Path" stroke="#000000" stroke-width="2.5" stroke-linecap="round" stroke-linejoin="round"></path>
        </g>
    </g>
</svg>