<?xml version="1.0" encoding="UTF-8"?>
<svg width="800px" height="800px" viewBox="0 0 800 800" version="1.1" xmlns="http://www.w3.org/2000/svg" xmlns:xlink="http://www.w3.org/1999/xlink">
    <!-- Generator: Sketch 55.1 (78136) - https://sketchapp.com -->
    <title>strategie</title>
    <desc>Created with Sketch.</desc>
    <g id="strategie" stroke="none" stroke-width="1" fill="none" fill-rule="evenodd">
        <g transform="translate(14.000000, 81.000000)">
            <path d="M350,419.4135 C350,414.858532 350,389.047044 355.301775,376.141299 L360.60355,370.068008 L355.301775,363.235555 L356.059172,357.921425 L366.662722,343.497358 L381.053254,328.31413 L391.656805,323 L400.745562,323.759161 L403.017751,324.518323 L393.928994,335.146583 L387.869822,350.329811 L384.08284,361.717232 L381.053254,370.068008 L378.781065,382.973752 L377.266272,391.324528 L375.751479,403.471111 L365.905325,411.062725 L354.544379,420.172662 L350,419.4135 Z M456.792899,380.696268 C456.792899,384.492075 437.857988,464.204024 404.532544,482.423898 C452.248521,487.738028 462.852071,483.18306 462.852071,483.18306 L472.698225,478.628091 L477.242604,464.963186 L478,440.67002 L478,420.931823 L476.485207,394.361173 L471.183432,389.806205 L462.852071,389.806205 L459.065089,386.010398 L456.792899,380.696268 Z" id="Shadows" fill="#F3F3F3" fill-rule="nonzero"></path>
            <g id="Vector">
                <path d="M4.55457227,163.359096 L4.55457227,346.473246 L274.033432,346.473246 L270.237955,341.914388 L271.756146,330.517241 L275.551622,322.919144 L268.719764,317.600476 L262.647001,312.281807 L259.610619,305.44352 L262.647001,300.884661 L294.529007,328.997622 L314.265487,346.473246 L325.651917,346.473246 L325.651917,163.359096 L4.55457227,163.359096 Z M549.585054,280.369798 L549.585054,396.62069 C564.766962,401.179548 585.262537,407.258026 604.239921,410.297265 C607.362125,409.013616 610.744863,408.492705 614.108161,408.777646 C623.217306,408.777646 630.80826,414.096314 630.80826,420.934602 C630.80826,427.772889 623.217306,433.851367 614.108161,433.851367 C609.751651,433.961904 605.481086,432.626096 601.962635,430.052319 L549.585054,423.214031 L549.585054,629.882283 L730.249754,629.882283 L730.249754,280.369798 L549.585054,280.369798 Z" id="Shape" fill="#F3F3F3" fill-rule="nonzero"></path>
                <path d="M601.962635,430.052319 L564.766962,424.73365 L564.766962,430.052319 L602.721731,430.052319 L601.962635,430.052319 Z M565.526057,401.179548 C577.671583,404.978597 591.3353,408.777646 604.239921,410.297265 C607.362125,409.013616 610.744863,408.492705 614.108161,408.777646 C623.217306,408.777646 630.80826,414.096314 630.80826,420.934602 C630.80826,424.73365 628.530973,427.772889 625.494592,430.052319 L715.826942,430.052319 L715.826942,401.179548 L565.526057,401.179548 Z M772,629.882283 L729.490659,629.882283 L729.490659,281.129608 L772,281.129608 L772,629.882283 Z M715.067847,331.277051 L564.007866,331.277051 L564.007866,302.404281 L715.067847,302.404281 L715.067847,331.277051 Z" id="Shape" fill="#B76CA4" fill-rule="nonzero"></path>
                <ellipse id="Oval" fill="#F3F3F3" fill-rule="nonzero" cx="575.318387" cy="313.725446" rx="5.08593904" ry="5.09072533"></ellipse>
                <path d="M663.449361,313.801427 L584.503441,313.801427" id="Path" stroke="#B76CA4" stroke-width="4" stroke-linecap="round" stroke-linejoin="round"></path>
                <polygon id="Path" fill="#B76CA4" fill-rule="nonzero" points="715.067847 381.424495 564.007866 381.424495 564.007866 352.551724 715.067847 352.551724"></polygon>
                <ellipse id="Oval" fill="#F3F3F3" fill-rule="nonzero" cx="575.318387" cy="362.961118" rx="5.08593904" ry="5.09072533"></ellipse>
                <path d="M663.449361,363.189061 L584.503441,363.189061 M663.449361,412.576694 L625.494592,412.576694" id="Shape" stroke="#B76CA4" stroke-width="4" stroke-linecap="round" stroke-linejoin="round"></path>
                <polygon id="Path" fill="#B76CA4" fill-rule="nonzero" points="715.067847 479.439952 564.007866 479.439952 564.007866 450.567182 715.067847 450.567182"></polygon>
                <ellipse id="Oval" fill="#F3F3F3" fill-rule="nonzero" cx="575.318387" cy="461.432461" rx="5.08593904" ry="5.09072533"></ellipse>
                <path d="M663.449361,461.204518 L584.503441,461.204518" id="Path" stroke="#B76CA4" stroke-width="4" stroke-linecap="round" stroke-linejoin="round"></path>
                <polygon id="Path" fill="#B76CA4" fill-rule="nonzero" points="715.067847 528.827586 564.007866 528.827586 564.007866 499.954816 715.067847 499.954816"></polygon>
                <ellipse id="Oval" fill="#F3F3F3" fill-rule="nonzero" cx="575.318387" cy="510.668133" rx="5.08593904" ry="5.09072533"></ellipse>
                <path d="M663.449361,510.592152 L584.503441,510.592152" id="Path" stroke="#B76CA4" stroke-width="4" stroke-linecap="round" stroke-linejoin="round"></path>
                <path d="M762.13176,323.678954 L739.358899,323.678954 M762.13176,329.757432 L739.358899,329.757432 M762.13176,363.94887 L739.358899,363.94887 M762.13176,369.267539 L739.358899,369.267539 M762.13176,412.576694 L739.358899,412.576694 M762.13176,417.895363 L739.358899,417.895363 M762.13176,458.925089 L739.358899,458.925089 M762.13176,465.003567 L739.358899,465.003567" id="Shape" stroke="#F3F3F3" stroke-width="2" stroke-linecap="round" stroke-linejoin="round"></path>
                <rect id="Rectangle" fill="#B76CA4" fill-rule="nonzero" x="27.3274336" y="189.952438" width="182.031072" height="132.282878" rx="23.6"></rect>
                <path d="M470.639135,389.782402 C482.784661,398.900119 510.87119,415.615933 518.462144,417.895363 C526.812193,420.174792 590.576205,428.532699 601.962635,430.052319 C605.481086,432.626096 609.751651,433.961904 614.108161,433.851367 C623.217306,433.851367 630.80826,427.772889 630.80826,420.934602 C630.80826,414.096314 623.217306,408.777646 614.108161,408.777646 C610.744863,408.492705 607.362125,409.013616 604.239921,410.297265 C573.117011,405.738407 538.198623,392.061831 529.848574,389.782402 C523.775811,382.944114 511.630285,373.066587 504.039331,366.2283 M293.769912,352.551724 C315.024582,384.463734 343.111111,420.174792 352.220256,420.174792 C356.015733,420.174792 367.402163,411.057075 375.752212,402.699168 M359.811209,370.027348 L352.220256,380.664685 C346.906588,376.865636 264.924287,300.883879 263.406096,300.883879 C261.573789,300.847675 259.976783,302.126482 259.610619,303.9239 C259.610619,314.561237 267.201573,314.561237 276.310718,324.438763" id="Shape" stroke="#000000" stroke-width="2.5" stroke-linecap="round" stroke-linejoin="round"></path>
                <path d="M402.320551,324.438763 C383.343166,314.561237 354.497542,355.590963 355.256637,362.429251 C355.256637,366.988109 367.402163,376.865636 378.788594,382.944114" id="Path" stroke="#000000" stroke-width="2.5" stroke-linecap="round" stroke-linejoin="round"></path>
                <path d="M476.711898,394.34126 C481.26647,434.611177 477.470993,474.881094 472.916421,478.680143 C460.011799,488.557669 379.547689,479.439952 374.993117,474.121284 C371.19764,468.802616 367.402163,321.399524 423.575221,311.521998 M438.757129,312.281807 C445.588987,314.561237 451.66175,319.879905 456.216323,326.718193" id="Shape" stroke="#000000" stroke-width="2.5" stroke-linecap="round" stroke-linejoin="round"></path>
                <path d="M450.143559,333.55648 C451.214387,330.809279 453.060647,328.433283 455.457227,326.718193 C474.434612,315.321046 504.798427,357.870392 504.039331,364.70868 C503.280236,371.546968 475.952802,392.061831 463.807276,389.782402 C461.52999,389.782402 457.734513,384.463734 454.698132,376.865636 M276.310718,324.438763 C269.930289,329.782369 268.452201,339.011642 272.84423,346.083728 C277.236258,353.155815 286.158834,355.913726 293.769912,352.551724" id="Shape" stroke="#000000" stroke-width="2.5" stroke-linecap="round" stroke-linejoin="round"></path>
                <path d="M94.8869223,1.5196195 L324.133727,1.5196195 L324.133727,137.525565 L94.8869223,137.525565 L94.8869223,1.5196195 Z M0,0 L80.4641101,0 L80.4641101,136.005945 L0,136.005945 L0,0 Z" id="Shape" fill="#F3F3F3" fill-rule="nonzero"></path>
                <path d="M119.177974,117.770511 C126.009833,109.412604 137.396264,96.4958383 159.410029,91.17717 C191.292035,84.3388823 200.40118,47.1082045 216.342183,47.1082045 C235.319567,47.1082045 243.669617,58.5053508 251.26057,58.5053508 C267.960669,58.5053508 284.660767,43.3091558 293.010816,21.274673" id="Path" stroke="#D0D0D0" stroke-width="3" stroke-linecap="round" stroke-linejoin="round"></path>
                <path d="M12.1455261,21.274673 L69.0776794,21.274673 L69.0776794,26.5933413 L12.1455261,26.5933413 L12.1455261,21.274673 Z M12.1455261,38.7502973 L69.0776794,38.7502973 L69.0776794,44.0689655 L12.1455261,44.0689655 L12.1455261,38.7502973 Z M12.1455261,56.9857313 L69.0776794,56.9857313 L69.0776794,62.3043995 L12.1455261,62.3043995 L12.1455261,56.9857313 Z M12.1455261,74.4613555 L69.0776794,74.4613555 L69.0776794,79.7800238 L12.1455261,79.7800238 L12.1455261,74.4613555 Z M12.1455261,91.9369798 L69.0776794,91.9369798 L69.0776794,97.255648 L12.1455261,97.255648 L12.1455261,91.9369798 Z M12.1455261,109.412604 L69.0776794,109.412604 L69.0776794,114.731272 L12.1455261,114.731272 L12.1455261,109.412604 Z" id="Shape" fill="#B76CA4" fill-rule="nonzero"></path>
                <path d="M40.2320551,208.187872 L116.900688,208.187872 L116.900688,213.50654 L40.2320551,213.50654 L40.2320551,208.187872 Z M40.2320551,225.663496 L116.900688,225.663496 L116.900688,230.982164 L40.2320551,230.982164 L40.2320551,225.663496 Z M40.2320551,243.13912 L116.900688,243.13912 L116.900688,248.457788 L40.2320551,248.457788 L40.2320551,243.13912 Z M40.2320551,260.614744 L116.900688,260.614744 L116.900688,265.933413 L40.2320551,265.933413 L40.2320551,260.614744 Z M40.2320551,278.090369 L116.900688,278.090369 L116.900688,283.409037 L40.2320551,283.409037 L40.2320551,278.090369 Z M40.2320551,295.565993 L116.900688,295.565993 L116.900688,300.884661 L40.2320551,300.884661 L40.2320551,295.565993 Z" id="Shape" fill="#FFFFFF" fill-rule="nonzero"></path>
                <rect id="Rectangle" fill="#FFFFFF" fill-rule="nonzero" x="148.782694" y="178.555291" width="129.122124" height="77.9564804" rx="23.6"></rect>
                <ellipse id="Oval" fill="#B76CA4" fill-rule="nonzero" cx="209.813963" cy="188.432818" rx="4.32684366" ry="4.33091558"></ellipse>
                <ellipse id="Oval" fill="#B76CA4" fill-rule="nonzero" cx="209.813963" cy="246.406302" rx="4.32684366" ry="4.33091558"></ellipse>
                <path d="M209.510324,189.952438 L209.510324,245.418549 M220.13766,196.790725 L220.13766,229.462545 M209.510324,246.178359 L220.13766,229.462545" id="Shape" stroke="#D0D0D0" stroke-width="2" stroke-linecap="round" stroke-linejoin="round"></path>
                <path d="M614.867257,183.11415 C605.02238,172.710181 603.538203,156.92583 611.27084,144.865963 C619.003478,132.806096 633.958061,127.581923 647.508358,132.206897 C655.817618,118.350813 671.25177,110.402425 687.345754,111.691155 C703.439737,112.979886 717.415122,123.28325 723.417896,138.285375 C735.752768,133.579489 749.711707,137.174147 758.246107,147.254217 C766.780507,157.334286 768.033613,171.706733 761.372665,183.11415 L614.867257,183.11415 Z" id="Path" fill="#293241" fill-rule="nonzero"></path>
                <path d="M744.672566,180.074911 L744.672566,284.168847" id="Path" stroke="#DFDFDF" stroke-width="4"></path>
                <path d="M545.030482,237.820452 C550.344149,248.457788 562.489676,252.256837 571.59882,252.256837 C594.371681,252.256837 602.721731,230.222354 602.721731,222.624257 M543.512291,127.648038 C548.066863,137.525565 551.103245,147.403092 551.103245,155.760999 C551.103245,177.035672 547.307768,191.472057 545.030482,203.629013 M429.647984,113.971463 C444.829892,101.054697 461.52999,91.9369798 482.025565,91.9369798 C499.484759,91.9369798 512.389381,96.4958383 523.016716,104.853746 M346.906588,180.834721 C362.847591,180.834721 377.270403,167.158145 393.211406,150.442331" id="Shape" stroke="#DFDFDF" stroke-width="4" stroke-linecap="round" stroke-linejoin="round"></path>
                <polygon id="Path" fill="#B76CA4" fill-rule="nonzero" points="398.525074 118.530321 421.297935 118.530321 421.297935 141.324614 398.525074 141.324614"></polygon>
                <ellipse id="Oval" fill="#B76CA4" fill-rule="nonzero" cx="533.492232" cy="114.427348" rx="9.94414946" ry="9.95350773"></ellipse>
                <polygon id="Path" fill="#B76CA4" fill-rule="nonzero" points="560.971485 221.104637 538.957719 206.668252 537.439528 233.261593"></polygon>
                <path d="M438.757129,291.007134 L438.757129,321.399524 C438.757129,323.678954 430.40708,325.198573 423.575221,324.438763 M423.575221,304.68371 C422.836283,304.993909 422.07503,305.247899 421.297935,305.44352 C408.393314,304.68371 399.284169,291.007134 399.284169,274.29132 C399.38871,267.606783 401.219242,261.063015 404.597837,255.296076 M441.034415,269.732461 C443.748592,270.031008 446.024501,271.918523 446.822063,274.53242 C447.619625,277.146316 446.785645,279.984519 444.701247,281.749982 C442.616848,283.515446 439.682403,283.869061 437.238938,282.649227 M450.143559,273.53151 C453.939036,270.492271 454.698132,251.497027 444.829892,245.418549 C435.720747,239.340071 409.911504,237.820452 397.765978,222.624257 M403.838741,243.89893 C400.80236,242.37931 392.452311,230.982164 390.93412,227.183115 M395.488692,248.457788 C392.452311,245.418549 390.175025,240.099881 389.415929,236.300832" id="Shape" stroke="#000000" stroke-width="2.5" stroke-linecap="round" stroke-linejoin="round"></path>
                <ellipse id="Oval" fill="#293241" fill-rule="nonzero" transform="translate(416.395944, 270.707894) rotate(-10.000000) translate(-416.395944, -270.707894) " cx="416.395944" cy="270.707894" rx="1.67005725" ry="1.97544934"></ellipse>
                <path d="M409.152409,268.212842 C409.152409,270.492271 407.634218,276.570749 405.356932,281.129608 M413.706981,290.247325 C415.565123,289.760655 417.016246,288.308166 417.502458,286.448276" id="Shape" stroke="#000000" stroke-width="2.5" stroke-linecap="round" stroke-linejoin="round"></path>
                <path d="M374.993117,474.121284 L374.993117,639 L469.120944,639 L469.120944,480.199762 C449.384464,487.79786 379.547689,479.439952 374.993117,474.121284 Z" id="Path" fill="#293241" fill-rule="nonzero"></path>
                <path d="M518.462144,417.895363 C526.812193,420.174792 590.576205,428.532699 601.962635,430.052319" id="Path" stroke="#000000" stroke-width="2.5" stroke-linecap="round" stroke-linejoin="round"></path>
            </g>
        </g>
    </g>
</svg>