<svg xmlns="http://www.w3.org/2000/svg" viewBox="0 0 600 600" fill="#ffffff">
  <circle cx="300" cy="300" r="298" fill="#212323"/>
  <path d="M208.88 207.17c10.64-11.77 23.8-21.1 39.13-27.72 12.09-5.21 25.51-8.33 39.96-9.46-14.55-5.19-30.4-7.95-47.73-7.95-20.21 0-38.55 3.53-54.96 10.6-16.43 7.08-30.33 16.95-41.69 29.57-11.37 12.64-20.09 27.29-26.16 43.97-6.06 16.68-9.09 34.61-9.09 53.82s3.03 36.52 9.09 53.45c6.06 16.93 14.79 31.58 26.16 43.95 11.37 12.39 25.27 22.26 41.69 29.57 16.41 7.34 34.75 10.98 54.96 10.98 17.41 0 33.22-2.78 47.64-8.04-14.11-1.2-27.85-4.38-39.79-9.72-15.38-6.85-28.59-16.21-39.24-27.82-10.66-11.6-18.94-25.54-24.61-41.42-5.77-16.1-8.69-33.24-8.69-50.96s2.91-35.46 8.67-51.29c5.69-15.67 13.99-29.65 24.67-41.54Z" />
  <path d="M477.89 226.4c-9.23-23.36-22.26-43.91-38.7-61.13-16.54-17.33-36.85-31.29-60.4-41.48-23.55-10.23-50.05-15.4-78.74-15.4-20.09 0-39.11 2.63-56.95 7.54 26.65.33 51 5.14 72.94 14.66 22.74 9.84 42.08 23.13 57.99 39.8 15.93 16.68 28.3 36.27 37.16 58.74 8.42 21.45 12.72 44.2 13.11 68.18.01.92.22 1.78.22 2.7 0 4.86-.25 9.64-.69 14.36-1.36 21.12-5.71 41.02-13.42 59.55-9.34 22.49-22.24 41.95-38.64 58.37-16.45 16.43-35.9 29.19-58.37 38.28-21.48 8.68-44.71 13.09-69.62 13.49 17.75 4.98 36.58 7.57 56.27 7.57 27.08 0 52.64-4.77 75.94-14.19 23.3-9.42 43.76-22.85 60.84-39.92 17.04-17.04 30.58-37.51 40.25-60.77 9.67-23.28 14.57-48.86 14.57-76s-4.63-51.02-13.76-74.36Z" />
</svg>