<svg xmlns="http://www.w3.org/2000/svg" viewBox="0 0 600 155"><path d="M174.202 145.012c-9.943 0-18.839-2.203-26.688-6.609-7.85-4.406-13.998-10.53-18.446-18.37-4.448-7.84-6.672-16.684-6.672-26.533 0-9.979 2.224-18.888 6.672-26.728 4.448-7.84 10.596-13.931 18.446-18.273 7.85-4.34 16.745-6.512 26.688-6.512 8.242 0 15.731 1.588 22.469 4.763 6.737 3.175 12.2 7.808 16.386 13.899l-7.261 5.248c-3.663-5.054-8.21-8.845-13.639-11.372-5.429-2.527-11.414-3.79-17.955-3.79-7.98 0-15.143 1.782-21.488 5.345-6.345 3.564-11.316 8.586-14.914 15.065-3.598 6.48-5.396 13.931-5.396 22.355 0 8.423 1.798 15.875 5.396 22.354 3.598 6.48 8.57 11.501 14.914 15.065 6.345 3.564 13.508 5.346 21.488 5.346 6.541 0 12.526-1.264 17.955-3.79 5.43-2.528 9.976-6.318 13.639-11.372l7.26 5.248c-4.186 6.091-9.648 10.724-16.385 13.899-6.738 3.175-14.227 4.762-22.47 4.762Zm-122.985 0c-9.68 0-18.413-2.203-26.197-6.609-7.784-4.406-13.9-10.53-18.348-18.37C2.224 112.194 0 103.35 0 93.5c0-9.85 2.224-18.694 6.672-26.534 4.448-7.84 10.564-13.963 18.348-18.37 7.784-4.406 16.516-6.609 26.197-6.609 9.681 0 18.414 2.203 26.198 6.61 7.784 4.406 13.9 10.529 18.348 18.37 4.448 7.84 6.672 16.684 6.672 26.533s-2.224 18.693-6.672 26.534c-4.448 7.84-10.564 13.963-18.348 18.37-7.784 4.405-16.517 6.608-26.198 6.608Zm0-8.747c7.85 0 14.882-1.814 21.096-5.443 6.214-3.629 11.12-8.682 14.717-15.162 3.598-6.48 5.397-13.866 5.397-22.16s-1.799-15.68-5.397-22.16c-3.597-6.48-8.503-11.534-14.717-15.162-6.214-3.629-13.246-5.443-21.096-5.443-7.849 0-14.88 1.814-21.095 5.443-6.214 3.628-11.12 8.682-14.718 15.162-3.597 6.48-5.396 13.866-5.396 22.16s1.799 15.68 5.396 22.16c3.598 6.48 8.504 11.533 14.718 15.162 6.214 3.629 13.246 5.443 21.095 5.443Zm375.366-94.278c9.55 0 18.185 2.171 25.903 6.512 7.719 4.342 13.77 10.432 18.152 18.273 4.383 7.84 6.574 16.75 6.574 26.728 0 9.978-2.191 18.855-6.574 26.63-4.383 7.776-10.433 13.867-18.152 18.273-7.718 4.406-16.353 6.61-25.903 6.61-9.158 0-17.432-2.171-24.824-6.513-7.391-4.341-13.115-10.4-17.17-18.175v23.91h-9.42V0h9.812v65.897c4.056-7.516 9.746-13.38 17.073-17.592 7.326-4.212 15.502-6.318 24.53-6.318Zm-.589 94.278c7.85 0 14.914-1.814 21.194-5.443 6.28-3.629 11.218-8.682 14.816-15.162 3.597-6.48 5.396-13.866 5.396-22.16s-1.799-15.68-5.396-22.16c-3.598-6.48-8.537-11.534-14.816-15.162-6.28-3.629-13.344-5.443-21.194-5.443s-14.88 1.814-21.095 5.443c-6.214 3.628-11.12 8.682-14.718 15.162-3.597 6.48-5.396 13.866-5.396 22.16s1.799 15.68 5.396 22.16c3.598 6.48 8.504 11.533 14.718 15.162 6.214 3.629 13.246 5.443 21.095 5.443Zm122.789 9.332c-9.681 0-18.414-2.203-26.198-6.609-7.784-4.406-13.9-10.53-18.348-18.37-4.448-7.84-6.672-16.684-6.672-26.533 0-9.85 2.224-18.694 6.672-26.534 4.448-7.84 10.564-13.963 18.348-18.37 7.784-4.406 16.517-6.609 26.198-6.609 9.68 0 18.413 2.203 26.197 6.61 7.784 4.406 13.9 10.529 18.348 18.37 4.448 7.84 6.672 16.684 6.672 26.533s-2.224 18.693-6.672 26.534c-4.448 7.84-10.564 13.963-18.348 18.37-7.784 4.405-16.516 6.608-26.197 6.608Zm0-8.747c7.849 0 14.88-1.814 21.095-5.443 6.214-3.629 11.12-8.683 14.718-15.162 3.597-6.48 5.396-13.866 5.396-22.16s-1.799-15.68-5.396-22.16c-3.598-6.48-8.504-11.534-14.718-15.162-6.214-3.629-13.246-5.443-21.095-5.443-7.85 0-14.882 1.814-21.096 5.443-6.214 3.628-11.12 8.682-14.717 15.162-3.598 6.48-5.397 13.866-5.397 22.16s1.799 15.68 5.397 22.16c3.597 6.48 8.503 11.533 14.717 15.162 6.214 3.629 13.246 5.443 21.096 5.443Zm-289.886 6.402a52.526 52.526 0 0 0 15.828 2.425c29.023 0 52.55-23.527 52.55-52.55 0-29.023-23.527-52.55-52.55-52.55-5.516 0-10.833.85-15.828 2.425 9.94-6.977 22.051-11.073 35.119-11.073 33.798 0 61.198 27.4 61.198 61.198 0 33.799-27.4 61.198-61.198 61.198-13.068 0-25.178-4.096-35.119-11.073Zm35.119-83.385c-18.37 0-33.26 14.891-33.26 33.26s14.89 33.26 33.26 33.26c2.47 0 4.876-.27 7.193-.78a41.734 41.734 0 0 1-26.484 9.427c-23.145 0-41.907-18.762-41.907-41.907 0-23.145 18.762-41.907 41.907-41.907a41.734 41.734 0 0 1 26.484 9.427 33.38 33.38 0 0 0-7.193-.78Z"  /></svg>